<svg xmlns="http://www.w3.org/2000/svg" version="1.1" xmlns:xlink="http://www.w3.org/1999/xlink" width="512" height="512" x="0" y="0" viewBox="0 0 512 512" style="enable-background:new 0 0 512 512" xml:space="preserve" class=""><g><path fill="#db5c6e" d="M413.895 475.106C413.358 495.615 396.621 512 376.102 512H54.194c-20.52 0-37.246-16.385-37.783-36.894-4.3-163.425 31.467-288.259 48.296-337.404 4.673-13.645 17.501-22.794 31.912-22.794h237.058c14.421 0 27.249 9.148 31.922 22.794 9.448 27.601 24.872 79.071 35.819 147.836a1036.49 1036.49 0 0 1 12.477 189.568z" opacity="1" data-original="#db5c6e"></path><path fill="#d64553" d="M413.895 475.106C413.358 495.615 396.621 512 376.102 512H197.76a30.91 30.91 0 0 1-27.849-17.481c-14.266-29.555-39.789-94.453-38.538-178.434.248-16.922 13.997-30.547 30.919-30.547h239.125a1036.394 1036.394 0 0 1 12.478 189.568zM129.347 114.908c-10.441 0-19.724 9.148-23.104 22.794-12.188 49.144-38.073 173.979-34.961 337.404C71.664 495.615 83.78 512 98.635 512H54.194c-20.52 0-37.246-16.385-37.783-36.894-4.3-163.425 31.457-288.259 48.286-337.404 4.673-13.645 17.501-22.794 31.922-22.794z" opacity="1" data-original="#d64553" class=""></path><path fill="#407093" d="M296.228 211.44c-9.226 0-16.705-7.479-16.705-16.705V97.782c0-35.495-28.877-64.372-64.372-64.372s-64.372 28.877-64.372 64.372v96.952c0 9.226-7.479 16.705-16.705 16.705s-16.705-7.479-16.705-16.705V97.782C117.369 43.865 161.233 0 215.151 0s97.782 43.865 97.782 97.782v96.952c0 9.226-7.479 16.706-16.705 16.706z" opacity="1" data-original="#407093" class=""></path><g fill="#365e7d"><path d="M296.572 194.734V97.782c0-35.495-28.877-64.372-64.372-64.372-2.891 0-5.733.211-8.525.582 31.477 4.186 55.847 31.187 55.847 63.79v96.952c0 9.226 7.479 16.705 16.705 16.705a16.6 16.6 0 0 0 8.525-2.358c-4.891-2.913-8.18-8.239-8.18-14.347zM134.418 194.734V97.782c0-51.045 39.318-93.072 89.257-97.407A98.893 98.893 0 0 0 215.151 0c-53.917 0-97.782 43.865-97.782 97.782v96.952c0 9.226 7.479 16.705 16.705 16.705 3.119 0 6.027-.87 8.525-2.358-4.892-2.913-8.181-8.239-8.181-14.347z" fill="#365e7d" opacity="1" data-original="#365e7d" class=""></path></g><path fill="#ffd064" d="M200.669 494.517c-14.259-29.551-39.78-94.454-38.536-178.433.251-16.926 13.996-30.542 30.924-30.542h271.922c16.928 0 30.673 13.616 30.924 30.542 1.244 83.979-24.278 148.882-38.536 178.433A30.918 30.918 0 0 1 429.516 512H228.519a30.915 30.915 0 0 1-27.85-17.483z" opacity="1" data-original="#ffd064"></path><path fill="#ffc250" d="M259.83 511.998h-31.312a30.923 30.923 0 0 1-27.849-17.481c-14.255-29.555-39.778-94.453-38.538-178.434.248-16.922 13.997-30.547 30.93-30.547h42.363c-11.65 0-21.119 13.625-21.285 30.547-.858 83.981 16.705 148.88 26.526 178.434 3.545 10.689 10.999 17.481 19.165 17.481z" opacity="1" data-original="#ffc250"></path><path fill="#407093" d="M334.187 434.303c-37.75 0-68.461-30.712-68.461-68.461v-34.615c0-7.41 6.008-13.418 13.418-13.418s13.418 6.008 13.418 13.418v34.615c0 22.953 18.673 41.625 41.625 41.625s41.625-18.673 41.625-41.625v-34.615c0-7.41 6.008-13.418 13.418-13.418s13.418 6.008 13.418 13.418v34.615c0 37.75-30.712 68.461-68.461 68.461z" opacity="1" data-original="#407093" class=""></path><g fill="#365e7d"><path d="M346.738 407.467c22.952 0 41.625-18.673 41.625-41.625v-34.615c0-5.142 2.896-9.604 7.142-11.856a13.344 13.344 0 0 0-6.275-1.561c-7.41 0-13.418 6.008-13.418 13.418v34.615c0 20.82-15.364 38.117-35.35 41.152 2.047.31 4.143.472 6.276.472zM278.276 365.842v-34.615c0-5.142 2.896-9.604 7.143-11.856a13.344 13.344 0 0 0-6.275-1.561c-7.41 0-13.418 6.008-13.418 13.418v34.615c0 37.75 30.711 68.461 68.461 68.461 2.117 0 4.207-.111 6.275-.3-34.818-3.181-62.186-32.529-62.186-68.162z" fill="#365e7d" opacity="1" data-original="#365e7d" class=""></path></g></g></svg>