<svg xmlns="http://www.w3.org/2000/svg" version="1.1" xmlns:xlink="http://www.w3.org/1999/xlink" width="512" height="512" x="0" y="0" viewBox="0 0 512 512" style="enable-background:new 0 0 512 512" xml:space="preserve" class=""><g><path fill="#fe76a8" d="M494.933 0H357.187a34.13 34.13 0 0 0-24.136 9.998L27.315 315.734l70.818 98.133 98.133 70.818 305.736-305.736a34.133 34.133 0 0 0 9.997-24.136V17.067C512 7.641 504.359 0 494.933 0zm-42.666 76.8c-9.426 0-17.067-7.641-17.067-17.067 0-9.425 7.641-17.067 17.067-17.067s17.067 7.641 17.067 17.067c-.001 9.426-7.642 17.067-17.067 17.067z" opacity="1" data-original="#fe76a8" class=""></path><path fill="#fe5694" d="M494.933 0h-23.694c9.426 0 17.067 7.641 17.067 17.067v128.026a34.133 34.133 0 0 1-9.997 24.136l-301.45 301.45 19.408 14.006 305.736-305.736A34.133 34.133 0 0 0 512 154.813V17.067C512 7.641 504.359 0 494.933 0z" opacity="1" data-original="#fe5694"></path><g fill="#f8f6f6"><path d="M320.454 236.147 254.9 206.514a9.237 9.237 0 0 0-10.34 1.915 9.24 9.24 0 0 0-1.991 10.138c.025.058.05.117.076.174l29.466 65.718a7.729 7.729 0 0 0 7.054 4.567 7.727 7.727 0 0 0 7.046-10.889l-5.16-11.508 21.582-21.581 11.458 5.179a7.726 7.726 0 1 0 6.363-14.08zm-46.168 15.393-10.856-24.213 24.152 10.917zM331.922 131.887a7.727 7.727 0 1 0-10.821 11.032l31.582 30.977-58.066-10.628a7.736 7.736 0 0 0-8.233 4.011 7.73 7.73 0 0 0 1.378 9.053l48.182 48.181c1.509 1.508 3.487 2.262 5.464 2.262s3.955-.755 5.464-2.262a7.729 7.729 0 0 0 0-10.928l-30.657-30.655 55.375 10.135c3.977.728 7.691-.979 9.451-4.34 1.801-3.437 1.027-7.595-2.023-10.645zM412.882 99.305c-17.279-17.277-38.685-19.085-53.267-4.505l-13.267 13.269a7.725 7.725 0 0 0 .011 10.937l.027.027.01.011 46.034 46.034c.38.379.788.71 1.22.994a7.72 7.72 0 0 0 5.1 1.935h.028a7.73 7.73 0 0 0 5.456-2.284c.399-.402 9.821-9.895 13.531-13.738 13.606-14.091 11.552-36.245-4.883-52.68zm-6.232 41.946a1240.826 1240.826 0 0 1-7.945 8.094 10706.264 10706.264 0 0 1-18.025-17.941 21931.248 21931.248 0 0 0-17.931-17.882l7.794-7.794c9.918-9.922 22.729-4.179 31.411 4.505 8.774 8.772 13.629 21.766 4.696 31.018zM175.231 329.761a23.245 23.245 0 0 0-6.476-12.385l-.001-.001a23.28 23.28 0 0 0-16.57-6.863 23.287 23.287 0 0 0-16.571 6.863l-14.022 14.021a7.726 7.726 0 0 0 0 10.927l22.228 22.229 26.044 26.044a7.727 7.727 0 0 0 5.463 2.263h.017a7.73 7.73 0 0 0 5.471-2.288s12.835-12.95 16.388-16.503c10.177-10.177 10.177-26.737 0-36.914-5.982-5.983-14.17-8.444-21.971-7.393zm-28.691-1.458a7.93 7.93 0 0 1 5.644-2.338 7.928 7.928 0 0 1 5.644 2.338 7.925 7.925 0 0 1 2.338 5.644c0 2.132-.83 4.136-2.338 5.643a2834.363 2834.363 0 0 0-5.03 5.057l-3.516 3.515-11.301-11.302zm39.737 34.838a5165.81 5165.81 0 0 0-10.973 11.042l-15.081-15.081 3.363-3.389 7.631-7.631c4.152-4.152 10.908-4.154 15.06 0 4.151 4.151 4.151 10.907 0 15.059zM255.517 297.724l-27.512-1.755c6.229-10.102 5.202-23.28-3.243-31.725v-.001c-9.93-9.928-26.405-9.612-36.727.71l-12.828 12.829-.016.014a7.727 7.727 0 0 0 0 10.928l48.272 48.272c1.509 1.508 3.486 2.263 5.463 2.263s3.955-.755 5.463-2.263a7.727 7.727 0 0 0 0-10.928l-15.176-15.176 35.32 2.253a7.727 7.727 0 0 0 .984-15.421zm-56.556-21.843c2.063-2.063 4.895-3.298 7.772-3.387 2.778-.055 5.29.866 7.101 2.676 3.839 3.84 3.514 10.651-.71 14.875a2574.208 2574.208 0 0 0-7.28 7.331 2493.529 2493.529 0 0 1-7.134-7.081 5032.499 5032.499 0 0 0-7.097-7.066z" fill="#f8f6f6" opacity="1" data-original="#f8f6f6"></path></g><path fill="#f8f6f6" d="M4.999 338.05c-6.665 6.665-6.665 17.471 0 24.136l144.815 144.816c6.665 6.665 17.471 6.665 24.136 0l22.316-22.316L27.315 315.734z" opacity="1" data-original="#f8f6f6"></path><path fill="#e2e2e2" d="m179.56 467.978-29.303 29.303a16.99 16.99 0 0 1-6.214 3.948l5.772 5.772c6.665 6.665 17.471 6.665 24.136 0l22.316-22.316z" opacity="1" data-original="#e2e2e2"></path></g></svg>