<svg xmlns="http://www.w3.org/2000/svg" version="1.1" xmlns:xlink="http://www.w3.org/1999/xlink" width="512" height="512" x="0" y="0" viewBox="0 0 512 512" style="enable-background:new 0 0 512 512" xml:space="preserve" class=""><g><path d="M367.309 244.526a669.816 669.816 0 0 1-77.52-47.898 670.199 670.199 0 0 1-88.165-75.528c-5.089-4.332-12.671-3.884-17.241.993-3.497 3.732-7.597 9.479-11.834 18.323-11.588 24.188-7.673 45.422-7.673 45.422l193.561 63.492 8.872-4.804z" style="" fill="#e07f65" data-original="#e07f65"></path><path d="M508.505 310.135v-4.329c0-23.432-16.377-43.68-39.3-48.587l-53.828-5.262a435.232 435.232 0 0 1-183.967-61.401l-28.421-17.302c-9.205-5.603-21.08-3.978-28.439 3.892-27.904 29.843-74.708 31.484-104.635 3.668l-6.419-7.438c-5.679-6.581-16.407-4.148-18.69 4.238l-8.714 32.013a155.462 155.462 0 0 0-5.459 40.834V355.72l454.016-8.047 23.856-37.538z" style="" fill="#f49e73" data-original="#f49e73"></path><path d="m504.288 316.771 4.218-6.637v-4.329c0-3.054-.285-6.052-.819-8.971l-43.011 51.193 13.554-.24 26.058-31.016zM86.775 306.305v-55.843c0-13.793 1.835-27.525 5.458-40.834l3.585-13.168a73.862 73.862 0 0 1-25.903-15.645l-6.419-7.438c-5.679-6.581-16.407-4.148-18.69 4.238l-8.714 32.013a155.462 155.462 0 0 0-5.459 40.834v105.259l56.142-.995v-48.421z" style="" fill="#ef9067" data-original="#ef9067"></path><path d="M120.063 302.447v-10.871c0-17.82-14.452-32.265-32.279-32.265h-57.15v55.909l89.429 3.94v-16.713z" style="" fill="#f2edec" data-original="#f2edec"></path><path d="M86.775 315.22v-55.909H30.634v55.909l89.429 3.94v-2.363z" style="" fill="#e4dad8" data-original="#e4dad8"></path><path d="M483.693 327.544c-94.128 30.741-162.668 25.022-208.9 13.188-48.175-12.332-93.458-36.932-171.195-39.103a408.914 408.914 0 0 0-72.81 4.506 10.864 10.864 0 0 0-8.001 5.739L0 355.721c0 21.073 17.09 38.155 38.171 38.155H154.71c3.583 0 6.672-2.859 6.594-6.44-.092-4.239 3.768-7.444 7.9-6.606l72.73 12.666c1.455.253 2.929.381 4.405.381H387.55c4.782 0 9.538-.69 14.122-2.049l85.265-25.271c14.866-4.406 25.063-18.06 25.063-33.559v-19.644c0-3.127-3.06-5.34-6.031-4.361l-1.51.497a35.538 35.538 0 0 0-20.766 18.054l-23.049 46.805" style="" fill="#e6e9ed" data-original="#e6e9ed"></path><path d="M511.359 339.642c.417-2.161.641-4.382.641-6.645v-19.644c0-3.128-3.06-5.34-6.031-4.361l-1.51.497a35.545 35.545 0 0 0-20.766 18.054c-35.401 11.562-67.181 17.964-95.518 20.825 33.333 3.605 74.188 2.566 123.184-8.726zM71.013 355.721l25.317-48.716a410.106 410.106 0 0 1 31.096-3.941 371.607 371.607 0 0 0-23.828-1.435 408.914 408.914 0 0 0-72.81 4.506 10.864 10.864 0 0 0-8.001 5.739L0 355.721c0 21.073 17.09 38.155 38.171 38.155h71.013c-21.081 0-38.171-17.083-38.171-38.155z" style="" fill="#cfd2dc" data-original="#cfd2dc"></path><path d="M81.892 355.721H0c0 21.072 17.09 38.155 38.171 38.155h81.892c0-21.072-17.09-38.155-38.171-38.155z" style="" fill="#333f61" data-original="#333f61"></path><path d="M71.013 355.721H0c0 21.072 17.09 38.155 38.171 38.155h71.013c-21.081 0-38.171-17.083-38.171-38.155z" style="" fill="#253551" data-original="#253551"></path><path d="m263.9 371.892-21.967 21.603c1.455.253 2.929.381 4.405.381H374.48l-86.335-27.739a24.079 24.079 0 0 0-24.245 5.755z" style="" fill="#333f61" data-original="#333f61"></path><path d="M196.572 202.249a7.634 7.634 0 0 1-4.927-1.796 7.663 7.663 0 0 1-.941-10.799l42.323-50.374c2.724-3.241 7.561-3.662 10.804-.94s3.664 7.557.941 10.799l-42.323 50.374a7.658 7.658 0 0 1-5.877 2.736zM229.856 217.126a7.638 7.638 0 0 1-4.928-1.796 7.663 7.663 0 0 1-.941-10.799l35.913-42.746a7.671 7.671 0 0 1 10.804-.94 7.663 7.663 0 0 1 .941 10.799l-35.913 42.746a7.652 7.652 0 0 1-5.876 2.736zM262.054 231.735a7.634 7.634 0 0 1-4.927-1.796 7.663 7.663 0 0 1-.941-10.799l30.89-36.767a7.671 7.671 0 0 1 10.804-.94 7.663 7.663 0 0 1 .941 10.799l-30.891 36.767a7.649 7.649 0 0 1-5.876 2.736z" style="" fill="#ce6545" data-original="#ce6545"></path></g></svg>