<svg xmlns="http://www.w3.org/2000/svg" version="1.1" xmlns:xlink="http://www.w3.org/1999/xlink" width="512" height="512" x="0" y="0" viewBox="0 0 512 512" style="enable-background:new 0 0 512 512" xml:space="preserve" class=""><g><g fill="#dbeaff"><path d="M388.102 123.898h16.5V239.5h-16.5zM223 57.8h82.602v16.5H223zM223 363.398h82.602v16.5H223zm0 0" fill="#dbeaff" opacity="1" data-original="#dbeaff"></path></g><path fill="#c8c5c9" d="M479 132.102H313.8c-9.1 0-16.5-7.403-16.5-16.5V16.5c0-9.102 7.4-16.5 16.5-16.5H479c9.102 0 16.5 7.398 16.5 16.5v99.102c0 9.097-7.398 16.5-16.5 16.5zm0 0" opacity="1" data-original="#c8c5c9"></path><path fill="#eceaec" d="M214.7 512H16.5C7.398 512 0 504.602 0 495.5V33C0 14.8 14.8 0 33 0h165.2c18.198 0 33 14.8 33 33v462.5c0 9.102-7.4 16.5-16.5 16.5zm0 0" opacity="1" data-original="#eceaec" class=""></path><path fill="#dbeaff" d="M132.102 99.102h-33A8.281 8.281 0 0 1 90.8 90.8V74.3C90.8 69.699 94.5 66 99.1 66h33c4.598 0 8.297 3.7 8.297 8.3v16.5c0 4.598-3.699 8.302-8.296 8.302zm0 0" opacity="1" data-original="#dbeaff"></path><path fill="#dad8db" d="M16.5 429.398v-425C6.7 10.102 0 20.801 0 33v462.5c0 9.102 7.398 16.5 16.5 16.5h198.2c9.1 0 16.5-7.398 16.5-16.5H82.601c-36.5 0-66.102-29.602-66.102-66.102zm0 0" opacity="1" data-original="#dad8db"></path><path fill="#dad8db" d="M0 289h231.2v16.5H0zm0 0" opacity="1" data-original="#dad8db"></path><path fill="#c8c5c9" d="M0 289h16.5v16.5H0zm0 0" opacity="1" data-original="#c8c5c9"></path><path fill="#9b959d" d="M0 181.7h24.8v16.5H0zM0 256h24.8v16.5H0zm0 0" opacity="1" data-original="#9b959d"></path><path fill="#857e87" d="M24.8 272.5c-4.6 0-8.3-3.7-8.3-8.3 0-4.598 3.7-8.302 8.3-8.302v-57.796a8.281 8.281 0 0 1-8.3-8.301c0-4.602 3.7-8.301 8.3-8.301 9.098 0 16.5 7.398 16.5 16.5v58c0 9.102-7.402 16.5-16.5 16.5zm0 0" opacity="1" data-original="#857e87"></path><path fill="#9b959d" d="M0 322.102h24.8v16.5H0zM0 396.398h24.8v16.5H0zm0 0" opacity="1" data-original="#9b959d"></path><path fill="#857e87" d="M24.8 412.898c-4.6 0-8.3-3.699-8.3-8.296 0-4.602 3.7-8.301 8.3-8.301V338.5c-4.6 0-8.3-3.7-8.3-8.3 0-4.598 3.7-8.302 8.3-8.302 9.098 0 16.5 7.403 16.5 16.5V396.2c0 9.301-7.402 16.7-16.5 16.7zm0 0" opacity="1" data-original="#857e87"></path><path fill="#c3ddff" d="M132.102 99.102h-33A8.281 8.281 0 0 1 90.8 90.8V82.5h49.5v8.3c.097 4.598-3.602 8.302-8.2 8.302zm0 0" opacity="1" data-original="#c3ddff"></path><path fill="#eceaec" d="M495.5 512H297.3c-9.1 0-16.5-7.398-16.5-16.5V247.7c0-9.098 7.4-16.5 16.5-16.5h198.2c9.102 0 16.5 7.402 16.5 16.5v247.698c0 9.204-7.398 16.602-16.5 16.602zm0 0" opacity="1" data-original="#eceaec" class=""></path><path fill="#dad8db" d="M297.3 437.7V231.2c-9.1 0-16.5 7.402-16.5 16.5v247.698c0 9.102 7.4 16.5 16.5 16.5h198.2c9.102 0 16.5-7.398 16.5-16.5H355.102c-31.903.102-57.801-25.796-57.801-57.699zm0 0" opacity="1" data-original="#dad8db"></path><path fill="#a4ccff" d="M479 272.5h-24.8c-4.598 0-8.302-3.7-8.302-8.3 0-4.598 3.704-8.302 8.301-8.302H479c4.602 0 8.3 3.704 8.3 8.301 0 4.602-3.8 8.301-8.3 8.301zm0 0" opacity="1" data-original="#a4ccff"></path><path fill="#dad8db" d="M462.5 404.602c0 36.503-29.594 66.097-66.102 66.097-36.503 0-66.097-29.594-66.097-66.097 0-36.508 29.594-66.102 66.097-66.102 36.508 0 66.102 29.594 66.102 66.102zm0 0" opacity="1" data-original="#dad8db"></path><path fill="#ffffff" d="M445.898 404.602c0 27.336-22.16 49.5-49.5 49.5-27.336 0-49.5-22.164-49.5-49.5 0-27.34 22.164-49.5 49.5-49.5 27.34 0 49.5 22.16 49.5 49.5zm0 0" opacity="1" data-original="#ffffff"></path><path fill="#dad8db" d="M280.8 289H512v16.5H280.8zm0 0" opacity="1" data-original="#dad8db"></path><path fill="#c8c5c9" d="M280.8 289h16.5v16.5h-16.5zM313.8 272.5V289c0 4.602 3.7 8.3 8.302 8.3h33c4.597 0 8.296-3.698 8.296-8.3v-16.5c0-4.602-3.699-8.3-8.296-8.3h-33c-4.602.1-8.301 3.8-8.301 8.3zm0 0" opacity="1" data-original="#c8c5c9"></path><path fill="#ffffff" d="M429.398 280.8c0 9.114-7.386 16.5-16.5 16.5-9.109 0-16.5-7.386-16.5-16.5s7.391-16.5 16.5-16.5c9.114 0 16.5 7.387 16.5 16.5zm0 0" opacity="1" data-original="#ffffff"></path><path fill="#dbeaff" d="M401.102 419c-8.704-3.2-15.801-10.3-19-19-1.5-4-2.204-7.898-2.204-11.602 0-5.296-7.097-7.296-10.199-3.097-5.3 7.199-7.699 16.699-5.5 26.8 2.7 12.2 12.602 22.098 24.801 24.797 10.102 2.204 19.5-.199 26.8-5.5 4.302-3.097 2.2-10.199-3.1-10.199-3.802-.097-7.598-.699-11.598-2.199zm0 0" opacity="1" data-original="#dbeaff"></path><path fill="#b6b1b7" d="M313.8 90.8V0c-9.1 0-16.5 7.398-16.5 16.5v99.102c0 9.097 7.4 16.5 16.5 16.5H479c9.102 0 16.5-7.403 16.5-16.5H338.602c-13.704 0-24.801-11.102-24.801-24.801zm0 0" opacity="1" data-original="#b6b1b7"></path><path fill="#dbeaff" d="M404.602 99.102H338.5a8.281 8.281 0 0 1-8.3-8.301V41.3c0-4.602 3.698-8.301 8.3-8.301h66.102c4.597 0 8.296 3.7 8.296 8.3v49.5c0 4.598-3.699 8.302-8.296 8.302zm0 0" opacity="1" data-original="#dbeaff"></path><path fill="#c3ddff" d="M379.898 82.602c-18.199 0-33-14.801-33-33V33h-8.296c-4.602 0-8.301 3.7-8.301 8.3v49.5c0 4.598 3.699 8.302 8.3 8.302H404.7c4.602 0 8.301-3.704 8.301-8.301V82.5zm0 0" opacity="1" data-original="#c3ddff"></path><path fill="#b6b1b7" d="M454.2 33V0h-16.5v132.102h16.5v-66c0-4.602 3.698-8.301 8.3-8.301h33V41.3h-33c-4.602 0-8.3-3.7-8.3-8.301zm0 0" opacity="1" data-original="#b6b1b7"></path><path fill="#9b959d" d="M437.7 115.602h16.5v16.5h-16.5zm0 0" opacity="1" data-original="#9b959d"></path></g></svg>