<svg xmlns="http://www.w3.org/2000/svg" version="1.1" xmlns:xlink="http://www.w3.org/1999/xlink" width="512" height="512" x="0" y="0" viewBox="0 0 512 512" style="enable-background:new 0 0 512 512" xml:space="preserve" class=""><g><path fill="#f6e266" d="M506.099 259.637V512H377.244l-22.056-126.187L333.132 512H204.277V259.637z" opacity="1" data-original="#f6e266" class=""></path><path fill="#eab14d" d="M244.365 512h-40.089V259.638h64.788C260.929 309.986 237.348 463.55 244.365 512zM506.099 302.368v15.453H377.327c-4.275 0-7.726-3.462-7.726-7.726s3.451-7.726 7.726-7.726h128.772z" opacity="1" data-original="#eab14d"></path><path fill="#b1e4f9" d="m489.823 69.748-46.416 98.538-41.93-12.836h-.011v181.111H94.258v-181.11l-41.93 12.836L5.901 69.748 83.072 8.836A40.987 40.987 0 0 1 108.506 0h278.711a40.987 40.987 0 0 1 25.434 8.836z" opacity="1" data-original="#b1e4f9" class=""></path><path fill="#93d8e4" d="M94.258 336.561v-181.11l-41.93 12.836L5.901 69.748 83.072 8.836A40.987 40.987 0 0 1 108.506 0h17.592c-42.23 298.452 35.739 336.561 35.739 336.561zM161.838.005c0 47.508 38.512 86.03 86.03 86.03 47.508 0 86.03-38.522 86.03-86.03" opacity="1" data-original="#93d8e4" class=""></path><g fill="#eab14d"><path d="M185.87 165.484c-12.508-2.531-21.92-13.593-21.92-26.846 0-15.118 12.259-27.377 27.377-27.377 13.638 0 24.959 9.977 27.027 23.039M309.864 165.484c12.508-2.531 21.92-13.593 21.92-26.846 0-15.118-12.259-27.377-27.377-27.377-13.638 0-24.959 9.977-27.027 23.039" fill="#eab14d" opacity="1" data-original="#eab14d"></path></g><circle cx="247.868" cy="197.555" r="69.789" fill="#f6e266" opacity="1" data-original="#f6e266" class=""></circle><path fill="#eab14d" d="M247.868 238.398a7.726 7.726 0 0 1-7.726-7.726v-23.011a7.726 7.726 0 1 1 15.452 0v23.011a7.726 7.726 0 0 1-7.726 7.726z" opacity="1" data-original="#eab14d"></path><g fill="#454545"><ellipse cx="247.868" cy="198.152" rx="23.865" ry="14.66" fill="#454545" opacity="1" data-original="#454545"></ellipse><path d="M206.667 187.524c-4.934 0-9.409-3.33-10.836-8.046-1.275-4.213.05-8.904 3.364-11.809 3.72-3.262 9.249-3.686 13.449-1.1 3.733 2.299 5.852 6.752 5.257 11.101-.761 5.553-5.608 9.854-11.234 9.854zM289.071 187.524c-4.738 0-9.066-3.068-10.668-7.517-1.603-4.45-.177-9.58 3.479-12.578 3.601-2.954 8.817-3.39 12.85-1.054 4.152 2.405 6.389 7.323 5.445 12.032-1.047 5.226-5.768 9.117-11.106 9.117z" fill="#454545" opacity="1" data-original="#454545"></path></g><path fill="#eab14d" d="M355.188 385.813c19.52 19.52 36.226 103.228 36.226 126.187h-14.17z" opacity="1" data-original="#eab14d"></path></g></svg>