<svg width="40" height="50" viewBox="0 0 40 50" fill="none" xmlns="http://www.w3.org/2000/svg">
<path d="M14.1977 5.62256C11.3668 6.78809 4.19806 9.33506 4.19806 9.33506L4.19864 9.33721L4.19522 9.3332C4.01847 9.74805 0.48946 18.1053 0.48946 23.9286C0.48946 28.5398 0.15362 42.3735 0.000494996 48.4416C-0.021087 49.2963 0.665827 50.0001 1.52081 50.0001H5.87384C5.93292 44.7477 6.22325 25.8025 7.3585 22.9909L7.38097 22.9276C7.37413 22.8921 7.36808 22.8557 7.36153 22.8197C7.92921 25.7752 8.35831 28.6279 8.40538 30.6722C8.55567 37.2085 6.65167 41.2656 5.9755 48.2528L5.87384 50.0001H33.6378L33.5362 48.2528C32.86 41.2656 30.956 37.2086 31.1063 30.6722C31.1532 28.6302 31.5815 25.7816 32.1482 22.8298C32.1423 22.8624 32.1368 22.8954 32.1307 22.9276L32.1531 22.9909C33.2884 25.8025 33.5787 44.7477 33.6378 50.0001H37.6973C38.5432 50.0001 39.2266 49.3106 39.218 48.4648C39.1569 42.4087 39.0222 28.5457 39.0222 23.9286C39.0222 18.1053 35.4931 9.74815 35.3163 9.3332L35.3129 9.33731L35.3135 9.33506C35.3135 9.33506 28.1447 6.78809 25.3139 5.62256" fill="#4D4A5B"/>
<path d="M25.3139 5.62256C28.1447 6.78809 35.3135 9.33506 35.3135 9.33506C35.3135 9.33506 31.2564 24.1357 31.1061 30.6722C30.9559 37.2085 32.8599 41.2656 33.536 48.2528L33.6377 50.0001H28.3523L28.2507 48.2528C27.5745 41.2656 25.6705 37.2086 25.8208 30.6722C25.9345 25.7279 28.2835 16.0551 29.4211 11.6362C29.757 10.3313 29.0453 8.98565 27.7779 8.52822C25.429 7.68047 21.8402 6.36865 20.0285 5.62266L25.3141 5.62275" fill="#444251"/>
<path d="M19.609 10.1027C22.4248 10.1027 24.8167 8.29395 25.6904 5.77539C25.5647 5.72499 25.4392 5.67401 25.3139 5.62246C24.4741 5.27666 23.8693 2.75156 23.8693 2.75156L23.8029 0.677051C23.797 0.4955 23.7208 0.323337 23.5903 0.19698C23.4598 0.0706234 23.2853 -1.7584e-05 23.1037 3.28319e-09H16.4079C16.2262 8.58763e-06 16.0517 0.0706743 15.9212 0.197049C15.7907 0.323424 15.7145 0.495597 15.7087 0.677149L15.6423 2.75166C15.6423 2.75166 15.0375 5.27676 14.1976 5.62256C13.9864 5.70929 13.7747 5.79464 13.5624 5.87862C14.4649 8.34356 16.8315 10.1027 19.609 10.1027Z" fill="#FED9A8"/>
<path d="M23.8692 2.75166L23.8028 0.677149C23.797 0.495589 23.7208 0.323402 23.5903 0.197022C23.4598 0.0706417 23.2853 -1.5978e-05 23.1037 2.71018e-09H19.7558V10.0998C22.5076 10.0381 24.8321 8.2499 25.6904 5.77539C25.5647 5.72499 25.4392 5.67401 25.3139 5.62246C24.474 5.27666 23.8692 2.75166 23.8692 2.75166Z" fill="#F4CFA2"/>
<path d="M19.7558 5.9917L14.8924 9.37656L19.7558 35.6485L24.6192 9.37656L19.7558 5.9917Z" fill="white"/>
<path d="M15.6367 2.7749C15.5765 3.01768 15.0119 5.21524 14.2391 5.60225C14.2255 5.60996 14.2118 5.6169 14.1978 5.62275L14.1976 5.62285L14.8925 9.37676L19.7559 5.9919C19.7558 5.9918 16.9735 4.91387 15.6367 2.7749Z" fill="#F2F2F2"/>
<path d="M23.8748 2.7749C23.9351 3.01768 24.4996 5.21524 25.2725 5.60225C25.2859 5.60996 25.2997 5.61684 25.314 5.62285L24.6191 9.37676L19.7557 5.9919C19.7558 5.9918 22.538 4.91387 23.8748 2.7749Z" fill="#F2F2F2"/>
<path d="M19.7558 5.9917L17.329 7.68076L18.2862 9.70557H21.2254L22.1826 7.68076L19.7558 5.9917Z" fill="#E25959"/>
<path d="M20.5121 49.9998V32.4467C20.5121 32.2461 20.4324 32.0538 20.2906 31.9119C20.1487 31.7701 19.9564 31.6904 19.7558 31.6904C19.5552 31.6904 19.3629 31.7701 19.2211 31.9119C19.0792 32.0538 18.9996 32.2461 18.9996 32.4467V49.9998H20.5121ZM15.6636 43.5079H10.76C10.7094 43.5079 10.6594 43.498 10.6126 43.4786C10.5659 43.4593 10.5235 43.4309 10.4877 43.3951C10.452 43.3594 10.4236 43.3169 10.4043 43.2702C10.3849 43.2235 10.3749 43.1734 10.3749 43.1229V41.0118C10.3749 40.9613 10.3849 40.9112 10.4043 40.8645C10.4236 40.8177 10.452 40.7753 10.4877 40.7395C10.5235 40.7038 10.5659 40.6754 10.6126 40.6561C10.6594 40.6367 10.7094 40.6268 10.76 40.6268H15.6636C15.7657 40.6268 15.8637 40.6673 15.9359 40.7395C16.0081 40.8118 16.0487 40.9097 16.0487 41.0118V43.1229C16.0487 43.225 16.0081 43.3229 15.9359 43.3951C15.8637 43.4673 15.7657 43.5079 15.6636 43.5079ZM28.4344 43.5079H23.5308C23.4287 43.5079 23.3307 43.4673 23.2585 43.3951C23.1863 43.3229 23.1457 43.225 23.1457 43.1229V41.0118C23.1457 40.9097 23.1863 40.8118 23.2585 40.7395C23.3307 40.6673 23.4287 40.6268 23.5308 40.6268H28.4344C28.5365 40.6268 28.6345 40.6673 28.7067 40.7395C28.7789 40.8118 28.8195 40.9097 28.8195 41.0118V43.1229C28.8195 43.225 28.7789 43.3229 28.7067 43.3951C28.6345 43.4673 28.5365 43.5079 28.4344 43.5079Z" fill="#3A3847"/>
<path d="M19.7557 35.6484L14.1974 5.62256C13.4928 5.9127 12.5303 6.28828 11.4793 6.68897C10.984 7.53311 10.3524 8.70488 9.53796 10.3116L12.7026 11.0561L11.1157 13.0163L19.7557 35.6484Z" fill="#666277"/>
<path d="M19.7558 35.6484L25.3141 5.62256C26.0187 5.9127 26.9812 6.28828 28.0323 6.68897C28.5276 7.53311 29.1591 8.70488 29.9736 10.3116L26.8089 11.0561L28.3958 13.0163L19.7558 35.6484Z" fill="#666277"/>
<path d="M19.7555 35.6473L19.7557 35.6484L22.5409 20.6032L21.2092 9.70557H18.3023L16.9706 20.6033L19.7555 35.6473Z" fill="#F33A3A"/>
<path d="M23.9167 2.93564L23.9245 2.96445C23.9219 2.95484 23.9193 2.94524 23.9167 2.93564ZM15.6066 2.8918L15.6068 2.89092C15.6068 2.89122 15.6067 2.89152 15.6066 2.8918ZM15.5904 2.95254L15.5917 2.94756C15.5912 2.94921 15.5908 2.95087 15.5904 2.95254Z" fill="#F15A24"/>
<path d="M19.7558 9.70557V35.6484L22.541 20.6032L21.2092 9.70557H19.7558Z" fill="#C13A3A"/>
<path d="M15.6636 40.627H10.76C10.7094 40.6269 10.6593 40.6369 10.6126 40.6562C10.5659 40.6756 10.5234 40.7039 10.4876 40.7397C10.4519 40.7755 10.4235 40.8179 10.4041 40.8646C10.3848 40.9114 10.3748 40.9614 10.3748 41.012V41.6824C10.3748 41.7846 10.4154 41.8825 10.4876 41.9548C10.5599 42.027 10.6578 42.0676 10.76 42.0676H15.6636C15.7657 42.0676 15.8637 42.027 15.9359 41.9548C16.0082 41.8825 16.0487 41.7846 16.0487 41.6824V41.012C16.0487 40.9099 16.0081 40.8119 15.9359 40.7397C15.8637 40.6675 15.7657 40.627 15.6636 40.627ZM28.4344 40.627H23.5308C23.4802 40.6269 23.4301 40.6369 23.3834 40.6562C23.3367 40.6756 23.2942 40.7039 23.2584 40.7397C23.2227 40.7755 23.1943 40.8179 23.1749 40.8646C23.1556 40.9114 23.1456 40.9614 23.1456 41.012V41.6824C23.1456 41.7846 23.1862 41.8825 23.2584 41.9548C23.3307 42.027 23.4286 42.0676 23.5308 42.0676H28.4344C28.5365 42.0676 28.6345 42.027 28.7067 41.9548C28.779 41.8825 28.8195 41.7846 28.8195 41.6824V41.012C28.8195 40.9099 28.7789 40.8119 28.7067 40.7397C28.6345 40.6675 28.5365 40.627 28.4344 40.627Z" fill="#666277"/>
</svg>
