<svg xmlns="http://www.w3.org/2000/svg" version="1.1" xmlns:xlink="http://www.w3.org/1999/xlink" width="512" height="512" x="0" y="0" viewBox="0 0 497 497" style="enable-background:new 0 0 512 512" xml:space="preserve" class=""><g><path fill="#5e9ad8" d="M353.745 108.584h-220.49a22.27 22.27 0 0 0-19.287 11.135L22.513 278.123l60.828 35.119 37.056-64.182v187.776l155.706 20 70.501-20 30-187.776 37.056 64.182 39.609-22.868 11.219-12.251-91.454-158.404a22.276 22.276 0 0 0-19.289-11.135z" opacity="1" data-original="#5e9ad8" class=""></path><g fill="#3e84cb"><path d="m353.032 119.719 100.235 170.655 21.219-12.251-91.454-158.404a22.27 22.27 0 0 0-19.287-11.135h-30a22.27 22.27 0 0 1 19.287 11.135zM346.603 456.836l30-20V249.06c-16.569 0-30 13.431-30 30z" fill="#3e84cb" opacity="1" data-original="#3e84cb"></path></g><path fill="#d5eaff" d="M248.5 444.336a7.5 7.5 0 0 1-7.5-7.5V203.032a7.5 7.5 0 0 1 15 0v233.804a7.5 7.5 0 0 1-7.5 7.5z" opacity="1" data-original="#d5eaff"></path><path fill="#eaf3ff" d="M303.687 259.641c0 8.169-4.623 13.792-12.792 13.792-1.757 0-3.443.694-5.006.131-5.706-2.052-9.786-7.511-9.786-13.923 0-6.127 3.725-11.384 9.034-13.63 1.77-.749 3.715-.163 5.758-.163 8.169.001 12.792 5.624 12.792 13.793z" opacity="1" data-original="#eaf3ff" class=""></path><path fill="#d5eaff" d="M290.894 244.849c-1.758 0-3.436.323-5 .885 5.705 2.052 9.792 7.495 9.792 13.907s-4.087 11.855-9.792 13.907a14.72 14.72 0 0 0 5 .885c8.17 0 14.792-6.623 14.792-14.792s-6.622-14.792-14.792-14.792z" opacity="1" data-original="#d5eaff"></path><path fill="#eaf3ff" d="M303.687 325.818c0 8.169-4.623 13.792-12.792 13.792-1.757 0-3.443.694-5.006.132-5.706-2.052-9.786-7.511-9.786-13.923 0-6.127 3.725-11.384 9.034-13.63 1.77-.748 3.715-.162 5.758-.162 8.169-.001 12.792 5.621 12.792 13.791z" opacity="1" data-original="#eaf3ff" class=""></path><path fill="#d5eaff" d="M290.894 311.026c-1.758 0-3.436.323-5 .885 5.705 2.052 9.792 7.495 9.792 13.907s-4.087 11.855-9.792 13.907a14.72 14.72 0 0 0 5 .885c8.17 0 14.792-6.623 14.792-14.792.001-8.17-6.622-14.792-14.792-14.792z" opacity="1" data-original="#d5eaff"></path><path fill="#eaf3ff" d="M303.687 391.994c0 8.169-4.623 13.792-12.792 13.792-1.757 0-3.443.694-5.006.131-5.706-2.052-9.786-7.511-9.786-13.923 0-6.127 3.725-11.384 9.034-13.63 1.77-.749 3.715-.163 5.758-.163 8.169.001 12.792 5.624 12.792 13.793z" opacity="1" data-original="#eaf3ff" class=""></path><path fill="#d5eaff" d="M290.894 377.202c-1.758 0-3.436.323-5 .885 5.705 2.052 9.792 7.495 9.792 13.907s-4.087 11.855-9.792 13.907a14.72 14.72 0 0 0 5 .885c8.17 0 14.792-6.623 14.792-14.792.001-8.169-6.622-14.792-14.792-14.792z" opacity="1" data-original="#d5eaff"></path><path fill="#eaf3ff" d="M255.83 200.736h-24.771c-50.076 0-90.67-40.594-90.67-90.67s40.594-90.67 90.67-90.67h24.771c50.076 0 90.67 40.594 90.67 90.67s-40.594 90.67-90.67 90.67z" opacity="1" data-original="#eaf3ff" class=""></path><path fill="#d5eaff" d="M265.941 19.396h-30c50.076 0 90.67 40.594 90.67 90.67s-40.594 90.67-90.67 90.67h30c50.076 0 90.67-40.594 90.67-90.67s-40.595-90.67-90.67-90.67z" opacity="1" data-original="#d5eaff"></path><path fill="#615260" d="M257.908 151.116h-18.816c-27.012 0-48.909-21.897-48.909-48.909s21.897-48.909 48.909-48.909h18.816c27.012 0 48.909 21.897 48.909 48.909s-21.898 48.909-48.909 48.909z" opacity="1" data-original="#615260"></path><path fill="#eaf3ff" d="M371.278 477.604H115.721c-11.258 0-20.384-9.126-20.384-20.384 0-11.258 9.126-20.384 20.384-20.384h255.557c11.258 0 20.384 9.126 20.384 20.384 0 11.258-9.126 20.384-20.384 20.384z" opacity="1" data-original="#eaf3ff" class=""></path><path fill="#d5eaff" d="M381.278 436.836h-30c11.258 0 20.384 9.126 20.384 20.384 0 11.258-9.126 20.384-20.384 20.384h30c11.258 0 20.384-9.126 20.384-20.384 0-11.258-9.126-20.384-20.384-20.384z" opacity="1" data-original="#d5eaff"></path><path fill="#eaf3ff" d="m486.433 299.66-16.184 10.921-43.546 25.141c-9.149 5.282-20.847 2.147-26.129-7.001-5.282-9.149-2.147-20.847 7.001-26.13l44.256-25.551 16.473-8.511z" opacity="1" data-original="#eaf3ff" class=""></path><path fill="#d5eaff" d="M494.434 274.531c-5.282-9.149-16.981-12.283-26.13-7.001l-16.473 9.511c8.276-1.849 17.139 1.758 21.603 9.49 4.612 7.989 3.047 17.828-3.185 24.051l17.184-9.921c9.149-5.283 12.283-16.981 7.001-26.13z" opacity="1" data-original="#d5eaff"></path><path fill="#eaf3ff" d="m70.297 334.723-16.608-8.589L9.567 300.66c-9.149-5.282-12.283-16.981-7.001-26.13 5.282-9.149 16.981-12.283 26.129-7.001l46.176 26.66 14.553 9.402z" opacity="1" data-original="#eaf3ff" class=""></path><path fill="#d5eaff" d="m89.425 302.592-14.553-8.402c4.898 6.305 5.793 15.191 1.555 22.532-4.678 8.102-14.11 11.721-22.737 9.413l16.608 9.589c9.149 5.282 20.847 2.147 26.129-7.001 5.281-9.151 2.147-20.849-7.002-26.131z" opacity="1" data-original="#d5eaff"></path></g></svg>