<svg xmlns="http://www.w3.org/2000/svg" version="1.1" xmlns:xlink="http://www.w3.org/1999/xlink" width="512" height="512" x="0" y="0" viewBox="0 0 512 512" style="enable-background:new 0 0 512 512" xml:space="preserve" class=""><g><path fill="#e0dde2" d="M417.483 349.564H373.15v-67.556h44.333a9 9 0 0 1 9 9v49.556a9 9 0 0 1-9 9z" opacity="1" data-original="#e0dde2"></path><path fill="#c8c1c9" d="M417.483 282.008h-9.667v39.111c0 5.4-4.378 9.778-9.778 9.778h-24.889v18.667h44.333a9 9 0 0 0 9-9v-49.556a9 9 0 0 0-8.999-9z" opacity="1" data-original="#c8c1c9"></path><path fill="#e0dde2" d="M359.31 135.914 317.192 12.901A19.082 19.082 0 0 0 299.139 0H179.308a19.082 19.082 0 0 0-18.053 12.901l-42.118 123.013v240.173L161.255 499.1a19.082 19.082 0 0 0 18.053 12.901h119.831a19.082 19.082 0 0 0 18.053-12.901l42.118-123.013z" opacity="1" data-original="#e0dde2"></path><path fill="#c8c1c9" d="M317.192 12.901A19.082 19.082 0 0 0 299.139 0h-49.778a19.082 19.082 0 0 1 18.053 12.901l42.118 123.013v240.173L267.414 499.1a19.082 19.082 0 0 1-18.053 12.901h49.778a19.082 19.082 0 0 0 18.053-12.901l42.118-123.013V135.914z" opacity="1" data-original="#c8c1c9"></path><path fill="#695e66" d="M361.929 409.706H116.517c-17.121 0-31-13.879-31-31V133.294c0-17.121 13.879-31 31-31h245.412c17.121 0 31 13.879 31 31v245.412c0 17.121-13.879 31-31 31z" opacity="1" data-original="#695e66" class=""></path><path fill="#453e43" d="M361.929 102.294h-18.905v223.801c0 18.615-15.091 33.706-33.706 33.706H85.517v18.905c0 17.121 13.879 31 31 31h245.412c17.121 0 31-13.879 31-31V133.294c0-17.121-13.879-31-31-31z" opacity="1" data-original="#453e43" class=""></path><circle cx="131.145" cy="147.734" r="12.2" fill="#fce25c" opacity="1" data-original="#fce25c"></circle><circle cx="169.869" cy="147.734" r="12.2" fill="#62d8f9" opacity="1" data-original="#62d8f9"></circle><path fill="#fb636f" d="M299.129 182.192a52.515 52.515 0 0 0-16.881-2.795c-14.08-.022-26.875 5.493-36.327 14.491-3.78 3.598-9.776 3.523-13.579-.051-9.54-8.963-22.427-14.406-36.591-14.25-32.827.361-56.73 30.334-51.24 62.701 1.908 11.251 7.714 19.415 20.377 32.023 13.251 13.193 54.917 53.032 69.509 66.966a7.357 7.357 0 0 0 10.195-.026c15.041-14.501 58.919-56.839 69.571-67.538 12.913-12.97 20.564-24.676 20.59-41.65.036-23.136-14.875-42.805-35.624-49.871" opacity="1" data-original="#fb636f" class=""></path><path fill="#fa2a3b" d="M299.129 182.192a51.954 51.954 0 0 0-5.565-1.548 52.348 52.348 0 0 1 10.771 31.957c-.026 16.974-7.677 28.68-20.59 41.65-10.652 10.699-54.53 53.037-69.571 67.538-.026.025-.054.046-.08.07 8.311 7.961 15.673 14.996 20.304 19.418a7.357 7.357 0 0 0 10.195-.026c15.041-14.501 58.919-56.839 69.571-67.538 12.913-12.97 20.564-24.676 20.59-41.65.035-23.136-14.876-42.805-35.625-49.871z" opacity="1" data-original="#fa2a3b" class=""></path><path fill="#453e43" d="M294.319 78.49H184.128a7.732 7.732 0 0 1 0-15.464h110.191a7.732 7.732 0 0 1 0 15.464zM266.771 41.686h-55.096a7.732 7.732 0 0 1 0-15.464h55.096a7.732 7.732 0 0 1 0 15.464zM294.319 449.48H184.128a7.732 7.732 0 0 1 0-15.464h110.191a7.732 7.732 0 0 1 0 15.464zM266.771 486.284h-55.096a7.732 7.732 0 0 1 0-15.464h55.096a7.732 7.732 0 0 1 0 15.464z" opacity="1" data-original="#453e43" class=""></path></g></svg>