<svg width="43" height="49" viewBox="0 0 43 49" fill="none" xmlns="http://www.w3.org/2000/svg">
<path d="M28.474 0.252175C28.3503 0.107951 28.1745 0.018644 27.9851 0.00382911C27.7957 -0.0109857 27.6081 0.0499 27.4635 0.173141C27.3189 0.296382 27.2291 0.471924 27.2137 0.661291C27.1983 0.850657 27.2586 1.0384 27.3814 1.18337C27.4018 1.2072 29.3986 3.61049 28.1189 7.36081C28.0575 7.541 28.0701 7.73822 28.154 7.90911C28.238 8.07999 28.3864 8.21052 28.5665 8.272C28.7467 8.33347 28.944 8.32085 29.1148 8.23691C29.2857 8.15297 29.4163 8.00458 29.4777 7.8244C31.0181 3.30951 28.5786 0.374866 28.474 0.252175ZM14.7054 0.171497C14.5605 0.0480143 14.3725 -0.0128576 14.1827 0.00227237C13.993 0.0174024 13.817 0.107295 13.6935 0.252175C13.5889 0.374866 11.1494 3.30951 12.6899 7.82449C12.7382 7.96627 12.8297 8.08938 12.9515 8.17656C13.0733 8.26374 13.2194 8.31063 13.3692 8.31066C13.4834 8.31067 13.5959 8.28344 13.6974 8.23123C13.799 8.17901 13.8866 8.10333 13.953 8.01045C14.0195 7.91758 14.0628 7.8102 14.0794 7.69723C14.096 7.58426 14.0854 7.46896 14.0485 7.36091C12.7818 3.6482 14.703 1.28309 14.7882 1.18088C14.9106 1.03586 14.9706 0.848257 14.9551 0.659101C14.9396 0.469945 14.8498 0.294629 14.7054 0.171497Z" fill="#58768C"/>
<path d="M41.749 43.5228C41.6848 43.5611 40.9096 44.008 39.4301 44.4674C38.4596 44.7689 37.1849 45.0751 35.6096 45.2742C34.8038 45.3756 33.9185 45.4493 32.9548 45.4799C32.996 45.835 33.0333 46.191 33.0677 46.547C33.0831 46.7038 33.0464 46.8613 32.9634 46.9951C32.8804 47.129 32.7556 47.2318 32.6084 47.2878C32.4236 47.3577 28.0117 48.9999 21.0513 48.9999C14.0908 48.9999 9.67885 47.3576 9.49415 47.2878C9.34689 47.2318 9.22213 47.129 9.13911 46.9951C9.05609 46.8613 9.01942 46.7038 9.03477 46.547C9.06923 46.191 9.10655 45.835 9.1477 45.4799C8.18397 45.4493 7.29872 45.3756 6.4929 45.2742C2.51739 44.7717 0.459775 43.586 0.353545 43.5228C0.222491 43.4455 0.119352 43.3286 0.0589833 43.189C-0.00138492 43.0493 -0.0158657 42.8941 0.0176269 42.7457C1.90585 34.4071 6.35221 27.6983 9.74872 23.5381C12.4255 20.2602 14.8449 18.0409 16.0163 17.0351C11.5097 13.6022 11.3163 8.78353 11.3106 8.56916C11.3048 8.37488 11.3776 8.18635 11.5135 8.04758C11.5977 7.96144 13.6151 5.92871 17.136 5.92871C19.12 5.92871 20.3679 7.03504 21.0513 7.92603C21.7346 7.03504 22.9825 5.92871 24.9665 5.92871C26.1522 5.92871 27.1667 6.15935 27.9955 6.46848C29.6272 7.07715 30.5335 7.99015 30.589 8.04758C30.6562 8.1164 30.7088 8.19807 30.7436 8.28769C30.7785 8.37731 30.7949 8.47304 30.7919 8.56916C30.7862 8.78353 30.5928 13.6022 26.0862 17.0351C26.292 17.2121 26.537 17.4265 26.8145 17.6772C26.8145 17.6772 26.8154 17.6782 26.8164 17.6801C28.118 18.8563 30.1488 20.8383 32.3538 23.5381C35.7503 27.6983 40.1967 34.4071 42.0849 42.7457C42.1538 43.0501 42.0179 43.3639 41.749 43.5228Z" fill="#FF5F85"/>
<path d="M30.7919 8.56943C30.7862 8.78381 30.5928 13.6025 26.0862 17.0353L23.951 16.9798C27.4031 13.2321 27.9352 8.47277 27.9955 6.46875C29.6272 7.07742 30.5335 7.99043 30.589 8.04785C30.6562 8.11668 30.7088 8.19834 30.7436 8.28796C30.7785 8.37758 30.7949 8.47332 30.7919 8.56943Z" fill="#B2527E"/>
<path d="M27.3236 16.2734C21.1229 15.8254 14.8416 16.2688 14.7788 16.2734C14.6848 16.2802 14.593 16.3054 14.5088 16.3477C14.4245 16.3899 14.3494 16.4484 14.2877 16.5196C14.226 16.5909 14.179 16.6736 14.1493 16.7631C14.1196 16.8526 14.1078 16.947 14.1146 17.041C14.1214 17.135 14.1466 17.2268 14.1889 17.311C14.2311 17.3953 14.2896 17.4704 14.3609 17.5321C14.4321 17.5938 14.5149 17.6408 14.6043 17.6705C14.6938 17.7002 14.7882 17.712 14.8822 17.7052C14.9147 17.7029 16.63 17.5819 19.133 17.5309C17.8853 18.9677 16.4843 21.7441 17.2249 26.6705C17.2838 27.0625 17.6495 27.333 18.0413 27.2736C18.2295 27.2453 18.3988 27.1433 18.5119 26.9902C18.625 26.8371 18.6727 26.6454 18.6444 26.4571C18.2078 23.5529 18.545 21.0805 19.6194 19.3071C20.1351 18.456 20.7095 17.9512 21.0537 17.6993C21.9407 18.3429 24.33 20.6558 23.458 26.4571C23.4297 26.6454 23.4774 26.8372 23.5905 26.9903C23.7036 27.1434 23.8729 27.2453 24.0612 27.2736C24.2494 27.3019 24.4412 27.2543 24.5943 27.1411C24.7475 27.028 24.8494 26.8587 24.8777 26.6705C25.6196 21.7347 24.2117 18.957 22.9623 17.5226C24.3317 17.546 25.7784 17.6011 27.2203 17.7053C27.4088 17.7166 27.5943 17.6532 27.7364 17.5287C27.8785 17.4043 27.9658 17.2288 27.9794 17.0404C27.993 16.852 27.9318 16.6658 27.809 16.5222C27.6863 16.3786 27.5119 16.2892 27.3236 16.2734Z" fill="#FFE878"/>
<path d="M35.6096 45.2743C34.8038 45.3758 33.9185 45.4495 32.9548 45.4801C32.3662 39.8547 30.5833 34.1642 30.5833 34.1642C33.8123 37.9931 35.1665 43.1602 35.6096 45.2743ZM11.5192 34.1641C11.5192 34.1641 9.73627 39.8546 9.14769 45.48C8.18396 45.4494 7.29871 45.3757 6.49289 45.2742C6.93599 43.1602 8.29019 37.9931 11.5192 34.1641Z" fill="#B2527E"/>
<path d="M21.0513 44.0215C21.4477 44.0215 21.769 43.7001 21.769 43.3037C21.769 42.9073 21.4477 42.5859 21.0513 42.5859C20.6549 42.5859 20.3335 42.9073 20.3335 43.3037C20.3335 43.7001 20.6549 44.0215 21.0513 44.0215Z" fill="#FFA1A8"/>
<path d="M15.8345 43.7344C16.2309 43.7344 16.5522 43.413 16.5522 43.0166C16.5522 42.6202 16.2309 42.2988 15.8345 42.2988C15.4381 42.2988 15.1167 42.6202 15.1167 43.0166C15.1167 43.413 15.4381 43.7344 15.8345 43.7344Z" fill="#FFA1A8"/>
<path d="M26.2661 43.7344C26.6625 43.7344 26.9839 43.413 26.9839 43.0166C26.9839 42.6202 26.6625 42.2988 26.2661 42.2988C25.8697 42.2988 25.5483 42.6202 25.5483 43.0166C25.5483 43.413 25.8697 43.7344 26.2661 43.7344Z" fill="#FFA1A8"/>
<path d="M6.12158 41C6.518 41 6.83935 40.6786 6.83935 40.2822C6.83935 39.8858 6.518 39.5645 6.12158 39.5645C5.72517 39.5645 5.40381 39.8858 5.40381 40.2822C5.40381 40.6786 5.72517 41 6.12158 41Z" fill="#FFA1A8"/>
<path d="M35.9809 41C36.3773 41 36.6987 40.6786 36.6987 40.2822C36.6987 39.8858 36.3773 39.5645 35.9809 39.5645C35.5845 39.5645 35.2632 39.8858 35.2632 40.2822C35.2632 40.6786 35.5845 41 35.9809 41Z" fill="#FFA1A8"/>
<path d="M41.749 43.5229C41.6848 43.5612 40.9096 44.0081 39.4301 44.4675C37.1638 31.739 26.9781 17.8993 26.8164 17.6802C28.118 18.8564 30.1488 20.8384 32.3538 23.5382C35.7503 27.6984 40.1967 34.4072 42.0849 42.7458C42.1538 43.0502 42.0179 43.364 41.749 43.5229Z" fill="#B2527E"/>
</svg>
