<svg width="184" height="164" viewBox="0 0 184 164" fill="none" xmlns="http://www.w3.org/2000/svg">
<path d="M72.7517 164C105.245 164 131.586 162.804 131.586 161.329C131.586 159.854 105.245 158.658 72.7517 158.658C40.2586 158.658 13.9177 159.854 13.9177 161.329C13.9177 162.804 40.2586 164 72.7517 164Z" fill="#004989" fill-opacity="0.1"/>
<path d="M27.441 161.33C31.4183 161.33 34.6426 158.106 34.6426 154.128C34.6426 150.151 31.4183 146.927 27.441 146.927C23.4636 146.927 20.2393 150.151 20.2393 154.128C20.2393 158.106 23.4636 161.33 27.441 161.33Z" fill="white"/>
<path d="M27.441 161.489C23.3829 161.489 20.0805 158.186 20.0805 154.128C20.0805 150.07 23.3829 146.768 27.441 146.768C31.4991 146.768 34.8014 150.07 34.8014 154.128C34.8014 158.186 31.4991 161.489 27.441 161.489ZM27.441 147.083C23.557 147.083 20.3962 150.244 20.3962 154.128C20.3962 158.012 23.557 161.173 27.441 161.173C31.325 161.173 34.4839 158.012 34.4839 154.128C34.4839 150.244 31.3231 147.083 27.441 147.083Z" fill="#004989" fill-opacity="0.1"/>
<path d="M27.4047 142.647C27.4161 142.741 27.4219 142.781 27.4238 142.829C27.4315 142.921 27.4353 143.019 27.441 143.118C27.4487 143.319 27.4525 143.526 27.4525 143.736C27.4525 144.155 27.4353 144.58 27.4047 145.001C27.3434 145.841 27.2286 146.667 27.0564 147.433C26.9684 147.813 26.8727 148.186 26.7579 148.535C26.6431 148.881 26.5188 149.212 26.381 149.514C26.2414 149.813 26.0941 150.09 25.9372 150.343C25.8492 150.477 25.7592 150.601 25.6655 150.722C24.4276 151.355 23.58 152.643 23.58 154.129C23.58 156.241 25.2924 157.954 27.4047 157.954C28.4665 157.954 29.427 157.521 30.1215 156.821C30.5558 156.551 30.9691 156.257 31.3614 155.943C31.9621 155.453 32.5017 154.921 32.9973 154.37C33.4871 153.817 33.9194 153.245 34.3193 152.664C34.7173 152.082 35.0655 151.491 35.3889 150.896C36.0317 149.704 36.5445 148.498 36.9788 147.278C37.1931 146.667 37.3883 146.053 37.5624 145.426C37.6485 145.112 37.7307 144.796 37.8092 144.471C37.8474 144.306 37.8838 144.142 37.9202 143.97L37.9737 143.704L38.0005 143.56C38.0235 143.361 27.4047 142.647 27.4047 142.647Z" fill="#46B3DF"/>
<path d="M27.4046 158.111C25.2081 158.111 23.4211 156.324 23.4211 154.127C23.4211 152.637 24.24 151.286 25.5621 150.595C25.6482 150.483 25.7286 150.372 25.807 150.253C25.9543 150.018 26.0997 149.746 26.2413 149.446C26.3657 149.17 26.4881 148.856 26.6106 148.483C26.7101 148.179 26.8057 147.823 26.9052 147.396C27.0697 146.66 27.1865 145.849 27.2496 144.988C27.2803 144.551 27.2955 144.128 27.2975 143.734C27.2975 143.509 27.2936 143.31 27.286 143.124C27.2821 143.028 27.2764 142.931 27.2687 142.841C27.2439 142.623 27.2573 142.575 27.2898 142.538C27.3223 142.504 27.3683 142.485 27.4161 142.489L38.0349 143.202C38.0789 143.204 38.1191 143.225 38.1458 143.26C38.1726 143.294 38.1861 143.336 38.1822 143.378L38.1536 143.585L38.0732 144C38.0368 144.174 37.9986 144.341 37.9603 144.505C37.8876 144.815 37.8053 145.129 37.7135 145.468C37.5432 146.082 37.3519 146.692 37.128 147.329C36.6554 148.659 36.1331 149.849 35.5285 150.97C35.163 151.642 34.811 152.226 34.4494 152.752C34.0055 153.398 33.5692 153.961 33.1158 154.474C32.5781 155.074 32.0367 155.593 31.4627 156.064C31.0667 156.381 30.6496 156.678 30.2229 156.944C29.4671 157.698 28.4684 158.111 27.4046 158.111ZM27.5825 142.818C27.5902 142.91 27.594 143.009 27.5997 143.111C27.6074 143.302 27.6112 143.507 27.6112 143.734C27.6112 144.136 27.594 144.565 27.5634 145.01C27.4984 145.889 27.3797 146.715 27.2113 147.467C27.1118 147.905 27.0124 148.271 26.9091 148.583C26.7809 148.967 26.6565 149.292 26.5264 149.578C26.381 149.891 26.2279 150.174 26.0711 150.423C25.9811 150.559 25.8874 150.689 25.7898 150.815C24.5041 151.491 23.7368 152.742 23.7368 154.125C23.7368 156.148 25.3822 157.793 27.4046 157.793C28.39 157.793 29.3141 157.409 30.0086 156.708C30.4601 156.423 30.8715 156.131 31.2618 155.817C31.8224 155.358 32.3524 154.849 32.8785 154.261C33.3243 153.76 33.7529 153.205 34.1872 152.572C34.5412 152.053 34.8875 151.479 35.2472 150.817C35.8442 149.711 36.3608 148.535 36.8257 147.222C37.0477 146.591 37.237 145.988 37.4054 145.382C37.4973 145.049 37.5777 144.737 37.6504 144.433C37.6886 144.27 37.7249 144.107 37.7613 143.937L37.8436 143.507L27.5825 142.818Z" fill="#004989" fill-opacity="0.1"/>
<path d="M28.8816 154.127C28.8816 154.943 28.2196 155.605 27.4046 155.605C26.5895 155.605 25.9275 154.943 25.9275 154.127C25.9275 153.312 26.5895 152.65 27.4046 152.65C28.2215 152.65 28.8816 153.312 28.8816 154.127Z" fill="#004989" fill-opacity="0.1"/>
<path d="M27.4046 155.763C26.5034 155.763 25.7687 155.028 25.7687 154.127C25.7687 153.226 26.5034 152.491 27.4046 152.491C28.3057 152.491 29.0405 153.224 29.0405 154.127C29.0405 155.028 28.3076 155.763 27.4046 155.763ZM27.4046 152.809C26.6775 152.809 26.0863 153.4 26.0863 154.127C26.0863 154.854 26.6775 155.445 27.4046 155.445C28.1316 155.445 28.7228 154.854 28.7228 154.127C28.7247 153.4 28.1316 152.809 27.4046 152.809Z" fill="#004989" fill-opacity="0.1"/>
<path d="M27.4238 144.265C27.4238 144.265 34.6407 144.166 36.8372 147.661L37.2371 146.5L37.5126 145.591L37.9163 143.971H27.4046L27.4238 144.265Z" fill="#004989" fill-opacity="0.1"/>
<path d="M36.8372 147.818C36.7836 147.818 36.7319 147.791 36.7032 147.743C34.5814 144.364 27.4964 144.42 27.4276 144.422C27.3415 144.422 27.2726 144.357 27.2669 144.275L27.2477 143.98C27.2458 143.936 27.2611 143.894 27.2898 143.861C27.3204 143.829 27.3625 143.812 27.4046 143.812H37.9163C37.9641 143.812 38.01 143.834 38.0406 143.873C38.0712 143.911 38.0808 143.961 38.0694 144.009L37.6657 145.629L37.3882 146.546L36.9864 147.713C36.9673 147.77 36.9156 147.812 36.8544 147.818C36.8487 147.818 36.8429 147.818 36.8372 147.818ZM28.3632 144.129C30.3473 144.229 34.9028 144.738 36.7913 147.311L37.0878 146.448L37.3615 145.545L37.7135 144.129H28.3632Z" fill="#004989" fill-opacity="0.1"/>
<path d="M37.5968 144.165H26.4461C24.8925 144.165 23.6316 142.906 23.6316 141.351H40.4094C40.4113 142.904 39.1504 144.165 37.5968 144.165Z" fill="#46B3DF"/>
<path d="M37.5968 144.322H26.446C24.8063 144.322 23.4747 142.988 23.4747 141.35C23.4747 141.262 23.5455 141.191 23.6335 141.191H40.4113C40.4993 141.191 40.5701 141.262 40.5701 141.35C40.5682 142.988 39.2365 144.322 37.5968 144.322ZM23.7961 141.509C23.8784 142.9 25.0359 144.006 26.446 144.006H37.5968C39.0088 144.006 40.1663 142.9 40.2486 141.509H23.7961Z" fill="#004989" fill-opacity="0.1"/>
<path d="M28.409 153.615L27.4792 153.031L26.511 153.546L26.4709 154.64L27.4007 155.224L28.3689 154.709L28.409 153.615Z" fill="white"/>
<path d="M27.4007 155.38C27.3165 155.355 26.3886 154.774 26.3886 154.774C26.3408 154.743 26.3121 154.689 26.314 154.634L26.3541 153.538C26.356 153.482 26.3886 153.43 26.4383 153.404L27.4065 152.891C27.4562 152.864 27.5174 152.866 27.5652 152.897L28.4932 153.478C28.5411 153.509 28.5698 153.562 28.5678 153.618L28.5277 154.714C28.5258 154.772 28.4932 154.821 28.4435 154.848L27.4753 155.361C27.4505 155.374 27.4256 155.38 27.4007 155.38ZM26.6335 154.553L27.4084 155.039L28.2158 154.613L28.2483 153.7L27.4735 153.214L26.666 153.641L26.6335 154.553Z" fill="#004989" fill-opacity="0.1"/>
<path d="M23.7655 141.712L37.8245 142.077C38.6816 142.1 39.4948 142.464 40.0822 143.087L40.3711 142.584L40.4093 142.01L40.5184 140.904L23.7655 141.712Z" fill="#004989" fill-opacity="0.1"/>
<path d="M40.0821 143.244C40.0381 143.244 39.998 143.227 39.9673 143.194C39.4125 142.605 38.6299 142.255 37.8206 142.234L23.7617 141.87C23.6775 141.868 23.6086 141.799 23.6067 141.713C23.6067 141.627 23.6717 141.558 23.7578 141.555L40.5107 140.745C40.5585 140.743 40.6006 140.761 40.6332 140.795C40.6657 140.828 40.681 140.873 40.6753 140.919L40.5662 142.025L40.5279 142.594C40.5069 142.66 40.218 143.166 40.218 143.166C40.1931 143.21 40.1491 143.238 40.0994 143.244C40.0955 143.244 40.0898 143.244 40.0821 143.244ZM28.0322 141.664L37.8302 141.918C38.6529 141.939 39.4488 142.268 40.0477 142.829L40.216 142.536L40.2524 141.998L40.3423 141.071L28.0322 141.664Z" fill="#004989" fill-opacity="0.1"/>
<path d="M107.656 161.33C111.634 161.33 114.858 158.106 114.858 154.128C114.858 150.151 111.634 146.927 107.656 146.927C103.679 146.927 100.455 150.151 100.455 154.128C100.455 158.106 103.679 161.33 107.656 161.33Z" fill="white"/>
<path d="M107.656 161.489C103.598 161.489 100.296 158.186 100.296 154.128C100.296 150.07 103.598 146.768 107.656 146.768C111.714 146.768 115.017 150.07 115.017 154.128C115.017 158.186 111.714 161.489 107.656 161.489ZM107.656 147.083C103.772 147.083 100.611 150.244 100.611 154.128C100.611 158.012 103.77 161.173 107.656 161.173C111.54 161.173 114.701 158.012 114.701 154.128C114.701 150.244 111.54 147.083 107.656 147.083Z" fill="#004989" fill-opacity="0.1"/>
<path d="M107.691 142.648C107.679 142.742 107.673 142.782 107.671 142.83C107.664 142.922 107.66 143.02 107.654 143.119C107.647 143.32 107.643 143.527 107.643 143.737C107.643 144.156 107.66 144.581 107.691 145.002C107.752 145.842 107.867 146.668 108.039 147.434C108.127 147.814 108.223 148.187 108.337 148.536C108.452 148.882 108.576 149.213 108.714 149.515C108.854 149.814 109.001 150.091 109.16 150.344C109.248 150.478 109.338 150.602 109.432 150.723C110.67 151.356 111.517 152.644 111.517 154.13C111.517 156.242 109.805 157.955 107.692 157.955C106.631 157.955 105.67 157.522 104.976 156.822C104.541 156.552 104.128 156.258 103.736 155.944C103.137 155.454 102.595 154.922 102.102 154.371C101.612 153.818 101.18 153.246 100.78 152.665C100.382 152.083 100.034 151.492 99.7102 150.897C99.0673 149.705 98.5546 148.499 98.1203 147.279C97.906 146.668 97.7108 146.054 97.5367 145.427C97.4506 145.113 97.3684 144.797 97.2918 144.472C97.2536 144.307 97.2153 144.143 97.1809 143.971L97.1273 143.705L97.1004 143.561C97.0736 143.362 107.691 142.648 107.691 142.648Z" fill="#46B3DF"/>
<path d="M107.691 158.113C106.627 158.113 105.628 157.7 104.876 156.948C104.449 156.68 104.032 156.385 103.636 156.068C103.068 155.603 102.511 155.069 101.983 154.478C101.528 153.965 101.092 153.4 100.65 152.756C100.29 152.228 99.9379 151.646 99.5725 150.974C98.9679 149.853 98.4456 148.663 97.973 147.333C97.7491 146.696 97.5577 146.086 97.3874 145.472C97.2937 145.131 97.2133 144.817 97.1406 144.511C97.1023 144.345 97.0641 144.18 97.0278 144.006L96.9187 143.382C96.913 143.34 96.9263 143.296 96.955 143.264C96.9837 143.231 97.024 143.21 97.0661 143.206L107.685 142.493C107.733 142.489 107.779 142.508 107.811 142.542C107.844 142.579 107.859 142.627 107.851 142.673C107.826 142.933 107.821 143.03 107.817 143.128C107.809 143.31 107.805 143.511 107.805 143.738C107.805 144.132 107.821 144.553 107.851 144.991C107.914 145.852 108.031 146.662 108.196 147.4C108.293 147.827 108.391 148.183 108.49 148.487C108.613 148.858 108.735 149.174 108.86 149.451C108.999 149.75 109.145 150.023 109.294 150.261C109.369 150.375 109.449 150.486 109.535 150.599C110.855 151.29 111.676 152.639 111.676 154.131C111.674 156.326 109.887 158.113 107.691 158.113ZM97.2535 143.509L97.2841 143.677L97.3358 143.939C97.3703 144.107 97.4085 144.272 97.4468 144.435C97.5176 144.737 97.5979 145.047 97.6917 145.384C97.86 145.992 98.0494 146.595 98.2713 147.224C98.7363 148.537 99.2529 149.713 99.8498 150.819C100.21 151.481 100.558 152.055 100.912 152.574C101.348 153.209 101.775 153.762 102.22 154.263C102.747 154.851 103.275 155.358 103.837 155.819C104.226 156.131 104.639 156.423 105.06 156.686C105.783 157.409 106.707 157.793 107.692 157.793C109.715 157.793 111.36 156.148 111.36 154.126C111.36 152.742 110.593 151.491 109.361 150.86C109.208 150.687 109.116 150.559 109.028 150.425C108.871 150.175 108.718 149.889 108.573 149.578C108.441 149.289 108.316 148.963 108.19 148.581C108.087 148.267 107.989 147.903 107.888 147.465C107.719 146.711 107.601 145.885 107.536 145.009C107.505 144.563 107.488 144.134 107.488 143.732C107.488 143.501 107.492 143.296 107.499 143.109C107.503 143.007 107.509 142.908 107.516 142.814L97.2535 143.509Z" fill="#004989" fill-opacity="0.1"/>
<path d="M106.213 154.127C106.213 154.943 106.875 155.605 107.691 155.605C108.506 155.605 109.168 154.943 109.168 154.127C109.168 153.312 108.506 152.65 107.691 152.65C106.875 152.65 106.213 153.312 106.213 154.127Z" fill="#004989" fill-opacity="0.1"/>
<path d="M107.691 155.763C106.789 155.763 106.055 155.028 106.055 154.127C106.055 153.226 106.787 152.491 107.691 152.491C108.592 152.491 109.326 153.224 109.326 154.127C109.326 155.028 108.594 155.763 107.691 155.763ZM107.691 152.809C106.963 152.809 106.372 153.4 106.372 154.127C106.372 154.854 106.963 155.445 107.691 155.445C108.418 155.445 109.009 154.854 109.009 154.127C109.011 153.4 108.42 152.809 107.691 152.809Z" fill="#004989" fill-opacity="0.1"/>
<path d="M97.1999 144.263C97.1999 144.263 105.965 144.428 108.159 147.924L107.849 146.416L107.735 145.511L107.691 143.971H97.1789L97.1999 144.263Z" fill="#004989" fill-opacity="0.1"/>
<path d="M108.159 148.081C108.106 148.081 108.054 148.054 108.025 148.006C105.9 144.624 97.2842 144.423 97.1962 144.421C97.1139 144.419 97.0469 144.356 97.0412 144.274L97.022 143.979C97.0182 143.935 97.0335 143.893 97.0641 143.86C97.0947 143.828 97.1368 143.811 97.1789 143.811H107.691C107.777 143.811 107.846 143.879 107.849 143.964L107.893 145.504L108.006 146.394L108.314 147.89C108.33 147.964 108.289 148.039 108.219 148.068C108.2 148.077 108.178 148.081 108.159 148.081ZM97.7911 144.128C99.6853 144.226 105.553 144.731 107.867 147.277L107.696 146.447L107.58 145.531L107.539 144.128H97.7911Z" fill="#004989" fill-opacity="0.1"/>
<path d="M97.4983 144.165H108.649C110.203 144.165 111.464 142.906 111.464 141.351H94.6859C94.6859 142.904 95.9447 144.165 97.4983 144.165Z" fill="#46B3DF"/>
<path d="M108.649 144.322H97.4984C95.8606 144.322 94.527 142.988 94.527 141.35C94.527 141.262 94.5978 141.191 94.6859 141.191H111.464C111.552 141.191 111.622 141.262 111.622 141.35C111.622 142.988 110.289 144.322 108.649 144.322ZM94.8484 141.509C94.9307 142.9 96.0883 144.006 97.5003 144.006H108.651C110.063 144.006 111.221 142.9 111.303 141.509H94.8484Z" fill="#004989" fill-opacity="0.1"/>
<path d="M106.688 153.616L107.616 153.032L108.584 153.547L108.624 154.641L107.696 155.225L106.726 154.71L106.688 153.616Z" fill="white"/>
<path d="M107.696 155.381C107.622 155.362 106.654 154.849 106.654 154.849C106.604 154.822 106.571 154.771 106.569 154.715L106.529 153.619C106.527 153.563 106.556 153.51 106.604 153.479L107.532 152.898C107.58 152.867 107.641 152.865 107.691 152.892L108.659 153.405C108.708 153.431 108.741 153.483 108.743 153.538L108.783 154.635C108.785 154.692 108.756 154.744 108.708 154.774L107.78 155.356C107.754 155.373 107.725 155.381 107.696 155.381ZM106.883 154.614L107.691 155.04L108.465 154.554L108.433 153.642L107.626 153.215L106.851 153.701L106.883 154.614Z" fill="#004989" fill-opacity="0.1"/>
<path d="M94.6859 141.644L108.745 142.01C109.602 142.033 110.415 142.396 111.003 143.02L111.291 142.517L111.439 141.989V140.837L94.6859 141.644Z" fill="#004989" fill-opacity="0.1"/>
<path d="M111.003 143.177C110.959 143.177 110.918 143.159 110.888 143.127C110.333 142.538 109.55 142.187 108.741 142.166L94.682 141.801C94.5978 141.799 94.529 141.73 94.527 141.644C94.527 141.558 94.5921 141.489 94.6782 141.483L111.431 140.674C111.475 140.672 111.517 140.687 111.548 140.718C111.578 140.749 111.598 140.789 111.598 140.833V141.985C111.592 142.027 111.444 142.555 111.444 142.555C111.429 142.591 111.14 143.096 111.14 143.096C111.115 143.14 111.071 143.169 111.022 143.175C111.014 143.177 111.008 143.177 111.003 143.177ZM98.9506 141.596L108.749 141.851C109.571 141.872 110.367 142.201 110.966 142.761L111.142 142.453L111.278 141.965V141.001L98.9506 141.596Z" fill="#004989" fill-opacity="0.1"/>
<path d="M123.506 139.315C122.836 140.817 121.397 141.75 119.754 141.75H17.2316C16.0664 141.75 15.1212 140.805 15.1212 139.64C15.1212 138.475 16.0664 137.53 17.2316 137.53H119.507L98.1107 113.661L83.539 111.715C82.3777 111.622 81.5109 110.604 81.6066 109.44C81.6372 109.044 81.7768 108.685 81.993 108.384C82.435 107.787 83.1276 107.447 83.8796 107.508L99.2912 109.521C99.8288 109.565 100.332 109.814 100.692 110.215L103.074 112.871L122.817 134.893C123.912 136.121 124.178 137.813 123.506 139.315Z" fill="#46B3DF"/>
<path d="M119.754 141.91H17.2316C15.9803 141.91 14.9644 140.892 14.9644 139.641C14.9644 138.39 15.9822 137.372 17.2316 137.372H119.153L98.0322 113.812L83.5179 111.873C82.2781 111.774 81.3464 110.676 81.4478 109.43C81.4803 109.021 81.6238 108.628 81.8629 108.296C82.3623 107.626 83.1105 107.289 83.893 107.352L99.3122 109.367C99.8862 109.413 100.42 109.679 100.81 110.113L122.936 134.791C124.076 136.063 124.352 137.822 123.655 139.381C122.955 140.94 121.461 141.91 119.754 141.91ZM17.2297 137.688C16.1545 137.688 15.2781 138.564 15.2781 139.639C15.2781 140.716 16.1545 141.593 17.2297 141.593H119.752C121.334 141.593 122.716 140.695 123.361 139.251C124.005 137.808 123.751 136.18 122.695 135.001L100.569 110.324C100.235 109.949 99.7734 109.721 99.274 109.681L83.8547 107.666C83.1851 107.612 82.5422 107.905 82.1385 108.449C81.9108 108.762 81.7865 109.101 81.7597 109.453C81.6717 110.526 82.4753 111.47 83.5486 111.558L98.128 113.504C98.1643 113.509 98.1987 113.526 98.2236 113.555L119.622 137.424C119.664 137.47 119.674 137.536 119.649 137.594C119.624 137.651 119.567 137.688 119.503 137.688H17.2297Z" fill="#004989" fill-opacity="0.1"/>
<path d="M129.223 93.1578C129.188 93.1578 129.156 93.1559 129.121 93.154L4.35117 82.8164C3.68535 82.7609 3.19171 82.1773 3.24528 81.5115C3.30077 80.8457 3.88242 80.3501 4.55017 80.4056L129.32 90.7432C129.986 90.7987 130.48 91.3822 130.426 92.0481C130.375 92.6814 129.845 93.1578 129.223 93.1578Z" fill="#46B3DF"/>
<path d="M129.223 93.3169C129.185 93.3169 129.146 93.315 129.108 93.3131L4.33786 82.9755C3.97434 82.9449 3.64335 82.7746 3.40801 82.4972C3.17268 82.2178 3.05784 81.8639 3.08845 81.5003C3.11906 81.1368 3.28743 80.8058 3.56677 80.5705C3.84612 80.3352 4.20013 80.2203 4.56366 80.251L129.334 90.5885C129.697 90.6191 130.028 90.7894 130.264 91.0668C130.499 91.3462 130.614 91.7001 130.583 92.0637C130.526 92.7659 129.927 93.3169 129.223 93.3169ZM4.44694 80.5609C4.19821 80.5609 3.96095 80.647 3.76962 80.8097C3.55533 80.9914 3.42519 81.2459 3.40223 81.5252C3.37927 81.8046 3.46541 82.0762 3.64718 82.2905C3.82894 82.5048 4.0834 82.6349 4.36274 82.6579L129.133 92.9954C129.715 93.0433 130.22 92.6051 130.268 92.035C130.29 91.7556 130.202 91.484 130.023 91.2697C129.843 91.0554 129.588 90.9253 129.307 90.9023L4.53685 80.5647C4.50816 80.5628 4.47755 80.5609 4.44694 80.5609Z" fill="#004989" fill-opacity="0.1"/>
<path d="M122.201 90.0879C121.983 90.1434 121.79 90.2793 121.671 90.4725C121.346 91.0006 121.229 91.6358 121.346 92.248C121.371 92.3801 121.478 92.4834 121.61 92.5083L119.536 92.3495L119.957 89.9023L122.201 90.0879Z" fill="#004989" fill-opacity="0.1"/>
<path d="M129.244 90.7373C129.026 90.7928 128.833 90.9287 128.714 91.1219C128.389 91.65 128.272 92.2852 128.389 92.8975C128.414 93.0295 128.521 93.1328 128.653 93.1577L126.579 92.9989L127 90.5518L129.244 90.7373Z" fill="#004989" fill-opacity="0.1"/>
<path d="M145.18 64.142C145.168 64.142 2.62546 62.8735 2.62546 62.8735C1.95772 62.8677 1.42198 62.3205 1.42772 61.6528C1.43346 60.9889 1.97299 60.4551 2.6369 60.4551C2.64838 60.4551 145.191 61.7236 145.191 61.7236C145.859 61.7293 146.395 62.2746 146.389 62.9423C146.383 63.6063 145.844 64.142 145.18 64.142Z" fill="#46B3DF"/>
<path d="M145.18 64.2994C145.166 64.2994 2.62359 63.029 2.62359 63.029C1.86975 63.0233 1.26131 62.4034 1.26896 61.6495C1.2747 60.9014 1.88886 60.2949 2.63697 60.2949L145.193 61.5634C145.559 61.5673 145.901 61.7127 146.156 61.9729C146.412 62.2331 146.552 62.5775 146.548 62.9429C146.54 63.6929 145.928 64.2994 145.18 64.2994ZM2.64654 60.6125C2.06298 60.6125 1.59234 61.0794 1.5866 61.6533C1.58086 62.2331 2.04766 62.7076 2.62739 62.7133L145.17 63.9818L145.18 64.1406V63.9818C145.754 63.9818 146.225 63.515 146.23 62.941C146.232 62.6598 146.125 62.3957 145.93 62.1948C145.733 61.9939 145.471 61.883 145.189 61.881L2.64654 60.6125Z" fill="#004989" fill-opacity="0.1"/>
<path d="M135.588 61.6886C135.374 61.7575 135.19 61.9067 135.085 62.1057C134.794 62.6548 134.718 63.2938 134.875 63.8984C134.909 64.0285 135.02 64.1242 135.156 64.1414L133.076 64.1146L133.34 61.6465L135.588 61.6886Z" fill="#004989" fill-opacity="0.1"/>
<path d="M122.27 61.4513C122.056 61.5202 121.872 61.6694 121.765 61.8684C121.474 62.4175 121.397 63.0565 121.554 63.6611C121.589 63.7912 121.7 63.8869 121.836 63.9041L119.756 63.8774L120.02 61.4092L122.27 61.4513Z" fill="#004989" fill-opacity="0.1"/>
<path d="M110.503 89.2432C110.285 89.2987 110.092 89.4345 109.973 89.6278C109.648 90.1559 109.531 90.7911 109.648 91.4033C109.673 91.5353 109.78 91.6387 109.912 91.6635L107.838 91.5047L108.259 89.0576L110.503 89.2432Z" fill="#004989" fill-opacity="0.1"/>
<path d="M100.567 108.575C100.41 108.575 100.25 108.545 100.095 108.48C99.4805 108.219 99.1936 107.51 99.4538 106.893L130.465 33.8092C130.725 33.195 131.435 32.9081 132.051 33.1683C132.665 33.4285 132.952 34.1383 132.692 34.7544L101.681 107.841C101.486 108.3 101.038 108.575 100.567 108.575Z" fill="#46B3DF"/>
<path d="M100.567 108.734C100.384 108.734 100.204 108.698 100.033 108.625C99.6967 108.481 99.4365 108.217 99.3006 107.879C99.1629 107.54 99.1667 107.169 99.3102 106.832L130.321 33.7459C130.616 33.0514 131.419 32.7261 132.114 33.0208C132.451 33.1643 132.711 33.4283 132.847 33.767C132.984 34.1056 132.981 34.4768 132.837 34.8136L101.826 107.9C101.612 108.407 101.116 108.734 100.567 108.734ZM131.58 33.2293C131.17 33.2293 130.78 33.4704 130.612 33.8703L99.601 106.956C99.4919 107.215 99.4882 107.5 99.5934 107.76C99.6986 108.02 99.8995 108.223 100.158 108.334C100.288 108.39 100.426 108.418 100.567 108.418C100.99 108.418 101.369 108.168 101.535 107.777L132.546 34.693C132.655 34.4347 132.659 34.1496 132.554 33.8894C132.449 33.6292 132.248 33.4245 131.989 33.3154C131.855 33.2561 131.718 33.2293 131.58 33.2293Z" fill="#004989" fill-opacity="0.1"/>
<path d="M100.69 88.3604C100.472 88.4159 100.278 88.5517 100.16 88.7449C99.8345 89.273 99.7179 89.9083 99.8365 90.5205C99.8614 90.6525 99.9685 90.7558 100.101 90.7807L98.0265 90.6219L98.4474 88.1748L100.69 88.3604Z" fill="#004989" fill-opacity="0.1"/>
<path d="M110.805 61.3546C110.591 61.4234 110.407 61.5708 110.3 61.7717C110.01 62.3208 109.933 62.9599 110.09 63.5645C110.124 63.6946 110.237 63.7902 110.371 63.8074L108.291 63.7806L108.555 61.3125L110.805 61.3546Z" fill="#004989" fill-opacity="0.1"/>
<path d="M120.317 33.7188C120.473 34.0172 120.506 34.3769 120.374 34.7156L119.811 36.1697L92.1987 107.614C92.0131 108.095 91.5557 108.387 91.0698 108.387C90.9263 108.387 90.779 108.36 90.6355 108.305C90.0136 108.064 89.7036 107.364 89.9447 106.742L117.161 36.3208L118.118 33.845L120.317 33.7188Z" fill="#46B3DF"/>
<path d="M91.0716 108.545C90.9052 108.545 90.7388 108.515 90.58 108.454C89.8778 108.182 89.5257 107.388 89.7974 106.686L117.014 36.2648L117.971 33.789L118.265 33.9038L117.307 36.3796L90.0901 106.801C89.8815 107.34 90.1514 107.95 90.6909 108.159C90.8134 108.207 90.9415 108.23 91.0697 108.23C91.5079 108.23 91.8925 107.966 92.0513 107.556L120.227 34.6576C120.336 34.3745 120.316 34.0588 120.177 33.7928L120.456 33.6455C120.64 33.9937 120.665 34.4051 120.521 34.7724L92.3459 107.671C92.1412 108.203 91.6418 108.545 91.0716 108.545Z" fill="#004989" fill-opacity="0.1"/>
<path d="M80.9024 86.6367C80.6824 86.6922 80.4911 86.828 80.3725 87.0213C80.0472 87.5494 79.9305 88.1846 80.0472 88.7968C80.0721 88.9288 80.1792 89.0322 80.3113 89.057L78.2373 88.8963L78.6581 86.4492L80.9024 86.6367Z" fill="#004989" fill-opacity="0.1"/>
<path d="M90.8458 87.5732C90.6277 87.6287 90.4345 87.7646 90.3159 87.9578C89.9906 88.4859 89.8738 89.1211 89.9906 89.7333C90.0154 89.8654 90.1226 89.9687 90.2546 89.9936L88.1806 89.8328L88.6016 87.3857L90.8458 87.5732Z" fill="#004989" fill-opacity="0.1"/>
<path d="M100.014 61.2335C99.8 61.3024 99.6164 61.4497 99.5111 61.6506C99.2203 62.1997 99.1438 62.8388 99.3007 63.4434C99.3351 63.5735 99.448 63.6691 99.5819 63.6864L97.5022 63.6596L97.7662 61.1914L100.014 61.2335Z" fill="#004989" fill-opacity="0.1"/>
<path d="M106.426 34.5127C106.302 34.6352 106.204 34.7863 106.141 34.9604L105.41 36.9924L80.7321 105.661C80.5083 106.29 80.8336 106.983 81.4612 107.207C81.597 107.256 81.7348 107.279 81.8706 107.279C82.3661 107.279 82.831 106.973 83.009 106.48L108.033 36.8431L108.416 35.7774C108.596 35.2761 108.423 34.7347 108.029 34.4209L106.426 34.5127Z" fill="#46B3DF"/>
<path d="M81.8686 107.436C81.7098 107.436 81.5549 107.409 81.4056 107.353C80.6977 107.101 80.3284 106.316 80.5829 105.605L105.261 36.9362L105.992 34.9042C106.06 34.7129 106.17 34.5426 106.315 34.3972L106.537 34.623C106.426 34.7339 106.342 34.8641 106.29 35.0114L105.559 37.0433L80.8814 105.712C80.6862 106.257 80.9713 106.86 81.5147 107.055C81.6295 107.097 81.7482 107.118 81.8706 107.118C82.3126 107.118 82.7105 106.839 82.8597 106.422L107.884 36.785C107.892 36.7678 108.266 35.7193 108.266 35.7193C108.42 35.2946 108.284 34.82 107.93 34.5407L108.127 34.292C108.588 34.6555 108.764 35.2735 108.565 35.8265L108.182 36.8922C108.175 36.9094 83.1564 106.529 83.1564 106.529C82.9612 107.072 82.4445 107.436 81.8686 107.436Z" fill="#004989" fill-opacity="0.1"/>
<path d="M142.74 61.6886C142.526 61.7575 142.342 61.9067 142.237 62.1057C141.946 62.6548 141.87 63.2938 142.027 63.8984C142.061 64.0285 142.172 64.1242 142.308 64.1414L140.228 64.1146L140.492 61.6465L142.74 61.6886Z" fill="#004989" fill-opacity="0.1"/>
<path d="M88.7929 61.214C88.5786 61.2829 88.3949 61.4302 88.2897 61.6311C87.9989 62.1802 87.9223 62.8192 88.0792 63.4238C88.1137 63.5539 88.2265 63.6496 88.3604 63.6668L86.2807 63.64L86.5448 61.1719L88.7929 61.214Z" fill="#004989" fill-opacity="0.1"/>
<path d="M65.5405 60.9874C65.3262 61.0563 65.1426 61.2036 65.0373 61.4045C64.7465 61.9536 64.6699 62.5927 64.8268 63.1973C64.8613 63.3274 64.9742 63.423 65.1081 63.4403L63.0283 63.4135L63.2924 60.9453L65.5405 60.9874Z" fill="#004989" fill-opacity="0.1"/>
<path d="M77.9847 61.0919C77.7704 61.1608 77.5867 61.3081 77.4815 61.509C77.1907 62.0581 77.1141 62.6972 77.271 63.3018C77.3055 63.4319 77.4183 63.5275 77.5522 63.5448L75.4725 63.518L75.7365 61.0498L77.9847 61.0919Z" fill="#004989" fill-opacity="0.1"/>
<path d="M43.331 60.7257C43.1167 60.7946 42.933 60.9419 42.8258 61.1428C42.535 61.6919 42.4585 62.3309 42.6154 62.9356C42.6498 63.0657 42.7608 63.1613 42.8966 63.1785L40.8169 63.1518L41.0809 60.6836L43.331 60.7257Z" fill="#004989" fill-opacity="0.1"/>
<path d="M54.3898 60.8683C54.1755 60.9371 53.9919 61.0864 53.8847 61.2854C53.5939 61.8345 53.5174 62.4735 53.6743 63.0781C53.7087 63.2082 53.8215 63.3039 53.9555 63.3211L51.8758 63.2943L52.1398 60.8262L54.3898 60.8683Z" fill="#004989" fill-opacity="0.1"/>
<path d="M20.5665 60.6173C20.3522 60.6862 20.1685 60.8354 20.0633 61.0344C19.738 61.6486 19.6806 62.3795 19.9198 63.0434L20.1609 63.028L18.0524 63.0434L18.3165 60.5752L20.5665 60.6173Z" fill="#004989" fill-opacity="0.1"/>
<path d="M7.47186 60.4952C7.25757 60.5641 7.07388 60.7133 6.96674 60.9123C6.64148 61.5265 6.58411 62.2574 6.82327 62.9213L7.06431 62.906L4.95779 62.9213L5.22183 60.4531L7.47186 60.4952Z" fill="#004989" fill-opacity="0.1"/>
<path d="M31.2695 60.7257C31.0552 60.7946 30.8715 60.9419 30.7644 61.1428C30.4736 61.6919 30.397 62.3309 30.5539 62.9356C30.5883 63.0657 30.7012 63.1613 30.8352 63.1785L28.7554 63.1518L29.0194 60.6836L31.2695 60.7257Z" fill="#004989" fill-opacity="0.1"/>
<path d="M95.7286 35.7276L95.1546 37.5758L74.093 105.349C73.9304 105.867 73.454 106.198 72.9393 106.198C72.8188 106.198 72.7001 106.181 72.5796 106.145C71.9405 105.946 71.5866 105.268 71.7836 104.631L92.5754 37.7232L93.3427 35.2569L95.7573 35.1191C95.7994 35.3162 95.7917 35.5229 95.7286 35.7276Z" fill="#46B3DF"/>
<path d="M72.9393 106.359C72.7996 106.359 72.6638 106.338 72.5337 106.298C71.8143 106.074 71.4106 105.307 71.6344 104.585L92.4262 37.6771L93.1935 35.2128C93.2126 35.1497 93.2701 35.1056 93.3351 35.1018L95.7496 34.9641C95.8223 34.9602 95.8969 35.0119 95.9142 35.0884C95.962 35.3142 95.9524 35.5514 95.8836 35.7753L74.248 105.398C74.0643 105.972 73.5401 106.359 72.9393 106.359ZM93.4613 35.4099L92.7267 37.7709L71.9348 104.679C71.7626 105.232 72.0726 105.823 72.6255 105.995C72.725 106.026 72.8302 106.043 72.9374 106.043C73.4004 106.043 73.8022 105.747 73.9418 105.305L95.5775 35.6835C95.6177 35.5553 95.633 35.4213 95.6215 35.2893L93.4613 35.4099Z" fill="#004989" fill-opacity="0.1"/>
<path d="M60.763 85.0332C60.5449 85.0887 60.3516 85.2246 60.233 85.4178C59.9078 85.9459 59.791 86.5811 59.9097 87.1934C59.9345 87.3254 60.0417 87.4287 60.1737 87.4536L58.0997 87.2948L58.5206 84.8477L60.763 85.0332Z" fill="#004989" fill-opacity="0.1"/>
<path d="M71.07 85.9122C70.8518 85.9676 70.6586 86.1035 70.54 86.2967C70.2147 86.8248 70.098 87.46 70.2147 88.0723C70.2396 88.2043 70.3468 88.3076 70.4788 88.3325L68.4047 88.1737L68.8257 85.7266L71.07 85.9122Z" fill="#004989" fill-opacity="0.1"/>
<path d="M83.0377 36.9499L82.6799 38.2873L65.0183 104.206C64.8729 104.746 64.385 105.104 63.8512 105.104C63.7479 105.104 63.6426 105.088 63.5374 105.062C62.8926 104.889 62.5099 104.225 62.6821 103.583L80.1372 38.4328L80.7016 36.3243C80.736 36.1942 80.7915 36.0756 80.8604 35.9703L82.7909 35.8594C83.0396 36.1521 83.143 36.5539 83.0377 36.9499Z" fill="#46B3DF"/>
<path d="M63.8492 105.262C63.7344 105.262 63.6158 105.247 63.4952 105.214C63.1413 105.121 62.8466 104.893 62.6648 104.577C62.4831 104.262 62.4334 103.892 62.529 103.54L80.5484 36.2839C80.5886 36.1385 80.648 36.0026 80.7303 35.8821C80.757 35.84 80.8029 35.8151 80.8526 35.8113L82.7832 35.7003C82.8368 35.6984 82.8827 35.7176 82.9152 35.7558C83.2022 36.0983 83.3056 36.5594 83.1908 36.9899L82.833 38.3273L65.1713 104.246C65.0105 104.845 64.4672 105.262 63.8492 105.262ZM80.9541 36.1232C80.912 36.1978 80.8795 36.2801 80.8546 36.3662L80.2902 38.4746L62.8352 103.623C62.7625 103.894 62.8007 104.175 62.9404 104.418C63.08 104.661 63.3077 104.836 63.5794 104.908C64.1706 105.065 64.7197 104.709 64.867 104.166L82.5288 38.2469L82.8866 36.9095C82.9688 36.6034 82.9076 36.2762 82.722 36.0218L80.9541 36.1232Z" fill="#004989" fill-opacity="0.1"/>
<path d="M69.4953 36.6182C69.4972 36.7062 69.4895 36.7942 69.4704 36.8822L69.0189 39.0672L55.8075 103.027C55.6889 103.599 55.1857 103.991 54.6251 103.991C54.5447 103.991 54.4625 103.984 54.3783 103.966C53.7239 103.832 53.3049 103.191 53.4389 102.539L66.5182 39.2107L67.0252 36.7597L69.4953 36.6182Z" fill="#46B3DF"/>
<path d="M54.6271 104.148C54.5352 104.148 54.4434 104.138 54.3497 104.119C53.9919 104.047 53.6838 103.838 53.4829 103.532C53.282 103.228 53.2132 102.862 53.2859 102.504L66.8722 36.7251C66.8875 36.6543 66.9468 36.6026 67.0176 36.5988L69.4857 36.4591C69.5278 36.4572 69.5699 36.4725 69.6025 36.5012C69.635 36.5299 69.6522 36.5701 69.6541 36.6141C69.656 36.7117 69.6465 36.8131 69.6273 36.9145L69.1758 39.0995L55.9645 103.059C55.8344 103.689 55.2718 104.148 54.6271 104.148ZM67.1573 36.9088L66.6751 39.2411L53.5958 102.569C53.5403 102.845 53.5939 103.124 53.747 103.36C53.9019 103.595 54.1373 103.754 54.4128 103.811C54.9963 103.93 55.5397 103.549 55.6545 102.994L69.3155 36.8494C69.327 36.7863 67.1573 36.9088 67.1573 36.9088Z" fill="#004989" fill-opacity="0.1"/>
<path d="M40.5547 83.3428C40.3366 83.3982 40.1434 83.5341 40.0248 83.7273C39.6995 84.2554 39.5828 84.8906 39.6995 85.5029C39.7244 85.6349 39.8315 85.7382 39.9635 85.7631L37.8895 85.6024L38.3105 83.1553L40.5547 83.3428Z" fill="#004989" fill-opacity="0.1"/>
<path d="M50.546 84.2773C50.3279 84.3328 50.1346 84.4687 50.016 84.6619C49.6907 85.19 49.574 85.8252 49.6907 86.4374C49.7156 86.5695 49.8228 86.6728 49.9548 86.6977L47.8807 86.5369L48.3017 84.0898L50.546 84.2773Z" fill="#004989" fill-opacity="0.1"/>
<path d="M56.7355 37.3408C57.0512 37.6087 57.2196 38.0315 57.145 38.4697L56.923 39.7516L46.2334 101.825C46.1339 102.412 45.6211 102.829 45.0433 102.829C44.9763 102.829 44.9075 102.824 44.8367 102.81C44.1785 102.697 43.7385 102.072 43.8494 101.413L54.4453 39.8913L54.761 38.0564C54.8012 37.8134 54.914 37.5991 55.0728 37.4327L56.7355 37.3408Z" fill="#46B3DF"/>
<path d="M45.0452 102.99C44.9687 102.99 44.8902 102.982 44.8118 102.968C44.0694 102.842 43.5681 102.132 43.6963 101.39L54.6079 38.0349C54.6519 37.7689 54.7743 37.524 54.9618 37.3289L55.1915 37.547C55.048 37.6981 54.9561 37.8837 54.9198 38.0884L54.6041 39.9233L44.0082 101.445C43.9106 102.018 44.2952 102.561 44.8654 102.659C45.4623 102.76 45.9828 102.366 46.0784 101.803L56.768 39.7282L56.9899 38.4462C57.0531 38.0808 56.9154 37.7039 56.6341 37.4647L56.8388 37.2236C57.2062 37.5355 57.3841 38.0253 57.3018 38.4998L57.0799 39.7817L46.3903 101.855C46.2793 102.511 45.713 102.99 45.0452 102.99Z" fill="#004989" fill-opacity="0.1"/>
<path d="M45.0032 38.4184L44.7487 40.4503L37.2179 100.685C37.1414 101.297 36.621 101.743 36.0202 101.743C35.9685 101.743 35.9188 101.741 35.8691 101.735C35.2052 101.651 34.7364 101.048 34.8187 100.384L42.2939 40.5899L42.6 38.1505L44.9859 38.0146C45.0146 38.1448 45.0204 38.2806 45.0032 38.4184Z" fill="#46B3DF"/>
<path d="M36.0221 101.904C35.9647 101.904 35.9093 101.9 35.8519 101.894C35.1038 101.8 34.5699 101.115 34.6637 100.367L42.1389 40.5726L42.4451 38.1332C42.4546 38.0586 42.5178 37.9992 42.5924 37.9954L44.9783 37.8596C45.0548 37.8557 45.1256 37.9074 45.1428 37.9839C45.1754 38.1313 45.1811 38.2843 45.162 38.4393L37.3768 100.706C37.2926 101.387 36.709 101.904 36.0221 101.904ZM42.7416 38.3016L42.4527 40.609L34.9775 100.403C34.9067 100.979 35.3161 101.506 35.8901 101.576C35.9341 101.582 35.9762 101.584 36.0221 101.584C36.5502 101.584 36.9979 101.188 37.063 100.664L44.8463 38.3972C44.8558 38.3226 44.8558 38.2499 44.852 38.1791L42.7416 38.3016Z" fill="#004989" fill-opacity="0.1"/>
<path d="M20.0002 81.6885C19.7821 81.744 19.5888 81.8798 19.4702 82.0731C19.1047 82.6662 19.0014 83.3894 19.1985 84.0686H19.4396L17.3349 83.95L17.7559 81.5029L20.0002 81.6885Z" fill="#004989" fill-opacity="0.1"/>
<path d="M9.36028 80.7754C9.14216 80.8309 8.9489 80.9668 8.83028 81.16C8.46484 81.7531 8.36152 82.4764 8.55859 83.1556H8.79968L6.69504 83.037L7.11597 80.5898L9.36028 80.7754Z" fill="#004989" fill-opacity="0.1"/>
<path d="M30.0066 82.5245C29.7885 82.5799 29.5953 82.7158 29.4767 82.909C29.1514 83.4371 29.0347 84.0723 29.1533 84.6846C29.1782 84.8166 29.2854 84.9199 29.4174 84.9448L27.3433 84.786L27.7643 82.3389L30.0066 82.5245Z" fill="#004989" fill-opacity="0.1"/>
<path d="M31.4091 39.614L31.3096 41.2193L27.6859 99.4602C27.6457 100.101 27.1138 100.595 26.4805 100.595C25.7362 100.551 25.2311 99.9768 25.2732 99.3109L28.8798 41.357L28.9965 39.4648C29.008 39.2639 29.0692 39.0783 29.1648 38.9176L31.1642 38.8047C31.3326 39.0266 31.4283 39.3117 31.4091 39.614Z" fill="#46B3DF"/>
<path d="M26.4805 100.752C26.029 100.727 25.6961 100.564 25.4531 100.289C25.212 100.015 25.0915 99.663 25.1144 99.2994L28.721 41.3456L28.8377 39.4533C28.8511 39.2333 28.9142 39.0266 29.0271 38.8353C29.0539 38.7894 29.1017 38.7607 29.1534 38.7588L31.1509 38.6459C31.2026 38.6421 31.2542 38.6669 31.2867 38.7071C31.4857 38.9692 31.5852 39.2945 31.566 39.6236L31.4665 41.2288L27.8428 99.4697C27.7988 100.189 27.1999 100.752 26.4805 100.752ZM29.2605 39.0706C29.1974 39.1969 29.163 39.3328 29.1534 39.4744L29.0367 41.3666L25.4301 99.3205C25.4129 99.5998 25.5047 99.8715 25.6903 100.08C25.8759 100.291 26.1323 100.417 26.4135 100.434C27.0334 100.436 27.4926 100.004 27.5271 99.4506L31.1509 41.2097L31.2504 39.6044C31.2638 39.3787 31.2044 39.1548 31.082 38.9673L29.2605 39.0706Z" fill="#004989" fill-opacity="0.1"/>
<path d="M129.208 36.5666C129.301 36.36 129.477 36.1935 129.705 36.1074C130.327 35.8759 131.031 35.8663 131.678 36.0883C131.817 36.1361 131.911 36.2586 131.919 36.3944L132.583 34.6992L129.942 34.8408L129.208 36.5666Z" fill="#004989" fill-opacity="0.1"/>
<path d="M116.695 37.2316C116.788 37.025 116.964 36.8566 117.192 36.7724C117.814 36.5409 118.518 36.5313 119.165 36.7514C119.304 36.7992 119.4 36.9216 119.406 37.0575L120.07 35.3623L117.429 35.5039L116.695 37.2316Z" fill="#004989" fill-opacity="0.1"/>
<path d="M104.966 37.9172C105.06 37.7105 105.236 37.5422 105.463 37.458C106.085 37.2265 106.789 37.2169 107.436 37.4389C107.576 37.4867 107.671 37.6091 107.677 37.745L108.341 36.0498L105.701 36.1914L104.966 37.9172Z" fill="#004989" fill-opacity="0.1"/>
<path d="M92.1909 38.6427C92.2846 38.4361 92.4607 38.2677 92.6884 38.1835C93.3102 37.952 94.0143 37.9425 94.661 38.1644C94.8007 38.2122 94.8944 38.3347 94.902 38.4686L95.5659 36.7734L92.9257 36.915L92.1909 38.6427Z" fill="#004989" fill-opacity="0.1"/>
<path d="M79.8444 39.5244C79.9381 39.3177 79.9745 39.0805 80.2003 38.9963C80.8221 38.7648 81.5261 38.7552 82.1728 38.9752C82.3125 39.0231 82.4063 39.1455 82.414 39.2814L82.8636 37.5977L80.4395 37.7277L79.8444 39.5244Z" fill="#004989" fill-opacity="0.1"/>
<path d="M66.2427 40.1904C66.3365 39.9838 66.3728 39.7465 66.5986 39.6623C67.2204 39.4308 67.9245 39.4213 68.5712 39.6432C68.7109 39.691 68.8065 39.8135 68.8123 39.9493L69.2619 38.2656L66.8377 38.3957L66.2427 40.1904Z" fill="#004989" fill-opacity="0.1"/>
<path d="M54.1449 40.9551C54.2386 40.7484 54.275 40.5112 54.5007 40.427C55.1226 40.1955 55.8267 40.1859 56.4734 40.4079C56.613 40.4557 56.7087 40.5781 56.7145 40.714L57.1641 39.0303L54.7399 39.1604L54.1449 40.9551Z" fill="#004989" fill-opacity="0.1"/>
<path d="M42.114 41.5999C42.2078 41.3933 42.2442 41.156 42.4699 41.0718C43.0918 40.8403 43.7959 40.8308 44.4426 41.0527C44.5822 41.1005 44.6779 41.223 44.6836 41.3588L44.8463 39.6904L42.7091 39.8053L42.114 41.5999Z" fill="#004989" fill-opacity="0.1"/>
<path d="M28.8128 42.4046C28.9065 42.1979 28.9926 41.9932 29.2184 41.9071C29.8402 41.6756 30.3626 41.6354 31.0073 41.8554C31.147 41.9033 31.2427 42.0257 31.2484 42.1616L31.411 40.4932L28.9773 40.6233L28.8128 42.4046Z" fill="#004989" fill-opacity="0.1"/>
<path d="M19.4414 39.5607L19.4032 41.8988L18.4925 98.2972C18.481 98.9592 17.9433 99.4872 17.2852 99.4872C16.5964 99.4757 16.0645 98.9266 16.076 98.2589L16.9829 42.0365L17.0231 39.6124L19.4396 39.4746C19.4415 39.5033 19.4414 39.5301 19.4414 39.5607Z" fill="#46B3DF"/>
<path d="M17.2851 99.6439C16.5083 99.6324 15.9056 99.0087 15.9171 98.2548L16.824 42.0325L16.8642 39.6083C16.8661 39.5261 16.9312 39.4572 17.0134 39.4533L19.4299 39.3156C19.472 39.3137 19.5141 39.329 19.5447 39.3558C19.5753 39.3845 19.5945 39.4246 19.5964 39.4667C19.5983 39.5624 18.6493 98.2988 18.6493 98.2988C18.6398 99.0412 18.0275 99.6439 17.2851 99.6439ZM17.1799 39.7614L17.1416 42.0382L16.2347 98.2606C16.2251 98.8403 16.6882 99.3186 17.2679 99.3282C17.8553 99.3282 18.326 98.8652 18.3356 98.295L19.2826 39.6427L17.1799 39.7614Z" fill="#004989" fill-opacity="0.1"/>
<path d="M16.9847 42.9241C17.0785 42.7174 17.1646 42.5127 17.3904 42.4266C18.0122 42.1951 18.5345 42.1549 19.1793 42.3749C19.319 42.4228 19.4147 42.5452 19.4204 42.6811L19.583 41.0127L17.1493 41.1428L16.9847 42.9241Z" fill="#004989" fill-opacity="0.1"/>
<path d="M157.218 34.0348L132.395 35.4506L129.703 35.6037L119.813 36.1681L117.163 36.3193L108.035 36.8397L105.412 36.9889L95.1565 37.5744L92.5774 37.7217L82.6819 38.2861L80.141 38.4316L69.0227 39.0649L66.524 39.2083L56.9269 39.7556L54.451 39.8971L44.7525 40.4501L42.2958 40.5898L31.3097 41.2173L28.8798 41.3551L19.4051 41.8946L16.9848 42.0324L1.43733 42.9202C0.731319 42.9221 0.197465 42.4265 0.161112 41.7817C0.122846 41.114 0.631786 40.5438 1.29953 40.5056L17.025 39.6082L19.4414 39.4705L29.1648 38.9156L31.1643 38.8027L42.602 38.1503L44.9879 38.0145L55.0767 37.4385L56.7374 37.3448L67.0291 36.7574L69.4973 36.6178L80.8642 35.9691L82.7947 35.8582L93.3447 35.2574L95.7592 35.1196L106.428 34.5112L108.031 34.4194L118.122 33.8434L120.318 33.7172L131.385 33.0858L131.653 33.0705C131.657 33.0705 157.084 31.6202 157.084 31.6202C157.75 31.5819 158.322 32.0909 158.361 32.7586C158.395 33.4244 157.886 33.9965 157.218 34.0348Z" fill="#46B3DF"/>
<path d="M1.36651 43.0827C0.643278 43.0827 0.0444487 42.5164 0.00235603 41.7932C-0.0416499 41.0412 0.536117 40.3926 1.28996 40.3486L157.073 31.4633C157.435 31.4422 157.788 31.5647 158.06 31.8076C158.334 32.0506 158.494 32.3855 158.515 32.7509C158.537 33.1144 158.414 33.4665 158.171 33.7382C157.928 34.0118 157.593 34.1725 157.23 34.1935L1.44685 43.0808C1.41815 43.0808 1.39138 43.0827 1.36651 43.0827ZM157.151 31.777C157.09 31.7789 42.6096 38.309 42.6096 38.309L1.30718 40.6643C0.729365 40.6988 0.285483 41.1962 0.318009 41.774C0.348622 42.3289 0.809722 42.7651 1.36458 42.7651C1.4258 42.7632 157.209 33.8759 157.209 33.8759C157.488 33.8606 157.746 33.7362 157.932 33.5258C158.119 33.3172 158.213 33.0475 158.196 32.7662C158.181 32.4869 158.056 32.2286 157.846 32.0411C157.655 31.8708 157.41 31.777 157.151 31.777Z" fill="#004989" fill-opacity="0.1"/>
<path d="M156.706 31.7423C156.491 31.8112 156.308 31.9604 156.202 32.1594C155.911 32.7085 155.835 33.3476 155.992 33.9522C156.026 34.0823 156.139 34.1779 156.273 34.1951L154.193 34.1683L154.457 31.7002L156.706 31.7423Z" fill="#004989" fill-opacity="0.1"/>
<path d="M149.41 32.1261C149.196 32.195 149.012 32.3442 148.905 32.5432C148.614 33.0923 148.538 33.7313 148.694 34.3359C148.729 34.466 148.84 34.5617 148.976 34.5789L146.896 34.5522L147.16 32.084L149.41 32.1261Z" fill="#004989" fill-opacity="0.1"/>
<path d="M5.29642 40.3175C5.08213 40.3864 4.89844 40.5356 4.7913 40.7346C4.46603 41.3487 4.40861 42.0796 4.64777 42.7435L4.88886 42.7282L2.78043 42.7435L3.04446 40.2754L5.29642 40.3175Z" fill="#004989" fill-opacity="0.1"/>
<path d="M103.07 112.873L101.838 112.063C99.9053 110.795 97.7203 109.962 95.434 109.628C91.592 109.063 85.7641 108.219 84.3617 108.087C82.5594 107.917 82.1098 108.246 82.0141 108.353C82.4331 107.789 83.1257 107.448 83.8777 107.508L99.2893 109.52C99.8269 109.564 100.33 109.813 100.69 110.215L103.07 112.873Z" fill="#004989" fill-opacity="0.1"/>
<path d="M103.07 113.033C102.984 113.006 101.75 112.199 101.75 112.199C99.8499 110.951 97.6572 110.117 95.4091 109.786C91.8905 109.269 85.7738 108.382 84.3464 108.246C82.5345 108.074 82.1671 108.42 82.1308 108.46C82.0753 108.523 81.9777 108.531 81.9126 108.477C81.8476 108.424 81.8362 108.328 81.8859 108.261C82.3547 107.63 83.1066 107.289 83.8891 107.352L99.3085 109.367C99.8825 109.413 100.416 109.679 100.806 110.113L103.189 112.769C103.242 112.828 103.242 112.918 103.191 112.977C103.16 113.014 103.114 113.033 103.07 113.033ZM83.4318 107.882C83.6997 107.882 84.0116 107.897 84.377 107.932C85.812 108.066 91.9346 108.956 95.457 109.474C97.7491 109.811 99.9857 110.662 101.926 111.935L102.144 112.078L100.573 110.325C100.238 109.95 99.7771 109.723 99.2778 109.683L83.8585 107.668C83.4567 107.635 83.0625 107.729 82.7258 107.926C82.9152 107.899 83.1487 107.882 83.4318 107.882Z" fill="#004989" fill-opacity="0.1"/>
<path d="M110.742 110.762C110.57 110.762 110.394 110.726 110.228 110.645C109.623 110.36 109.365 109.641 109.65 109.036L151.27 20.7106C153.552 15.8661 157.555 12.1237 162.541 10.1702L172.848 6.13317C173.47 5.89018 174.172 6.19632 174.415 6.81814C174.658 7.43996 174.352 8.14214 173.73 8.38513L163.423 12.4222C159.015 14.1499 155.475 17.4599 153.457 21.7419L111.837 110.067C111.632 110.506 111.196 110.762 110.742 110.762Z" fill="#46B3DF"/>
<path d="M110.742 110.92C110.539 110.92 110.344 110.876 110.161 110.79C109.83 110.635 109.581 110.36 109.456 110.015C109.332 109.671 109.351 109.3 109.506 108.97L151.126 20.6448C153.426 15.764 157.459 11.9929 162.484 10.0241L172.791 5.98702C173.131 5.85309 173.502 5.86076 173.837 6.00617C174.172 6.1535 174.43 6.42135 174.562 6.76001C174.696 7.10057 174.689 7.47175 174.541 7.80658C174.396 8.14141 174.128 8.3997 173.787 8.53171L163.48 12.5688C159.111 14.2812 155.602 17.5625 153.6 21.8081L111.98 110.134C111.756 110.612 111.27 110.92 110.742 110.92ZM173.29 6.20706C173.16 6.20706 173.032 6.23192 172.907 6.27976L162.6 10.3187C157.653 12.2569 153.681 15.9725 151.415 20.7788L109.795 109.104C109.675 109.359 109.661 109.644 109.757 109.908C109.853 110.172 110.044 110.384 110.298 110.503C110.44 110.57 110.591 110.604 110.746 110.604C111.152 110.604 111.525 110.367 111.697 110.002L153.317 21.6761C155.353 17.3559 158.923 14.0191 163.368 12.276L173.675 8.23898C173.935 8.13566 174.141 7.93859 174.254 7.68221C174.367 7.42391 174.373 7.13883 174.27 6.87863C174.166 6.6165 173.969 6.41179 173.711 6.29891C173.575 6.23577 173.434 6.20706 173.29 6.20706Z" fill="#004989" fill-opacity="0.1"/>
<path d="M114.006 111.106C113.691 111.106 113.373 111.087 113.052 111.049L14.1053 99.1115C12.1901 98.8799 10.3916 97.996 9.03889 96.6203C7.68618 95.2447 6.83287 93.4309 6.63389 91.5137L1.32064 40.2679C1.25176 39.604 1.73389 39.0089 2.3978 38.9401C3.06363 38.8712 3.65676 39.3533 3.72564 40.0172L9.03889 91.2612C9.33545 94.1235 11.5377 96.3621 14.3942 96.7065L113.341 108.644C115.696 108.929 117.946 107.673 118.943 105.523L157.662 22.0073C159.201 18.6916 161.651 15.9154 164.753 13.981L177.184 6.22834C177.75 5.87438 178.496 6.04848 178.85 6.61482C179.204 7.18116 179.03 7.92735 178.464 8.28131L166.033 16.034C163.331 17.7196 161.194 20.1361 159.855 23.0252L121.135 106.541C119.834 109.355 117.045 111.106 114.006 111.106Z" fill="#46B3DF"/>
<path d="M114.005 111.264C113.681 111.264 113.354 111.245 113.033 111.205L14.0862 99.268C12.1365 99.0327 10.3036 98.1315 8.92604 96.731C7.54846 95.3305 6.67982 93.4822 6.47702 91.5287L1.16569 40.2848C1.12742 39.9213 1.23452 39.5654 1.46412 39.2822C1.69371 38.999 2.02092 38.8211 2.38445 38.7847C3.13064 38.7063 3.80795 39.2554 3.8864 40.0035L9.19772 91.2475C9.48663 94.0351 11.6314 96.2163 14.4134 96.5531L113.36 108.49C115.642 108.766 117.831 107.549 118.799 105.459L157.519 21.9439C159.068 18.5994 161.542 15.8003 164.671 13.8506L177.101 6.0979C177.74 5.69993 178.586 5.89508 178.986 6.53412C179.179 6.84408 179.24 7.21145 179.158 7.56732C179.076 7.9232 178.86 8.22548 178.55 8.41873L166.119 16.1714C163.442 17.8398 161.328 20.2353 160.002 23.0957L121.283 106.611C119.97 109.437 117.114 111.264 114.005 111.264ZM2.52412 39.0928C2.48776 39.0928 2.45332 39.0947 2.41697 39.0985C2.13763 39.1272 1.887 39.2631 1.70906 39.4812C1.53304 39.6993 1.45077 39.9729 1.47947 40.2522L6.79074 91.4981C6.9859 93.3808 7.82394 95.1602 9.15177 96.511C10.4796 97.8598 12.2437 98.7285 14.1244 98.9562L113.071 110.893C113.381 110.93 113.695 110.949 114.006 110.949C116.993 110.949 119.735 109.194 120.994 106.477L159.713 22.9618C161.066 20.044 163.222 17.6026 165.951 15.9017L178.381 8.14897C178.621 7.99973 178.785 7.76823 178.848 7.49463C178.911 7.22102 178.865 6.93975 178.716 6.70059C178.41 6.20887 177.76 6.05772 177.268 6.36576L164.837 14.1185C161.762 16.0375 159.331 18.7888 157.806 22.0778L119.086 105.593C118.061 107.807 115.744 109.099 113.321 108.806L14.3751 96.8687C11.4458 96.5148 9.18623 94.2188 8.88201 91.2819L3.56876 40.0379C3.51327 39.4965 3.05601 39.0928 2.52412 39.0928Z" fill="#004989" fill-opacity="0.1"/>
<path d="M182.399 3.5505C181.862 2.46566 180.989 1.57598 179.91 1.02686C177.727 -0.0828561 175.553 -0.0617885 173.77 0.695879C173.439 0.837463 161.982 5.77759 161.982 5.77759L168.331 19.3199C168.331 19.3199 179.328 13.1189 179.604 12.9735C182.671 11.3453 184.343 7.46512 182.399 3.5505Z" fill="white"/>
<path d="M168.331 19.4803C168.241 19.4593 168.206 19.4287 168.187 19.3885L161.839 5.84614C161.822 5.80787 161.82 5.76196 161.835 5.7237C161.85 5.68352 161.881 5.651 161.921 5.63378C162.036 5.58403 173.382 0.691691 173.705 0.553933C175.68 -0.286006 177.909 -0.16736 179.983 0.886869C181.079 1.44555 181.988 2.36586 182.543 3.48131C184.609 7.64466 182.625 11.542 179.705 13.1014C179.409 13.2583 168.52 19.3981 168.409 19.4593C168.384 19.4746 168.359 19.4803 168.331 19.4803ZM162.197 5.86144L168.403 19.1015C169.771 18.3304 179.273 12.9732 179.531 12.8354C182.338 11.345 184.24 7.61402 182.26 3.62288C181.735 2.56865 180.876 1.69619 179.839 1.17003C177.849 0.157892 175.718 0.0430974 173.833 0.844771C173.527 0.974875 163.547 5.27979 162.197 5.86144Z" fill="#004989" fill-opacity="0.1"/>
<path d="M175.173 2.85528C177.335 1.91203 179.853 2.90122 180.796 5.06325C181.739 7.22528 180.75 9.74317 178.588 10.6864L175.173 2.85528Z" fill="white"/>
<path d="M178.588 10.844C178.527 10.844 178.469 10.8076 178.443 10.7483C178.408 10.6679 178.444 10.5742 178.525 10.5397C180.605 9.63281 181.559 7.20292 180.652 5.12507C180.214 4.11868 179.409 3.34188 178.385 2.94009C177.363 2.53829 176.244 2.55934 175.238 2.99748C175.157 3.03192 175.064 2.99557 175.029 2.91521C174.995 2.83485 175.031 2.74111 175.111 2.70667C176.196 2.23409 177.4 2.21112 178.502 2.64353C179.604 3.07593 180.471 3.91207 180.943 4.99691C181.919 7.23547 180.892 9.85285 178.653 10.8286C178.63 10.8401 178.609 10.844 178.588 10.844Z" fill="#004989" fill-opacity="0.1"/>
</svg>
