<svg width="281" height="235" viewBox="0 0 281 235" fill="none" xmlns="http://www.w3.org/2000/svg">
<path d="M280.63 214.337H257.246V214.513H280.63V214.337Z" fill="#EBEBEB"/>
<path d="M196.841 216.253H190.704V216.429H196.841V216.253Z" fill="#EBEBEB"/>
<path d="M30.5303 208.967H0.0360107V209.143H30.5303V208.967Z" fill="#EBEBEB"/>
<path d="M41.2876 208.967H36.8165V209.143H41.2876V208.967Z" fill="#EBEBEB"/>
<path d="M121.954 211.948H55.8185V212.125H121.954V211.948Z" fill="#EBEBEB"/>
<path d="M55.2564 16.6158L60.4088 13.3131L63.2194 18.75L69.3334 18.4655L69.0489 24.5788L74.4858 27.3894L71.1824 32.5418L74.4858 37.6941L69.0489 40.5047L69.3334 46.6187L63.2194 46.3342L60.4088 51.7711L55.2564 48.4677L50.1041 51.7711L47.2935 46.3342L41.1802 46.6187L41.4647 40.5047L36.0278 37.6941L39.3305 32.5418L36.0278 27.3894L41.4647 24.5788L41.1802 18.4655L47.2935 18.75L50.1041 13.3131L55.2564 16.6158Z" fill="#E6E6E6"/>
<path d="M53.3044 40.4066L47.1834 34.2856C46.4823 33.5852 46.4823 32.4486 47.1834 31.7482C47.8844 31.0471 49.0204 31.0471 49.7208 31.7482L53.3044 35.3319L60.7937 27.8426C61.494 27.1416 62.6307 27.1416 63.331 27.8426C64.0314 28.543 64.0314 29.6796 63.331 30.38L53.3044 40.4066Z" fill="#FAFAFA"/>
<path d="M246.714 70.6552L250.754 68.0649L252.958 72.3284L257.752 72.1053L257.529 76.899L261.793 79.1032L259.202 83.1436L261.793 87.1841L257.529 89.3882L257.752 94.1819L252.958 93.9588L250.754 98.2224L246.714 95.632L242.673 98.2224L240.469 93.9588L235.675 94.1819L235.898 89.3882L231.635 87.1841L234.225 83.1436L231.635 79.1032L235.898 76.899L235.675 72.1053L240.469 72.3284L242.673 68.0649L246.714 70.6552Z" fill="#E6E6E6"/>
<path d="M245.182 89.3105L240.382 84.5104C239.833 83.9612 239.833 83.0702 240.382 82.5209C240.932 81.9716 241.823 81.9716 242.373 82.5209L245.183 85.3308L251.056 79.4583C251.605 78.909 252.496 78.909 253.045 79.4583C253.594 80.0076 253.594 80.8985 253.045 81.4478L245.182 89.3105Z" fill="#FAFAFA"/>
<path d="M55.7769 138.432L63.6502 142.448C64.9796 143.125 66.597 142.84 67.6144 141.749L73.6394 135.282C74.3545 134.515 74.668 133.456 74.4859 132.423L71.3547 114.664C70.8429 111.761 68.0747 109.823 65.1716 110.335L55.2015 112.093C52.2984 112.605 50.3604 115.373 50.8723 118.276L54.0034 136.035C54.1855 137.067 54.8421 137.955 55.7769 138.432ZM64.7438 137.057C65.6559 136.896 66.525 137.506 66.686 138.417C66.8469 139.329 66.2377 140.198 65.3262 140.359C64.4141 140.52 63.545 139.911 63.384 139C63.223 138.088 63.8316 137.218 64.7438 137.057Z" fill="#E6E6E6"/>
<path d="M56.1715 132.934L71.4083 130.248L71.1181 128.602L55.8813 131.288L56.1715 132.934Z" fill="#FAFAFA"/>
<path d="M53.589 118.292L68.8258 115.606L68.5356 113.959L53.2988 116.645L53.589 118.292Z" fill="#FAFAFA"/>
<path d="M82.684 23.4682L88.1011 29.2822C89.0161 30.2635 90.4704 30.5205 91.6657 29.9105L98.7447 26.3C99.5849 25.8715 100.175 25.0737 100.339 24.1446L103.154 8.1777C103.615 5.56762 101.872 3.07897 99.2622 2.61866L90.2982 1.03793C87.6881 0.577614 85.1994 2.32073 84.7391 4.9301L81.9236 20.897C81.7591 21.8268 82.0408 22.7785 82.684 23.4682ZM90.6822 25.0645C91.5019 25.2092 92.0498 25.9908 91.905 26.8105C91.7603 27.6301 90.9787 28.178 90.1591 28.0332C89.3394 27.8885 88.7916 27.107 88.9363 26.2873C89.0803 25.4676 89.8619 24.9198 90.6822 25.0645Z" fill="#F0F0F0"/>
<path d="M84.6959 18.9514L98.3948 21.3663L98.6557 19.886L84.9568 17.4712L84.6959 18.9514Z" fill="#FAFAFA"/>
<path d="M87.0177 5.78683L100.717 8.20166L100.977 6.72143L87.2786 4.3066L87.0177 5.78683Z" fill="#FAFAFA"/>
<path d="M213.901 6.24467C211.808 3.25547 207.688 2.52899 204.699 4.62228L201.9 6.58214L199.941 3.78356C197.847 0.794351 193.728 0.0678745 190.739 2.16116C187.749 4.25445 187.023 8.37397 189.116 11.3632L198.656 24.9869L212.279 15.4474C215.268 13.3541 215.994 9.23388 213.901 6.24467Z" fill="#EBEBEB"/>
<path d="M233.486 7.51547C232.461 6.05193 230.444 5.6961 228.981 6.72122L227.61 7.68067L226.651 6.31032C225.626 4.84679 223.609 4.49096 222.146 5.51607C220.682 6.54048 220.326 8.55752 221.352 10.0211L226.022 16.6906L232.691 12.0205C234.155 10.996 234.51 8.979 233.486 7.51547Z" fill="#EBEBEB"/>
<path d="M24.6789 72.3369C15.1889 75.0578 9.70184 84.9573 12.4235 94.4467C14.1913 100.611 24.9987 110.944 32.3581 117.429C35.6382 120.319 40.8139 118.835 42.0628 114.646C44.8663 105.246 48.5566 90.7557 46.7894 84.5916C44.0678 75.103 34.1683 69.6159 24.6789 72.3369ZM31.8801 97.4507C27.5001 98.7067 22.9309 96.1743 21.6749 91.7942C20.4189 87.4142 22.9513 82.845 27.3321 81.589C31.7121 80.333 36.2813 82.8654 37.5373 87.2455C38.7926 91.6255 36.2602 96.1947 31.8801 97.4507Z" fill="#E0E0E0"/>
<path d="M27.4747 71.5349C17.9847 74.2558 12.4976 84.1553 15.2192 93.6447C16.9864 99.8088 27.7945 110.142 35.1539 116.627C38.4339 119.517 43.6096 118.033 44.8585 113.844C47.6628 104.444 51.3523 89.9537 49.5852 83.7903C46.8636 74.301 36.964 68.8139 27.4747 71.5349ZM34.6759 96.6487C30.2959 97.9047 25.7266 95.3722 24.4707 90.9922C23.2147 86.6122 25.7471 82.043 30.1279 80.787C34.5079 79.531 39.0771 82.0634 40.3331 86.4435C41.5891 90.8235 39.0559 95.3927 34.6759 96.6487Z" fill="#F5F5F5"/>
<path d="M233.335 26.9178C225.072 24.5484 216.453 29.3259 214.083 37.5897C212.544 42.9567 215.757 55.5743 218.198 63.759C219.286 67.4069 223.794 68.6989 226.649 66.182C233.057 60.5347 242.468 51.5374 244.007 46.1697C246.376 37.9067 241.598 29.2871 233.335 26.9178ZM227.065 48.7854C223.251 47.6918 221.046 43.7135 222.139 39.8997C223.233 36.0859 227.211 33.8803 231.026 34.9739C234.84 36.0675 237.045 40.0458 235.952 43.8597C234.858 47.6735 230.879 49.879 227.065 48.7854Z" fill="#E0E0E0"/>
<path d="M235.769 27.616C227.506 25.2467 218.887 30.0242 216.517 38.2879C214.978 43.6549 218.191 56.2718 220.633 64.4572C221.721 68.1051 226.228 69.3971 229.083 66.8802C235.491 61.2329 244.902 52.2356 246.441 46.8686C248.811 38.6049 244.032 29.9853 235.769 27.616ZM229.499 49.4836C225.686 48.39 223.48 44.4117 224.574 40.5979C225.667 36.7841 229.645 34.5786 233.459 35.6722C237.273 36.7658 239.479 40.7441 238.385 44.5579C237.291 48.3717 233.313 50.5772 229.499 49.4836Z" fill="#F5F5F5"/>
<path d="M139.5 234.473C215.1 234.473 276.386 230.894 276.386 226.479C276.386 222.064 215.1 218.485 139.5 218.485C63.9002 218.485 2.61438 222.064 2.61438 226.479C2.61438 230.894 63.9002 234.473 139.5 234.473Z" fill="#F5F5F5"/>
<path d="M96.0803 65.6398H103.637C105.254 65.6398 106.45 66.9508 106.309 68.5682L104.914 84.5027C104.773 86.1201 103.347 87.4312 101.73 87.4312H94.1734C92.556 87.4312 91.36 86.1201 91.5012 84.5027L92.8955 68.5682C93.0367 66.9508 94.4629 65.6398 96.0803 65.6398Z" fill="#46B3DF"/>
<path opacity="0.2" d="M180.589 62.2347H192.396C194.923 62.2347 196.793 64.2835 196.572 66.8103L195.116 83.4479C194.895 85.9747 192.667 88.0235 190.14 88.0235H178.333C175.806 88.0235 173.937 85.9747 174.158 83.4479L175.613 66.8103C175.835 64.2835 178.063 62.2347 180.589 62.2347Z" fill="black"/>
<path opacity="0.2" d="M178.17 89.8831H189.978C192.504 89.8831 194.374 91.9319 194.153 94.4587L192.697 111.096C192.476 113.623 190.248 115.672 187.721 115.672H175.914C173.387 115.672 171.518 113.624 171.739 111.096L173.195 94.4587C173.416 91.9319 175.644 89.8831 178.17 89.8831Z" fill="black"/>
<path d="M117.267 31.0387H183.04C192.18 31.0387 198.94 38.4475 198.14 47.5873L184.109 207.971C183.309 217.111 175.252 224.519 166.112 224.519H100.339C91.1991 224.519 84.4384 217.11 85.2383 207.971L99.2701 47.5873C100.069 38.4475 108.127 31.0387 117.267 31.0387Z" fill="#46B3DF"/>
<path opacity="0.2" d="M117.267 31.0387H183.04C192.18 31.0387 198.94 38.4475 198.14 47.5873L184.109 207.971C183.309 217.111 175.252 224.519 166.112 224.519H100.339C91.1991 224.519 84.4384 217.11 85.2383 207.971L99.2701 47.5873C100.069 38.4475 108.127 31.0387 117.267 31.0387Z" fill="black"/>
<path d="M115.145 31.0387H180.918C190.058 31.0387 196.819 38.4475 196.019 47.5873L181.987 207.971C181.187 217.111 173.13 224.519 163.99 224.519H98.2174C89.0775 224.519 82.3169 217.11 83.1168 207.971L97.1485 47.5873C97.9484 38.4475 106.005 31.0387 115.145 31.0387Z" fill="#46B3DF"/>
<path d="M194.046 47.5873L180.015 207.964C179.311 216.014 172.214 222.54 164.164 222.54H98.3911C90.3413 222.54 84.3862 216.015 85.0908 207.964L99.1218 47.5873C99.8264 39.5375 106.923 33.0112 114.973 33.0112H180.746C188.796 33.0112 194.75 39.5375 194.046 47.5873Z" fill="white"/>
<g opacity="0.1">
<path d="M98.3904 222.54H123.323L163.609 33.0112H131.839L91.8959 220.932C93.7985 221.953 95.9984 222.54 98.3904 222.54Z" fill="black"/>
<path d="M178.86 33.0112H172.813L132.528 222.54H138.574L178.86 33.0112Z" fill="black"/>
</g>
<path d="M128.579 32.5418C128.364 35.1173 130.266 37.2028 132.841 37.2119H162.141C164.718 37.2021 166.985 35.1165 167.22 32.5418H128.579Z" fill="#46B3DF"/>
<path d="M179.551 38.1749H186.2C186.755 38.1749 187.165 38.6247 187.116 39.1789L186.863 42.0784C186.814 42.6326 186.326 43.0823 185.771 43.0823H179.121C178.567 43.0823 178.156 42.6326 178.205 42.0784L178.459 39.1789C178.507 38.6247 178.997 38.1749 179.551 38.1749Z" fill="#46B3DF"/>
<path d="M108.543 38.1749H117.444C118.071 38.1749 118.535 38.6833 118.48 39.3095L118.249 41.9478C118.194 42.5747 117.642 43.0831 117.015 43.0831H108.113C107.486 43.0831 107.023 42.5747 107.078 41.9478L107.309 39.3095C107.364 38.6833 107.916 38.1749 108.543 38.1749Z" fill="#46B3DF"/>
<path opacity="0.4" d="M108.543 38.1749H117.444C118.071 38.1749 118.535 38.6833 118.48 39.3095L118.249 41.9478C118.194 42.5747 117.642 43.0831 117.015 43.0831H108.113C107.486 43.0831 107.023 42.5747 107.078 41.9478L107.309 39.3095C107.364 38.6833 107.916 38.1749 108.543 38.1749Z" fill="white"/>
<path d="M177.778 39.013H178.824C179.027 39.013 179.177 39.1782 179.16 39.3815L178.941 41.8772C178.924 42.0805 178.744 42.2457 178.54 42.2457H177.495C177.291 42.2457 177.141 42.0805 177.159 41.8772L177.377 39.3815C177.395 39.1782 177.575 39.013 177.778 39.013Z" fill="#46B3DF"/>
<path d="M184.885 39.013H185.931C186.134 39.013 186.285 39.1782 186.267 39.3815L186.049 41.8772C186.031 42.0805 185.852 42.2457 185.648 42.2457H184.602C184.399 42.2457 184.248 42.0805 184.266 41.8772L184.484 39.3815C184.502 39.1782 184.681 39.013 184.885 39.013Z" fill="white"/>
<path d="M182.633 39.013H183.679C183.882 39.013 184.032 39.1782 184.015 39.3815L183.797 41.8772C183.779 42.0805 183.6 42.2457 183.396 42.2457H182.351C182.147 42.2457 181.997 42.0805 182.015 41.8772L182.233 39.3815C182.25 39.1782 182.429 39.013 182.633 39.013Z" fill="white"/>
<path d="M194.446 83.3349L193.011 99.7353C194.392 99.4805 195.523 98.2908 195.649 96.8591L196.581 86.2112C196.705 84.7787 195.782 83.5891 194.446 83.3349Z" fill="#46B3DF"/>
<path opacity="0.2" d="M194.446 83.3349L193.011 99.7353C194.392 99.4805 195.523 98.2908 195.649 96.8591L196.581 86.2112C196.705 84.7787 195.782 83.5891 194.446 83.3349Z" fill="black"/>
<path d="M195.994 65.6398L194.56 82.0401C195.94 81.7853 197.072 80.5957 197.197 79.1639L198.129 68.5153C198.253 67.0842 197.329 65.8939 195.994 65.6398Z" fill="#46B3DF"/>
<path opacity="0.2" d="M195.994 65.6398L194.56 82.0401C195.94 81.7853 197.072 80.5957 197.197 79.1639L198.129 68.5153C198.253 67.0842 197.329 65.8939 195.994 65.6398Z" fill="black"/>
<path d="M156.095 44.2797H134.098C130.417 44.2797 127.172 47.264 126.85 50.9444L125.71 63.968C125.388 67.649 128.112 70.6326 131.792 70.6326H138.086L137.643 75.7003C137.532 76.9584 138.999 77.5881 139.966 76.6985L146.564 70.6319H153.79C157.471 70.6319 160.716 67.6476 161.038 63.9672L162.177 50.9437C162.499 47.2633 159.776 44.2797 156.095 44.2797Z" fill="#46B3DF"/>
<path d="M149.521 50.5052C148.95 50.5052 148.665 50.5052 148.093 50.5052C146.552 50.5052 145.781 50.5052 144.24 50.5052C143.669 50.5052 143.384 50.5052 142.813 50.5052C141.271 50.5052 140.501 50.5052 138.96 50.5052C138.932 49.6305 138.918 49.1928 138.891 48.318C136.566 48.318 135.404 48.318 133.08 48.318C133.16 48.8179 133.2 49.0678 133.279 49.5677C134.956 49.5677 135.795 49.5677 137.472 49.5677C137.496 49.9425 137.508 50.1296 137.532 50.5045C137.652 52.3535 137.712 53.2784 137.831 55.1274C137.863 55.6273 137.88 55.8772 137.912 56.377C138.032 58.226 138.092 59.1509 138.211 60.9999C138.275 61.9876 138.307 62.4818 138.37 63.4702C143.01 63.4702 145.325 63.4702 149.964 63.4702C150.123 62.9704 150.203 62.7204 150.362 62.2206C145.947 62.2206 143.744 62.2206 139.331 62.2206C139.315 61.7327 139.307 61.4885 139.292 60.9999C140.459 60.9999 141.043 60.9999 142.21 60.9999C142.643 60.9999 142.859 60.9999 143.291 60.9999C144.458 60.9999 145.043 60.9999 146.21 60.9999C146.642 60.9999 146.859 60.9999 147.291 60.9999C148.89 60.9999 149.69 60.9999 151.291 60.9999C151.909 59.1509 152.219 58.226 152.837 56.377C153.004 55.8772 153.088 55.6273 153.255 55.1274C153.873 53.2784 154.182 52.3535 154.8 50.5045C152.689 50.5052 151.633 50.5052 149.521 50.5052ZM139 51.7548C140.497 51.7548 141.245 51.7548 142.741 51.7548C142.664 53.104 142.625 53.7789 142.548 55.1281C141.172 55.1281 140.483 55.1281 139.107 55.1281C139.064 53.7782 139.042 53.104 139 51.7548ZM139.254 59.7503C139.211 58.4011 139.189 57.7262 139.146 56.377C140.478 56.377 141.144 56.377 142.476 56.377C142.399 57.7262 142.36 58.4011 142.282 59.7503C141.071 59.7503 140.465 59.7503 139.254 59.7503ZM146.435 59.7503C145.223 59.7503 144.617 59.7503 143.405 59.7503C143.527 58.4011 143.588 57.7262 143.709 56.377C145.041 56.377 145.708 56.377 147.04 56.377C146.799 57.7262 146.677 58.4011 146.435 59.7503ZM147.265 55.1274C145.888 55.1274 145.2 55.1274 143.823 55.1274C143.945 53.7782 144.006 53.1033 144.128 51.7541C145.625 51.7541 146.374 51.7541 147.87 51.7541C147.627 53.104 147.507 53.7782 147.265 55.1274ZM150.587 59.7503C149.375 59.7503 148.769 59.7503 147.557 59.7503C147.843 58.4011 147.987 57.7262 148.273 56.377C149.605 56.377 150.271 56.377 151.604 56.377C151.198 57.7262 150.994 58.4011 150.587 59.7503ZM151.981 55.1274C150.604 55.1274 149.916 55.1274 148.54 55.1274C148.826 53.7782 148.97 53.1033 149.256 51.7541C150.753 51.7541 151.501 51.7541 152.998 51.7541C152.591 53.104 152.387 53.7782 151.981 55.1274Z" fill="white"/>
<path d="M138.991 64.6415C138.171 64.6415 137.449 65.3058 137.377 66.1255C137.305 66.9451 137.911 67.6095 138.731 67.6095C139.551 67.6095 140.273 66.9451 140.345 66.1255C140.417 65.3058 139.811 64.6415 138.991 64.6415Z" fill="white"/>
<path d="M149.535 64.6415C148.715 64.6415 147.993 65.3058 147.921 66.1255C147.849 66.9451 148.456 67.6095 149.275 67.6095C150.095 67.6095 150.817 66.9451 150.889 66.1255C150.961 65.3058 150.355 64.6415 149.535 64.6415Z" fill="white"/>
<path d="M171.903 136.454H146.748V161.608H171.903V136.454Z" fill="#46B3DF"/>
<path d="M187.343 136.454H171.896V161.608H187.343V136.454Z" fill="#46B3DF"/>
<path d="M167.095 130.142H141.94L146.748 136.454H171.896L167.095 130.142Z" fill="#46B3DF"/>
<path opacity="0.3" d="M187.343 136.454H171.896V161.608H187.343V136.454Z" fill="white"/>
<path opacity="0.4" d="M167.095 130.142H141.94L146.748 136.454H171.896L167.095 130.142Z" fill="white"/>
<path d="M176.449 130.142H191.896L187.35 136.454H171.896L176.449 130.142Z" fill="#46B3DF"/>
<path opacity="0.6" d="M171.903 136.454H146.748V161.608H171.903V136.454Z" fill="white"/>
<path opacity="0.2" d="M176.449 130.142H191.896L187.35 136.454H171.896L176.449 130.142Z" fill="white"/>
<path d="M242.68 160.986H179.282V224.385H242.68V160.986Z" fill="#46B3DF"/>
<path opacity="0.4" d="M242.68 160.986H179.282V224.385H242.68V160.986Z" fill="white"/>
<path d="M179.27 160.986H140.329V224.385H179.27V160.986Z" fill="#46B3DF"/>
<path opacity="0.6" d="M179.27 160.986H140.329V224.385H179.27V160.986Z" fill="white"/>
<path opacity="0.5" d="M152.356 160.986V178.015L153.903 178.831L155.238 177.719L157.347 178.831L159.35 177.719L160.907 178.831L162.688 177.719L163.694 178.629V160.986H152.356Z" fill="white"/>
<path opacity="0.5" d="M163.694 224.385V207.357L162.147 206.54L160.812 207.653L158.703 206.54L156.7 207.653L155.143 206.54L153.363 207.653L152.356 206.742V224.385H163.694Z" fill="white"/>
<path d="M205.144 186.839C205.502 188.289 205.68 189.013 206.038 190.463C206.135 190.855 206.183 191.051 206.28 191.443C206.638 192.892 206.816 193.616 207.174 195.067C208.429 195.067 209.056 195.067 210.31 195.067C210.649 195.067 210.819 195.067 211.158 195.067C212.073 195.067 212.53 195.067 213.445 195.067C213.784 195.067 213.953 195.067 214.292 195.067C215.207 195.067 215.665 195.067 216.58 195.067C216.534 195.449 216.511 195.64 216.466 196.023C213.007 196.023 211.279 196.023 207.819 196.023C207.909 196.415 207.954 196.611 208.045 197.002C211.681 197.002 213.497 197.002 217.133 197.002C217.251 196.228 217.31 195.841 217.428 195.067C217.648 193.617 217.759 192.893 217.979 191.443C218.039 191.051 218.069 190.855 218.128 190.463C218.348 189.014 218.459 188.29 218.679 186.839C218.724 186.546 218.746 186.399 218.791 186.105C220.105 186.105 220.763 186.105 222.077 186.105C222.174 185.713 222.223 185.516 222.319 185.125C220.497 185.125 219.587 185.125 217.765 185.125C217.683 185.811 217.643 186.154 217.561 186.839C216.353 186.839 215.749 186.839 214.541 186.839C214.094 186.839 213.87 186.839 213.422 186.839C212.214 186.839 211.609 186.839 210.401 186.839C209.954 186.839 209.73 186.839 209.282 186.839C207.628 186.839 206.799 186.839 205.144 186.839ZM217.13 190.463C216.051 190.463 215.512 190.463 214.433 190.463C214.465 189.405 214.481 188.876 214.513 187.819C215.685 187.819 216.272 187.819 217.445 187.819C217.319 188.876 217.255 189.405 217.13 190.463ZM214.323 194.087C214.354 193.029 214.371 192.5 214.402 191.443C215.447 191.443 215.968 191.443 217.012 191.443C216.887 192.5 216.823 193.029 216.697 194.087C215.747 194.087 215.273 194.087 214.323 194.087ZM210.825 191.442C211.869 191.442 212.392 191.442 213.436 191.442C213.439 192.499 213.44 193.028 213.443 194.086C212.493 194.086 212.018 194.086 211.068 194.086C210.971 193.029 210.922 192.5 210.825 191.442ZM210.492 187.819C211.665 187.819 212.252 187.819 213.425 187.819C213.428 188.876 213.43 189.405 213.433 190.463C212.354 190.463 211.814 190.463 210.735 190.463C210.638 189.405 210.589 188.876 210.492 187.819ZM207.248 191.442C208.292 191.442 208.814 191.442 209.859 191.442C209.991 192.499 210.057 193.028 210.189 194.086C209.239 194.086 208.764 194.086 207.814 194.086C207.587 193.029 207.474 192.5 207.248 191.442ZM206.473 187.819C207.646 187.819 208.233 187.819 209.405 187.819C209.537 188.876 209.604 189.405 209.736 190.463C208.657 190.463 208.118 190.463 207.038 190.463C206.812 189.405 206.699 188.876 206.473 187.819Z" fill="white"/>
<path d="M216.568 200.247C217.21 200.247 217.731 199.726 217.731 199.084C217.731 198.441 217.21 197.92 216.568 197.92C215.925 197.92 215.404 198.441 215.404 199.084C215.404 199.726 215.925 200.247 216.568 200.247Z" fill="white"/>
<path d="M208.303 200.247C208.946 200.247 209.467 199.726 209.467 199.084C209.467 198.441 208.946 197.92 208.303 197.92C207.661 197.92 207.14 198.441 207.14 199.084C207.14 199.726 207.661 200.247 208.303 200.247Z" fill="white"/>
<g opacity="0.5">
<path d="M151.212 186.839C151.57 188.289 151.748 189.013 152.106 190.463C152.203 190.855 152.251 191.051 152.348 191.443C152.706 192.892 152.884 193.616 153.242 195.067C154.497 195.067 155.124 195.067 156.378 195.067C156.716 195.067 156.886 195.067 157.225 195.067C158.14 195.067 158.597 195.067 159.512 195.067C159.851 195.067 160.021 195.067 160.359 195.067C161.274 195.067 161.732 195.067 162.647 195.067C162.601 195.449 162.578 195.64 162.533 196.023C159.073 196.023 157.346 196.023 153.885 196.023C153.976 196.415 154.021 196.611 154.111 197.002C157.748 197.002 159.563 197.002 163.2 197.002C163.318 196.228 163.376 195.841 163.494 195.067C163.714 193.617 163.825 192.893 164.045 191.443C164.105 191.051 164.135 190.855 164.194 190.463C164.415 189.014 164.525 188.29 164.746 186.839C164.79 186.546 164.813 186.399 164.857 186.105C166.172 186.105 166.829 186.105 168.144 186.105C168.241 185.713 168.289 185.516 168.386 185.125C166.564 185.125 165.654 185.125 163.832 185.125C163.75 185.811 163.709 186.154 163.628 186.839C162.42 186.839 161.816 186.839 160.608 186.839C160.16 186.839 159.937 186.839 159.489 186.839C158.281 186.839 157.676 186.839 156.468 186.839C156.02 186.839 155.797 186.839 155.349 186.839C153.696 186.839 152.868 186.839 151.212 186.839ZM163.198 190.463C162.119 190.463 161.579 190.463 160.501 190.463C160.532 189.405 160.549 188.876 160.58 187.819C161.753 187.819 162.34 187.819 163.513 187.819C163.387 188.876 163.324 189.405 163.198 190.463ZM160.391 194.087C160.423 193.029 160.439 192.5 160.471 191.443C161.515 191.443 162.037 191.443 163.081 191.443C162.955 192.5 162.892 193.029 162.766 194.087C161.816 194.087 161.341 194.087 160.391 194.087ZM156.893 191.442C157.937 191.442 158.46 191.442 159.504 191.442C159.507 192.499 159.508 193.028 159.511 194.086C158.561 194.086 158.085 194.086 157.136 194.086C157.039 193.029 156.99 192.5 156.893 191.442ZM156.56 187.819C157.733 187.819 158.32 187.819 159.493 187.819C159.496 188.876 159.497 189.405 159.501 190.463C158.421 190.463 157.882 190.463 156.803 190.463C156.706 189.405 156.657 188.876 156.56 187.819ZM153.316 191.442C154.36 191.442 154.882 191.442 155.926 191.442C156.058 192.499 156.124 193.028 156.256 194.086C155.306 194.086 154.831 194.086 153.881 194.086C153.655 193.029 153.542 192.5 153.316 191.442ZM152.54 187.819C153.714 187.819 154.301 187.819 155.473 187.819C155.605 188.876 155.672 189.405 155.804 190.463C154.725 190.463 154.185 190.463 153.106 190.463C152.88 189.405 152.767 188.876 152.54 187.819Z" fill="white"/>
<path d="M162.636 200.247C163.278 200.247 163.799 199.726 163.799 199.084C163.799 198.441 163.278 197.92 162.636 197.92C161.993 197.92 161.472 198.441 161.472 199.084C161.472 199.726 161.993 200.247 162.636 200.247Z" fill="white"/>
<path d="M154.371 200.247C155.014 200.247 155.535 199.726 155.535 199.084C155.535 198.441 155.014 197.92 154.371 197.92C153.729 197.92 153.208 198.441 153.208 199.084C153.208 199.726 153.729 200.247 154.371 200.247Z" fill="white"/>
</g>
<path d="M219.533 110.538C219.533 110.538 221.731 126.345 223.709 129.067C225.686 131.79 234.571 139.334 234.571 139.334L240.18 138.517L243.943 142.077L241.221 143.963L238.221 142.616C238.221 142.616 235.983 142.918 233.12 142.739C230.258 142.561 219.061 134.998 216.996 131.015C214.932 127.031 212.605 112.391 212.605 112.391L219.533 110.538Z" fill="#CE7A63"/>
<path d="M221.414 115.105L220.853 115.207C220.463 111.494 218.909 100.207 214.656 103.106C210.567 105.893 211.713 113.805 212.31 116.763L211.635 116.886L212.257 118.838L221.666 117.034L221.414 115.105Z" fill="#46B3DF"/>
<path opacity="0.2" d="M217.864 107.64L216.829 105.414L213.571 108.687C213.571 108.687 212.646 110.081 211.705 111.508C211.752 113.62 212.072 115.586 212.309 116.763L211.634 116.886L212.256 118.838L217.562 117.82C218.527 112.299 217.864 107.64 217.864 107.64Z" fill="black"/>
<path d="M218.19 79.279C218.19 79.279 229.414 81.7012 223.45 87.0372L218.523 82.72L218.19 79.279Z" fill="#263238"/>
<path d="M233.771 197.808L226.628 215.308L221.672 213.382L225.665 195.985L233.771 197.808Z" fill="#CE7A63"/>
<path opacity="0.2" d="M226.018 194.749L223.203 207.011L229.308 208.375L234.124 196.565L226.018 194.749Z" fill="black"/>
<path d="M227.775 214.901C228.685 216.965 229.296 218.669 233.021 220.876C233.833 221.342 232.46 223.488 230.435 222.58C227.089 221.07 227.964 221.041 225.093 219.796C222.684 218.734 220.897 218.089 218.933 217.273C218.882 217.251 218.835 217.223 218.791 217.188C218.787 217.185 218.784 217.183 218.779 217.179C218.433 216.919 218.363 216.426 218.624 216.079L221.517 212.118C221.647 211.936 221.886 211.869 222.091 211.958L226.782 213.98C227.215 214.155 227.568 214.482 227.775 214.901Z" fill="#263238"/>
<path d="M249.763 156.675C248.852 167.978 232.628 205.311 232.628 205.311L222.999 202.628C222.999 202.628 230.355 166.757 235.156 160.819C235.156 160.819 233.589 160.847 231.068 160.869C222.293 160.946 201.953 160.932 196.086 159.372C191.899 158.256 183.152 156.018 185.46 142.011L196.305 141.637L208.935 141.199C208.935 141.199 251.013 141.235 249.763 156.675Z" fill="#263238"/>
<path opacity="0.2" d="M231.068 160.869C222.293 160.946 201.953 160.932 196.086 159.372C191.899 158.256 183.152 156.018 185.46 142.011L196.305 141.637C204.84 142.647 215.995 144.334 223.599 147.603C227.298 149.191 229.868 152.058 230.623 155.432C230.842 156.421 231.005 158.8 231.068 160.869Z" fill="black"/>
<path d="M217.024 197.187L213.453 215.028L208.081 214.776L208.719 196.935L217.024 197.187Z" fill="#CE7A63"/>
<path opacity="0.2" d="M217.024 197.187L208.719 196.935L208.346 207.604L214.892 207.835L217.024 197.187Z" fill="black"/>
<path d="M214.273 215.448C215.149 217.591 215.72 219.344 219.446 221.705C220.254 222.227 218.787 224.378 216.76 223.378C213.399 221.734 214.291 221.736 211.408 220.379C208.97 219.224 207.174 218.511 205.202 217.62L205.049 217.544L205.046 217.542C204.695 217.267 204.633 216.76 204.908 216.408L207.98 212.447C208.119 212.267 208.365 212.21 208.569 212.308L213.268 214.505C213.709 214.683 214.068 215.019 214.273 215.448Z" fill="#263238"/>
<path d="M179.153 141.998C179.153 141.998 176.086 153.03 181.161 157.386C188.258 163.484 213.893 161.629 213.893 161.629C209.467 175.803 207.488 203.952 207.488 203.952H217.098C217.098 203.952 230.185 165.444 228.251 155.487C226.317 145.529 191.978 142.012 191.978 142.012L179.153 141.998Z" fill="#263238"/>
<path d="M222.146 203.743L233.045 206.492L235.268 201.824L223.294 198.431L222.146 203.743Z" fill="#46B3DF"/>
<path d="M206.532 205.291L217.653 205.861L218.808 200.971L206.532 200.401V205.291Z" fill="#46B3DF"/>
<path d="M211.635 126.72C214.433 118.399 217.994 112.066 218.393 104.97C208.727 91.0183 189.831 99.2644 189.831 99.2644C178.391 120.723 179.153 141.998 179.153 141.998C205.144 141.998 206.633 141.555 206.633 141.555C206.633 141.555 206.728 137.878 211.635 126.72Z" fill="#46B3DF"/>
<path opacity="0.2" d="M202.906 98.8542C203.322 101.308 204.191 105.741 205.221 106.386C206.651 107.245 208.768 106.043 208.768 106.043C208.768 106.043 210.481 108.363 212.311 106.816C213.328 105.84 214.122 104.656 214.639 103.345C214.104 104.253 213.43 105.072 212.642 105.772C210.803 107.312 209.09 104.999 209.09 104.999C209.09 104.999 206.973 106.195 205.543 105.343C204.619 104.785 203.535 101.272 202.906 98.8542Z" fill="black"/>
<path d="M205.235 95.4647L207.816 96.3493L205.795 98.1172L205.235 95.4647Z" fill="#46B3DF"/>
<path opacity="0.2" d="M205.235 95.4647L207.816 96.3493L205.795 98.1172L205.235 95.4647Z" fill="black"/>
<path d="M213.427 98.1179L214.142 100.2C214.142 100.2 210.459 104.055 209.398 104.098C208.338 104.141 205.235 96.8499 205.235 96.8499C209.335 94.9938 208.959 92.9535 208.959 92.9535L213.427 98.1179Z" fill="#CE7A63"/>
<path opacity="0.2" d="M212.087 102.206C213.174 101.213 214.143 100.201 214.143 100.201L213.427 98.1186L209.439 93.5077C208.928 95.5134 208.42 99.7106 212.087 102.206Z" fill="black"/>
<path d="M215.531 101.703C214.863 103.257 213.881 104.655 212.646 105.808C210.807 107.349 209.095 105.036 209.095 105.036C209.095 105.036 206.984 106.231 205.555 105.378C204.125 104.527 202.334 96.7136 202.334 96.7136L205.235 95.4647L209.231 103.906L214.621 99.4543L215.531 101.703Z" fill="#46B3DF"/>
<path d="M208.798 85.8306C208.792 84.5789 209.115 83.3483 209.735 82.2611C211.688 78.8299 216.054 77.6319 219.486 79.5854C224.606 82.3494 224.747 90.4119 223.224 95.1371C222.811 96.5117 221.99 97.7274 220.869 98.6241C217.821 101.062 213.373 100.567 210.935 97.5185C208.418 94.4276 208.743 91.2548 208.811 85.8144L208.798 85.8306Z" fill="#CE7A63"/>
<path d="M218.347 89.2025C218.645 89.2265 218.823 89.6303 218.75 90.0617C218.677 90.4931 218.409 90.7875 218.119 90.7564C217.83 90.7253 217.644 90.3286 217.717 89.8972C217.782 89.4581 218.051 89.1785 218.347 89.2025Z" fill="#263238"/>
<path d="M223.242 90.1189C223.539 90.15 223.725 90.539 223.652 90.9774C223.58 91.4158 223.311 91.7032 223.014 91.6721C222.717 91.641 222.546 91.2513 222.612 90.8129C222.684 90.3822 222.945 90.0878 223.242 90.1189Z" fill="#263238"/>
<path d="M217.036 88.1731C217.547 87.7764 218.219 87.6514 218.839 87.8378C218.842 87.8385 218.844 87.8399 218.847 87.8406C218.979 87.8851 219.121 87.8145 219.166 87.6825C219.207 87.5497 219.139 87.4071 219.01 87.3549C218.21 87.1106 217.341 87.2793 216.69 87.8053C216.584 87.8943 216.569 88.0524 216.657 88.159C216.69 88.1859 216.729 88.2049 216.771 88.2141C216.86 88.2572 216.965 88.2402 217.036 88.1731Z" fill="#263238"/>
<path d="M224.473 89.5484C224.591 89.4729 224.628 89.3169 224.556 89.1969C224.15 88.4633 223.42 87.9663 222.588 87.8583C222.477 87.8639 222.382 87.9423 222.356 88.0503C222.356 88.0524 222.355 88.0538 222.355 88.0553C222.322 88.1943 222.408 88.3341 222.548 88.3666C223.219 88.4697 223.803 88.8813 224.125 89.4793C224.168 89.5534 224.244 89.6021 224.329 89.6092C224.382 89.6056 224.433 89.5837 224.473 89.5484Z" fill="#263238"/>
<path d="M220.334 94.9366C221.012 95.2466 221.791 95.2444 222.468 94.9324C221.815 93.6185 221.336 92.2242 221.044 90.7861L220.334 94.9366Z" fill="#BA4D3C"/>
<path d="M208.462 89.3543C206.354 81.6532 209.77 79.6482 213.47 78.2701C217.17 76.892 219.218 78.2122 220.4 79.5119C220.767 79.9158 221.504 81.147 219.13 81.3094C217.693 81.3659 216.253 81.2558 214.841 80.9804C214.267 80.8773 213.684 81.1068 213.335 81.5727C212.515 82.6423 211.191 84.646 211.205 86.4011C211.309 87.7503 210.807 89.0754 209.835 90.0172L208.462 89.3543Z" fill="#263238"/>
<path d="M205.795 128.025C205.797 128.025 205.8 128.025 205.802 128.025C206.317 128.029 206.732 128.45 206.728 128.966C206.725 129.481 206.303 129.896 205.787 129.892C205.272 129.888 204.857 129.467 204.861 128.951C204.866 128.438 205.282 128.025 205.795 128.025Z" fill="#46B3DF"/>
<path d="M203.758 137.878C203.763 137.878 203.768 137.878 203.773 137.878C204.288 137.883 204.703 138.303 204.699 138.819C204.695 139.335 204.274 139.75 203.758 139.746C203.243 139.742 202.827 139.321 202.832 138.805C202.832 138.293 203.246 137.878 203.758 137.878Z" fill="#46B3DF"/>
<path d="M208.522 87.5921C210.014 87.8646 210.732 89.9756 210.747 91.3586C210.765 92.8455 209.69 93.9623 208.368 93.0777C207.365 92.3887 206.66 91.3452 206.396 90.157C206.105 88.6892 207.03 87.3196 208.522 87.5921Z" fill="#CE7A63"/>
<path d="M215.356 94.8561C215.356 94.8561 216.683 95.1336 220.052 96.6875C219.19 97.5178 218.073 98.0049 216.354 97.193C214.636 96.3811 215.356 94.8561 215.356 94.8561Z" fill="#263238"/>
<path d="M217.522 96.7659C216.693 96.374 216.004 96.2865 215.417 96.3889C215.58 96.6797 215.874 96.9643 216.354 97.1909C217.183 97.5827 217.867 97.6738 218.456 97.5665C218.292 97.2756 218.002 96.9932 217.522 96.7659Z" fill="#A02724"/>
<path d="M215.522 94.8985C215.518 95.1583 215.513 95.4181 215.818 95.644C216.498 96.0154 218.387 96.6444 218.916 96.7666C219.248 96.8584 219.56 96.8746 219.906 96.6204C217.309 95.4301 215.963 95.0171 215.522 94.8985Z" fill="white"/>
<path d="M220.897 146.718L233.677 146.786L233.688 144.734L220.907 144.667L220.897 146.718Z" fill="#263238"/>
<path d="M205.71 146.628L221.97 146.715L221.98 144.663L204.76 144.571L204.754 145.661C204.751 146.192 205.179 146.625 205.71 146.628Z" fill="#263238"/>
<path opacity="0.3" d="M205.71 146.628L221.97 146.715L221.98 144.663L204.76 144.571L204.754 145.661C204.751 146.192 205.179 146.625 205.71 146.628Z" fill="white"/>
<path d="M217.341 146.016L219.395 146.027L219.398 145.298L217.345 145.287L217.341 146.016Z" fill="#263238"/>
<path d="M214.136 146.008L216.189 146.019L216.193 145.29L214.14 145.279L214.136 146.008Z" fill="#263238"/>
<path d="M224.42 144.676L223.055 144.669L228.492 126.152L229.857 126.159L224.42 144.676Z" fill="#263238"/>
<path opacity="0.3" d="M224.42 144.676L223.055 144.669L228.492 126.152L229.857 126.159L224.42 144.676Z" fill="white"/>
<path d="M223.916 144.673L247.899 144.801L253.336 126.285L229.353 126.157L223.916 144.673Z" fill="#263238"/>
<path opacity="0.6" d="M223.916 144.673L247.899 144.801L253.336 126.285L229.353 126.157L223.916 144.673Z" fill="white"/>
<path d="M222.742 144.667C223.005 144.668 247.445 144.799 247.708 144.8C248.129 144.802 248.467 145.263 248.464 145.83C248.461 146.396 248.117 146.854 247.696 146.852C247.276 146.85 223.152 146.72 222.731 146.718C222.31 146.716 221.972 146.255 221.975 145.688C221.978 145.122 222.321 144.664 222.742 144.667Z" fill="#263238"/>
<path opacity="0.5" d="M222.742 144.667C223.005 144.668 247.445 144.799 247.708 144.8C248.129 144.802 248.467 145.263 248.464 145.83C248.461 146.396 248.117 146.854 247.696 146.852C247.276 146.85 223.152 146.72 222.731 146.718C222.31 146.716 221.972 146.255 221.975 145.688C221.978 145.122 222.321 144.664 222.742 144.667Z" fill="white"/>
<path d="M221.975 145.689C221.973 146.256 222.311 146.717 222.732 146.719C223.152 146.721 223.495 146.264 223.498 145.697C223.501 145.131 223.163 144.669 222.742 144.667C222.321 144.664 221.978 145.122 221.975 145.689Z" fill="#263238"/>
<path opacity="0.3" d="M221.975 145.689C221.973 146.256 222.311 146.717 222.732 146.719C223.152 146.721 223.495 146.264 223.498 145.697C223.501 145.131 223.163 144.669 222.742 144.667C222.321 144.664 221.978 145.122 221.975 145.689Z" fill="white"/>
<path opacity="0.2" d="M198.405 127.526C197.254 125.94 196.03 120.081 195.177 115.24L196.284 115.027L196.023 113.025L195.441 113.131C195.043 109.342 193.476 97.9654 189.23 100.431C187.998 102.837 186.911 105.249 185.961 107.635C185.813 110.42 186.26 113.219 186.568 114.747L185.867 114.875L186.513 116.901L188.013 116.613C188.914 121.288 190.218 127.199 191.435 129.548C193.032 132.628 199.885 137.768 204.509 140.269C209.686 139.35 210.874 138.701 210.874 138.701C210.874 138.701 210.707 138.5 210.521 138.065L209.686 138.186C209.686 138.186 200.458 130.352 198.405 127.526Z" fill="black"/>
<path d="M197.138 108.354C197.138 108.354 198.649 124.859 200.566 127.779C202.484 130.7 211.333 138.959 211.333 138.959L217.192 138.384L220.922 142.261L218.006 144.085L214.959 142.541C214.959 142.541 212.623 142.746 209.662 142.421C206.701 142.096 195.455 133.705 193.507 129.473C191.56 125.24 189.861 109.939 189.861 109.939L197.138 108.354Z" fill="#CE7A63"/>
<path d="M198.449 111.916L197.868 112.022C197.463 108.166 195.849 96.4439 191.432 99.455C187.185 102.35 188.375 110.566 188.995 113.638L188.294 113.766L188.94 115.792L198.711 113.918L198.449 111.916Z" fill="#46B3DF"/>
<path d="M249.136 103.06H235.273C232.953 103.06 231.072 104.941 231.072 107.261V115.469C231.072 117.788 232.953 119.669 235.272 119.669H239.239V122.862C239.239 123.655 240.197 124.052 240.758 123.492L244.581 119.669H249.135C251.455 119.669 253.336 117.788 253.336 115.468V107.261C253.336 104.941 251.456 103.06 249.136 103.06Z" fill="#46B3DF"/>
<path d="M245.781 106.984C245.421 106.984 245.242 106.984 244.882 106.984C243.91 106.984 243.425 106.984 242.453 106.984C242.093 106.984 241.913 106.984 241.554 106.984C240.583 106.984 240.097 106.984 239.126 106.984C239.06 106.432 239.028 106.157 238.962 105.606C237.497 105.606 236.765 105.606 235.3 105.606C235.378 105.921 235.416 106.078 235.494 106.393C236.551 106.393 237.079 106.393 238.136 106.393C238.172 106.629 238.19 106.747 238.226 106.984C238.403 108.149 238.491 108.732 238.669 109.897C238.717 110.212 238.741 110.37 238.789 110.685C238.966 111.851 239.055 112.433 239.232 113.598C239.327 114.221 239.375 114.532 239.47 115.155C242.394 115.155 243.852 115.155 246.777 115.155C246.849 114.84 246.885 114.683 246.958 114.367C244.176 114.367 242.787 114.367 240.005 114.367C239.969 114.059 239.95 113.905 239.914 113.598C240.649 113.598 241.017 113.598 241.753 113.598C242.025 113.598 242.162 113.598 242.434 113.598C243.17 113.598 243.538 113.598 244.273 113.598C244.546 113.598 244.682 113.598 244.954 113.598C245.963 113.598 246.467 113.598 247.476 113.598C247.764 112.433 247.908 111.85 248.195 110.685C248.273 110.37 248.312 110.213 248.389 109.897C248.677 108.732 248.821 108.149 249.109 106.984C247.778 106.984 247.113 106.984 245.781 106.984ZM239.22 107.771C240.163 107.771 240.634 107.771 241.577 107.771C241.602 108.621 241.616 109.047 241.641 109.897C240.774 109.897 240.34 109.897 239.472 109.897C239.371 109.047 239.321 108.622 239.22 107.771ZM239.82 112.81C239.718 111.96 239.668 111.535 239.566 110.685C240.406 110.685 240.825 110.685 241.665 110.685C241.69 111.535 241.703 111.96 241.729 112.81C240.966 112.81 240.584 112.81 239.82 112.81ZM244.346 112.81C243.582 112.81 243.2 112.81 242.436 112.81C242.438 111.96 242.44 111.535 242.442 110.685C243.281 110.685 243.701 110.685 244.541 110.685C244.463 111.535 244.424 111.96 244.346 112.81ZM244.614 109.897C243.747 109.897 243.312 109.897 242.445 109.897C242.447 109.047 242.448 108.621 242.451 107.771C243.394 107.771 243.867 107.771 244.81 107.771C244.731 108.622 244.692 109.047 244.614 109.897ZM246.963 112.81C246.199 112.81 245.817 112.81 245.053 112.81C245.16 111.96 245.213 111.535 245.319 110.685C246.158 110.685 246.578 110.685 247.418 110.685C247.236 111.535 247.145 111.96 246.963 112.81ZM247.586 109.897C246.719 109.897 246.285 109.897 245.418 109.897C245.524 109.047 245.577 108.621 245.683 107.771C246.626 107.771 247.098 107.771 248.041 107.771C247.859 108.622 247.768 109.047 247.586 109.897Z" fill="white"/>
<path d="M239.924 115.893C239.407 115.893 238.989 116.311 238.989 116.828C238.989 117.345 239.407 117.764 239.924 117.764C240.441 117.764 240.86 117.345 240.86 116.828C240.86 116.311 240.441 115.893 239.924 115.893Z" fill="white"/>
<path d="M246.569 117.763C247.086 117.763 247.505 117.344 247.505 116.828C247.505 116.311 247.086 115.892 246.569 115.892C246.052 115.892 245.634 116.311 245.634 116.828C245.634 117.344 246.052 117.763 246.569 117.763Z" fill="white"/>
<path d="M55.6406 168.491L53.9512 168.402L54.3529 160.75C54.6261 155.543 59.0852 151.306 64.2927 151.306C66.8328 151.306 69.1718 152.298 70.8803 154.097C72.591 155.9 73.4594 158.294 73.3266 160.839L72.9263 168.491L71.2362 168.402L71.6365 160.75C71.7452 158.674 71.0413 156.724 69.6526 155.262C68.2674 153.801 66.3641 152.998 64.2927 152.998C59.9698 152.998 56.269 156.515 56.0423 160.84L55.6406 168.491Z" fill="#263238"/>
<path d="M91.8408 165.088H41.9421L40.2512 224.286L47.6508 222.594L55.0511 224.286H93.5323L91.8408 165.088Z" fill="#46B3DF"/>
<path opacity="0.6" d="M91.8408 165.088H41.9421L40.2512 224.286L47.6508 222.594L55.0511 224.286H93.5323L91.8408 165.088Z" fill="white"/>
<path d="M55.0511 224.286L47.6508 222.594L40.2512 224.286L41.9421 165.088H53.3595L55.0511 224.286Z" fill="#46B3DF"/>
<path opacity="0.3" d="M55.0511 224.286L47.6508 222.594L40.2512 224.286L41.9421 165.088H53.3595L55.0511 224.286Z" fill="white"/>
<path d="M81.2741 168.491L80.8724 160.839C80.6472 156.515 76.9463 152.997 72.6221 152.997C70.5507 152.997 68.6473 153.801 67.2621 155.261C65.8734 156.724 65.1695 158.673 65.2783 160.749L65.6793 168.402L63.9898 168.491L63.5888 160.838C63.4561 158.294 64.3245 155.899 66.0351 154.097C67.7429 152.297 70.0819 151.306 72.6228 151.306C77.8309 151.306 82.29 155.543 82.5626 160.75L82.9643 168.401L81.2741 168.491Z" fill="#263238"/>
<g opacity="0.2">
<path d="M81.2741 168.491L80.8724 160.839C80.6472 156.515 76.9463 152.997 72.6221 152.997C70.5507 152.997 68.6473 153.801 67.2621 155.261C65.8734 156.724 65.1695 158.673 65.2783 160.749L65.6793 168.402L63.9898 168.491L63.5888 160.838C63.4561 158.294 64.3245 155.899 66.0351 154.097C67.7429 152.297 70.0819 151.306 72.6228 151.306C77.8309 151.306 82.29 155.543 82.5626 160.75L82.9643 168.401L81.2741 168.491Z" fill="white"/>
</g>
<path d="M85.0949 192.35H61.9014C61.3775 192.35 60.9525 191.925 60.9525 191.401V187.66C60.9525 187.136 61.3775 186.712 61.9014 186.712H85.0949C85.6187 186.712 86.0431 187.137 86.0431 187.66V191.401C86.0438 191.925 85.6187 192.35 85.0949 192.35Z" fill="white"/>
<path d="M32.709 186.883L31.5765 186.823L31.8455 181.693C32.0291 178.203 35.0183 175.363 38.5088 175.363C40.2116 175.363 41.7796 176.027 42.9248 177.234C44.0713 178.442 44.6538 180.047 44.5648 181.753L44.2965 186.883L43.1641 186.823L43.4324 181.693C43.5058 180.302 43.0328 178.995 42.1023 178.014C41.1739 177.035 39.8975 176.497 38.5088 176.497C35.6106 176.497 33.1297 178.855 32.9779 181.753L32.709 186.883Z" fill="#263238"/>
<path d="M56.9756 184.602H23.526L22.3922 224.286L27.3526 223.152L32.3136 224.286H58.1102L56.9756 184.602Z" fill="#46B3DF"/>
<path d="M32.3136 224.286L27.3526 223.152L22.3922 224.286L23.526 184.602H31.1798L32.3136 224.286Z" fill="#46B3DF"/>
<path opacity="0.2" d="M32.3136 224.286L27.3526 223.152L22.3922 224.286L23.526 184.602H31.1798L32.3136 224.286Z" fill="black"/>
<path d="M49.8923 186.883L49.6233 181.753C49.4722 178.855 46.9914 176.497 44.0925 176.497C42.7038 176.497 41.4281 177.036 40.499 178.015C39.5685 178.996 39.0962 180.303 39.1689 181.694L39.4379 186.824L38.3054 186.884L38.0365 181.754C37.9475 180.048 38.53 178.443 39.6765 177.234C40.8216 176.028 42.3897 175.363 44.0925 175.363C47.5837 175.363 50.5729 178.204 50.7558 181.695L51.0247 186.824L49.8923 186.883Z" fill="#263238"/>
<g opacity="0.2">
<path d="M49.8923 186.883L49.6233 181.753C49.4722 178.855 46.9914 176.497 44.0925 176.497C42.7038 176.497 41.4281 177.036 40.499 178.015C39.5685 178.996 39.0962 180.303 39.1689 181.694L39.4379 186.824L38.3054 186.884L38.0365 181.754C37.9475 180.048 38.53 178.443 39.6765 177.234C40.8216 176.028 42.3897 175.363 44.0925 175.363C47.5837 175.363 50.5729 178.204 50.7558 181.695L51.0247 186.824L49.8923 186.883Z" fill="white"/>
</g>
<path d="M52.1409 202.877H37.2182C36.6943 202.877 36.27 202.452 36.27 201.929V200.046C36.27 199.522 36.6943 199.098 37.2182 199.098H52.1409C52.6648 199.098 53.0891 199.523 53.0891 200.046V201.929C53.0898 202.453 52.6648 202.877 52.1409 202.877Z" fill="white"/>
<path d="M84.2047 220.413L78.832 219.852L79.0989 207.301L84.4716 207.863L84.2047 220.413Z" fill="#B55B52"/>
<path d="M129.661 202.406L124.848 204.858L117.622 194.498L122.436 192.047L129.661 202.406Z" fill="#B55B52"/>
<path d="M123.847 204.189L128.787 200.665C128.967 200.537 129.202 200.558 129.353 200.715L132.704 204.223C133.051 204.586 132.977 205.219 132.557 205.508C130.813 206.707 129.911 207.198 127.738 208.747C126.402 209.701 124.548 211.233 122.701 212.55C120.896 213.838 119.455 212.111 120.105 211.398C123.023 208.198 122.838 206.787 123.304 204.984C123.388 204.659 123.583 204.377 123.847 204.189Z" fill="#263238"/>
<path d="M78.3753 219.175L84.4116 219.805C84.6311 219.829 84.7935 220 84.802 220.217L84.9905 225.064C85.0102 225.567 84.5351 225.991 84.0296 225.93C81.9286 225.674 80.9275 225.444 78.2729 225.167C76.6399 224.996 71.9316 224.675 69.6766 224.44C67.4711 224.21 67.5339 221.962 68.4948 221.859C72.8 221.393 75.9 220.454 77.4433 219.412C77.7215 219.224 78.054 219.142 78.3753 219.175Z" fill="#263238"/>
<g opacity="0.2">
<path d="M79.0996 207.305L78.9612 213.774L84.3367 214.335L84.475 207.866L79.0996 207.305Z" fill="black"/>
<path d="M122.439 192.049L117.623 194.502L121.35 199.84L126.166 197.388L122.439 192.049Z" fill="black"/>
</g>
<path d="M81.6709 98.862C81.6709 98.862 76.0998 140.321 75.9339 156.798C75.7616 173.937 77.9389 212.411 77.9389 212.411L85.2044 213.17C85.2044 213.17 88.1519 175.33 89.3281 158.529C90.6102 140.214 97.7295 99.3682 97.7295 99.3682L81.6709 98.862Z" fill="#263238"/>
<path d="M85.8074 213.497L77.2824 212.606L76.9414 209.822L86.5225 210.486L85.8074 213.497Z" fill="#46B3DF"/>
<path opacity="0.6" d="M90.8037 109.509C85.076 120.175 88.757 140.076 90.4296 147.49C91.7547 136.476 93.8275 123.028 95.4238 113.154C94.7849 107.519 93.4449 104.592 90.8037 109.509Z" fill="black"/>
<path d="M87.4622 99.0448C87.4622 99.0448 91.0656 142.443 94.3788 156.444C98.3127 173.066 119.62 199.32 119.62 199.32L126.185 195.977C126.185 195.977 111.749 166.804 108.617 158.013C101.934 139.252 109.027 111.83 103.6 99.5546L87.4622 99.0448Z" fill="#263238"/>
<path d="M127.116 195.934L118.972 200.082L116.801 197.964L126.161 192.653L127.116 195.934Z" fill="#46B3DF"/>
<path d="M121.952 206.405C121.931 206.404 121.909 206.403 121.887 206.4C121.645 206.371 121.454 206.226 121.321 205.969C121.22 205.776 121.264 205.623 121.318 205.529C121.665 204.932 123.616 204.842 123.837 204.833C123.891 204.83 123.935 204.86 123.957 204.906C123.979 204.952 123.972 205.007 123.938 205.045C123.479 205.57 122.625 206.426 121.952 206.405ZM123.537 205.107C122.758 205.167 121.722 205.344 121.539 205.658C121.517 205.697 121.497 205.755 121.546 205.852C121.64 206.031 121.761 206.127 121.917 206.146C122.283 206.189 122.88 205.805 123.537 205.107Z" fill="#46B3DF"/>
<path d="M123.655 205.094C122.985 205.073 121.764 204.715 121.534 204.205C121.486 204.096 121.44 203.882 121.678 203.664C121.829 203.526 122.012 203.466 122.218 203.489C122.998 203.572 123.907 204.833 123.945 204.887C123.972 204.924 123.977 204.972 123.958 205.014C123.939 205.056 123.9 205.084 123.855 205.089C123.797 205.095 123.729 205.096 123.655 205.094ZM122.152 203.74C122.036 203.737 121.938 203.774 121.851 203.853C121.729 203.964 121.743 204.043 121.768 204.1C121.923 204.445 122.93 204.802 123.587 204.838C123.262 204.433 122.656 203.792 122.192 203.743C122.178 203.742 122.165 203.741 122.152 203.74Z" fill="#46B3DF"/>
<path d="M76.2608 219.904C75.7263 219.848 75.2427 219.714 74.9921 219.437C74.8332 219.261 74.7775 219.044 74.8269 218.793C74.8565 218.643 74.9434 218.534 75.0782 218.477C75.7736 218.186 77.802 219.503 78.0307 219.654C78.0759 219.685 78.0978 219.74 78.0844 219.792C78.071 219.845 78.0265 219.883 77.9721 219.888C77.5055 219.931 76.8524 219.965 76.2608 219.904ZM75.4192 218.692C75.3204 218.681 75.2385 218.688 75.1771 218.713C75.1213 218.737 75.0909 218.776 75.0782 218.842C75.0443 219.013 75.0789 219.151 75.182 219.265C75.4771 219.592 76.3561 219.736 77.5676 219.663C76.8672 219.231 75.9282 218.745 75.4192 218.692Z" fill="#46B3DF"/>
<path d="M77.9467 219.888C77.9291 219.886 77.9114 219.881 77.8959 219.871C77.2859 219.515 76.1394 218.223 76.3025 217.625C76.3413 217.483 76.462 217.315 76.8178 217.316C77.0805 217.317 77.3106 217.416 77.4998 217.609C78.1169 218.242 78.0893 219.702 78.0879 219.763C78.0865 219.808 78.0618 219.85 78.0223 219.872C77.999 219.885 77.9721 219.891 77.9467 219.888ZM76.8941 217.576C76.8694 217.573 76.8433 217.572 76.8171 217.572C76.582 217.571 76.5573 217.662 76.5496 217.692C76.4521 218.052 77.2167 219.053 77.8281 219.517C77.8091 219.089 77.7208 218.203 77.3163 217.788C77.1941 217.663 77.0558 217.593 76.8941 217.576Z" fill="#46B3DF"/>
<path d="M79.3566 76.8171C77.317 79.5162 75.1757 81.9215 72.6609 84.2308C71.4021 85.3802 70.072 86.4851 68.4383 87.4594C67.6165 87.9416 66.722 88.4125 65.5783 88.7316C65.0065 88.8883 64.3591 89.009 63.6093 88.9984C63.2407 88.997 62.8376 88.9504 62.4352 88.8608C62.2333 88.8142 62.0271 88.7528 61.8266 88.6822C61.6127 88.596 61.4666 88.5515 61.1524 88.3786C60.6067 88.0799 60.1619 87.6634 59.8738 87.2822C59.5787 86.8988 59.3719 86.519 59.2335 86.1886C58.9412 85.5087 58.8297 84.9411 58.7478 84.4094C58.5981 83.354 58.6059 82.4397 58.6447 81.5509C58.7322 79.783 59.009 78.1451 59.321 76.5277C59.9727 73.2991 60.8721 70.2245 61.9763 67.159L64.8999 67.9152C64.477 70.9891 64.0922 74.1195 63.8585 77.1567C63.742 78.6718 63.6855 80.1876 63.7441 81.5847C63.7731 82.2766 63.8479 82.9502 63.9764 83.4528C64.0378 83.6978 64.1211 83.9033 64.1585 83.9442C64.1967 84.0134 64.167 83.7938 63.7441 83.5305C63.6008 83.4606 63.6453 83.4726 63.6142 83.4606C63.6015 83.4507 63.5867 83.4436 63.5775 83.4387C63.5627 83.4246 63.5542 83.4253 63.5817 83.414C63.6241 83.4027 63.7618 83.373 63.946 83.3003C64.3167 83.1563 64.837 82.8859 65.3538 82.5301C66.4001 81.8163 67.4859 80.8547 68.5365 79.8452C69.5898 78.8264 70.5987 77.713 71.5984 76.582C72.5988 75.4687 73.59 74.2529 74.4965 73.1353L79.3566 76.8171Z" fill="#B55B52"/>
<path d="M78.1796 69.0448C75.9642 68.4355 69.4076 76.8079 69.4076 76.8079L75.6762 83.8009C75.6762 83.8009 83.0299 77.1673 82.7531 74.1922C82.4644 71.095 81.4124 69.9336 78.1796 69.0448Z" fill="#46B3DF"/>
<path d="M64.9719 67.1252L64.7269 62.7247L60.4852 66.2158C60.4852 66.2158 61.1249 69.6251 63.2662 70.3022L64.5878 68.4489C64.8631 68.0641 64.998 67.5975 64.9719 67.1252Z" fill="#B55B52"/>
<path d="M61.9699 59.1156L58.5769 62.2305L60.4859 66.2158L64.7269 62.7247L61.9699 59.1156Z" fill="#B55B52"/>
<path d="M60.2437 67.6222L59.2659 67.2664C58.7159 67.0659 58.3912 66.4968 58.4999 65.9214L59.9895 57.9994L62.6632 58.973L61.8421 66.626C61.7595 67.3984 60.9737 67.8876 60.2437 67.6222Z" fill="#263238"/>
<path d="M67.3009 57.5575C67.4675 57.0993 67.6271 56.646 67.781 56.197C67.3609 55.4133 66.5285 54.5739 65.4145 53.7669C65.0586 54.6374 64.7056 55.5446 64.3625 56.4872C64.0194 57.4297 63.7059 58.3517 63.4193 59.2476C64.7918 59.3457 65.9694 59.2384 66.7947 58.908C66.9641 58.4654 67.1336 58.0156 67.3009 57.5575Z" fill="#263238"/>
<path d="M65.5268 56.9143C65.9949 55.6287 66.3027 54.4221 66.4227 53.5114L57.645 50.3153L55.2566 56.8748L64.0392 60.0722C64.5292 59.2999 65.0636 58.1879 65.5268 56.9143Z" fill="#46B3DF"/>
<path opacity="0.6" d="M65.5268 56.9143C65.9949 55.6287 66.3027 54.4221 66.4227 53.5114L57.645 50.3153L55.2566 56.8748L64.0392 60.0722C64.5292 59.2999 65.0636 58.1879 65.5268 56.9143Z" fill="white"/>
<path d="M59.9289 50.5335C59.53 50.388 50.0696 40.6311 48.9852 40.2364C47.8316 39.8164 45.3627 43.6867 43.4713 48.8814C41.5799 54.0762 40.982 58.6277 42.1356 59.0478C43.22 59.4425 56.7392 58.0524 57.1381 58.1978C57.6083 58.3686 58.6136 56.7921 59.3846 54.6756C60.1548 52.559 60.3984 50.705 59.9289 50.5335Z" fill="#46B3DF"/>
<path opacity="0.4" d="M59.9289 50.5335C59.53 50.388 50.0696 40.6311 48.9852 40.2364C47.8316 39.8164 45.3627 43.6867 43.4713 48.8814C41.5799 54.0762 40.982 58.6277 42.1356 59.0478C43.22 59.4425 56.7392 58.0524 57.1381 58.1978C57.6083 58.3686 58.6136 56.7921 59.3846 54.6756C60.1548 52.559 60.3984 50.705 59.9289 50.5335Z" fill="white"/>
<path d="M47.6494 50.4028C45.7581 55.5976 43.2899 59.4679 42.1356 59.0478C40.982 58.6277 41.5799 54.0762 43.4713 48.8814C45.3627 43.6867 47.8309 39.8164 48.9852 40.2364C50.1388 40.6565 49.5408 45.2081 47.6494 50.4028Z" fill="#46B3DF"/>
<path d="M44.8579 49.3862C44.733 49.73 44.6144 50.071 44.5 50.4078C44.9391 51.0411 45.7644 51.7442 46.8482 52.4404C47.1221 51.7894 47.3911 51.1096 47.6488 50.4021C47.9064 49.6947 48.1373 49.0014 48.3456 48.3265C47.0677 48.1627 45.9833 48.1705 45.2399 48.3731C45.1114 48.7049 44.9829 49.0424 44.8579 49.3862Z" fill="#263238"/>
<path opacity="0.7" d="M44.8579 49.3862C44.733 49.73 44.6144 50.071 44.5 50.4078C44.9391 51.0411 45.7644 51.7442 46.8482 52.4404C47.1221 51.7894 47.3911 51.1096 47.6488 50.4021C47.9064 49.6947 48.1373 49.0014 48.3456 48.3265C47.0677 48.1627 45.9833 48.1705 45.2399 48.3731C45.1114 48.7049 44.9829 49.0424 44.8579 49.3862Z" fill="white"/>
<path opacity="0.2" d="M76.3299 73.9677C76.6547 78.6619 75.5554 81.4563 74.7831 82.8054L75.6762 83.8016C75.6762 83.8016 79.8239 80.0598 81.7718 76.9364C79.5818 73.6931 75.9882 69.0349 76.3299 73.9677Z" fill="black"/>
<path d="M101.007 47.2633C103.951 47.2633 106.336 44.8775 106.336 41.9344C106.336 38.9913 103.951 36.6055 101.007 36.6055C98.0644 36.6055 95.6786 38.9913 95.6786 41.9344C95.6786 44.8775 98.0644 47.2633 101.007 47.2633Z" fill="#263238"/>
<path d="M100.434 44.3659C100.434 46.2142 98.9354 47.713 97.0864 47.713C95.2381 47.713 93.7393 46.2149 93.7393 44.3659C93.7393 42.5175 95.2374 41.0187 97.0864 41.0187C98.9354 41.0187 100.434 42.5175 100.434 44.3659Z" fill="#46B3DF"/>
<path d="M86.4385 40.2054C86.4385 40.2054 79.3545 39.6272 79.3672 51.7711C79.3764 60.087 83.4069 63.9355 88.3581 61.139C88.3581 61.139 99.2757 60.2431 100.532 50.2553C101.788 40.2675 94.0704 36.5441 86.4385 40.2054Z" fill="#263238"/>
<path d="M76.7345 69.3688C76.7345 69.3688 74.2332 70.4596 81.6737 101.701C90.3568 101.07 99.3307 100.417 103.556 100.11C102.542 91.2308 102.132 85.7396 105.06 67.1527C105.06 67.1527 100.402 66.4883 95.6786 66.6041C91.9834 66.6945 88.9575 66.7962 85.7424 67.3271C81.5021 68.0267 76.7345 69.3688 76.7345 69.3688Z" fill="#46B3DF"/>
<path d="M93.8805 55.4875C93.4858 58.7301 93.2867 64.6337 95.6786 66.6041C95.6786 66.6041 95.0404 69.911 89.0994 70.3431C82.5668 70.8183 85.7417 67.3271 85.7417 67.3271C89.2449 66.2165 88.9603 63.5782 88.159 61.139L93.8805 55.4875Z" fill="#B55B52"/>
<path opacity="0.2" d="M91.5478 57.7933L88.1611 61.1362C88.3532 61.713 88.512 62.3011 88.596 62.8779C89.9438 62.5821 91.706 60.9512 91.7469 59.5145C91.7674 58.7972 91.6876 58.1159 91.5478 57.7933Z" fill="black"/>
<path d="M97.5362 50.0901C96.3119 55.3096 95.9046 57.5455 92.7784 59.7983C88.0758 63.1871 81.9321 60.541 81.5728 55.0611C81.2487 50.1282 83.306 42.4208 88.8276 41.203C94.2674 40.0035 98.7604 44.8706 97.5362 50.0901Z" fill="#B55B52"/>
<path d="M88.5374 50.0548C88.464 50.484 88.1773 50.7933 87.8964 50.746C87.6154 50.698 87.4473 50.3111 87.5208 49.8818C87.5942 49.4526 87.8808 49.1426 88.1618 49.1906C88.4428 49.2387 88.6108 49.6255 88.5374 50.0548Z" fill="#263238"/>
<path d="M83.6823 49.226C83.6089 49.6552 83.3222 49.9644 83.0413 49.9171C82.7603 49.8691 82.5922 49.4822 82.6657 49.0523C82.7391 48.623 83.0257 48.3131 83.3067 48.3611C83.5877 48.4091 83.7557 48.7967 83.6823 49.226Z" fill="#263238"/>
<path d="M83.4267 48.4063L82.446 47.9326C82.446 47.9326 82.8379 48.8292 83.4267 48.4063Z" fill="#263238"/>
<path d="M85.3936 50.2553C85.3936 50.2553 84.3487 51.9801 83.3942 52.7355C83.8707 53.3617 84.8761 53.284 84.8761 53.284L85.3936 50.2553Z" fill="#A02724"/>
<path d="M98.139 55.1712C97.5883 56.1363 96.643 56.7576 95.7584 56.9842C94.4276 57.3252 93.7915 56.1271 94.1861 54.8867C94.5412 53.7698 95.6624 52.2469 96.9861 52.4559C98.2908 52.6621 98.7695 54.0677 98.139 55.1712Z" fill="#B55B52"/>
<path d="M90.6547 49.3989C90.5467 49.3975 90.4478 49.3269 90.4147 49.2182C90.0659 48.0865 88.62 47.6029 88.6059 47.5986C88.4718 47.5548 88.3983 47.4101 88.4421 47.276C88.4859 47.1418 88.6292 47.0677 88.7647 47.1122C88.8346 47.1348 90.4782 47.6854 90.9039 49.0678C90.9456 49.2026 90.87 49.346 90.7345 49.3876C90.7077 49.3954 90.6808 49.3989 90.6547 49.3989Z" fill="#263238"/>
<path d="M82.6063 46.7345C82.5188 46.7331 82.4348 46.6872 82.3882 46.606C82.3183 46.4831 82.3606 46.3271 82.4835 46.2565C83.7112 45.5533 84.7702 46.0786 84.814 46.1012C84.9396 46.1654 84.9898 46.3201 84.9255 46.4457C84.862 46.5707 84.7081 46.6208 84.5824 46.5573C84.5478 46.5396 83.719 46.1386 82.7383 46.6999C82.6967 46.7239 82.6508 46.7352 82.6063 46.7345Z" fill="#263238"/>
<path d="M88.2818 49.2351L87.3011 48.7614C87.3011 48.7614 87.6923 49.658 88.2818 49.2351Z" fill="#263238"/>
<path d="M85.3032 54.6148C85.3032 54.6148 86.723 54.2153 90.7543 54.0204C90.3405 55.2552 89.5067 56.2867 87.441 56.3671C85.3759 56.4469 85.3032 54.6148 85.3032 54.6148Z" fill="#263238"/>
<path d="M88.3524 55.3681C87.3555 55.407 86.6467 55.6689 86.1313 56.0628C86.4349 56.2619 86.8614 56.3876 87.4389 56.365C88.4357 56.3262 89.1403 56.0706 89.655 55.671C89.3514 55.4719 88.9299 55.3456 88.3524 55.3681Z" fill="#A02724"/>
<path d="M85.4846 54.5711C85.6117 54.8238 85.7374 55.0773 86.1454 55.1415C86.9884 55.1585 89.1262 54.8153 89.698 54.6671C90.0651 54.5887 90.3744 54.4475 90.5798 54.0282C87.4762 54.1863 85.9696 54.4645 85.4846 54.5711Z" fill="white"/>
<path d="M82.4835 46.2565C82.4835 46.2565 85.1939 45.1573 86.5338 43.0837C86.5338 43.0837 86.5585 46.8411 88.068 46.553C89.5774 46.265 87.3013 43.0802 87.3013 43.0802C87.3013 43.0802 90.839 44.6454 92.0378 47.713C93.2366 50.7806 94.6182 54.1192 97.3399 53.2869C100.062 52.4552 99.4607 43.7721 95.4492 41.6047L89.7737 40.5901L88.1103 40.8309C87.2561 40.9544 86.4357 41.2517 85.6993 41.7035C84.5832 42.389 83.707 43.4028 83.1902 44.6066L82.4835 46.2565Z" fill="#263238"/>
<path d="M95.6673 46.7112C95.4068 46.1605 94.1551 46.2057 92.8723 46.8121C91.5888 47.4193 91.5358 47.9904 91.7963 48.5418C92.0569 49.0925 92.5327 49.4144 93.8155 48.8073C95.0983 48.2008 95.9279 47.2618 95.6673 46.7112ZM92.6393 48.1429C92.4529 47.749 92.491 47.3402 93.4081 46.9067C94.3252 46.4732 95.2197 46.4408 95.4054 46.8347C95.5918 47.2287 94.9988 47.8994 94.0824 48.3328C93.1653 48.7663 92.8257 48.5369 92.6393 48.1429Z" fill="#46B3DF"/>
<path opacity="0.2" d="M102.646 74.4005L100.986 72.9744L99.7565 73.5279C99.7565 73.5279 98.7625 79.6312 102.884 85.8469C102.993 83.498 103.214 80.8491 103.584 77.6855C103.068 75.792 102.646 74.4005 102.646 74.4005Z" fill="black"/>
<path d="M125.014 91.6015L124.12 91.6954L123.695 87.6465C123.405 84.8917 125.393 82.2978 128.126 81.865C129.459 81.6539 130.768 81.9794 131.814 82.7821C132.862 83.5863 133.517 84.7702 133.659 86.1166L134.084 90.1648L133.19 90.2587L132.765 86.2105C132.65 85.1119 132.117 84.1475 131.267 83.4959C130.419 82.845 129.353 82.5816 128.267 82.7532C125.998 83.1125 124.349 85.2658 124.589 87.5533L125.014 91.6015Z" fill="#263238"/>
<path d="M108.375 73.4636C108.496 74.0715 108.671 74.822 108.831 75.5082C108.999 76.2093 109.183 76.9096 109.381 77.6043C109.776 78.9937 110.191 80.3761 110.693 81.7111C111.698 84.3713 112.908 86.9355 114.499 88.985L114.648 89.1757L114.722 89.271C114.705 89.2498 114.668 89.2131 114.637 89.1898C114.513 89.0789 114.349 89.0041 114.25 88.9709C114.036 88.9095 114.043 88.9688 114.182 88.9681C114.468 88.9865 115.064 88.8608 115.646 88.6596C116.842 88.2416 118.158 87.6161 119.431 86.9172C121.995 85.5228 124.584 83.8948 127.094 82.2597L129.046 84.5641C126.831 86.843 124.51 88.9187 121.898 90.8214C120.575 91.7533 119.222 92.6697 117.578 93.4201C116.74 93.7873 115.862 94.153 114.616 94.3097C113.994 94.3725 113.214 94.3852 112.281 94.052C111.82 93.8882 111.329 93.5988 110.92 93.2338C110.822 93.1434 110.716 93.0396 110.63 92.9507L110.517 92.8278L110.292 92.5821C109.09 91.2683 108.104 89.8464 107.26 88.3857C106.402 86.9292 105.697 85.4247 105.08 83.9026C104.466 82.3797 103.917 80.8456 103.471 79.2846C103.25 78.5038 103.046 77.7194 102.858 76.928C102.665 76.1217 102.511 75.3734 102.364 74.4704L108.375 73.4636Z" fill="#B55B52"/>
<path d="M105.059 67.1527C107.3 67.6603 111.22 75.7553 111.22 75.7553L102.419 81.7175C102.419 81.7175 98.8591 75.6409 99.5743 72.7407C100.319 69.719 102.502 66.5738 105.059 67.1527Z" fill="#46B3DF"/>
<path d="M126.721 82.2795L131.831 79.4604L130.76 84.8486C130.76 84.8486 127.454 85.897 125.845 84.3304L126.721 82.2795Z" fill="#B55B52"/>
<path d="M136.315 80.1833L135.175 84.646L130.76 84.8486L131.831 79.4604L136.315 80.1833Z" fill="#B55B52"/>
<path d="M138.464 89.4715L137.617 85.4896C137.14 83.2396 134.905 81.7012 132.636 82.0606C131.549 82.2329 130.617 82.8125 130.012 83.6943C129.405 84.5775 129.197 85.6584 129.428 86.7393L130.274 90.7211L129.395 90.9082L128.549 86.9263C128.268 85.6019 128.525 84.2739 129.272 83.1853C130.019 82.0987 131.164 81.3842 132.497 81.1731C135.23 80.7404 137.922 82.5929 138.498 85.3025L139.344 89.2837L138.464 89.4715Z" fill="#263238"/>
<g opacity="0.3">
<path d="M138.464 89.4715L137.617 85.4896C137.14 83.2396 134.905 81.7012 132.636 82.0606C131.549 82.2329 130.617 82.8125 130.012 83.6943C129.405 84.5775 129.197 85.6584 129.428 86.7393L130.274 90.7211L129.395 90.9082L128.549 86.9263C128.268 85.6019 128.525 84.2739 129.272 83.1853C130.019 82.0987 131.164 81.3842 132.497 81.1731C135.23 80.7404 137.922 82.5929 138.498 85.3025L139.344 89.2837L138.464 89.4715Z" fill="white"/>
</g>
<path d="M143.726 86.8077L117.543 90.9548L121.575 122.157L125.318 120.655L129.341 120.927L149.533 117.729L143.726 86.8077Z" fill="#46B3DF"/>
<path opacity="0.6" d="M143.726 86.8077L117.543 90.9548L121.575 122.157L125.318 120.655L129.341 120.927L149.533 117.729L143.726 86.8077Z" fill="white"/>
<path d="M129.341 120.927L125.318 120.655L121.575 122.157L117.543 90.9548L123.534 90.0059L129.341 120.927Z" fill="#46B3DF"/>
<path opacity="0.3" d="M129.341 120.927L125.318 120.655L121.575 122.157L117.543 90.9548L123.534 90.0059L129.341 120.927Z" fill="white"/>
<path d="M141.507 102.454L130.679 104.169C130.098 104.261 129.552 103.865 129.459 103.283L129.445 103.188C129.352 102.607 129.749 102.061 130.331 101.968L141.158 100.254C141.74 100.161 142.286 100.559 142.378 101.14L142.393 101.234C142.486 101.816 142.089 102.362 141.507 102.454Z" fill="white"/>
</svg>
