<svg width="291" height="269" viewBox="0 0 291 269" fill="none" xmlns="http://www.w3.org/2000/svg">
<path d="M218.68 39.07H153.48V264.24H218.68V39.07Z" fill="#D7ECFD"/>
<path d="M155.67 159.91H76.5801V264.24H155.67V159.91Z" fill="#D7ECFD"/>
<path d="M271.11 82.09H202.02V264.23H271.11V82.09Z" fill="#D7ECFD"/>
<path d="M45.2004 195.14H9.44043V264.23H45.2004V195.14Z" fill="#D7ECFD"/>
<path d="M77.6701 119.95H33.8701V264.23H77.6701V119.95Z" fill="#D7ECFD"/>
<path d="M230.41 140.63H49.6602V265.1H230.41V140.63Z" fill="#E6A347"/>
<path d="M192.951 253.36V184.83H146.541V253.36H192.951Z" fill="#71C1DC"/>
<mask id="mask0_141_3904" style="mask-type:luminance" maskUnits="userSpaceOnUse" x="146" y="184" width="47" height="70">
<path d="M192.951 253.36V184.83H146.541V253.36H192.951Z" fill="white"/>
</mask>
<g mask="url(#mask0_141_3904)">
<g style="mix-blend-mode:soft-light" opacity="0.8">
<path d="M163.131 253.36H183.321L145.651 184.83H125.471L163.131 253.36Z" fill="#D6F0EF"/>
</g>
<g style="mix-blend-mode:soft-light" opacity="0.8">
<path d="M191.4 253.36H199.03L161.36 184.83H153.73L191.4 253.36Z" fill="#D6F0EF"/>
</g>
<g style="mix-blend-mode:multiply" opacity="0.6">
<path d="M171.54 195.46H146.53V253.36H171.54V195.46Z" fill="#71C1DC"/>
</g>
<g style="mix-blend-mode:multiply" opacity="0.6">
<path d="M192.95 228.44H183.98V253.36H192.95V228.44Z" fill="#71C1DC"/>
</g>
</g>
<path d="M141.511 179.81V258.38H197.971V179.81H141.511ZM146.531 253.36V219.1H192.941V215.79H146.531V184.84H192.941V253.37H146.531V253.36Z" fill="#80412F"/>
<path d="M140.041 258.46H141.521V179.8H140.041V258.46Z" fill="#A46D47"/>
<path d="M135.011 253.36V184.83H88.6007V253.36H135.011Z" fill="#71C1DC"/>
<mask id="mask1_141_3904" style="mask-type:luminance" maskUnits="userSpaceOnUse" x="88" y="184" width="48" height="70">
<path d="M135.011 253.36V184.83H88.6007V253.36H135.011Z" fill="white"/>
</mask>
<g mask="url(#mask1_141_3904)">
<g style="mix-blend-mode:multiply" opacity="0.6">
<path d="M135.011 233.15H88.6006V253.36H135.011V233.15Z" fill="#71C1DC"/>
</g>
<g style="mix-blend-mode:multiply" opacity="0.6">
<path d="M113.611 216.46H88.6006V232.02H113.611V216.46Z" fill="#71C1DC"/>
</g>
<g style="mix-blend-mode:multiply" opacity="0.6">
<path d="M113.611 199.74H88.6006V215.3H113.611V199.74Z" fill="#71C1DC"/>
</g>
<g style="mix-blend-mode:multiply" opacity="0.6">
<path d="M134.95 220.5H124.46V232.01H134.95V220.5Z" fill="#71C1DC"/>
</g>
<g style="mix-blend-mode:multiply" opacity="0.6">
<path d="M134.95 207.91H124.46V219.42H134.95V207.91Z" fill="#71C1DC"/>
</g>
<g style="mix-blend-mode:soft-light" opacity="0.8">
<path d="M105.2 253.36H125.38L87.7203 184.83H67.5303L105.2 253.36Z" fill="#D6F0EF"/>
</g>
<g style="mix-blend-mode:soft-light" opacity="0.8">
<path d="M133.47 253.36H141.1L103.43 184.83H95.7998L133.47 253.36Z" fill="#D6F0EF"/>
</g>
</g>
<path d="M83.5811 179.81V258.38H140.041V179.81H83.5811ZM88.6011 253.36V219.1H135.011V215.79H88.6011V184.84H135.011V253.37H88.6011V253.36Z" fill="#80412F"/>
<path d="M82.1011 258.46H83.5811L83.5811 179.8H82.1011L82.1011 258.46Z" fill="#A46D47"/>
<path d="M230.42 132.32H49.6504V168.7C51.5404 170.77 54.2604 172.07 57.2804 172.07C62.9904 172.07 67.6304 167.44 67.6304 161.72C67.6304 167.43 72.2604 172.07 77.9804 172.07C83.7004 172.07 88.3304 167.44 88.3304 161.72C88.3304 167.43 92.9604 172.07 98.6804 172.07C104.39 172.07 109.03 167.44 109.03 161.72C109.03 167.43 113.66 172.07 119.38 172.07C125.1 172.07 129.73 167.44 129.73 161.72C129.73 167.43 134.36 172.07 140.08 172.07C145.79 172.07 150.43 167.44 150.43 161.72C150.43 167.43 155.06 172.07 160.78 172.07C166.5 172.07 171.13 167.44 171.13 161.72C171.13 167.43 175.76 172.07 181.48 172.07C187.19 172.07 191.83 167.44 191.83 161.72C191.83 167.43 196.46 172.07 202.18 172.07C207.9 172.07 212.53 167.44 212.53 161.72C212.53 167.43 217.16 172.07 222.88 172.07C225.87 172.07 228.56 170.79 230.44 168.77V132.32H230.42Z" fill="#C98439"/>
<path d="M57.2504 160.51C51.5404 160.51 46.9004 155.88 46.9004 150.16V120.75H67.6004V150.16C67.6004 155.87 62.9704 160.51 57.2504 160.51Z" fill="#C9284E"/>
<path d="M67.6006 120.75H88.3006V150.16C88.3006 155.87 83.6606 160.51 77.9506 160.51C72.2406 160.51 67.6006 155.87 67.6006 150.16V120.75Z" fill="#E2E0E3"/>
<path d="M222.821 160.51C217.111 160.51 212.471 155.88 212.471 150.16V120.75H233.171V150.16C233.171 155.87 228.541 160.51 222.821 160.51Z" fill="#C9284E"/>
<path d="M98.64 160.51C92.93 160.51 88.29 155.88 88.29 150.16V120.75H108.99V150.16C108.99 155.87 104.36 160.51 98.64 160.51Z" fill="#C9284E"/>
<path d="M108.99 120.75H129.69V150.16C129.69 155.87 125.05 160.51 119.34 160.51C113.63 160.51 108.99 155.87 108.99 150.16V120.75Z" fill="#E2E0E3"/>
<path d="M140.031 160.51C134.321 160.51 129.681 155.88 129.681 150.16V120.75H150.381V150.16C150.381 155.87 145.751 160.51 140.031 160.51Z" fill="#C9284E"/>
<path d="M150.381 120.75H171.081V150.16C171.081 155.87 166.441 160.51 160.731 160.51C155.021 160.51 150.381 155.87 150.381 150.16V120.75Z" fill="#E2E0E3"/>
<path d="M181.43 160.51C175.72 160.51 171.08 155.88 171.08 150.16V120.75H191.78V150.16C191.78 155.87 187.15 160.51 181.43 160.51Z" fill="#C9284E"/>
<path d="M191.771 120.75H212.471V150.16C212.471 155.87 207.83 160.51 202.12 160.51C196.41 160.51 191.771 155.87 191.771 150.16V120.75Z" fill="#E2E0E3"/>
<path d="M238.49 259.02H41.5703V265.09H238.49V259.02Z" fill="#CB1E48"/>
<path d="M238.49 258.47H41.5703V260.03H238.49V258.47Z" fill="#DF3D55"/>
<path d="M207.74 99.17H72.3398V105.81H207.74V99.17Z" fill="#CB1E48"/>
<path d="M87.3802 105.81H72.3402L46.9102 120.75H67.6002L87.3802 105.81Z" fill="#DF3D55"/>
<path d="M102.421 105.81H87.3806L67.6006 120.75H88.3006L102.421 105.81Z" fill="#F3EFF1"/>
<path d="M117.47 105.81H102.42L88.2998 120.75H108.99L117.47 105.81Z" fill="#DF3D55"/>
<path d="M207.73 105.81H192.69L212.47 120.75H233.16L207.73 105.81Z" fill="#DF3D55"/>
<path d="M132.51 105.81H117.47L108.99 120.75H129.69L132.51 105.81Z" fill="#F3EFF1"/>
<path d="M147.56 105.81H132.51L129.69 120.75H150.38L147.56 105.81Z" fill="#DF3D55"/>
<path d="M162.601 105.81H147.561L150.381 120.75H171.081L162.601 105.81Z" fill="#F3EFF1"/>
<path d="M177.651 105.81H162.601L171.081 120.75H191.771L177.651 105.81Z" fill="#DF3D55"/>
<path d="M192.69 105.81H177.65L191.77 120.75H212.47L192.69 105.81Z" fill="#F3EFF1"/>
<path d="M141.71 0C159.26 0 173.49 14.23 173.49 31.78C173.49 61.12 141.71 86.07 141.71 86.07C141.71 86.07 109.93 61.12 109.93 31.78C109.93 14.23 124.16 0 141.71 0Z" fill="#547BDF"/>
<path d="M141.71 0C143.19 0 144.64 0.11 146.06 0.3C130.43 0.84 117.21 12.85 115.59 28.84C112.62 58.03 141.71 86.07 141.71 86.07C141.71 86.07 109.93 61.12 109.93 31.78C109.93 14.23 124.16 0 141.71 0Z" fill="#6BA1FF"/>
<path d="M142.739 47.5C150.885 47.5 157.489 40.8962 157.489 32.75C157.489 24.6038 150.885 18 142.739 18C134.593 18 127.989 24.6038 127.989 32.75C127.989 40.8962 134.593 47.5 142.739 47.5Z" fill="#FFFEFF"/>
<path d="M290.03 264.24H0V268.5H290.03V264.24Z" fill="#80412F"/>
<path d="M66.4396 222.39H56.8096V264.47H66.4396V222.39Z" fill="#A5784C"/>
<path d="M78.8399 213.51C78.8399 223.02 71.1299 230.72 61.6299 230.72C52.1299 230.72 44.4199 223.01 44.4199 213.51C44.4199 204.01 52.1299 156.41 61.6299 156.41C71.1299 156.41 78.8399 204.01 78.8399 213.51Z" fill="#B8B94D"/>
<path d="M66.7399 224.17C57.2299 224.17 49.5299 216.46 49.5299 206.96C49.5299 199.7 54.0299 170.2 60.3899 156.68C51.4599 160.51 44.4199 204.42 44.4199 213.51C44.4199 222.6 52.1299 230.72 61.6299 230.72C68.6499 230.72 74.6799 226.51 77.3499 220.49C74.4199 222.79 70.7499 224.17 66.7399 224.17Z" fill="#C5C868"/>
</svg>
