<svg width="110" height="110" viewBox="0 0 110 110" fill="none" xmlns="http://www.w3.org/2000/svg">
<g clip-path="url(#clip0_248_879)">
<rect width="110" height="110" rx="55" fill="url(#paint0_linear_248_879)"/>
<path d="M45.2074 76.5872C48.3829 71.3073 55.6734 61.1866 73.0326 46.9656C99.2273 25.5065 74.5047 5.87854 47.9456 16.3323C45.1044 17.4507 37.2313 12.9734 29.9383 17.6903C25.2337 20.7331 27.0646 23.1176 25.2328 25.5023C23.4009 27.8869 16.3386 27.7465 14.7915 33.9384C13.8752 37.6068 16.4108 41.4494 16.0717 44.2105C15.7325 46.9716 13.0557 49.4604 12.928 53.1055C12.8727 54.645 13.1213 56.1804 13.6594 57.6238C14.1976 59.0673 15.0149 60.3906 16.0646 61.5182C17.1142 62.6457 18.3758 63.5554 19.7771 64.1954C21.1784 64.8353 22.6921 65.1929 24.2316 65.2478C24.2442 68.2913 25.4326 71.2123 27.5484 73.4001C29.6643 75.5879 32.5438 76.8733 35.5853 76.9877C37.5355 77.0589 39.4724 76.6394 41.2184 75.7675C42.9507 77.3642 44.4379 77.8663 45.2074 76.5872Z" fill="url(#paint1_linear_248_879)"/>
<path d="M51.7 15.0334C47.1841 17.9301 41.5972 27.4304 44.0495 40.1835C44.5845 42.9661 42.9128 43.7992 41.4828 40.3668C37.1683 30.0118 36.6681 20.6731 44.0495 16.206C45.3328 15.4335 46.0662 16.0594 46.9828 15.9835C48.7263 15.839 51.0737 14.6037 51.7 15.0334Z" fill="url(#paint2_linear_248_879)"/>
<path d="M45.8333 71.1333C45.8333 67.8333 45.7211 51.5563 45.7266 51.2813C36.6667 52.6167 36.85 35.3833 46.0167 39.6C48.0333 40.8833 53.7167 39.6 53.1667 28.9667C63.0667 39.6 74.5606 27.1979 75.5462 37.3039C76.8922 51.1034 75.5381 65.545 66.9621 65.5461C66.0239 65.5347 65.0885 65.4412 64.1667 65.2667V71.1333C64.1667 74.8 70.7667 76.6333 70.7667 76.6333C70.7667 76.6333 59.3663 87.3767 54.6333 87.3173C49.9004 87.2579 39.2333 76.6333 39.2333 76.6333C39.2333 76.6333 45.8333 74.8 45.8333 71.1333Z" fill="url(#paint3_linear_248_879)"/>
<g style="mix-blend-mode:multiply">
<path d="M64.1664 65.2648C59.6176 64.256 55.307 62.376 51.4728 59.7285C51.4728 59.7285 54.6365 67.4626 64.1547 68.9301L64.1664 65.2648Z" fill="#FFDBC9"/>
</g>
<path d="M88.7333 87.6334C91.3935 93.5448 92.7667 111.467 92.7667 111.467H17.2333C17.2333 111.467 18.6065 93.5448 21.2667 87.6334C23.5972 82.4549 38.9543 76.5091 43.4548 74.8C46.0533 77.707 49.7772 79.5667 55 79.5667C60.2228 79.5667 63.9467 77.707 66.5452 74.8C71.0457 76.5091 86.4028 82.4549 88.7333 87.6334Z" fill="url(#paint4_linear_248_879)"/>
</g>
<defs>
<linearGradient id="paint0_linear_248_879" x1="55" y1="110" x2="55" y2="0" gradientUnits="userSpaceOnUse">
<stop stop-color="#FFC9B3"/>
<stop offset="1" stop-color="#FFD2C2"/>
</linearGradient>
<linearGradient id="paint1_linear_248_879" x1="47.284" y1="77.4272" x2="49.5427" y2="12.9584" gradientUnits="userSpaceOnUse">
<stop stop-color="#E6864E"/>
<stop offset="1" stop-color="#E67240"/>
</linearGradient>
<linearGradient id="paint2_linear_248_879" x1="45.0228" y1="14.9431" x2="45.0228" y2="42.6212" gradientUnits="userSpaceOnUse">
<stop stop-color="#1D0024"/>
<stop offset="1" stop-color="#100014"/>
</linearGradient>
<linearGradient id="paint3_linear_248_879" x1="57.5153" y1="28.9667" x2="57.5153" y2="87.3175" gradientUnits="userSpaceOnUse">
<stop stop-color="#FFE0CC"/>
<stop offset="1" stop-color="#FFEADB"/>
</linearGradient>
<linearGradient id="paint4_linear_248_879" x1="55" y1="74.8" x2="55" y2="111.467" gradientUnits="userSpaceOnUse">
<stop stop-color="#130027"/>
<stop offset="1" stop-color="#130017"/>
</linearGradient>
<clipPath id="clip0_248_879">
<rect width="110" height="110" rx="55" fill="white"/>
</clipPath>
</defs>
</svg>
