<svg width="23" height="26" viewBox="0 0 23 26" fill="none" xmlns="http://www.w3.org/2000/svg">
<path d="M11.1408 25L11.1409 24H11.1408L11.1408 25ZM1 19.5577L0.000113606 19.5426L-0.00455558 19.8524L0.166671 20.1105L1 19.5577ZM21.2817 19.5577L22.115 20.1105L22.2862 19.8524L22.2816 19.5426L21.2817 19.5577ZM11.1408 2C13.3942 2 15.2113 3.81707 15.2113 6.07042H17.2113C17.2113 2.7125 14.4988 0 11.1408 0V2ZM15.2113 6.07042C15.2113 8.32377 13.3942 10.1408 11.1408 10.1408V12.1408C14.4988 12.1408 17.2113 9.42834 17.2113 6.07042H15.2113ZM11.1408 10.1408C8.88748 10.1408 7.07041 8.32377 7.07041 6.07042H5.07041C5.07041 9.42834 7.78291 12.1408 11.1408 12.1408V10.1408ZM7.07041 6.07042C7.07041 3.81707 8.88748 2 11.1408 2V0C7.78291 0 5.07041 2.7125 5.07041 6.07042H7.07041ZM11.1408 24C7.39729 24 3.90268 22.1245 1.83333 19.0049L0.166671 20.1105C2.60658 23.7887 6.72695 26 11.1409 26L11.1408 24ZM1.99989 19.5728C2.00715 19.0911 2.24824 18.5856 2.81435 18.0551C3.38468 17.5206 4.21578 17.0311 5.20769 16.6162C7.1956 15.7847 9.58723 15.3521 11.1408 15.3521V13.3521C9.31418 13.3521 6.66074 13.8406 4.43597 14.7711C3.32154 15.2372 2.25441 15.8389 1.44674 16.5957C0.63486 17.3566 0.0182047 18.3426 0.000113606 19.5426L1.99989 19.5728ZM11.1408 15.3521C12.6857 15.3521 15.0775 15.7846 17.068 16.6163C18.0612 17.0313 18.894 17.521 19.4657 18.0557C20.0333 18.5866 20.2746 19.092 20.2818 19.5728L22.2816 19.5426C22.2635 18.3417 21.6449 17.3556 20.8319 16.5951C20.0229 15.8384 18.9543 15.2369 17.8391 14.7709C15.6127 13.8407 12.9594 13.3521 11.1408 13.3521V15.3521ZM20.4484 19.0049C18.379 22.1245 14.8844 24 11.1409 24L11.1408 26C15.5547 26 19.6751 23.7887 22.115 20.1105L20.4484 19.0049Z" fill="#D5D5D5"/>
</svg>
