<?xml version="1.0" encoding="UTF-8"?>
<svg id="Layer_1" data-name="Layer 1" xmlns="http://www.w3.org/2000/svg" viewBox="0 0 2835.15 2835.15">
  <rect x=".25" y=".25" width="2834.65" height="2834.65" rx="735.94" ry="735.94" style="fill: #004966;"/>
  <rect x=".25" y=".25" width="2834.65" height="2834.65" rx="735.94" ry="735.94" style="fill: none; stroke: #000; stroke-linecap: round; stroke-linejoin: round; stroke-width: .5px;"/>
  <path d="M952.36,1244.59l182.44-422.94c17.77-41.21,79.52-31.93,84.8,12.36l51.72,434.49,199-453.62c9.73-22.17,35.83-32.35,58-22.63,22.17,9.73,32.35,35.83,22.63,58l-263.01,599.54c-16.26,43.08-79.49,35.38-84.91-10.21l-51.66-434.03-189.2,438.63c-16.01,37.14-80.93,39.88-84.76-13.59l-31.69-442.05c-2-22.14-7.61-62.53-18.9-80.94-15.03-24.5-50.43-29.81-79.31-3.77-33.85,31.37-69.65,102.37-87.76,228.79-25,174.54,8.09,344.41,87.17,488.04,146.7,266.43,438.89,419.68,740.72,391.09,186.84-23.78,348.57-101.21,480.15-227.6,46.23-54.1,118.88-4.22,57.97,58.44-133.7,149.74-389.46,254.47-585.76,256.83-232.54,2.8-462.78-82.99-627.08-250.53-116.89-131.11-201.92-272.24-232.34-447.35-27.42-157.86-21.57-433.7,103.09-554.34,66.42-64.27,157.99-59.87,204.82,3.76,24.4,33.16,41.33,96.73,45.46,136.5l18.43,257.13Z" style="fill: #fc0; fill-rule: evenodd;"/>
  <path d="M1882.76,1254.22l-181.15,423.49c-17.64,41.26-79.43,32.17-84.83-12.1l-53.04-434.33-197.61,454.22c-9.66,22.2-35.73,32.46-57.93,22.8-22.2-9.66-32.46-35.73-22.8-57.93l261.18-600.34c16.13-43.13,79.38-35.62,84.94,9.95l52.98,433.87,187.86-439.2c15.9-37.18,80.81-40.13,84.8,13.33l33.03,441.95c2.07,22.13,7.8,62.51,19.15,80.88,15.11,24.46,50.52,29.66,79.32,3.53,33.75-31.48,69.34-102.58,87.06-229.05,24.47-174.62-9.14-344.39-88.65-487.77-147.51-265.98-440.17-418.34-741.91-388.83-186.77,24.35-348.26,102.27-479.46,229.06-46.06,54.25-118.87,4.58-58.14-58.26,133.25-150.15,388.69-255.65,584.97-258.61,232.53-3.5,463.03,81.58,627.84,248.62,117.29,130.75,202.75,271.63,233.7,446.64,27.9,157.77,22.89,433.63-101.4,554.65-66.22,64.48-157.81,60.36-204.83-3.14-24.51-33.09-41.63-96.6-45.88-136.36l-19.21-257.07Z" style="fill: #fff; fill-rule: evenodd;"/>
  <path d="M2117.38,2416.73c.38,4.84,2.02,9.01,5.44,12.51,3.31,3.39,7.25,4.77,11.94,4.77h109.7c4.57,0,8.24-1.61,11.47-4.84,3.4-3.4,4.84-7.4,4.84-12.18s-1.52-8.51-4.84-11.83c-3.23-3.23-6.9-4.84-11.47-4.84h-93.04v-162.5c0-4.71-1.65-8.46-5.06-11.7-3.3-3.14-7.01-4.96-11.6-4.96-4.87,0-8.93,1.49-12.43,4.9-3.36,3.28-4.95,7.07-4.95,11.76v178.9Zm-172.04,0c.38,4.84,2.02,9.01,5.44,12.51,3.31,3.39,7.25,4.77,11.94,4.77h109.7c4.57,0,8.24-1.61,11.47-4.84,3.4-3.4,4.84-7.4,4.84-12.18s-1.52-8.51-4.84-11.83c-3.23-3.23-6.9-4.84-11.47-4.84h-93.04v-162.5c0-4.71-1.65-8.46-5.06-11.7-3.3-3.14-7.01-4.96-11.6-4.96-4.87,0-8.93,1.49-12.43,4.9-3.36,3.28-4.95,7.07-4.95,11.76v178.9Zm-69.81-116.57v37.48h-93.83v-39.26c0-6.23,1.28-12.24,3.84-17.91,2.45-5.45,5.83-10.34,10.2-14.42,4.27-3.99,9.19-7.09,14.56-9.38,5.66-2.41,11.62-3.6,17.78-3.6,6.48,0,12.8,1.2,18.74,3.81,5.55,2.44,10.58,5.75,14.94,9.97,4.43,4.29,7.83,9.36,10.19,15.06,2.41,5.82,3.58,11.95,3.58,18.25Zm-126.45,.07v118.18c0,4.24,1.6,7.49,4.74,10.32,3.34,3.01,7.07,4.56,11.57,4.56s8.14-1.76,11.36-4.9c3.17-3.09,4.95-6.6,4.95-11.05v-47.81h93.83v48.87c0,4.26,1.38,7.64,4.55,10.49,3.35,3,7.14,4.36,11.62,4.39,4.44-.19,8.07-1.75,11.18-4.95,3.04-3.12,4.55-6.65,4.55-11.01v-120.03c0-10.48-2.03-20.58-6.45-30.09-4.27-9.17-10-17.38-17.32-24.36-7.29-6.96-15.75-12.24-25.12-15.97-9.65-3.84-19.72-5.72-30.11-5.72s-21.38,1.88-31.34,6.18c-9.39,4.06-17.79,9.67-24.97,16.96-7.17,7.28-12.69,15.74-16.66,25.16-4.12,9.81-6.16,20.14-6.38,30.76Zm-37.2-13.79c-.44-8.74-2.34-17.19-5.95-25.17-3.51-7.77-8.2-14.81-14.12-20.94-5.8-6.01-12.55-10.7-20.18-14.09-7.78-3.46-15.99-5.08-24.5-5.08-7.94,0-15.66,1.41-22.96,4.57-7.41,3.21-14.32,7.37-20.65,12.39l-4.49,3.56-4.48-3.58c-6.38-5.1-13.35-9.36-20.9-12.51-7.24-3.02-14.85-4.43-22.69-4.43-8.76,0-17.17,1.74-25.13,5.4-7.81,3.59-14.82,8.4-20.84,14.53-5.95,6.06-10.53,13.06-13.81,20.89-3.25,7.76-4.96,15.87-4.96,24.29v131.08c0,4.79,1.44,8.79,4.84,12.18,3.32,3.32,7.14,4.84,11.83,4.84s8.79-1.44,12.18-4.84c3.4-3.4,4.84-7.4,4.84-12.18v-128.23c0-8.61,2.95-16.26,9.05-22.37,6.02-6.02,13.51-9.05,22.01-9.05s16.26,2.95,22.37,9.05c6.1,6.1,9.05,13.75,9.05,22.37v128.23c0,4.79,1.44,8.79,4.84,12.18,3.32,3.32,7.14,4.84,11.83,4.84s8.51-1.52,11.83-4.84c3.4-3.4,4.84-7.4,4.84-12.18v-128.23c0-8.69,3.06-16.35,9.3-22.43,6.1-5.95,13.61-8.99,22.12-8.99s15.99,3.04,22.01,9.05c6.1,6.1,9.05,13.75,9.05,22.37v128.23c0,4.79,1.44,8.79,4.84,12.18,3.4,3.4,7.4,4.84,12.18,4.84s8.4-1.67,11.71-4.9c3.45-3.36,4.95-7.32,4.95-12.12v-130.9Zm-360.38,114.24h-85.56v-57.14h61.7c4.64,0,8.4-1.67,11.71-4.9,3.36-3.28,4.95-7.07,4.95-11.76s-1.64-8.63-5.02-12.01c-3.28-3.28-7-5.01-11.65-5.01h-61.7v-55.01h85.56c4.67,0,8.54-1.46,11.89-4.72,3.39-3.31,4.77-7.25,4.77-11.94s-1.58-8.66-4.9-12.07c-3.28-3.36-7.07-4.95-11.76-4.95h-101.87c-4.76,0-8.56,1.57-11.76,5.11-3.1,3.43-4.91,7.26-4.91,11.91v179.16c0,4.82,1.56,8.73,5.06,12.06,3.3,3.14,7.01,4.96,11.6,4.96h101.87c4.68,0,8.51-1.52,11.83-4.84,3.4-3.4,4.84-7.4,4.84-12.18s-1.67-8.4-4.9-11.71c-3.28-3.36-7.07-4.95-11.76-4.95Zm-153.8-156.6c1.67-4.38,1.59-8.53-.27-12.84-1.88-4.37-4.91-7.31-9.26-9.17-4.34-1.64-8.44-1.5-12.69,.42-4.39,1.98-7.18,5.15-8.85,9.65l-.06,.15-57.94,137.61-58.74-137.6-.06-.16c-1.67-4.5-4.47-7.67-8.85-9.65-4.25-1.91-8.34-2.06-12.69-.42-4.41,1.89-7.51,4.89-9.49,9.28-1.92,4.26-2.06,8.36-.41,12.72l74.37,178.98c1.49,3.32,3.93,5.94,6.86,8.06,2.66,1.92,5.64,3.27,8.96,3.27s6.46-1.08,9.29-3.01c3.03-2.08,5.1-4.8,6.49-8.19l73.34-179.08Zm-234.01,56.08v37.48h-93.83v-39.26c0-6.23,1.28-12.24,3.84-17.91,2.45-5.45,5.83-10.34,10.2-14.42,4.27-3.99,9.19-7.09,14.56-9.38,5.66-2.41,11.62-3.6,17.78-3.6,6.48,0,12.8,1.2,18.74,3.81,5.55,2.44,10.58,5.75,14.94,9.97,4.43,4.29,7.83,9.36,10.19,15.06,2.41,5.82,3.58,11.95,3.58,18.25Zm-126.45,.07v118.18c0,4.24,1.6,7.49,4.74,10.32,3.34,3.01,7.07,4.56,11.57,4.56s8.14-1.76,11.36-4.9c3.17-3.09,4.95-6.6,4.95-11.05v-47.81h93.83v48.87c0,4.26,1.38,7.64,4.55,10.49,3.35,3,7.14,4.36,11.62,4.39,4.44-.19,8.07-1.75,11.18-4.95,3.04-3.12,4.55-6.65,4.55-11.01v-120.03c0-10.48-2.03-20.58-6.45-30.09-4.27-9.17-10-17.38-17.32-24.36-7.29-6.96-15.75-12.24-25.12-15.97-9.65-3.84-19.72-5.72-30.11-5.72s-21.38,1.88-31.34,6.18c-9.39,4.06-17.79,9.67-24.97,16.96-7.17,7.28-12.7,15.74-16.66,25.16-4.12,9.81-6.16,20.14-6.38,30.76Zm-37.2,68.94v-130.99c0-4.78-1.71-8.61-5.13-11.94-3.36-3.28-7.16-5.08-11.89-5.08s-8.63,1.64-12.01,5.01c-3.37,3.37-5.01,7.23-5.01,12.01v128.58c0,8.5-3.04,15.99-9.05,22.01-6.1,6.1-13.75,9.05-22.37,9.05s-15.72-3.13-21.65-9.05c-6.02-6.02-9.05-13.51-9.05-22.01v-128.94c0-4.76-1.58-8.66-4.9-12.07-3.28-3.36-7.07-4.95-11.76-4.95s-8.76,1.5-12.12,4.95c-3.32,3.41-4.9,7.31-4.9,12.07v128.94c0,8.66-3.27,16.17-9.54,22.14-6.09,5.79-13.47,8.93-21.88,8.93s-15.79-3.14-21.88-8.93c-6.27-5.96-9.54-13.48-9.54-22.14v-128.58c0-4.75-1.51-8.69-4.79-12.14-3.27-3.44-7.15-4.88-11.88-4.88s-8.33,1.53-11.52,4.88c-3.27,3.45-4.79,7.39-4.79,12.14v130.82c.65,8.94,2.61,17.65,6.18,25.89,3.34,7.73,7.86,14.76,13.71,20.84,5.67,5.89,12.29,10.44,19.78,13.71,7.82,3.42,16.12,4.91,24.63,4.92,8.09-.21,16.06-1.61,23.58-4.64,7.41-2.99,14.21-7.13,20.36-12.23l4.95-4.1,4.63,4.46c5.68,5.47,12.21,9.58,19.6,12.33,7.34,2.72,14.96,4.18,22.78,4.18,8.76,0,17.2-1.68,25.21-5.25,7.8-3.48,14.78-8.23,20.77-14.32,5.95-6.06,10.62-13.03,14.04-20.82,3.46-7.89,5.23-16.19,5.45-24.8Z" style="fill: #fff; fill-rule: evenodd;"/>
</svg>