<svg width="19" height="21" viewBox="0 0 19 21" fill="none" xmlns="http://www.w3.org/2000/svg">
<path d="M9.22859 21C10.4874 21 11.5715 20.2396 12.0471 19.1543H6.41004C6.88569 20.2396 7.96978 21 9.22859 21ZM15.586 10.1662V8.81836C15.586 5.95457 13.6824 3.5273 11.0743 2.73451V1.8457C11.0743 0.827982 10.2463 0 9.22859 0C8.21087 0 7.38289 0.827982 7.38289 1.8457V2.73451C4.7747 3.5273 2.87117 5.95453 2.87117 8.81836V10.1662C2.87117 12.6818 1.9123 15.0671 0.171232 16.8828C0.0877517 16.9698 0.0316902 17.0794 0.010017 17.1981C-0.0116561 17.3167 0.00201506 17.4391 0.049331 17.55C0.0966468 17.6609 0.175521 17.7555 0.276147 17.822C0.376774 17.8884 0.494715 17.9239 0.615309 17.9238H17.8419C17.9625 17.9238 18.0804 17.8884 18.181 17.8219C18.2816 17.7555 18.3605 17.6609 18.4078 17.55C18.4551 17.4391 18.4688 17.3167 18.4471 17.1981C18.4255 17.0794 18.3694 16.9698 18.2859 16.8828C16.5449 15.0671 15.586 12.6817 15.586 10.1662ZM9.84382 2.4908C9.64133 2.47127 9.43613 2.46094 9.22859 2.46094C9.02105 2.46094 8.81585 2.47127 8.61335 2.4908V1.8457C8.61335 1.50646 8.88935 1.23047 9.22859 1.23047C9.56783 1.23047 9.84382 1.50646 9.84382 1.8457V2.4908ZM17.2266 8.81836C17.2266 9.15813 17.5021 9.43359 17.8419 9.43359C18.1816 9.43359 18.4571 9.15813 18.4571 8.81836C18.4571 6.35332 17.4972 4.03581 15.7541 2.29277C15.5139 2.05255 15.1243 2.0525 14.8841 2.29277C14.6438 2.53304 14.6438 2.92257 14.8841 3.16284C16.3947 4.67348 17.2266 6.68198 17.2266 8.81836ZM0.615309 9.43359C0.955082 9.43359 1.23054 9.15813 1.23054 8.81836C1.23054 6.68202 2.0625 4.67353 3.57311 3.16288C3.81338 2.92261 3.81338 2.53308 3.57311 2.29281C3.33288 2.05255 2.94331 2.05255 2.70304 2.29281C0.960004 4.03586 7.41554e-05 6.35332 7.41554e-05 8.81836C7.41554e-05 9.15813 0.275535 9.43359 0.615309 9.43359Z" fill="#F9F9F9"/>
</svg>
