<svg width="15" height="13" viewBox="0 0 15 13" fill="none" xmlns="http://www.w3.org/2000/svg">
<path d="M0.199695 6.97552L6.1088 12.803C6.37503 13.0656 6.80675 13.0656 7.07303 12.803C7.3393 12.5405 7.3393 12.1147 7.07303 11.8521L2.32779 7.17231L14.3183 7.17168C14.6948 7.17168 15 6.87062 15 6.49927C15 6.12792 14.6947 5.82686 14.3181 5.8269L2.32793 5.82753L7.07298 1.1479C7.33926 0.885297 7.33926 0.459572 7.07298 0.196972C6.93989 0.0656722 6.76539 2.33782e-07 6.59089 2.18527e-07C6.41639 2.03271e-07 6.24189 0.0656721 6.1088 0.196972L0.199695 6.02459C0.0718323 6.15069 -3.69841e-07 6.32172 -3.85431e-07 6.50005C-4.01021e-07 6.67839 0.0718322 6.84942 0.199695 6.97552Z" fill="#3F5BEF"/>
</svg>
