<svg width="28" height="28" viewBox="0 0 28 28" fill="none" xmlns="http://www.w3.org/2000/svg">
<path d="M23.3305 21.8527L19.2255 17.7478C18.7318 17.2541 17.9315 17.2541 17.4378 17.7478L15.737 19.4486C12.4022 17.5677 9.61551 14.781 7.73458 11.4462L9.55085 9.62996C10.0445 9.13631 10.0445 8.3359 9.55085 7.84226L5.44585 3.73742C4.95215 3.24378 4.1518 3.24378 3.65815 3.73742L1.0368 6.35877L1.04694 6.36891C0.118901 7.12701 -0.261501 8.43869 0.189725 9.73152C2.9859 17.7443 9.43898 24.1973 17.4517 26.9935C18.6866 27.4244 19.9349 27.0976 20.7065 26.2591L20.7091 26.2618L23.3305 23.6404C23.8242 23.1468 23.8242 22.3464 23.3305 21.8527ZM13.8541 7.21827C13.3619 7.21827 12.9628 7.61731 12.9628 8.10952C12.9628 8.60173 13.3618 9.00077 13.8541 9.00077C16.2408 9.00077 18.1825 10.9425 18.1825 13.3292C18.1825 13.8214 18.5816 14.2204 19.0738 14.2204C19.566 14.2204 19.965 13.8214 19.965 13.3292C19.965 9.95966 17.2237 7.21827 13.8541 7.21827Z" fill="#46B3DF"/>
<path d="M13.8541 3.58887C13.3619 3.58887 12.9628 3.9879 12.9628 4.48012C12.9628 4.97233 13.3618 5.37137 13.8541 5.37137C18.242 5.37137 21.8118 8.9412 21.8118 13.329C21.8118 13.8212 22.2109 14.2203 22.7031 14.2203C23.1953 14.2203 23.5943 13.8212 23.5943 13.329C23.5943 7.95826 19.2249 3.58887 13.8541 3.58887Z" fill="#46B3DF"/>
<path d="M23.2789 3.90388C20.7614 1.38644 17.4142 0 13.8541 0C13.3619 0 12.9628 0.399037 12.9628 0.89125C12.9628 1.38346 13.3619 1.7825 13.8541 1.7825C20.2206 1.7825 25.4003 6.96207 25.4003 13.3287C25.4003 13.8209 25.7993 14.22 26.2915 14.22C26.7838 14.22 27.1828 13.8209 27.1828 13.3287C27.1828 9.76844 25.7964 6.42133 23.2789 3.90388Z" fill="#46B3DF"/>
</svg>
