<svg width="23" height="13" viewBox="0 0 23 13" fill="none" xmlns="http://www.w3.org/2000/svg">
<path d="M0 9.6973V3.0812C0 2.96422 0.0461502 2.85204 0.1283 2.76932C0.210449 2.6866 0.321869 2.64012 0.438053 2.64011C0.747793 2.66682 3.26716 2.56622 3.49946 2.71968L7.29104 0.577036C8.11541 0.105715 9.06907 -0.0845528 10.0097 0.0346346C10.9503 0.153822 11.8274 0.576072 12.51 1.23836L14.5283 3.20697L17.7728 1.18595L19.2646 0.256606C19.314 0.226207 19.3689 0.205914 19.4261 0.196888C19.4833 0.187862 19.5417 0.190281 19.5979 0.204007C19.6542 0.217732 19.7072 0.242494 19.754 0.276876C19.8007 0.311257 19.8403 0.354583 19.8704 0.404374C20.3878 1.26882 21.4991 3.12718 22.0234 4.0031L22.9371 5.53012C22.9963 5.62893 23.0146 5.74715 22.9882 5.85944C22.9619 5.97172 22.8928 6.06913 22.796 6.13079L13.7647 11.874C11.5245 13.255 12.1775 13.3805 10.7254 11.1942C10.7254 11.1942 10.7249 11.1938 10.7247 11.1936C10.7246 11.1933 9.89824 9.90406 9.89819 9.90372L9.05533 10.4182C8.57157 10.716 8.01453 10.871 7.44757 10.8658C6.88061 10.8606 6.32648 10.6952 5.84823 10.3886L4.25329 9.37431C4.14806 9.60206 3.98055 9.7949 3.77038 9.93025C3.56021 10.0656 3.31608 10.1379 3.0666 10.1386H0.437998C0.380461 10.1385 0.323488 10.1271 0.270336 10.1049C0.217184 10.0827 0.168892 10.0502 0.12822 10.0093C0.0875473 9.96829 0.0552902 9.91965 0.033289 9.86612C0.0112896 9.81259 -2.09808e-05 9.75522 0 9.6973ZM19.3487 1.24171L18.6693 1.66489C18.8186 1.79343 18.9954 1.88532 19.186 1.93332C19.3765 1.98132 19.5756 1.98412 19.7674 1.94151L19.3487 1.24171ZM21.5479 4.91767C21.4207 5.07347 21.3306 5.25649 21.2846 5.45274C21.2385 5.64898 21.2376 5.85324 21.2821 6.04986L21.9651 5.61542L21.5479 4.91767ZM12.1804 11.8379L12.8639 11.4033C12.7097 11.273 12.527 11.1815 12.3307 11.1363C12.1345 11.0912 11.9304 11.0936 11.7353 11.1435L12.1804 11.8379ZM11.2459 10.3799C12.0553 10.036 13.0479 10.2673 13.6327 10.9141L20.5155 6.53738C20.3613 6.1252 20.3322 5.67617 20.432 5.24731C20.5317 4.81846 20.7558 4.42913 21.0758 4.12876L20.2334 2.72053C19.4276 3.03221 18.4643 2.78634 17.8963 2.14651L13.1786 5.08539C14.2164 5.65822 14.2213 7.31271 13.1864 7.89634L10.6477 9.4462L11.2459 10.3799ZM6.31637 9.64285C6.65699 9.8613 7.05167 9.97912 7.45552 9.9829C7.85936 9.98668 8.25615 9.87626 8.60074 9.66422L12.7319 7.14221C12.8185 7.08945 12.8935 7.01949 12.9525 6.9366C13.0114 6.8537 13.0529 6.7596 13.0746 6.66003C13.2356 6.03884 12.5081 5.48317 11.9682 5.8427L9.22395 7.54903C9.03574 7.68134 8.76213 7.84127 8.54056 7.69242C8.25645 7.54255 8.2595 7.10845 8.53148 6.94272L13.7599 3.68568L11.9004 1.87188C11.354 1.34168 10.6518 1.00376 9.89886 0.908654C9.1459 0.813546 8.3826 0.966356 7.72305 1.34424L4.21242 3.32774C4.32125 3.52128 4.37915 3.73961 4.38064 3.96201V8.41211L6.31637 9.64285ZM0.876106 9.25638H3.06637C3.18251 9.25623 3.29385 9.20971 3.37597 9.12704C3.4581 9.04436 3.50432 8.93227 3.50448 8.81535V3.96224C3.50438 3.84557 3.4583 3.73371 3.37636 3.65122C3.29442 3.56873 3.18332 3.52233 3.06744 3.52223H0.876106V9.25638Z" fill="#3E4958"/>
<path d="M15.756 4.59961C18.055 4.67666 18.0544 8.20267 15.756 8.27961C13.457 8.20232 13.4576 4.67655 15.756 4.59961ZM15.756 7.35958C16.8992 7.33812 16.8992 5.54092 15.756 5.51958C14.6129 5.5411 14.6131 7.3383 15.756 7.35958ZM1.96526 8.14601C1.77753 7.89665 1.82035 7.6547 1.96526 7.49282C2.19457 7.29971 2.4236 7.33131 2.58275 7.49282C2.6632 7.58025 2.70821 7.69742 2.70821 7.81942C2.70821 7.94141 2.6632 8.05859 2.58275 8.14601C2.42786 8.30118 2.19598 8.34048 1.96526 8.14601Z" fill="#3E4958"/>
</svg>
