<svg width="34" height="30" viewBox="0 0 34 30" fill="none" xmlns="http://www.w3.org/2000/svg">
<path d="M19.633 2.00079C17.5755 0.709852 15.1374 0 12.6188 0C5.76284 0 0 5.19621 0 11.8495C0 14.1822 0.712347 16.4184 2.06547 18.3497L0.175239 24.3868C-0.024461 25.0245 0.445087 25.6739 1.10029 25.6739C1.25313 25.674 1.40381 25.6372 1.54001 25.5667L7.28848 22.5933C7.52124 22.6952 7.75685 22.7902 7.995 22.8783C6.66408 20.765 5.95348 18.3391 5.95348 15.7994C5.95348 8.23561 12.2097 2.42072 19.633 2.00079Z" fill="#46B3DF"/>
<path d="M31.1239 22.1251C32.5004 20.1939 33.2251 17.9576 33.2251 15.6249C33.2251 8.96918 27.3601 3.77539 20.3881 3.77539C13.4136 3.77539 7.55116 8.97161 7.55116 15.6249C7.55116 22.2807 13.4161 27.4745 20.3881 27.4745C22.2588 27.4745 24.1228 27.0932 25.8103 26.3686L31.6585 29.3422C31.8321 29.4304 32.0279 29.4653 32.2213 29.4426C32.4146 29.4198 32.597 29.3404 32.7454 29.2143C32.8938 29.0882 33.0016 28.9211 33.0552 28.7339C33.1089 28.5467 33.106 28.3478 33.0469 28.1623L31.1239 22.1251ZM16.3725 16.6124C15.8271 16.6124 15.385 16.1703 15.385 15.6249C15.385 15.0796 15.8271 14.6375 16.3725 14.6375C16.9178 14.6375 17.3599 15.0796 17.3599 15.6249C17.3599 16.1703 16.9178 16.6124 16.3725 16.6124ZM20.3223 16.6124C19.777 16.6124 19.3348 16.1703 19.3348 15.6249C19.3348 15.0796 19.777 14.6375 20.3223 14.6375C20.8676 14.6375 21.3098 15.0796 21.3098 15.6249C21.3098 16.1703 20.8676 16.6124 20.3223 16.6124ZM24.2721 16.6124C23.7268 16.6124 23.2847 16.1703 23.2847 15.6249C23.2847 15.0796 23.7268 14.6375 24.2721 14.6375C24.8175 14.6375 25.2596 15.0796 25.2596 15.6249C25.2596 16.1703 24.8175 16.6124 24.2721 16.6124Z" fill="#46B3DF"/>
</svg>
