<svg width="15" height="15" viewBox="0 0 15 15" fill="none" xmlns="http://www.w3.org/2000/svg">
<path d="M7.5 0C3.36448 0 0 3.36448 0 7.5C0 11.6355 3.36448 15 7.5 15C11.6355 15 15 11.6355 15 7.5C15 3.36448 11.6355 0 7.5 0ZM7.5 13.7324C4.06345 13.7324 1.26762 10.9366 1.26762 7.5C1.26762 4.06345 4.06345 1.26762 7.5 1.26762C10.9366 1.26762 13.7324 4.06345 13.7324 7.5C13.7324 10.9366 10.9366 13.7324 7.5 13.7324Z" fill="black"/>
<path d="M10.2898 7.89627H7.33207V3.47561C7.33207 3.12557 7.0483 2.8418 6.69826 2.8418C6.34822 2.8418 6.06445 3.12557 6.06445 3.47561V8.53005C6.06445 8.88009 6.34822 9.16386 6.69826 9.16386C6.70541 9.16386 6.71232 9.16301 6.71938 9.1628C6.72645 9.16307 6.73336 9.16386 6.74051 9.16386H10.2898C10.6398 9.16386 10.9236 8.88009 10.9236 8.53005C10.9236 8.18001 10.6398 7.89627 10.2898 7.89627Z" fill="black"/>
</svg>
