<svg width="35" height="40" viewBox="0 0 35 40" fill="none" xmlns="http://www.w3.org/2000/svg">
<path d="M28.9412 1.12383C28.5403 0.430625 27.7939 0 26.9937 0H18.6296V9.89352H34.0134L28.9412 1.12383ZM16.285 0H7.84203C7.04016 0 6.29383 0.431406 5.89289 1.12617L0.839375 9.89352H16.2849L16.285 0ZM0 12.2381V37.2435C0 38.7636 1.23719 40 2.75727 40H32.0776C33.5977 40 34.8348 38.7636 34.8348 37.2435V12.2381H0ZM22.7389 22.7537L16.6757 28.817C16.4467 29.0459 16.1466 29.1609 15.8465 29.1609C15.5464 29.1609 15.2462 29.0459 15.018 28.817L12.1756 25.9752C11.7184 25.518 11.7184 24.7755 12.1756 24.3176C12.6336 23.8596 13.3761 23.8596 13.8341 24.3176L15.8466 26.3309L21.0813 21.0961C21.5393 20.6381 22.2818 20.6381 22.739 21.0961C23.197 21.5541 23.197 22.2958 22.7389 22.7537Z" fill="#46B3DF"/>
</svg>
