<svg width="7" height="8" viewBox="0 0 7 8" fill="none" xmlns="http://www.w3.org/2000/svg">
<path d="M0.753125 7.26355C0.753125 7.66963 1.0835 8 1.48958 8H5.00414C5.41022 8 5.74061 7.66963 5.74061 7.26355V2.94586H0.753125V7.26355ZM5.75727 1.0042H4.48541V0.736453C4.48541 0.330375 4.15502 0 3.74894 0H2.74478C2.3387 0 2.00833 0.330375 2.00833 0.736453V1.0042H0.736453C0.330375 1.0042 0 1.33458 0 1.74066C0 2.14673 0.330375 2.47712 0.736453 2.47712H5.75727C6.16334 2.47712 6.49372 2.14673 6.49372 1.74066C6.49372 1.33458 6.16336 1.0042 5.75727 1.0042ZM2.47708 0.736453C2.47708 0.588844 2.59717 0.46875 2.74478 0.46875H3.74894C3.89655 0.46875 4.01666 0.588844 4.01666 0.736453V1.0042H2.47708V0.736453Z" fill="#F9F9F9"/>
</svg>
