<svg width="19" height="15" viewBox="0 0 19 15" fill="none" xmlns="http://www.w3.org/2000/svg">
<path d="M15.665 9.6443L14.8855 5.35713H15.6072C16.4934 5.35713 17.2143 4.63617 17.2143 3.74999C17.2143 2.86382 16.4934 2.14285 15.6072 2.14285H14.3011L13.9914 0.439892C13.969 0.316456 13.9039 0.204812 13.8076 0.124423C13.7113 0.0440341 13.5898 8.35087e-07 13.4644 0H10.2501C9.95422 0 9.71436 0.239857 9.71436 0.535713C9.71436 0.831569 9.95422 1.07143 10.2501 1.07143H13.0172L14.2231 7.70373C12.3723 8.25384 11.0278 9.86337 10.8152 11.7857H7.46858C7.34962 10.6995 6.87008 9.69426 6.08794 8.91216C4.54795 7.37216 2.15481 7.05684 0.268101 8.1453C0.0118159 8.29316 -0.0760767 8.62076 0.07178 8.87705C0.219637 9.1333 0.547207 9.22126 0.803528 9.07337C2.27102 8.2267 4.13248 8.47194 5.3303 9.66976C5.90973 10.2492 6.27562 10.9864 6.38883 11.7857H5.3033C5.05445 10.5646 3.97216 9.64287 2.67863 9.64287C1.20167 9.64287 6.59404e-05 10.8445 6.59404e-05 12.3214C6.59404e-05 13.7984 1.20167 15 2.67863 15C3.97216 15 5.05441 14.0783 5.3033 12.8571H11.3215C11.6173 12.8571 11.8572 12.6173 11.8572 12.3214C11.8572 10.6868 12.9061 9.26734 14.4162 8.76587L14.6107 9.83583C13.626 10.2321 12.9286 11.1965 12.9286 12.3214C12.9286 13.7984 14.1302 15 15.6072 15C17.0841 15 18.2857 13.7984 18.2857 12.3214C18.2858 10.8638 17.1153 9.67526 15.665 9.6443ZM2.6787 13.9285C1.79253 13.9285 1.07156 13.2076 1.07156 12.3214C1.07156 11.4352 1.79253 10.7143 2.6787 10.7143C3.37709 10.7143 3.97256 11.1622 4.1937 11.7857H2.6787C2.38285 11.7857 2.14299 12.0255 2.14299 12.3214C2.14299 12.6173 2.38285 12.8571 2.6787 12.8571H4.1937C3.97252 13.4806 3.37706 13.9285 2.6787 13.9285ZM15.6072 3.21428C15.9026 3.21428 16.143 3.4546 16.143 3.74999C16.143 4.04538 15.9026 4.2857 15.6072 4.2857H14.6907L14.4959 3.21428H15.6072ZM15.6072 13.9285C14.7211 13.9285 14.0001 13.2076 14.0001 12.3214C14.0001 11.7255 14.3263 11.2048 14.8092 10.9273L15.0801 12.4172C15.1331 12.7083 15.4118 12.9013 15.703 12.8485C15.9941 12.7955 16.1872 12.5166 16.1343 12.2256L15.8632 10.7349C16.6281 10.8579 17.2143 11.5224 17.2143 12.3214C17.2144 13.2076 16.4934 13.9285 15.6072 13.9285Z" fill="black"/>
</svg>
