<svg width="16" height="19" viewBox="0 0 16 19" fill="none" xmlns="http://www.w3.org/2000/svg">
<path d="M1 16.3V2.7L2.725 1L4.44999 2.7L6.17499 1L7.89999 2.7L9.62498 1L11.35 2.7L13.075 1L14.8 2.7V16.2909L13.075 18L11.35 16.3L9.62498 18L7.89999 16.3L6.17499 18L4.44999 16.3L2.725 18L1 16.3Z" stroke="black" stroke-miterlimit="10" stroke-linecap="round" stroke-linejoin="round"/>
<path d="M5.98326 11.6268C5.98326 11.6268 6.6307 12.3326 7.90001 12.3326M7.90001 12.3326C9.16931 12.3326 10.2 11.4163 10.2 10.6349C10.2 9.50156 5.60004 9.50156 5.60004 8.36821C5.60004 7.51821 6.6307 6.66821 7.90004 6.66821C9.16938 6.66821 9.81679 7.37653 9.81679 7.37653M7.90001 12.3326V12.9016M7.90001 6.10156V6.66598" stroke="black" stroke-miterlimit="10" stroke-linecap="round" stroke-linejoin="round"/>
</svg>
