<svg width="8" height="8" viewBox="0 0 8 8" fill="none" xmlns="http://www.w3.org/2000/svg">
<mask id="mask0_175_1553" style="mask-type:luminance" maskUnits="userSpaceOnUse" x="0" y="0" width="8" height="8">
<path d="M0 0H8V8H0V0Z" fill="white"/>
</mask>
<g mask="url(#mask0_175_1553)">
<path d="M0.010973 7.69879C-0.000511232 7.73898 -0.00103858 7.78151 0.00944559 7.82197C0.0199298 7.86243 0.0410439 7.89936 0.0706 7.92891C0.100156 7.95847 0.137078 7.97958 0.177541 7.99007C0.218003 8.00055 0.260533 8.00002 0.300723 7.98854L2.48832 7.36351L0.636004 5.5112L0.010973 7.69879Z" fill="#F9F9F9"/>
<path d="M0.010973 7.69879C-0.000511232 7.73898 -0.00103858 7.78151 0.00944559 7.82197C0.0199298 7.86243 0.0410439 7.89936 0.0706 7.92891C0.100156 7.95847 0.137078 7.97958 0.177541 7.99007C0.218003 8.00055 0.260533 8.00002 0.300723 7.98854L2.48832 7.36351L0.636004 5.5112L0.010973 7.69879Z" fill="#F9F9F9"/>
<path d="M7.79252 1.20229L6.79822 0.207973C6.66567 0.0754256 6.48916 0.00239468 6.30119 0.00231647H6.30086C6.11294 0.00231647 5.93652 0.075254 5.80408 0.207691L5.30664 0.705113L7.29537 2.69385L7.79281 2.19643C7.92533 2.06391 7.99825 1.88736 7.99817 1.69932C7.99809 1.51133 7.92505 1.33482 7.79252 1.20229Z" fill="#F9F9F9"/>
<path d="M7.79252 1.20229L6.79822 0.207973C6.66567 0.0754256 6.48916 0.00239468 6.30119 0.00231647H6.30086C6.11294 0.00231647 5.93652 0.075254 5.80408 0.207691L5.30664 0.705113L7.29537 2.69385L7.79281 2.19643C7.92533 2.06391 7.99825 1.88736 7.99817 1.69932C7.99809 1.51133 7.92505 1.33482 7.79252 1.20229Z" fill="#F9F9F9"/>
<path d="M0.900391 5.11161L2.88912 7.10034L6.96412 3.02534L4.97539 1.03661L0.900391 5.11161Z" fill="#F9F9F9"/>
<path d="M0.900391 5.11161L2.88912 7.10034L6.96412 3.02534L4.97539 1.03661L0.900391 5.11161Z" fill="#F9F9F9"/>
</g>
</svg>
