<svg xmlns="http://www.w3.org/2000/svg" version="1.1" xmlns:xlink="http://www.w3.org/1999/xlink" width="512" height="512" x="0" y="0" viewBox="0 0 512 512" style="enable-background:new 0 0 512 512" xml:space="preserve" class=""><g><path d="M509.188 247.269C504.617 240.883 394.661 91 255.999 91S7.382 240.883 2.812 247.27a14.957 14.957 0 0 0 0 17.461C7.382 271.117 117.338 421 255.999 421s248.617-149.883 253.188-156.27a14.955 14.955 0 0 0 .001-17.461zM255.999 361c-57.891 0-105-47.109-105-105s47.109-105 105-105 105 47.109 105 105-47.108 105-105 105z" fill="#000000" opacity="1" data-original="#000000" class=""></path><path d="M255.999 211c-24.814 0-45 20.186-45 45s20.186 45 45 45 45-20.186 45-45c.001-24.814-20.185-45-45-45z" fill="#000000" opacity="1" data-original="#000000" class=""></path></g></svg>