<svg width="23" height="16" viewBox="0 0 23 16" fill="none" xmlns="http://www.w3.org/2000/svg">
<path d="M20.8165 0H1.67491C0.749859 0 0 0.749903 0 1.67491V13.3513C0 14.2763 0.749859 15.0262 1.67491 15.0262H20.8165C21.7415 15.0262 22.4914 14.2763 22.4914 13.3513V1.67491C22.4914 0.749903 21.7415 0 20.8165 0ZM21.0558 13.3513C21.0558 13.4147 21.0305 13.4756 20.9857 13.5205C20.9408 13.5653 20.8799 13.5905 20.8165 13.5905H1.67491C1.61144 13.5905 1.55058 13.5653 1.50571 13.5205C1.46084 13.4756 1.43563 13.4147 1.43563 13.3513V1.67491C1.43563 1.61144 1.46084 1.55058 1.50571 1.50571C1.55058 1.46084 1.61144 1.43563 1.67491 1.43563H20.8165C20.88 1.43563 20.9408 1.46084 20.9857 1.50571C21.0306 1.55058 21.0558 1.61144 21.0558 1.67491V13.3513H21.0558Z" fill="#46B3DF"/>
<path d="M18.9537 4.01984H10.7294C10.3609 4.01984 10.0377 4.28978 9.99726 4.65601C9.94951 5.08901 10.2873 5.45547 10.7106 5.45547H18.9349C19.3033 5.45547 19.6266 5.18553 19.667 4.81929C19.7148 4.38629 19.377 4.01984 18.9537 4.01984ZM18.9537 6.84321H10.7294C10.3609 6.84321 10.0377 7.11315 9.99726 7.47938C9.94951 7.91239 10.2873 8.27884 10.7106 8.27884H18.9349C19.3033 8.27884 19.6266 8.0089 19.667 7.64267C19.7148 7.20966 19.377 6.84321 18.9537 6.84321ZM14.8322 9.57091H10.7294C10.3609 9.57091 10.0377 9.84085 9.99726 10.2071C9.94951 10.6401 10.2873 11.0065 10.7106 11.0065H14.8133C15.1817 11.0065 15.505 10.7366 15.5454 10.3704C15.5932 9.93736 15.2555 9.57091 14.8322 9.57091ZM7.13914 7.53175C7.63395 7.06351 7.94365 6.40068 7.94365 5.66637C7.94365 4.21752 6.73983 3.0452 5.28224 3.10182C3.96641 3.15291 2.8935 4.21787 2.82664 5.533C2.78662 6.3202 3.10317 7.03527 3.62776 7.5317C3.13295 8.00002 2.82326 8.66277 2.82326 9.39708V11.2458C2.82326 11.6422 3.14464 11.9636 3.54105 11.9636H7.22581C7.62222 11.9636 7.9436 11.6422 7.9436 11.2458V9.39708C7.94365 8.66277 7.63395 7.99998 7.13914 7.53175ZM6.50802 10.528H4.25888V9.42181C4.25888 8.75814 4.80241 8.22156 5.46437 8.26909C6.04686 8.31091 6.50802 8.80088 6.50802 9.39704V10.528ZM5.38613 6.77872C4.76257 6.77872 4.25524 6.27139 4.25524 5.64783C4.25524 5.02426 4.76252 4.51693 5.38613 4.51693C6.0097 4.51693 6.51703 5.02426 6.51703 5.64783C6.51703 6.27139 6.00974 6.77872 5.38613 6.77872Z" fill="#46B3DF"/>
</svg>
