<svg width="17" height="17" viewBox="0 0 17 17" fill="none" xmlns="http://www.w3.org/2000/svg">
<path d="M8.5 0C3.80209 0 0 3.80166 0 8.5C0 13.1979 3.80166 17 8.5 17C13.1979 17 17 13.1983 17 8.5C17 3.80209 13.1983 0 8.5 0ZM8.5 15.8667C4.43803 15.8667 1.13332 12.562 1.13332 8.5C1.13332 4.438 4.43803 1.13332 8.5 1.13332C12.562 1.13332 15.8667 4.43803 15.8667 8.5C15.8667 12.562 12.562 15.8667 8.5 15.8667Z" fill="#4E4E4E"/>
<path d="M8.49989 6.96511C8.18695 6.96511 7.93321 7.21881 7.93321 7.53179V12.312C7.93321 12.6249 8.18692 12.8787 8.49989 12.8787C8.81286 12.8787 9.06657 12.625 9.06657 12.312V7.53175C9.06654 7.21878 8.81283 6.96511 8.49989 6.96511ZM8.49999 4.12109C7.87507 4.12109 7.36667 4.6295 7.36667 5.25442C7.36667 5.87933 7.87507 6.38774 8.49999 6.38774C9.12491 6.38774 9.63331 5.87933 9.63331 5.25442C9.63331 4.6295 9.12491 4.12109 8.49999 4.12109Z" fill="#4E4E4E"/>
</svg>
