<svg width="23" height="31" viewBox="0 0 23 31" fill="none" xmlns="http://www.w3.org/2000/svg">
<path d="M22.0522 2.72055C21.4401 2.10709 20.626 1.76923 19.7598 1.76923H18.2968V1.47436C18.2968 0.661397 17.6354 0 16.8224 0H6.20705C5.39409 0 4.73269 0.661397 4.73269 1.47436V1.76923H3.26441C1.47979 1.76923 0.0262455 3.22271 0.0242404 5.00922L1.97869e-06 26.9477C-0.000941611 27.8147 0.335625 28.6301 0.94772 29.2435C1.55987 29.857 2.37401 30.1949 3.24017 30.1949H19.7355C21.5202 30.1949 22.9738 28.7414 22.9757 26.9549L23 5.01642C23.001 4.14932 22.6644 3.33394 22.0522 2.72055ZM6.50192 1.76923H16.5276V3.53846H6.50192V1.76923ZM21.2084 26.9529C21.2074 27.765 20.5467 28.4256 19.7355 28.4256H3.24017C2.84646 28.4256 2.47639 28.2721 2.19815 27.9932C1.91991 27.7143 1.76693 27.3438 1.76735 26.9497L1.79158 5.01123C1.79247 4.19909 2.45316 3.53846 3.26441 3.53846H4.73269V3.83333C4.73269 4.64629 5.39409 5.30769 6.20705 5.30769H16.8224C17.6354 5.30769 18.2968 4.64629 18.2968 3.83333V3.53846H19.7598C20.1535 3.53846 20.5236 3.69203 20.8018 3.97086C21.0801 4.24969 21.2331 4.62035 21.2327 5.01441L21.2084 26.9529Z" fill="#D5D5D5"/>
<path d="M11.8008 11.7949H18.0858C18.5743 11.7949 18.9704 11.3988 18.9704 10.9103C18.9704 10.4217 18.5743 10.0257 18.0858 10.0257H11.8008C11.3123 10.0257 10.9162 10.4217 10.9162 10.9103C10.9162 11.3988 11.3123 11.7949 11.8008 11.7949ZM11.8008 17.6923H18.0858C18.5743 17.6923 18.9704 17.2963 18.9704 16.8077C18.9704 16.3192 18.5743 15.9231 18.0858 15.9231H11.8008C11.3123 15.9231 10.9162 16.3192 10.9162 16.8077C10.9162 17.2963 11.3123 17.6923 11.8008 17.6923ZM18.1111 21.8205H11.8008C11.3123 21.8205 10.9162 22.2166 10.9162 22.7052C10.9162 23.1937 11.3123 23.5898 11.8008 23.5898H18.1111C18.5996 23.5898 18.9957 23.1937 18.9957 22.7052C18.9957 22.2166 18.5997 21.8205 18.1111 21.8205ZM8.03571 8.50159L5.99567 10.5416L5.51468 10.0606C5.1692 9.71511 4.60912 9.71511 4.26365 10.0606C3.91818 10.406 3.91818 10.9661 4.26365 11.3116L5.37019 12.4182C5.53609 12.5841 5.76109 12.6773 5.9957 12.6773C6.23031 12.6773 6.45531 12.5841 6.62121 12.4182L9.28679 9.75268C9.63226 9.40726 9.63226 8.84712 9.28679 8.50165C8.94132 8.15612 8.38124 8.15612 8.03571 8.50159ZM8.03571 14.8494L5.99567 16.8895L5.51468 16.4085C5.1692 16.063 4.60912 16.063 4.26365 16.4085C3.91818 16.7539 3.91818 17.314 4.26365 17.6595L5.37019 18.7661C5.53609 18.932 5.76109 19.0252 5.9957 19.0252C6.23031 19.0252 6.45531 18.932 6.62121 18.7661L9.28679 16.1005C9.63226 15.7551 9.63226 15.1949 9.28679 14.8495C8.94132 14.504 8.38118 14.504 8.03571 14.8494ZM8.03571 20.7469L5.99567 22.7869L5.51468 22.3059C5.1692 21.9604 4.60912 21.9604 4.26365 22.3059C3.91818 22.6513 3.91818 23.2114 4.26365 23.5569L5.37019 24.6635C5.53609 24.8294 5.76109 24.9226 5.9957 24.9226C6.23031 24.9226 6.45531 24.8294 6.62121 24.6635L9.28679 21.9979C9.63226 21.6525 9.63226 21.0924 9.28679 20.7469C8.94132 20.4014 8.38118 20.4014 8.03571 20.7469Z" fill="#D5D5D5"/>
</svg>
