<svg width="19" height="16" viewBox="0 0 19 16" fill="none" xmlns="http://www.w3.org/2000/svg">
<path d="M5.28998 1.96491C4.8655 1.96547 4.45856 2.14066 4.1584 2.45207C3.85825 2.76348 3.68939 3.18568 3.68885 3.62608V6.64048C3.68885 6.75159 3.7314 6.85815 3.80713 6.93672C3.88286 7.01529 3.98557 7.05943 4.09267 7.05943C4.19977 7.05943 4.30248 7.01529 4.37821 6.93672C4.45394 6.85815 4.49649 6.75159 4.49649 6.64048V5.2642H6.08348V6.64048C6.08348 6.75159 6.12602 6.85815 6.20176 6.93672C6.27748 7.01529 6.3802 7.05943 6.4873 7.05943C6.59439 7.05943 6.69711 7.01529 6.77284 6.93672C6.84857 6.85815 6.89111 6.75159 6.89111 6.64048V3.62608C6.89058 3.18568 6.72172 2.76348 6.42156 2.45207C6.12141 2.14066 5.71446 1.96547 5.28998 1.96491ZM4.49649 4.42629V3.62608C4.49649 3.40774 4.58009 3.19834 4.7289 3.04395C4.87771 2.88956 5.07953 2.80283 5.28998 2.80283C5.50043 2.80283 5.70226 2.88956 5.85107 3.04395C5.99988 3.19834 6.08348 3.40774 6.08348 3.62608V4.42629H4.49649ZM16.5282 5.37732H10.5901V1.67583C10.5869 1.23058 10.4143 0.804669 10.1099 0.490806C9.80546 0.176942 9.39387 0.000540096 8.9647 0H1.61526C1.18785 0.00328895 0.778839 0.180905 0.476603 0.494474C0.174367 0.808043 0.00317008 1.23239 0 1.67583V7.25425C0.000534294 7.70131 0.171948 8.12991 0.476646 8.44604C0.781344 8.76216 1.19445 8.94 1.62536 8.94055H2.06955V10.1974C2.06963 10.272 2.08888 10.3451 2.1253 10.4094C2.16173 10.4736 2.21401 10.5266 2.27677 10.5629C2.33952 10.5992 2.41047 10.6175 2.4823 10.6158C2.55412 10.6142 2.62423 10.5927 2.68537 10.5535L5.20114 8.93427H7.56346V12.6399C7.56666 13.0852 7.73925 13.5111 8.04366 13.825C8.34807 14.1388 8.75965 14.3152 9.18882 14.3158H12.9524L15.4682 15.9371C15.5289 15.9763 15.5986 15.998 15.6701 16C15.7408 16.0005 15.8104 15.9817 15.872 15.9455C15.9336 15.9086 15.9847 15.8555 16.0202 15.7915C16.0556 15.7274 16.0742 15.6549 16.0739 15.581V14.3242H16.5181C16.9455 14.3209 17.3545 14.1433 17.6567 13.8297C17.959 13.5161 18.1302 13.0918 18.1333 12.6483V7.06362C18.1328 6.62016 17.9642 6.1947 17.6639 5.87917C17.3635 5.56364 16.9556 5.38337 16.5282 5.37732ZM5.07596 8.10054C5.00095 8.1 4.92737 8.12181 4.86396 8.16339L2.86709 9.44959V8.5216C2.86709 8.41048 2.82455 8.30392 2.74882 8.22535C2.67308 8.14678 2.57037 8.10264 2.46327 8.10264H1.61526C1.50761 8.10291 1.40096 8.08119 1.3014 8.0387C1.20185 7.99622 1.11133 7.9338 1.03502 7.85502C0.958714 7.77624 0.89811 7.68264 0.856669 7.57956C0.815228 7.47648 0.793762 7.36594 0.793497 7.25425V1.67583C0.796674 1.45282 0.884163 1.24002 1.03712 1.08329C1.19007 0.92656 1.39625 0.83844 1.61122 0.837915H8.96067C9.17564 0.83844 9.38182 0.92656 9.53477 1.08329C9.68773 1.24002 9.77522 1.45282 9.77839 1.67583V7.25425C9.77786 7.47909 9.69153 7.69456 9.5383 7.85354C9.38506 8.01252 9.17738 8.10209 8.96067 8.10264L5.07596 8.10054ZM17.3499 12.6399C17.3468 12.8612 17.2607 13.0724 17.1099 13.2289C16.9591 13.3853 16.7555 13.4746 16.5423 13.4779H15.6943C15.5872 13.4779 15.4845 13.522 15.4087 13.6006C15.333 13.6791 15.2905 13.7857 15.2905 13.8968V14.8269L13.2795 13.5512C13.219 13.5115 13.1491 13.4898 13.0776 13.4883H9.17873C8.96375 13.4878 8.75757 13.3997 8.60462 13.243C8.45166 13.0862 8.36418 12.8734 8.361 12.6504V8.94055H8.96672C9.39763 8.94 9.81074 8.76216 10.1154 8.44604C10.4201 8.12991 10.5915 7.70131 10.5921 7.25425V6.20686H16.5282C16.7431 6.21015 16.9482 6.30092 17.0993 6.45961C17.2504 6.6183 17.3353 6.83221 17.3358 7.05525L17.3499 12.6399ZM14.8039 11.5611C14.3924 11.5618 13.9875 11.4544 13.6268 11.249C14.0625 10.7386 14.3392 10.1032 14.4202 9.42655H14.7655C14.8726 9.42655 14.9753 9.3824 15.0511 9.30383C15.1268 9.22527 15.1693 9.1187 15.1693 9.00759C15.1693 8.89647 15.1268 8.78991 15.0511 8.71134C14.9753 8.63277 14.8726 8.58863 14.7655 8.58863H13.3966V7.71929C13.3966 7.60818 13.354 7.50161 13.2783 7.42304C13.2026 7.34447 13.0999 7.30034 12.9928 7.30034C12.8857 7.30034 12.783 7.34447 12.7072 7.42304C12.6315 7.50161 12.5889 7.60818 12.5889 7.71929V8.58025H11.22C11.1129 8.58025 11.0102 8.62439 10.9345 8.70296C10.8587 8.78153 10.8162 8.88809 10.8162 8.99921C10.8162 9.11032 10.8587 9.21689 10.9345 9.29546C11.0102 9.37403 11.1129 9.41817 11.22 9.41817H11.5673C11.6476 10.0947 11.9235 10.7301 12.3588 11.2406C11.9988 11.4489 11.5938 11.5592 11.1817 11.5611C11.0746 11.5611 10.9718 11.6053 10.8961 11.6838C10.8204 11.7624 10.7778 11.869 10.7778 11.9801C10.7778 12.0912 10.8204 12.1978 10.8961 12.2763C10.9718 12.3549 11.0746 12.399 11.1817 12.399C11.8288 12.4007 12.4616 12.2015 12.9988 11.8272C13.536 12.2015 14.1689 12.4007 14.816 12.399C14.9231 12.399 15.0258 12.3549 15.1015 12.2763C15.1773 12.1978 15.2198 12.0912 15.2198 11.9801C15.2198 11.869 15.1773 11.7624 15.1015 11.6838C15.0258 11.6053 14.9231 11.5611 14.816 11.5611H14.8039ZM13.5924 9.42655C13.5168 9.91206 13.3063 10.3641 12.9867 10.7274C12.6671 10.3641 12.4566 9.91206 12.381 9.42655H13.5924Z" fill="black"/>
</svg>
