<svg width="13" height="15" viewBox="0 0 13 15" fill="none" xmlns="http://www.w3.org/2000/svg">
<path d="M2.25308 2.216L2.25308 2.21599C3.3861 1.11011 4.89256 0.5 6.50002 0.5C8.10747 0.5 9.61393 1.11011 10.7469 2.21599C11.8796 3.32152 12.5 4.78623 12.5 6.34424C12.5 7.89643 11.7462 9.35775 10.7242 10.651C9.70493 11.9408 8.46426 13.0076 7.56913 13.7762L7.56911 13.7762L7.56302 13.7814C7.31955 13.9905 7.10124 14.1779 6.92543 14.3382C6.809 14.4443 6.65685 14.5 6.49999 14.5C6.34306 14.5 6.19103 14.4444 6.07462 14.3382L6.07457 14.3382C5.89925 14.1783 5.68157 13.9914 5.43891 13.783L5.43089 13.7761L5.43087 13.7761C4.53574 13.0076 3.29507 11.9407 2.27581 10.6509C1.25384 9.35773 0.5 7.8964 0.5 6.34421C0.5 4.78623 1.12041 3.32152 2.25308 2.216ZM3.13557 6.1045C3.13557 7.93364 4.65589 9.4003 6.50002 9.4003C8.34411 9.4003 9.86446 7.93364 9.86446 6.1045C9.86446 4.27536 8.34414 2.8087 6.50002 2.8087C4.65589 2.8087 3.13557 4.27536 3.13557 6.1045Z" stroke="black"/>
</svg>
