<svg width="14" height="15" viewBox="0 0 14 15" fill="none" xmlns="http://www.w3.org/2000/svg">
<path d="M6.69779 14.1405H2.78544C1.7222 14.1405 0.859508 13.2746 0.859508 12.2146V2.78544C0.859508 1.7222 1.72538 0.859508 2.78544 0.859508H6.76146C7.00021 0.859508 7.19121 0.668506 7.19121 0.429754C7.19121 0.191002 7.00021 0 6.76146 0H2.78544C1.24788 0 0 1.25106 0 2.78544V12.2146C0 13.7521 1.25106 15 2.78544 15H6.69779C6.93654 15 7.12755 14.809 7.12755 14.5702C7.12755 14.3315 6.93336 14.1405 6.69779 14.1405Z" fill="#E93B3B"/>
<path d="M13.7776 7.19771L11.0462 4.46638C10.8775 4.29766 10.6069 4.29766 10.4382 4.46638C10.2695 4.6351 10.2695 4.90569 10.4382 5.0744L12.4374 7.07356H3.71814C3.47939 7.07356 3.28839 7.26456 3.28839 7.50331C3.28839 7.74206 3.47939 7.93306 3.71814 7.93306H12.4374L10.4382 9.93221C10.2695 10.1009 10.2695 10.3715 10.4382 10.5402C10.521 10.623 10.6324 10.6676 10.7406 10.6676C10.8489 10.6676 10.9603 10.6262 11.0431 10.5402L13.7744 7.80891C13.9463 7.63701 13.9463 7.36324 13.7776 7.19771Z" fill="#E93B3B"/>
</svg>
