<svg width="40" height="40" viewBox="0 0 40 40" fill="none" xmlns="http://www.w3.org/2000/svg">
<path d="M30.5469 1.17188C30.5469 0.525 30.0219 0 29.375 0H23.5156V6.64062C23.5156 7.2875 22.9906 7.8125 22.3438 7.8125H17.6562C17.0094 7.8125 16.4844 7.2875 16.4844 6.64062V0H10.625C9.97813 0 9.45312 0.525 9.45312 1.17188V16.4844H30.5469V1.17188Z" fill="#46B3DF"/>
<path d="M18.8281 0H21.1719V5.46875H18.8281V0ZM12.8906 25.5125C12.8906 26.1602 12.3656 26.6844 11.7188 26.6844H7.03125C6.38438 26.6844 5.85938 26.1602 5.85938 25.5125V18.8719H1.17188C0.525 18.8719 0 19.3969 0 20.0438V38.8281C0 39.475 0.525 40 1.17188 40H18.8281V18.8719H12.8906V25.5125Z" fill="#46B3DF"/>
<path d="M8.20312 18.8721H10.5469V24.3408H8.20312V18.8721ZM38.8281 18.8718H34.1406V25.5125C34.1406 26.1601 33.6156 26.6843 32.9688 26.6843H28.2812C27.6344 26.6843 27.1094 26.1601 27.1094 25.5125V18.8718H21.1719V40H38.8281C39.475 40 40 39.475 40 38.8281V20.0437C40 19.3968 39.475 18.8718 38.8281 18.8718Z" fill="#46B3DF"/>
<path d="M29.4531 18.8721H31.7969V24.3408H29.4531V18.8721Z" fill="#46B3DF"/>
</svg>
