<svg width="25" height="25" viewBox="0 0 25 25" fill="none" xmlns="http://www.w3.org/2000/svg">
<path d="M24.5292 11.9134C24.4567 8.74034 23.1548 5.78336 20.8633 3.58735C18.5751 1.39441 15.5694 0.21992 12.4028 0.278758C9.23485 0.219351 6.23064 1.39465 3.94249 3.58735C1.65097 5.78336 0.349086 8.74034 0.276557 11.9133L0.276367 11.9232V11.9333C0.284731 13.5314 0.627621 15.11 1.28297 16.5675C1.93831 18.0251 2.89159 19.3293 4.08143 20.3961V23.328C4.08143 23.897 4.47876 24.3927 5.02616 24.5068C5.10717 24.5236 5.1888 24.5319 5.27004 24.5319C5.49197 24.5319 5.70939 24.4693 5.89737 24.3513L8.25369 22.8794C9.58253 23.3446 10.9692 23.5804 12.3789 23.5804H12.3967C12.4746 23.5818 12.5519 23.5826 12.6297 23.5826C15.7139 23.5824 18.6298 22.4121 20.8632 20.2718C23.1548 18.0758 24.4566 15.1189 24.5292 11.9458L24.5295 11.9295L24.5292 11.9134ZM19.8789 19.2448C17.9122 21.1295 15.3449 22.1601 12.6289 22.1601C12.5582 22.1601 12.4875 22.1594 12.4169 22.1581L12.409 22.1579H12.4015C11.0937 22.1611 9.79568 21.9318 8.56807 21.4809C8.26331 21.3692 7.93131 21.4034 7.65745 21.5746L5.50397 22.9198V20.2229C5.50397 19.9222 5.37313 19.636 5.14512 19.4376C2.97222 17.5487 1.71667 14.8149 1.69905 11.9358C1.76514 9.14562 2.91116 6.54598 4.92677 4.61436C6.94461 2.68075 9.59589 1.64668 12.3887 1.70125L12.4028 1.70144L12.4169 1.70125C15.2115 1.64611 17.8611 2.68075 19.8789 4.61436C21.8927 6.54433 23.0385 9.14188 23.1065 11.9295C23.0388 14.7174 21.8929 17.3148 19.8789 19.2448Z" fill="#585B5C"/>
<path d="M17.255 7.04945C17.25 6.98003 17.2214 6.91433 17.1739 6.86309C17.0868 6.75234 16.9312 6.71175 16.7976 6.77358L16.7914 6.77646C16.7869 6.77855 16.7823 6.78081 16.7779 6.78313L9.05016 10.537C9.00191 10.5604 8.96062 10.5958 8.93031 10.6398C8.90001 10.6838 8.88173 10.7348 8.87725 10.7878C8.87277 10.8409 8.88226 10.8942 8.90477 10.9425C8.92729 10.9909 8.96207 11.0326 9.00572 11.0637L11.153 12.5906L6.83979 16.726C6.72805 16.8332 6.7134 17.0057 6.80556 17.1298C6.83443 17.1687 6.87214 17.2004 6.91566 17.2222C6.95917 17.244 7.00725 17.2553 7.05601 17.2553C7.10657 17.2553 7.15772 17.243 7.20474 17.2176L15.3526 12.809C15.3987 12.784 15.4377 12.7479 15.4659 12.7039C15.4941 12.6599 15.5106 12.6096 15.5138 12.5576C15.517 12.5056 15.5069 12.4536 15.4843 12.4066C15.4618 12.3595 15.4275 12.3189 15.3848 12.2885L13.3952 10.8738L17.1601 7.29353C17.1931 7.26224 17.2186 7.22415 17.235 7.18196C17.2514 7.13978 17.2582 7.09454 17.255 7.04945Z" fill="#585B5C"/>
</svg>
