<svg width="16" height="17" viewBox="0 0 16 17" fill="none" xmlns="http://www.w3.org/2000/svg">
<path d="M15.0927 13.948H3.7037C3.56366 13.948 3.50366 13.7682 3.61333 13.6856L5.19872 12.4951H14.2574C14.9014 12.4951 15.4356 11.9778 15.4481 11.3495L15.5496 6.24491C15.5612 5.66299 15.1251 5.15772 14.5351 5.07156C14.2513 5.03008 13.9856 5.22073 13.943 5.49842C13.9005 5.7761 14.0966 6.0345 14.3811 6.07605C14.455 6.08684 14.5097 6.1496 14.5082 6.22232L14.4067 11.3297C14.4051 11.4083 14.3381 11.4781 14.2574 11.4781H5.43534L3.79191 4.53559L4.62605 4.6544C4.91043 4.6958 5.1756 4.50297 5.21817 4.22529C5.2607 3.9476 5.0646 3.68808 4.7801 3.64653L3.53069 3.46372L3.05306 1.64967C2.99399 1.4248 2.78641 1.27148 2.5486 1.27148H0.52082C0.233198 1.27148 0 1.49923 0 1.78C0 2.06077 0.233161 2.28851 0.52082 2.28851H2.14451L4.43846 11.7729L2.97715 12.8729C2.09555 13.5366 2.59139 14.965 3.70366 14.965H5.07088C5.01036 15.1103 4.97713 15.2955 4.97713 15.4774C4.97713 16.3185 5.68252 17 6.54959 17C7.41665 17 8.12205 16.32 8.12205 15.4788C8.12205 15.2969 8.08881 15.1103 8.02829 14.965H10.8727C10.8122 15.1103 10.779 15.2955 10.779 15.4774C10.779 16.3185 11.4844 17 12.3514 17C13.2185 17 13.9239 16.32 13.9239 15.4788C13.9239 15.2969 13.8907 15.1103 13.8302 14.965H15.0928C15.3804 14.965 15.6136 14.7372 15.6136 14.4565C15.6136 14.1757 15.3803 13.948 15.0927 13.948ZM6.54959 15.9804C6.25687 15.9804 6.01877 15.7522 6.01877 15.4717C6.01877 15.1912 6.25691 14.9631 6.54959 14.9631C6.8423 14.9631 7.08044 15.1912 7.08044 15.4717C7.08044 15.7522 6.8423 15.9804 6.54959 15.9804ZM12.3514 15.9804C12.0587 15.9804 11.8206 15.7522 11.8206 15.4717C11.8206 15.1912 12.0587 14.9631 12.3514 14.9631C12.6442 14.9631 12.8823 15.1912 12.8823 15.4717C12.8823 15.7522 12.6441 15.9804 12.3514 15.9804Z" fill="black"/>
<path d="M9.52469 7.37059C7.43895 7.37059 5.74207 5.71738 5.74207 3.6853C5.74207 1.65321 7.43895 0 9.52469 0C11.6104 0 13.3073 1.65321 13.3073 3.6853C13.3073 5.71738 11.6104 7.37059 9.52469 7.37059ZM9.52469 1.01681C8.0133 1.01681 6.78371 2.21388 6.78371 3.6853C6.78371 5.15671 8.01334 6.35379 9.52469 6.35379C11.036 6.35379 12.2657 5.15671 12.2657 3.6853C12.2657 2.21388 11.0361 1.01681 9.52469 1.01681Z" fill="black"/>
<path d="M8.60215 4.97981L7.7656 4.00982C7.58036 3.79505 7.60854 3.47432 7.82857 3.29347C8.04858 3.11263 8.37709 3.14012 8.56241 3.35497L9.02204 3.88793L10.4521 2.40329C10.6491 2.19876 10.9788 2.18884 11.1883 2.38117C11.3979 2.57349 11.408 2.89527 11.211 3.0998L9.37999 5.00066C9.21646 5.16887 8.79795 5.20218 8.60215 4.97981Z" fill="black"/>
</svg>
