<svg width="25" height="31" viewBox="0 0 25 31" fill="none" xmlns="http://www.w3.org/2000/svg">
<path fill-rule="evenodd" clip-rule="evenodd" d="M24.419 2.44934V29.0422C24.419 29.2332 24.367 29.4205 24.2686 29.584C24.1702 29.7475 24.0293 29.881 23.8609 29.9701C23.6926 30.0594 23.5031 30.1008 23.313 30.09C23.1229 30.0791 22.9394 30.0164 22.7822 29.9085L19.3008 27.525L16.0091 29.8946C15.6142 30.1801 15.0756 30.1535 14.71 29.8316L12.2095 27.6384L9.70899 29.8316C9.3434 30.1535 8.80479 30.1801 8.40993 29.8946L5.11822 27.525L1.6368 29.9085C1.47964 30.0164 1.29611 30.0791 1.10602 30.09C0.915924 30.1008 0.726484 30.0594 0.558148 29.9701C0.389766 29.881 0.24881 29.7475 0.150459 29.584C0.0521077 29.4205 8.7477e-05 29.2332 0 29.0422V2.44934C5.47204e-05 1.09731 1.0926 0 2.44195 0H21.9771C23.3264 0 24.419 1.09731 24.419 2.44934ZM22.326 2.44934C22.326 2.35655 22.2892 2.26757 22.2238 2.20195C22.1584 2.13634 22.0697 2.09947 21.9771 2.09944H2.44195C2.34944 2.09947 2.26073 2.13634 2.19532 2.20195C2.1299 2.26757 2.09314 2.35655 2.09311 2.44934V27.0547L4.54338 25.3766C4.72061 25.255 4.93088 25.1911 5.14559 25.1936C5.36031 25.1961 5.56904 25.2649 5.7434 25.3906L8.95554 27.7042L11.5202 25.4536C11.7109 25.2858 11.9559 25.1932 12.2095 25.1932C12.4632 25.1932 12.7082 25.2858 12.8989 25.4536L15.4636 27.7042L18.6757 25.3906C18.8501 25.2649 19.0588 25.1961 19.2735 25.1936C19.4882 25.1911 19.6985 25.255 19.8757 25.3766L22.326 27.0547V2.44934Z" fill="#D5D5D5"/>
<path fill-rule="evenodd" clip-rule="evenodd" d="M6.62758 7.69807C6.0499 7.69807 5.58105 7.2278 5.58105 6.64835C5.58105 6.06891 6.0499 5.59863 6.62758 5.59863H17.7905C18.3682 5.59863 18.8371 6.06891 18.8371 6.64835C18.8371 7.2278 18.3682 7.69807 17.7905 7.69807H6.62758ZM6.62758 13.2966C6.0499 13.2966 5.58105 12.8263 5.58105 12.2468C5.58105 11.6674 6.0499 11.1971 6.62758 11.1971H17.7905C18.3682 11.1971 18.8371 11.6674 18.8371 12.2468C18.8371 12.8263 18.3682 13.2966 17.7905 13.2966H6.62758ZM6.62758 18.8951C6.0499 18.8951 5.58105 18.4248 5.58105 17.8453C5.58105 17.2659 6.0499 16.7956 6.62758 16.7956H12.2091C12.7867 16.7956 13.2556 17.2659 13.2556 17.8453C13.2556 18.4248 12.7867 18.8951 12.2091 18.8951H6.62758Z" fill="#D5D5D5"/>
</svg>
