<svg width="19" height="13" viewBox="0 0 19 13" fill="none" xmlns="http://www.w3.org/2000/svg">
<path d="M18.3518 0L0.553878 0C0.24799 0 0 0.24799 0 0.553878L0 11.5589C0 11.8648 0.24799 12.1128 0.553878 12.1128L18.3518 12.1128C18.6577 12.1128 18.9057 11.8648 18.9057 11.5589L18.9057 0.553878C18.9057 0.24799 18.6577 0 18.3518 0ZM1.10776 4.672C2.95671 4.4246 4.4246 2.95671 4.672 1.10776L14.2337 1.10776C14.4811 2.95671 15.949 4.4246 17.7979 4.672V7.4408C15.949 7.68819 14.4811 9.15608 14.2337 11.005L4.672 11.005C4.4246 9.15608 2.95671 7.68819 1.10776 7.4408L1.10776 4.672ZM17.7979 3.54988C16.561 3.32172 15.584 2.34468 15.3558 1.10776L17.7979 1.10776V3.54988ZM3.54988 1.10776C3.32172 2.34468 2.34468 3.32172 1.10776 3.54988L1.10776 1.10776L3.54988 1.10776ZM1.10776 8.56292C2.34468 8.79108 3.32172 9.76812 3.54988 11.005H1.10776L1.10776 8.56292ZM15.3558 11.005C15.5839 9.76812 16.561 8.79108 17.7979 8.56292V11.005L15.3558 11.005Z" fill="black"/>
<path d="M10.0972 5.5081C9.69026 5.36424 9.24103 5.19113 8.99503 4.9982C8.94338 4.95765 8.92155 4.8451 8.94315 4.73053C8.95497 4.6679 9.00966 4.45865 9.21799 4.39587C9.60323 4.27978 9.86444 4.43154 9.95889 4.50214C10.2039 4.68526 10.551 4.63515 10.7342 4.39015C10.9173 4.14515 10.8672 3.79805 10.6222 3.61487C10.528 3.54441 10.302 3.39583 9.97861 3.31038V3.19939C9.97861 2.8935 9.73062 2.64551 9.42473 2.64551C9.11884 2.64551 8.87085 2.8935 8.87085 3.19939V3.34461C8.34895 3.51329 7.96061 3.96267 7.85456 4.5253C7.75468 5.05525 7.92971 5.57039 8.3114 5.86978C8.6825 6.16082 9.21156 6.36986 9.72804 6.55245C10.1085 6.68693 10.1198 6.97724 10.0928 7.13831C10.0468 7.41141 9.81706 7.70655 9.42104 7.70921C8.98879 7.71212 8.87584 7.69429 8.55352 7.48341C8.29755 7.31595 7.95426 7.38774 7.7868 7.6437C7.61935 7.8997 7.69113 8.24296 7.9471 8.41042C8.29833 8.6402 8.56423 8.74415 8.87085 8.78809L8.87085 8.91223C8.87085 9.21812 9.11884 9.46611 9.42473 9.46611C9.73062 9.46611 9.97861 9.21812 9.97861 8.91223V8.72941C10.654 8.51037 11.0859 7.91233 11.1852 7.32194C11.3208 6.51505 10.8836 5.78607 10.0972 5.5081Z" fill="black"/>
</svg>
