<svg width="44" height="40" viewBox="0 0 44 40" fill="none" xmlns="http://www.w3.org/2000/svg">
<path d="M31.795 17.2065C25.5107 17.2065 20.3981 22.319 20.3981 28.603C20.3981 34.8875 25.5107 40 31.795 40C38.0795 40 43.192 34.8875 43.192 28.603C43.192 22.3186 38.0795 17.2066 31.795 17.2066V17.2065ZM36.5916 30.0085H31.707C30.9799 30.0085 30.39 29.4186 30.39 28.691V23.8068C30.39 23.0792 30.9798 22.4894 31.707 22.4894C32.4346 22.4894 33.0245 23.0792 33.0245 23.8068V27.3736H36.5916C37.3188 27.3736 37.9087 27.9634 37.9087 28.691C37.9087 29.4186 37.3192 30.0085 36.5916 30.0085ZM14.6875 10.2568L17.3569 9.13904C17.5181 9.0715 17.691 9.03671 17.8657 9.03671C18.0405 9.03671 18.2134 9.0715 18.3745 9.13904L21.0436 10.2568V0H14.6875V10.2568Z" fill="#46B3DF"/>
<path d="M31.7945 14.5715C33.1604 14.5715 34.4808 14.7686 35.73 15.1344V3.23657C35.7299 1.45189 34.2781 0 32.4935 0H23.6777V12.2366C23.6777 12.4096 23.6436 12.5809 23.5774 12.7407C23.5112 12.9006 23.4142 13.0458 23.2918 13.1681C23.1695 13.2904 23.0242 13.3874 22.8644 13.4536C22.7045 13.5197 22.5332 13.5538 22.3602 13.5537C22.1855 13.5537 22.0126 13.519 21.8515 13.4515L17.8648 11.7825L13.8783 13.4515C13.6781 13.5354 13.4603 13.5686 13.2442 13.548C13.0281 13.5274 12.8204 13.4537 12.6397 13.3334C12.459 13.2132 12.3108 13.0501 12.2083 12.8587C12.1059 12.6674 12.0523 12.4537 12.0524 12.2366V0H3.23657C1.45189 0 0 1.45181 0 3.23657V32.4935C0 34.2781 1.45181 35.73 3.23657 35.73H19.7122C18.4748 33.6398 17.763 31.2034 17.763 28.6035C17.763 20.8661 24.0576 14.5715 31.7945 14.5715Z" fill="#46B3DF"/>
</svg>
