<svg width="18" height="18" viewBox="0 0 18 18" fill="none" xmlns="http://www.w3.org/2000/svg">
<path d="M9 0C4.02574 0 0 4.02528 0 9C0 13.9743 4.02528 18 9 18C13.9743 18 18 13.9747 18 9C18 4.02574 13.9747 0 9 0ZM9 16.8C4.69909 16.8 1.19999 13.3009 1.19999 9C1.19999 4.69905 4.69909 1.19999 9 1.19999C13.3009 1.19999 16.8 4.69909 16.8 9C16.8 13.3009 13.3009 16.8 9 16.8Z" fill="black"/>
<path d="M8.9999 7.37459C8.66855 7.37459 8.39989 7.64322 8.39989 7.9746V13.036C8.39989 13.3674 8.66852 13.636 8.9999 13.636C9.33128 13.636 9.59991 13.3674 9.59991 13.036V7.97457C9.59988 7.64318 9.33125 7.37459 8.9999 7.37459ZM9.00001 4.36328C8.33833 4.36328 7.80002 4.90159 7.80002 5.56327C7.80002 6.22495 8.33833 6.76326 9.00001 6.76326C9.66168 6.76326 10.2 6.22495 10.2 5.56327C10.2 4.90159 9.66168 4.36328 9.00001 4.36328Z" fill="black"/>
</svg>
