<svg width="25" height="31" viewBox="0 0 25 31" fill="none" xmlns="http://www.w3.org/2000/svg">
<path d="M20.9391 11.4649C19.7351 9.92444 18.3712 8.62637 16.995 7.71114C16.4984 7.38095 16.0067 7.10348 15.521 6.87791C16.0135 6.439 16.4941 5.88888 16.9613 5.22785C17.9034 3.89479 18.4529 2.57443 18.4758 2.51882C18.6752 2.03585 18.471 1.48077 18.0061 1.24185C17.5412 1.00294 16.9706 1.15984 16.6935 1.60298C16.2724 2.27616 15.6864 2.44509 15.269 2.4683C14.5467 2.50837 13.8128 2.15093 13.3065 1.5119C12.5454 0.551089 11.3417 0 10.004 0C8.66631 0 7.46254 0.551089 6.70141 1.51178C6.59038 1.65191 6.51877 1.8191 6.49397 1.99611C6.46917 2.17313 6.49207 2.35355 6.56032 2.51876C6.58324 2.57431 7.13275 3.89467 8.07489 5.22779C8.54178 5.8884 9.02211 6.43828 9.51428 6.87713C9.02459 7.10426 8.52884 7.38391 8.02832 7.71718C6.64807 8.63598 5.28028 9.93912 4.07264 11.4857C1.52249 14.7517 0 18.6467 0 21.9049C0 24.5853 0.954779 26.733 2.83809 28.2883C4.97414 30.0512 8.23086 30.9451 12.518 30.9451C16.7896 30.9451 20.0365 30.044 22.1684 28.2667C24.0473 26.7003 25 24.5393 25 21.844C24.9999 18.5983 23.4819 14.7183 20.9391 11.4649ZM8.70731 2.37322C9.06523 2.14065 9.51967 2.00998 10.004 2.00998C10.7127 2.00998 11.3579 2.29018 11.7296 2.75943C12.559 3.80649 13.7638 4.43186 15.0099 4.4784C14.2898 5.39436 13.4136 6.15554 12.518 6.15554C10.9358 6.15554 9.41377 3.77911 8.70731 2.37322ZM20.8799 26.7233C19.1193 28.1909 16.306 28.9351 12.5179 28.9351C8.7107 28.9351 5.88489 28.1961 4.11897 26.7387C2.72034 25.5836 2.01116 23.9573 2.01116 21.9048C2.01116 19.0797 3.37454 15.6469 5.65822 12.7221C7.85269 9.9115 10.4812 8.16546 12.5179 8.16546C14.5475 8.16546 17.167 9.90383 19.3541 12.7022C21.6299 15.614 22.9887 19.0315 22.9887 21.844C22.9887 23.9151 22.2792 25.5567 20.8799 26.7233Z" fill="#D5D5D5"/>
<path d="M12.7097 18.346C11.6444 17.8057 10.5427 17.2469 10.5427 16.6092C10.5427 15.7138 11.3018 14.9854 12.2351 14.9854C13.1683 14.9854 13.9276 15.7138 13.9276 16.6092C13.9276 17.1473 14.3822 17.5835 14.943 17.5835C15.5039 17.5835 15.9585 17.1473 15.9585 16.6092C15.9585 14.9771 14.8115 13.5983 13.2506 13.173V12.7121C13.2506 12.174 12.7959 11.7378 12.2351 11.7378C11.6743 11.7378 11.2196 12.174 11.2196 12.7121V13.173C9.65874 13.5983 8.51172 14.9772 8.51172 16.6092C8.51172 18.421 10.3131 19.3346 11.7605 20.0687C12.8259 20.609 13.9276 21.1677 13.9276 21.8054C13.9276 22.7008 13.1683 23.4292 12.2351 23.4292C11.3019 23.4292 10.5427 22.7008 10.5427 21.8054C10.5427 21.2673 10.088 20.8311 9.5272 20.8311C8.96639 20.8311 8.51172 21.2673 8.51172 21.8054C8.51172 23.4375 9.65874 24.8163 11.2196 25.2416V25.7025C11.2196 26.2406 11.6743 26.6768 12.2351 26.6768C12.7959 26.6768 13.2506 26.2406 13.2506 25.7025V25.2416C14.8115 24.8163 15.9585 23.4374 15.9585 21.8054C15.9585 19.9936 14.1571 19.0801 12.7097 18.346Z" fill="#D5D5D5"/>
</svg>
