<svg width="35" height="40" viewBox="0 0 35 40" fill="none" xmlns="http://www.w3.org/2000/svg">
<path d="M28.9412 1.12383C28.5403 0.430625 27.7939 0 26.9937 0H18.6296V9.89352H34.0134L28.9412 1.12383ZM7.84203 0C7.04016 0 6.29383 0.431406 5.89289 1.12617L0.839375 9.89352H16.2849V0H7.84203ZM0 12.2381V37.2435C0 38.7636 1.23719 40 2.75727 40H32.0776C33.5977 40 34.8348 38.7636 34.8348 37.2435V12.2381H0ZM21.278 28.3219C21.7359 28.7796 21.7359 29.522 21.278 29.9798C21.1693 30.0888 21.0401 30.1753 20.8979 30.2342C20.7556 30.2931 20.6031 30.3234 20.4491 30.3232C20.2952 30.3234 20.1427 30.2931 20.0004 30.2342C19.8582 30.1753 19.729 30.0888 19.6202 29.9798L17.4174 27.7769L15.2146 29.9797C14.9857 30.2086 14.6856 30.3231 14.3857 30.3231C14.0858 30.3231 13.7856 30.2086 13.5568 29.9797C13.099 29.522 13.099 28.7796 13.5568 28.3218L15.7596 26.119L13.5568 23.9162C13.099 23.4584 13.099 22.7161 13.5568 22.2583C14.0145 21.8005 14.7569 21.8005 15.2147 22.2583L17.4175 24.4611L19.6203 22.2583C20.078 21.8005 20.8204 21.8005 21.2782 22.2583C21.736 22.716 21.736 23.4584 21.2782 23.9162L19.0753 26.1191L21.278 28.3219Z" fill="#46B3DF"/>
</svg>
