<svg width="18" height="18" viewBox="0 0 18 18" fill="none" xmlns="http://www.w3.org/2000/svg">
<path d="M17.3592 15.9355L13.3875 11.9638C14.3736 10.7458 14.9673 9.1981 14.9673 7.51246C14.9673 3.60564 11.7884 0.426758 7.88157 0.426758C3.97474 0.426758 0.795898 3.6056 0.795898 7.51243C0.795898 11.4193 3.97478 14.5981 7.8816 14.5981C9.56724 14.5981 11.1149 14.0044 12.3329 13.0184L16.3046 16.9901C16.4501 17.1356 16.641 17.2087 16.8319 17.2087C17.0229 17.2087 17.2138 17.1356 17.3593 16.9901C17.6509 16.6985 17.6509 16.2271 17.3592 15.9355ZM7.8816 13.1064C4.7967 13.1064 2.28764 10.5973 2.28764 7.51243C2.28764 4.42753 4.7967 1.91846 7.8816 1.91846C10.9665 1.91846 13.4756 4.42753 13.4756 7.51243C13.4756 10.5973 10.9665 13.1064 7.8816 13.1064Z" fill="#46B3DF"/>
</svg>
