<svg width="15" height="15" viewBox="0 0 15 15" fill="none" xmlns="http://www.w3.org/2000/svg">
<path d="M13.9112 5.58437L13.1797 5.46032C13.1148 5.2796 13.0414 5.10205 12.9596 4.92829L13.3904 4.32565C13.7652 3.7991 13.705 3.08795 13.2487 2.63613L12.3697 1.75702C12.1213 1.50858 11.7919 1.37168 11.4424 1.37168C11.1672 1.37168 10.904 1.45649 10.6831 1.61543L10.0781 2.04636C9.89289 1.9587 9.70329 1.88054 9.51008 1.81219L9.38908 1.09547C9.28268 0.460635 8.73816 0 8.09431 0H6.85241C6.20867 0 5.66412 0.460635 5.55795 1.09418L5.4308 1.83896C5.25063 1.90475 5.07376 1.97925 4.90082 2.06221L4.30688 1.63447C4.08417 1.4741 3.81994 1.38943 3.54264 1.38943C3.1897 1.38943 2.86023 1.52654 2.61452 1.77557L1.73344 2.65374C1.27843 3.10875 1.21881 3.81932 1.59176 4.34323L2.02949 4.95823C1.94845 5.1328 1.87592 5.31119 1.81216 5.49278L1.09532 5.61378C0.460636 5.7203 0 6.26484 0 6.90855V8.15045C0 8.79419 0.460636 9.3387 1.09418 9.44502L1.83897 9.57205C1.90476 9.75225 1.97926 9.92915 2.06221 10.1021L1.63606 10.6949C1.26126 11.2215 1.32144 11.9327 1.77774 12.3844L2.65676 13.2635C2.9052 13.512 3.23456 13.6489 3.58407 13.6489C3.85929 13.6489 4.12252 13.5641 4.34327 13.4052L4.95827 12.9675C5.12218 13.0435 5.2894 13.1122 5.45943 13.1733L5.5813 13.9046C5.68785 14.5394 6.23234 15 6.87608 15H8.12085C8.76459 15 9.30922 14.5394 9.41554 13.9055L9.53958 13.1739C9.72031 13.109 9.89785 13.0355 10.0716 12.9538L10.6723 13.3832C10.895 13.5435 11.1593 13.6283 11.4366 13.6283C11.786 13.6283 12.1153 13.4914 12.3638 13.243L13.2428 12.3639C13.6979 11.9088 13.7574 11.1983 13.3845 10.6744L12.9533 10.0689C13.0353 9.89538 13.109 9.71806 13.1741 9.53751L13.9046 9.41575C14.5393 9.3092 14.9999 8.76469 14.9999 8.12095V6.88157C15.0071 6.23716 14.5498 5.69194 13.9112 5.58437ZM14.121 8.12095C14.1213 8.22355 14.0851 8.32292 14.0189 8.40131C13.9527 8.47969 13.8608 8.53199 13.7596 8.54886L12.7908 8.71034C12.612 8.74008 12.4678 8.8662 12.4141 9.03958C12.3281 9.31849 12.2099 9.60355 12.063 9.88644C12.0222 9.96417 12.0039 10.0517 12.01 10.1393C12.0161 10.2268 12.0464 10.311 12.0976 10.3823L12.6685 11.1841C12.7282 11.2676 12.7562 11.3696 12.7475 11.4719C12.7389 11.5742 12.6942 11.6701 12.6214 11.7425L11.7424 12.6215C11.6587 12.7051 11.553 12.7494 11.4366 12.7494C11.3448 12.7494 11.2581 12.7219 11.1847 12.6691L10.3864 12.0985C10.2395 11.9931 10.0486 11.9798 9.8883 12.0637C9.61658 12.2056 9.33279 12.3231 9.04027 12.4148C8.95646 12.4408 8.88151 12.4896 8.8238 12.5557C8.76609 12.6218 8.72788 12.7027 8.71344 12.7892L8.54888 13.7591C8.53212 13.8605 8.47986 13.9525 8.40143 14.0188C8.323 14.0852 8.22353 14.1214 8.12082 14.1211H6.87605C6.77345 14.1214 6.67408 14.0852 6.59569 14.019C6.51731 13.9528 6.46502 13.8609 6.44817 13.7597L6.28668 12.7908C6.27251 12.7041 6.2345 12.623 6.17691 12.5567C6.11931 12.4903 6.04439 12.4413 5.96052 12.415C5.67054 12.3235 5.39439 12.2099 5.13953 12.0775C5.07174 12.0422 4.99644 12.0238 4.92001 12.0237C4.82115 12.0238 4.72477 12.0547 4.64433 12.1122L3.83169 12.6906C3.75845 12.7433 3.67513 12.77 3.58404 12.77C3.46764 12.77 3.36191 12.7258 3.27824 12.6421L2.39766 11.7615C2.24737 11.6128 2.2283 11.3786 2.35085 11.2063L2.91836 10.4169C3.02514 10.2688 3.03818 10.0765 2.95214 9.91479C2.80819 9.64498 2.68917 9.36259 2.59656 9.07113C2.57027 8.98777 2.52147 8.91328 2.45553 8.85589C2.3896 8.7985 2.3091 8.76043 2.22291 8.74588L1.24078 8.57848C1.13949 8.56167 1.04748 8.50939 0.981188 8.43098C0.914895 8.35258 0.878642 8.25315 0.878908 8.15048V6.90858C0.878642 6.80586 0.914935 6.70638 0.981294 6.62796C1.04765 6.54954 1.13975 6.49729 1.24111 6.48056L2.19806 6.31907C2.37695 6.28898 2.52103 6.16254 2.57423 5.9886C2.66453 5.69309 2.78069 5.40735 2.9195 5.13955C2.96005 5.06187 2.97828 4.97447 2.97216 4.88705C2.96604 4.79963 2.93582 4.71562 2.88484 4.64435L2.30781 3.83364C2.24816 3.75023 2.22009 3.64834 2.22862 3.54615C2.23716 3.44396 2.28173 3.34813 2.35439 3.27577L3.2364 2.39675L3.23963 2.39341C3.3189 2.31272 3.42648 2.26831 3.54264 2.26831C3.63443 2.26831 3.72118 2.29579 3.79328 2.34776L4.58611 2.91847C4.73453 3.02537 4.92704 3.03817 5.08818 2.95213C5.35788 2.80823 5.64015 2.68925 5.93149 2.59667C6.01491 2.57041 6.08946 2.5216 6.1469 2.45565C6.20434 2.38969 6.24243 2.30914 6.25698 2.2229L6.4245 1.24078C6.44127 1.13946 6.49354 1.04742 6.57197 0.981118C6.6504 0.914816 6.74986 0.878585 6.85255 0.878906H8.09445C8.19718 0.87864 8.29665 0.914933 8.37507 0.981292C8.45349 1.04765 8.50574 1.13975 8.52248 1.2411L8.68394 2.19841C8.71414 2.37741 8.84085 2.52138 9.0149 2.57446C9.31165 2.66464 9.60758 2.7864 9.89472 2.93657C10.0543 3.01986 10.2443 3.00683 10.3913 2.90232L11.1949 2.33001C11.268 2.27728 11.3513 2.25062 11.4425 2.25062C11.5588 2.25062 11.6645 2.29477 11.7483 2.37855L12.6288 3.25904C12.7791 3.40781 12.7983 3.64195 12.675 3.8151L12.1037 4.61426C12.0524 4.6858 12.022 4.77023 12.0159 4.85808C12.0099 4.94593 12.0285 5.03373 12.0695 5.11163C12.2101 5.38011 12.3283 5.6654 12.4207 5.95975C12.4746 6.13143 12.6183 6.25661 12.7952 6.28646L13.7643 6.45091L13.7651 6.45103C13.9741 6.48618 14.124 6.66354 14.121 6.87287L14.121 8.12095Z" fill="black"/>
<path d="M7.5 5C6.12151 5 5 6.12148 5 7.5C5 8.87852 6.12151 10 7.5 10C8.87849 10 10 8.87849 10 7.5C10 6.12151 8.87849 5 7.5 5ZM7.5 9.24659C6.53694 9.24659 5.75341 8.46304 5.75341 7.5C5.75341 6.53696 6.53696 5.75341 7.5 5.75341C8.46304 5.75341 9.24659 6.53696 9.24659 7.5C9.24659 8.46304 8.46304 9.24659 7.5 9.24659Z" fill="black"/>
</svg>
