<?xml version="1.0" encoding="UTF-8"?>
<svg xmlns="http://www.w3.org/2000/svg" viewBox="0 0 69.62 106.53">
  <g style="isolation: isolate;">
    <g id="Layer_2" data-name="Layer 2">
      <g id="Layer_1-2" data-name="Layer 1">
        <g>
          <path d="M1.3,74.89V30.84l-.51,.29s-.01,.09-.04,.14c-.03,.05-.06,.08-.1,.11-.04,.02-.08,.03-.1,.01-.03-.02-.04-.05-.04-.1l-.51,.29v22.05s0,0,0,0v44.05s.51-.29,.51-.29H.51s.02-.1,.04-.14c.05-.09,.15-.15,.21-.12,.03,.02,.04,.05,.04,.09H.8l.51-.29v-22.05h0Zm-.65,15.25c-.08,.04-.14,0-.14-.08,0-.09,.06-.21,.14-.25,.08-.05,.14,0,.14,.08s-.07,.21-.14,.25Zm.14,.42c0,.09-.07,.21-.14,.25-.08,.04-.14,0-.14-.09,0-.09,.06-.2,.14-.25,.08-.04,.14,0,.14,.08Zm-.14-1.08c-.08,.04-.14,0-.14-.09s.06-.2,.14-.25c.08-.05,.14,0,.14,.08s-.07,.21-.14,.25Zm0-.67c-.08,.04-.14,0-.14-.08,0-.09,.06-.21,.14-.25,.08-.05,.14,0,.14,.09s-.07,.2-.14,.25Zm0-.67c-.08,.05-.14,0-.14-.08,0-.09,.06-.21,.14-.25,.08-.04,.14,0,.14,.09s-.07,.2-.14,.25Zm0-.67c-.08,.04-.14,0-.14-.08s.06-.21,.14-.25c.08-.05,.14,0,.14,.08s-.07,.2-.14,.25Zm0-.67c-.08,.05-.14,0-.14-.08,0-.09,.06-.21,.14-.25,.08-.05,.14,0,.14,.08s-.07,.2-.14,.25Zm0-.67c-.08,.05-.14,0-.14-.08,0-.09,.06-.21,.14-.25,.08-.05,.14,0,.14,.09s-.07,.2-.14,.25Zm0-.67c-.08,.04-.14,0-.14-.08s.06-.2,.14-.25c.08-.05,.14,0,.14,.08s-.07,.2-.14,.25Zm0-.67c-.08,.05-.14,0-.14-.08s.06-.21,.14-.25c.08-.05,.14,0,.14,.09,0,.09-.07,.2-.14,.25Zm0-.67c-.08,.04-.14,0-.14-.08s.06-.21,.14-.25c.08-.05,.14-.01,.14,.08s-.07,.2-.14,.25Zm-.14-.75c0-.09,.06-.2,.14-.25,.08-.04,.14,0,.14,.08s-.07,.21-.14,.25c-.08,.04-.14,0-.14-.08Zm.14-.58c-.08,.04-.14,0-.14-.08s.06-.21,.14-.25c.08-.05,.14,0,.14,.08s-.07,.21-.14,.25Zm-.14-.75c0-.09,.06-.2,.14-.25,.08-.04,.14,0,.14,.08s-.07,.21-.14,.25c-.08,.04-.14,0-.14-.09Zm.14-.58c-.08,.04-.14,0-.14-.08s.06-.21,.14-.25c.08-.05,.14,0,.14,.08s-.07,.21-.14,.25Zm0-4.34c.08-.05,.14,0,.14,.08s-.07,.2-.14,.25c-.08,.05-.14,0-.14-.08s.06-.2,.14-.25Zm-.14-.42c0-.09,.06-.2,.14-.25,.08-.04,.14,0,.14,.08s-.07,.21-.14,.25c-.08,.05-.14,0-.14-.09Zm.14,1.09c.08-.05,.14,0,.14,.08s-.07,.2-.14,.25c-.08,.05-.14,.01-.14-.08s.06-.2,.14-.25Zm0,.67c.08-.05,.14,0,.14,.08s-.07,.21-.14,.25c-.08,.05-.14,0-.14-.08s.06-.21,.14-.25Zm0,.67c.08-.05,.14,0,.14,.08s-.07,.21-.14,.25c-.08,.05-.14,0-.14-.08s.06-.2,.14-.25Zm0,.66c.08-.04,.14,0,.14,.09s-.07,.2-.14,.25c-.08,.04-.14,0-.14-.08s.06-.21,.14-.25Zm0,.67c.08-.05,.14,0,.14,.08s-.07,.2-.14,.25c-.08,.04-.14,0-.14-.08,0-.1,.06-.21,.14-.25ZM.65,45.74c.08-.05,.14,0,.14,.08s-.07,.2-.14,.25c-.08,.04-.14,0-.14-.08s.06-.2,.14-.25Zm-.14-.42c0-.09,.06-.2,.14-.25,.08-.04,.14,0,.14,.08s-.07,.2-.14,.25c-.08,.05-.14,0-.14-.09Zm.14,1.09c.08-.05,.14,0,.14,.08s-.07,.21-.14,.25c-.08,.05-.14,0-.14-.08s.06-.2,.14-.25Zm0,.67c.08-.05,.14,0,.14,.08s-.07,.2-.14,.25c-.08,.04-.14,0-.14-.08s.06-.21,.14-.25Zm0,.67c.08-.04,.14,0,.14,.09s-.07,.2-.14,.25c-.08,.05-.14,0-.14-.08s.06-.2,.14-.25Zm0,.67c.08-.05,.14,0,.14,.08,0,.09-.07,.2-.14,.25-.08,.05-.14,.01-.14-.08s.06-.21,.14-.25Zm0,.67c.08-.04,.14,0,.14,.08s-.07,.21-.14,.25c-.08,.04-.14,0-.14-.08s.06-.21,.14-.25Zm0,.67c.08-.04,.14,0,.14,.09s-.07,.2-.14,.25c-.08,.05-.14,0-.14-.08s.06-.21,.14-.25Zm0,.67c.08-.04,.14,0,.14,.08,0,.09-.06,.21-.14,.25-.08,.05-.14,0-.14-.08s.06-.21,.14-.25Zm0,.67c.08-.04,.14,0,.14,.09,0,.09-.07,.2-.14,.25-.08,.04-.14,0-.14-.08,0-.1,.06-.21,.14-.25Zm0,.67c.08-.04,.14,0,.14,.08s-.07,.21-.14,.25c-.08,.04-.14,0-.14-.08s.06-.21,.14-.25Zm0,.67c.08-.05,.14,0,.14,.08s-.07,.21-.14,.25c-.08,.05-.14,0-.14-.08s.06-.21,.14-.25Zm0,7.68c-.08,.04-.14,0-.14-.07,0-.09,.07-.2,.14-.24s.14,0,.14,.07c0,.09-.07,.19-.14,.24Zm0-.67c-.08,.04-.14,0-.14-.07,0-.09,.07-.19,.14-.24,.08-.04,.14-.01,.14,.07,0,.09-.07,.19-.14,.24Zm0,10.68c-.08,.04-.14,.01-.14-.07,0-.09,.07-.19,.14-.23,.08-.04,.14,0,.14,.07,0,.09-.07,.19-.14,.23Zm0-.67c-.08,.04-.14,.01-.14-.07,0-.09,.07-.19,.14-.23,.08-.05,.14-.01,.14,.07,0,.09-.07,.19-.14,.23Zm0-.67c-.08,.04-.14,.01-.14-.07,0-.09,.07-.19,.14-.24,.08-.04,.14,0,.14,.07,0,.09-.07,.19-.14,.23Zm0-.67c-.08,.04-.14,0-.14-.07,0-.09,.07-.2,.14-.24s.14,0,.14,.07c0,.09-.07,.19-.14,.24Zm0-.67c-.08,.05-.14,.01-.14-.07,0-.09,.07-.19,.14-.24s.14,0,.14,.07c0,.09-.07,.19-.14,.23Zm0-.67c-.08,.04-.14,0-.14-.07,0-.09,.07-.19,.14-.23,.08-.04,.14,0,.14,.07,0,.09-.07,.19-.14,.24Zm0-.67c-.08,.04-.14,0-.14-.07,0-.09,.07-.19,.14-.23,.07-.04,.14-.01,.14,.07,0,.09-.07,.19-.14,.24Zm0-.67c-.08,.05-.14,0-.14-.07,0-.09,.07-.19,.14-.24,.08-.04,.14,0,.14,.07,0,.09-.07,.19-.14,.23Zm0-.67c-.08,.04-.14,.01-.14-.07,0-.09,.07-.19,.14-.24,.07-.04,.14,0,.14,.07,0,.09-.07,.19-.14,.23Zm0-.67c-.08,.04-.14,0-.14-.07,0-.09,.07-.19,.14-.24,.08-.04,.14,0,.14,.08,0,.09-.07,.19-.14,.23Zm0-.67c-.08,.04-.14,.01-.14-.07,0-.09,.07-.19,.14-.24,.07-.04,.14-.01,.14,.07,0,.09-.07,.19-.14,.24Zm0-.67c-.08,.05-.14,.01-.14-.07,0-.09,.07-.19,.14-.24,.08-.04,.14,0,.14,.07,0,.09-.07,.19-.14,.23Zm0-.67c-.08,.04-.14,0-.14-.07,0-.09,.07-.19,.14-.23,.07-.04,.14-.01,.14,.07,0,.09-.07,.19-.14,.24Zm0,9.03c.08-.04,.14,0,.14,.07,0,.09-.07,.19-.14,.23-.08,.05-.14,.01-.14-.07,0-.09,.07-.19,.14-.24Zm0,1.34c.08-.04,.14,0,.14,.07,0,.09-.07,.2-.14,.24-.08,.04-.14,0-.14-.07,0-.09,.07-.19,.14-.24Zm0,.97c-.08,.04-.14,.01-.14-.07,0-.09,.07-.19,.14-.24,.08-.04,.14,0,.14,.07,0,.09-.07,.19-.14,.23Zm0-20.02c-.08,.04-.14,0-.14-.08s.06-.21,.14-.25c.08-.05,.14,0,.14,.08s-.07,.2-.14,.25Zm0,.36c.08-.04,.14,0,.14,.07,0,.09-.07,.19-.14,.23-.08,.04-.14,.01-.14-.07,0-.09,.07-.19,.14-.23Zm0,.67c.07-.04,.14-.01,.14,.07,0,.09-.07,.19-.14,.23-.08,.04-.14,.01-.14-.07,0-.09,.07-.19,.14-.23Zm0,.66c.07-.04,.14,0,.14,.07,0,.09-.07,.19-.14,.24-.08,.04-.14,.01-.14-.07,0-.09,.07-.19,.14-.24Zm0,.67c.07-.04,.14-.01,.14,.07,0,.09-.07,.19-.14,.24-.08,.04-.14,.01-.14-.07,0-.09,.07-.19,.14-.23Zm0,.67c.08-.04,.14,0,.14,.07,0,.09-.07,.19-.14,.23-.08,.04-.14,0-.14-.07,0-.09,.07-.19,.14-.24Zm0,.67c.08-.04,.14-.01,.14,.07,0,.09-.07,.19-.14,.24-.08,.04-.14,0-.14-.07,0-.09,.07-.19,.14-.23Zm0,.67c.08-.04,.14,0,.14,.07,0,.09-.07,.19-.14,.24-.08,.04-.14,0-.14-.07,0-.09,.07-.19,.14-.23Zm0,.67c.08-.04,.14,0,.14,.07,0,.09-.07,.19-.14,.24-.08,.04-.14,0-.14-.07,0-.09,.07-.2,.14-.24Zm0,2c.08-.05,.14-.01,.14,.07,0,.09-.07,.19-.14,.23-.08,.04-.14,0-.14-.07,0-.09,.07-.19,.14-.23Zm0,.67c.08-.04,.14,0,.14,.07,0,.09-.07,.19-.14,.23-.08,.04-.14,.01-.14-.07,0-.09,.07-.19,.14-.24Zm0,14.02c.08-.04,.14,0,.14,.08s-.07,.21-.14,.25c-.08,.04-.14,0-.14-.08s.06-.21,.14-.25Zm0-.36c-.08,.05-.14,.01-.14-.07,0-.09,.07-.19,.14-.24,.08-.04,.14-.01,.14,.07,0,.09-.07,.19-.14,.23Zm0-.67c-.08,.04-.14,0-.14-.07,0-.09,.07-.2,.14-.24,.08-.04,.14,0,.14,.07,0,.09-.07,.2-.14,.24Zm0-2c-.08,.04-.14,.01-.14-.07,0-.09,.07-.19,.14-.23,.07-.04,.14-.01,.14,.07,0,.09-.07,.19-.14,.23Zm0-1.34c-.08,.04-.14,.01-.14-.07,0-.09,.07-.19,.14-.23,.08-.04,.14-.01,.14,.07,0,.09-.07,.19-.14,.23Zm0-26.03c-.08,.05-.14,0-.14-.08s.06-.21,.14-.25c.08-.05,.14,0,.14,.08,0,.09-.07,.21-.14,.25Zm0-4.34c.08-.04,.14,0,.14,.08s-.06,.21-.14,.25c-.08,.04-.14,0-.14-.08s.06-.21,.14-.25Zm-.14-.41c0-.1,.06-.21,.14-.25,.08-.05,.14,0,.14,.08s-.06,.21-.14,.25c-.08,.04-.14,0-.14-.08Zm.14,1.08c.08-.05,.14,0,.14,.09,0,.09-.06,.2-.14,.25-.08,.04-.14,0-.14-.08,0-.1,.06-.21,.14-.25Zm0,.67c.08-.04,.14,0,.14,.08s-.06,.21-.14,.25c-.08,.04-.14,0-.14-.08s.06-.21,.14-.25Zm0,.67c.08-.05,.14,0,.14,.08s-.06,.21-.14,.25c-.08,.04-.14,0-.14-.08s.06-.21,.14-.25Zm0,.67c.08-.05,.14,0,.14,.08s-.06,.21-.14,.25c-.08,.05-.14,0-.14-.08s.06-.21,.14-.25Zm0,.67c.08-.04,.14-.01,.14,.08s-.06,.21-.14,.25c-.08,.04-.14,0-.14-.08,0-.1,.06-.21,.14-.25Zm0-6.01c.08-.04,.14,0,.14,.08s-.06,.21-.14,.25c-.08,.04-.14,0-.14-.08s.06-.21,.14-.25Zm-.14-.42c0-.09,.06-.2,.14-.25,.08-.05,.14,0,.14,.08s-.06,.21-.14,.25c-.08,.05-.14,0-.14-.08Zm.14-5.59c.08-.05,.14,0,.14,.08s-.06,.2-.14,.25c-.08,.05-.14,0-.14-.08s.06-.2,.14-.25Zm0,.67c.08-.04,.14,0,.14,.08s-.06,.21-.14,.25c-.08,.04-.14,0-.14-.08,0-.1,.06-.21,.14-.25Zm0,.67c.08-.04,.14,0,.14,.08s-.06,.21-.14,.25c-.08,.04-.14,0-.14-.09s.06-.2,.14-.25Zm0,.67c.08-.05,.14-.01,.14,.08,0,.09-.06,.2-.14,.25-.08,.04-.14,0-.14-.08s.06-.21,.14-.25Zm0,.67c.08-.04,.14,0,.14,.08s-.06,.21-.14,.25c-.08,.04-.14,0-.14-.08s.06-.21,.14-.25Zm0,.67c.08-.05,.14,0,.14,.08s-.06,.21-.14,.25c-.08,.04-.14,0-.14-.08s.06-.21,.14-.25Zm0,.67c.08-.05,.14,0,.14,.08,0,.1-.06,.21-.14,.25-.08,.05-.14,0-.14-.08s.06-.21,.14-.25Zm0,.67c.08-.04,.14,0,.14,.08s-.06,.2-.14,.25c-.08,.05-.14,0-.14-.08s.06-.2,.14-.25Zm0,2c.08-.05,.14,0,.14,.08s-.06,.2-.14,.25c-.08,.04-.14,0-.14-.08s.06-.21,.14-.25Zm0,.67c.08-.04,.14,0,.14,.08s-.06,.21-.14,.25c-.08,.05-.14,0-.14-.08s.06-.2,.14-.25Zm0,36.73c.08-.05,.14,0,.14,.08s-.07,.21-.14,.25c-.08,.05-.14,0-.14-.09s.06-.2,.14-.25Zm-.14,15.6c0-.09,.06-.21,.14-.25,.08-.05,.14,0,.14,.08s-.07,.21-.14,.25c-.08,.04-.14,0-.14-.08Zm.29,.5c0,.09-.07,.2-.14,.25-.08,.05-.14,0-.14-.08,0-.09,.06-.2,.14-.25,.08-.05,.14-.01,.14,.08Zm-.14,2.92c-.08,.05-.14,0-.14-.08s.06-.2,.14-.25c.08-.04,.14,0,.14,.09s-.07,.2-.14,.25Zm.14,.42c0,.09-.07,.21-.14,.25-.08,.05-.14,.01-.14-.08s.06-.2,.14-.25c.08-.04,.14,0,.14,.08Zm-.14,1.59c-.08,.05-.14,0-.14-.09s.06-.2,.14-.25c.08-.05,.14,0,.14,.08s-.07,.21-.14,.25Zm0-.67c-.08,.04-.14,0-.14-.08s.06-.2,.14-.25c.08-.05,.14,0,.14,.08s-.07,.2-.14,.25Zm0-2c-.08,.04-.14,0-.14-.08s.06-.21,.14-.25c.08-.05,.14,0,.14,.08s-.07,.21-.14,.25Zm-.14-.75c0-.09,.06-.2,.14-.25,.08-.04,.14,0,.14,.09s-.07,.2-.14,.25c-.08,.05-.14,0-.14-.08Zm.14-.58c-.08,.05-.14,.01-.14-.08,0-.09,.06-.21,.14-.25,.08-.05,.14-.01,.14,.08s-.07,.2-.14,.25Z" style="fill: #41cff6;"/>
          <polygon points="69.62 75.11 15.42 106.4 .48 97.78 54.68 66.48 69.62 75.11" style="fill: #e2e7e8; mix-blend-mode: multiply;"/>
          <path d="M69.55,9.14l-.5-.29s-.02,.08-.04,.09c-.03,.02-.07,.01-.1-.01-.04-.02-.08-.06-.1-.11-.03-.05-.04-.1-.04-.14l-.51-.29V52.43h0v22.05l.51,.29h0s.01-.08,.04-.09c.05-.03,.15,.02,.21,.12,.03,.05,.04,.1,.04,.15h0l.51,.29V31.19h0V9.14Zm-.65,42.51c-.08-.04-.14-.15-.14-.23,0-.08,.07-.12,.14-.07,.07,.05,.14,.15,.14,.24,0,.08-.07,.12-.14,.07Zm0-.67c-.08-.05-.14-.14-.14-.23,0-.08,.07-.12,.14-.07,.07,.04,.13,.14,.14,.23,0,.08-.07,.12-.14,.07Zm0-.67c-.08-.05-.14-.15-.14-.24,0-.08,.07-.12,.14-.07,.07,.05,.14,.15,.14,.24,0,.08-.07,.12-.14,.07Zm0-.67c-.08-.04-.14-.14-.14-.24,0-.08,.07-.12,.14-.07,.07,.04,.13,.14,.14,.23,0,.08-.07,.12-.14,.07Zm0-.67c-.08-.04-.14-.15-.14-.24,0-.08,.07-.12,.14-.07,.07,.04,.14,.15,.14,.24,0,.08-.07,.12-.14,.07Zm0-.67c-.08-.04-.14-.15-.14-.24,0-.08,.07-.12,.14-.07,.07,.04,.14,.15,.14,.24,0,.08-.07,.12-.14,.07Zm0-.67c-.08-.04-.14-.15-.14-.23,0-.08,.07-.12,.14-.07,.07,.04,.14,.15,.14,.24,0,.08-.07,.12-.14,.07Zm0-.67c-.08-.04-.14-.15-.14-.23,0-.08,.07-.12,.14-.07,.08,.04,.14,.15,.14,.23,0,.08-.07,.12-.14,.07Zm0-.67c-.08-.04-.14-.15-.14-.24,0-.08,.07-.12,.14-.07,.08,.04,.14,.15,.14,.24,0,.08-.07,.11-.14,.07Zm0-.67c-.08-.04-.14-.15-.14-.24,0-.08,.07-.12,.14-.07,.08,.04,.14,.15,.14,.23,0,.08-.07,.12-.14,.07Zm0-.67c-.08-.05-.14-.15-.14-.24,0-.09,.07-.12,.14-.07,.08,.04,.14,.15,.14,.24,0,.08-.07,.12-.14,.07Zm0-.67c-.08-.04-.14-.15-.14-.24,0-.08,.07-.12,.14-.07,.07,.04,.14,.15,.14,.23,0,.08-.07,.12-.14,.07Zm0-.67c-.08-.04-.14-.14-.14-.23,0-.09,.07-.12,.14-.07,.07,.04,.14,.14,.14,.23,0,.08-.07,.11-.14,.07Zm0-.67c-.08-.04-.14-.15-.14-.24,0-.08,.07-.12,.14-.07,.08,.04,.14,.15,.14,.24,0,.08-.07,.12-.14,.07Zm0-.67c-.08-.04-.14-.14-.14-.23,0-.08,.07-.12,.14-.07,.07,.04,.14,.15,.14,.24,0,.08-.07,.12-.14,.07Zm0-.67c-.08-.04-.14-.15-.14-.24,0-.08,.07-.12,.14-.07,.08,.05,.14,.15,.14,.24,0,.08-.07,.12-.14,.07Zm0-.67c-.08-.04-.14-.14-.14-.23,0-.08,.07-.12,.14-.07,.07,.05,.14,.15,.14,.24,0,.08-.07,.12-.14,.07Zm0-.67c-.08-.04-.14-.15-.14-.24,0-.08,.07-.12,.14-.07,.08,.05,.14,.15,.14,.24,0,.08-.07,.12-.14,.07Zm0-.67c-.08-.04-.14-.15-.14-.24,0-.08,.07-.12,.14-.07,.07,.05,.14,.15,.14,.24,0,.08-.07,.12-.14,.07Zm0-.67c-.08-.05-.14-.15-.14-.23,0-.08,.07-.12,.14-.07,.07,.04,.14,.15,.14,.23,0,.08-.07,.12-.14,.07Zm0-.67c-.08-.04-.14-.15-.14-.24,0-.08,.07-.12,.14-.07,.08,.04,.14,.15,.14,.24,0,.08-.07,.12-.14,.07Zm0-.97c.08,.04,.14,.15,.14,.23,0,.08-.07,.12-.14,.07-.08-.05-.14-.15-.14-.24,0-.08,.07-.12,.14-.07Zm0-.36c-.08-.04-.14-.15-.14-.23,0-.08,.07-.12,.14-.07,.08,.04,.14,.15,.14,.23,0,.08-.07,.12-.14,.07Zm0-.67c-.08-.04-.14-.14-.14-.24,0-.08,.07-.12,.14-.07,.08,.04,.14,.15,.14,.24,0,.08-.07,.11-.14,.07Zm0-.67c-.08-.04-.14-.15-.14-.24,0-.08,.07-.12,.14-.07,.07,.04,.14,.14,.14,.23,0,.08-.07,.12-.14,.07Zm0-.67c-.08-.04-.14-.14-.14-.23,0-.09,.07-.12,.14-.07,.08,.04,.14,.14,.14,.24,0,.08-.07,.12-.14,.07Zm0-.67c-.08-.04-.14-.15-.14-.24,0-.08,.07-.12,.14-.07,.08,.04,.14,.15,.14,.23,0,.08-.07,.12-.14,.07Zm0-.67c-.08-.04-.14-.14-.14-.23,0-.08,.07-.11,.14-.07,.07,.04,.14,.15,.14,.23,0,.08-.07,.12-.14,.07Zm0-.67c-.08-.04-.14-.15-.14-.24,0-.08,.07-.12,.14-.07,.08,.04,.14,.15,.14,.23,0,.08-.07,.12-.14,.07Zm0-.67c-.08-.04-.14-.14-.14-.23,0-.08,.07-.12,.14-.07,.07,.05,.14,.14,.14,.23,0,.08-.07,.12-.14,.07Zm0,19.72c.07,.04,.14,.14,.14,.23,0,.08-.07,.12-.14,.07-.08-.04-.14-.15-.14-.24,0-.08,.07-.12,.14-.07Zm0-20.38c-.08-.04-.14-.15-.14-.23,0-.08,.07-.12,.14-.07,.08,.04,.14,.15,.14,.23,0,.09-.07,.12-.14,.07Zm0,21.05c.08,.04,.14,.16,.14,.25,0,.09-.07,.13-.14,.08-.08-.04-.14-.16-.14-.25s.06-.13,.14-.08Zm0-43.41c.08,.05,.14,.16,.14,.25s-.07,.13-.14,.08c-.08-.05-.14-.16-.14-.25s.07-.13,.14-.09Zm0,.67c.08,.04,.14,.16,.14,.25s-.07,.13-.14,.08c-.08-.05-.14-.16-.14-.25s.07-.13,.14-.08Zm0,.67c.08,.04,.14,.16,.14,.25s-.07,.13-.14,.08c-.08-.04-.14-.16-.14-.25s.07-.13,.14-.08Zm0,.67c.08,.05,.14,.16,.14,.25s-.07,.13-.14,.08c-.08-.04-.14-.16-.14-.25s.07-.13,.14-.08Zm0,.67c.08,.05,.14,.16,.14,.25s-.07,.13-.14,.09c-.08-.05-.14-.16-.14-.25s.06-.13,.14-.08Zm0,.67c.08,.05,.14,.16,.14,.25s-.07,.13-.14,.08c-.08-.05-.14-.16-.14-.25s.06-.13,.14-.08Zm0,.66c.08,.05,.14,.16,.14,.25s-.07,.13-.14,.08c-.08-.05-.14-.16-.14-.25s.06-.13,.14-.08Zm0,.67c.08,.05,.14,.16,.14,.25s-.07,.13-.14,.08c-.08-.05-.14-.16-.14-.25s.06-.13,.14-.08Zm0,.66c.08,.05,.14,.16,.14,.25s-.07,.13-.14,.09c-.08-.05-.14-.16-.14-.25s.06-.13,.14-.08Zm0,.67c.08,.05,.14,.16,.14,.25s-.07,.13-.14,.08c-.08-.04-.14-.16-.14-.25s.06-.13,.14-.08Zm0,.67c.08,.05,.14,.16,.14,.25s-.07,.13-.14,.08c-.08-.04-.14-.16-.14-.25s.06-.13,.14-.08Zm0,.67c.08,.05,.14,.16,.14,.25s-.07,.13-.14,.08c-.08-.05-.14-.16-.14-.25s.06-.13,.14-.09Zm0,.67c.08,.04,.14,.16,.14,.25s-.07,.13-.14,.09c-.08-.04-.14-.16-.14-.25s.06-.13,.14-.08Zm0,.67c.08,.04,.14,.16,.14,.25s-.07,.13-.14,.08c-.08-.04-.14-.16-.14-.25s.06-.13,.14-.08Zm0,.67c.08,.05,.14,.16,.14,.25s-.07,.13-.14,.08c-.08-.05-.14-.16-.14-.25s.06-.13,.14-.08Zm0,.67c.08,.05,.14,.16,.14,.25s-.07,.13-.14,.08c-.08-.04-.14-.16-.14-.25,0-.09,.06-.13,.14-.08Zm0,.67c.08,.04,.14,.15,.14,.25s-.07,.13-.14,.08c-.08-.05-.14-.16-.14-.25s.06-.13,.14-.08Zm0,.66c.08,.05,.14,.16,.14,.25s-.07,.13-.14,.08c-.08-.05-.14-.16-.14-.25,0-.09,.06-.13,.14-.08Zm0,.67c.08,.04,.14,.16,.14,.25s-.07,.13-.14,.08c-.08-.05-.14-.16-.14-.25s.06-.13,.14-.08Zm0,.67c.08,.05,.14,.16,.14,.25s-.07,.13-.14,.08c-.08-.05-.14-.16-.14-.25s.06-.13,.14-.08Zm0,.67c.08,.04,.14,.15,.14,.25s-.07,.13-.14,.08c-.08-.05-.14-.16-.14-.25s.06-.13,.14-.08Zm0,.67c.08,.04,.14,.16,.14,.25,0,.1-.07,.13-.14,.09-.08-.04-.14-.16-.14-.25s.06-.13,.14-.08Zm0,.67c.08,.04,.14,.16,.14,.25s-.07,.13-.14,.08c-.08-.05-.14-.16-.14-.25s.06-.13,.14-.09Zm0,.67c.08,.05,.14,.16,.14,.25s-.07,.13-.14,.08c-.08-.04-.14-.16-.14-.25s.06-.13,.14-.08Zm0,.67c.08,.05,.14,.16,.14,.25s-.07,.13-.14,.08c-.08-.04-.14-.16-.14-.25s.06-.13,.14-.09Zm0,.67c.08,.05,.14,.16,.14,.25s-.07,.13-.14,.08c-.08-.04-.14-.16-.14-.25s.06-.13,.14-.09Zm0,.67c.08,.05,.14,.16,.14,.25,0,.09-.07,.13-.14,.08-.08-.05-.14-.16-.14-.25s.06-.13,.14-.08Zm0,.67c.08,.04,.14,.16,.14,.25,0,.09-.07,.13-.14,.08-.08-.04-.14-.16-.14-.25s.06-.13,.14-.08Zm.14,.92c0,.09-.07,.13-.14,.08-.08-.05-.14-.16-.14-.25,0-.09,.06-.13,.14-.08,.08,.05,.14,.16,.14,.25Zm-.14,.42c.08,.04,.14,.16,.14,.25,0,.09-.07,.13-.14,.09-.08-.05-.14-.16-.14-.25s.06-.13,.14-.08Zm0,.67c.08,.05,.14,.16,.14,.25,0,.09-.07,.13-.14,.08-.08-.05-.14-.16-.14-.25s.06-.13,.14-.08Zm0,.67c.08,.04,.14,.15,.14,.25s-.07,.13-.14,.08c-.08-.05-.14-.16-.14-.25s.06-.13,.14-.08Zm0,.66c.08,.04,.14,.16,.14,.25,0,.09-.07,.13-.14,.08-.08-.04-.14-.16-.14-.25s.06-.13,.14-.08Zm0,43.74c-.08-.05-.14-.16-.14-.25s.06-.13,.14-.08c.08,.04,.14,.16,.14,.25s-.07,.13-.14,.08Zm0-.67c-.08-.04-.14-.16-.14-.25s.06-.13,.14-.08c.08,.05,.14,.16,.14,.25s-.07,.13-.14,.08Zm0-.67c-.08-.04-.14-.16-.14-.25s.06-.13,.14-.08c.08,.05,.14,.16,.14,.25s-.07,.13-.14,.08Zm0-.66c-.08-.04-.14-.16-.14-.25s.06-.13,.14-.08c.08,.05,.14,.16,.14,.25s-.07,.13-.14,.09Zm0-.67c-.08-.04-.14-.16-.14-.25s.06-.13,.14-.08c.08,.05,.14,.16,.14,.25s-.07,.13-.14,.08Zm0-.67c-.08-.04-.14-.16-.14-.25s.06-.13,.14-.08c.08,.04,.14,.16,.14,.25s-.07,.13-.14,.08Zm0-.67c-.08-.05-.14-.16-.14-.25s.06-.13,.14-.08c.08,.05,.14,.16,.14,.25s-.07,.13-.14,.08Zm0-.67c-.08-.05-.14-.16-.14-.25s.06-.13,.14-.08c.08,.05,.14,.16,.14,.25s-.07,.13-.14,.08Zm0-.67c-.08-.04-.14-.16-.14-.25s.06-.13,.14-.08c.08,.04,.14,.16,.14,.25s-.07,.13-.14,.08Zm0-.66c-.08-.05-.14-.16-.14-.25s.06-.13,.14-.08c.08,.05,.14,.16,.14,.25s-.07,.13-.14,.09Zm0-.67c-.08-.04-.14-.16-.14-.25s.06-.13,.14-.08c.08,.04,.14,.16,.14,.25s-.07,.13-.14,.08Zm0-.67c-.08-.04-.14-.16-.14-.25s.06-.13,.14-.08c.08,.04,.14,.16,.14,.25s-.07,.13-.14,.08Zm-.14-.92c0-.09,.06-.13,.14-.08,.08,.05,.14,.16,.14,.25s-.07,.13-.14,.08c-.08-.05-.14-.16-.14-.25Zm.14-.42c-.08-.04-.14-.16-.14-.25s.06-.13,.14-.09c.08,.05,.14,.16,.14,.25s-.07,.13-.14,.08Zm0-.66c-.08-.04-.14-.16-.14-.25s.06-.13,.14-.08c.08,.05,.14,.16,.14,.25s-.07,.13-.14,.08Zm0-.67c-.08-.04-.14-.16-.14-.25s.06-.13,.14-.09c.08,.05,.14,.16,.14,.25s-.07,.13-.14,.08Zm0-.66c-.08-.05-.14-.16-.14-.25s.06-.13,.14-.08c.08,.05,.14,.16,.14,.25s-.07,.13-.14,.09Zm0-.67c-.08-.04-.14-.16-.14-.25s.06-.13,.14-.08c.08,.05,.14,.16,.14,.25s-.07,.13-.14,.08Zm0-.67c-.08-.05-.14-.16-.14-.25s.06-.13,.14-.08c.08,.05,.14,.16,.14,.25s-.07,.13-.14,.08Zm0-.67c-.08-.04-.14-.16-.14-.25s.06-.13,.14-.08c.08,.04,.14,.16,.14,.25s-.07,.13-.14,.08Zm0-.66c-.08-.05-.14-.16-.14-.25s.06-.13,.14-.08c.08,.05,.14,.16,.14,.25s-.07,.13-.14,.08Zm0-.67c-.08-.04-.14-.16-.14-.25s.06-.13,.14-.08c.08,.04,.14,.16,.14,.25s-.07,.13-.14,.08Zm0-.67c-.08-.04-.14-.16-.14-.25s.06-.13,.14-.08c.08,.04,.14,.16,.14,.25s-.07,.13-.14,.08Zm0-.67c-.08-.04-.14-.16-.14-.25s.06-.13,.14-.08c.08,.05,.14,.16,.14,.25s-.07,.13-.14,.08Zm0-.67c-.08-.04-.14-.16-.14-.25s.06-.13,.14-.08c.08,.04,.14,.16,.14,.25s-.07,.13-.14,.08Zm0-.67c-.08-.05-.14-.16-.14-.25s.06-.13,.14-.08c.08,.05,.14,.16,.14,.25s-.07,.13-.14,.08Zm0-.67c-.08-.04-.14-.16-.14-.25s.06-.13,.14-.08c.08,.04,.14,.16,.14,.25s-.07,.13-.14,.08Zm0-.67c-.08-.05-.14-.16-.14-.25s.06-.13,.14-.09c.08,.05,.14,.16,.14,.25s-.07,.13-.14,.08Zm0-.67c-.08-.04-.14-.15-.14-.25s.06-.13,.14-.08c.08,.04,.14,.16,.14,.25,0,.09-.07,.13-.14,.08Zm0-.66c-.08-.05-.14-.16-.14-.25s.06-.13,.14-.09c.08,.05,.14,.16,.14,.25s-.07,.13-.14,.09Zm0-.67c-.08-.05-.14-.16-.14-.25,0-.09,.06-.13,.14-.08,.08,.04,.14,.16,.14,.25,0,.1-.07,.13-.14,.09Zm0-.67c-.08-.05-.14-.16-.14-.25s.06-.13,.14-.08c.08,.04,.14,.16,.14,.25s-.07,.13-.14,.08Z" style="fill: #01b2e8;"/>
          <path d="M54.48,44.97V.93l-.51,.29s-.01,.1-.04,.14c-.03,.05-.06,.09-.1,.11-.04,.02-.08,.03-.1,0-.03-.01-.04-.05-.04-.09l-.51,.29V23.72h0v44.05l.51-.29h0s.02-.1,.04-.14c.05-.1,.15-.15,.21-.12,.03,.02,.04,.05,.04,.09h0l.5-.29v-22.05h0Zm-.65,15.25c-.08,.05-.15,0-.15-.08s.07-.2,.15-.25c.08-.05,.14,0,.14,.08s-.07,.21-.14,.25Zm.14,.42c0,.09-.07,.2-.14,.25-.08,.05-.15,.01-.15-.08s.07-.2,.15-.25c.08-.05,.14,0,.14,.08Zm-.14-1.08c-.08,.04-.15,0-.15-.09s.07-.2,.15-.25c.08-.05,.14,0,.14,.08s-.07,.21-.14,.25Zm0-.67c-.08,.04-.15,0-.15-.08s.07-.21,.15-.25c.08-.05,.14,0,.14,.08s-.07,.21-.14,.25Zm0-.67c-.08,.05-.15,.01-.15-.08s.07-.2,.15-.25c.08-.04,.14,0,.14,.08s-.07,.2-.14,.25Zm0-.67c-.08,.05-.15,0-.15-.08s.07-.21,.15-.25c.08-.05,.14,0,.14,.09s-.07,.2-.14,.25Zm0-.67c-.08,.05-.15,0-.15-.08s.06-.2,.15-.25c.08-.04,.14,0,.14,.08s-.07,.21-.14,.25Zm0-.67c-.08,.04-.15,0-.15-.08s.07-.21,.15-.25c.08-.05,.14,0,.14,.08s-.07,.2-.14,.25Zm0-.67c-.08,.05-.15,0-.15-.08s.06-.21,.15-.25c.08-.04,.14,0,.14,.08,0,.1-.07,.21-.14,.25Zm0-.67c-.08,.05-.15,0-.15-.08s.06-.2,.15-.25c.08-.05,.14-.01,.14,.08s-.07,.21-.14,.25Zm0-.67c-.08,.05-.15,0-.15-.08s.06-.2,.15-.25c.08-.04,.14,0,.14,.08s-.07,.2-.14,.25Zm-.15-.75c0-.09,.06-.2,.15-.25,.08-.05,.14,0,.14,.09s-.07,.2-.14,.25c-.08,.05-.15,0-.15-.08Zm.15-.58c-.08,.05-.15,0-.15-.08s.06-.2,.15-.25c.08-.05,.14,0,.14,.08s-.07,.2-.14,.25Zm-.15-.75c0-.09,.06-.2,.15-.25,.08-.04,.14,0,.14,.08s-.07,.2-.14,.25c-.08,.05-.15,0-.15-.08Zm.15-.58c-.08,.04-.15,0-.15-.08s.06-.21,.15-.25c.08-.05,.14,0,.14,.08s-.07,.2-.14,.25Zm0-4.34c.08-.05,.14,0,.14,.08,0,.1-.07,.21-.14,.25-.08,.04-.15,0-.15-.08s.06-.21,.15-.25Zm-.15-.42c0-.09,.06-.2,.15-.25,.08-.04,.14,0,.14,.08,0,.1-.07,.2-.14,.25-.08,.04-.15,0-.15-.08Zm.15,1.08c.08-.04,.14,0,.14,.08,0,.1-.07,.21-.14,.25-.08,.05-.15,0-.15-.08s.06-.2,.15-.25Zm0,.67c.08-.05,.14,0,.14,.08s-.07,.2-.14,.25c-.08,.05-.15,0-.15-.08s.06-.21,.15-.25Zm0,.67c.08-.05,.14,0,.14,.08s-.07,.21-.14,.25c-.08,.05-.15,0-.15-.08s.06-.2,.15-.25Zm0,.67c.08-.05,.14,0,.14,.08s-.07,.2-.14,.25c-.08,.04-.15,0-.15-.08s.06-.21,.15-.25Zm0,.67c.08-.04,.14,0,.14,.08s-.07,.21-.14,.25c-.08,.04-.15,0-.15-.09s.06-.2,.15-.25Zm0-34.73c.08-.05,.14,0,.14,.08s-.07,.2-.14,.25c-.08,.04-.15,0-.15-.08s.06-.21,.15-.25Zm-.15-.42c0-.09,.06-.21,.15-.25,.08-.05,.14-.01,.14,.08s-.07,.21-.14,.25c-.08,.05-.15,0-.15-.08Zm.15,1.09c.08-.05,.14,0,.14,.08s-.07,.21-.14,.25c-.08,.04-.15,0-.15-.08,0-.1,.06-.21,.15-.25Zm0,.66c.08-.05,.14,0,.14,.09s-.07,.2-.14,.25c-.08,.04-.15,0-.15-.08s.06-.21,.15-.25Zm0,.67c.08-.05,.14,0,.14,.08s-.07,.21-.14,.25c-.08,.04-.15,0-.15-.08s.06-.21,.15-.25Zm0,.67c.08-.05,.14,0,.14,.08,0,.1-.07,.21-.14,.25-.08,.05-.15,.01-.15-.08s.06-.21,.15-.25Zm0,.67c.08-.05,.14,0,.14,.08s-.07,.21-.14,.25c-.08,.05-.15,0-.15-.08s.06-.2,.15-.25Zm0,.67c.08-.05,.14-.01,.14,.08s-.07,.2-.14,.25c-.08,.05-.15,.01-.15-.08s.06-.2,.15-.25Zm0,.67c.08-.05,.14,0,.14,.08s-.07,.2-.14,.25c-.08,.05-.15,0-.15-.08s.06-.2,.15-.25Zm0,.67c.08-.04,.14,0,.14,.08s-.07,.21-.14,.25c-.08,.05-.15,0-.15-.08s.06-.21,.15-.25Zm0,.67c.08-.05,.14,0,.14,.08s-.07,.2-.14,.25c-.08,.04-.15,0-.15-.08s.06-.2,.15-.25Zm0,.67c.08-.04,.14,0,.14,.08s-.07,.21-.14,.25c-.08,.05-.15,.01-.15-.08s.06-.2,.15-.25Zm0,7.68c-.08,.05-.14,.01-.14-.07,0-.09,.07-.19,.14-.23,.08-.04,.14-.01,.14,.07,0,.09-.07,.2-.14,.24Zm0-.67c-.08,.04-.14,.01-.14-.07,0-.09,.07-.19,.14-.23,.08-.05,.14-.01,.14,.07,0,.09-.07,.19-.14,.23Zm0,10.68c-.08,.04-.14,0-.14-.07,0-.09,.07-.19,.14-.24,.08-.04,.14,0,.14,.07,0,.09-.07,.19-.14,.24Zm0-.67c-.08,.04-.14,0-.14-.07,0-.09,.07-.19,.14-.23,.08-.04,.14-.01,.14,.07,0,.09-.07,.19-.14,.24Zm0-.67c-.08,.04-.14,.01-.14-.07,0-.09,.07-.19,.14-.23,.08-.05,.14-.01,.14,.07,0,.09-.07,.2-.14,.24Zm0-.67c-.08,.04-.14,.01-.14-.07,0-.09,.07-.19,.14-.23,.08-.04,.14-.01,.14,.07,0,.09-.07,.19-.14,.23Zm0-.67c-.08,.04-.14,.01-.14-.07,0-.09,.07-.19,.14-.23,.08-.04,.14-.01,.14,.07,0,.09-.07,.19-.14,.24Zm0-.67c-.08,.04-.14,0-.14-.07,0-.09,.07-.19,.14-.23,.08-.04,.14-.01,.14,.07,0,.09-.07,.19-.14,.23Zm0-.67c-.08,.05-.14,.01-.14-.07,0-.09,.07-.19,.14-.24,.08-.04,.14-.01,.14,.07,0,.09-.07,.19-.14,.23Zm0-.66c-.08,.04-.14,0-.14-.07,0-.09,.07-.19,.14-.24,.08-.04,.14,0,.14,.07,0,.09-.07,.19-.14,.24Zm0-.67c-.08,.04-.14,.01-.14-.07,0-.09,.07-.19,.14-.24,.08-.04,.14-.01,.14,.07,0,.09-.07,.19-.14,.23Zm0-.67c-.08,.04-.14,0-.14-.07,0-.09,.07-.2,.14-.24,.08-.05,.14,0,.14,.07,0,.09-.07,.19-.14,.24Zm0-.67c-.08,.05-.14,.02-.14-.07,0-.09,.07-.19,.14-.24,.08-.04,.14,0,.14,.07,0,.09-.07,.19-.14,.23Zm0-.66c-.08,.04-.14,.01-.14-.07,0-.09,.07-.19,.14-.24,.08-.04,.14,0,.14,.07,0,.09-.07,.19-.14,.24Zm0-.67c-.08,.05-.14,0-.14-.07,0-.09,.07-.19,.14-.24,.08-.04,.14-.01,.14,.07,0,.09-.07,.19-.14,.24Zm0,9.04c.08-.04,.14,0,.14,.07,0,.09-.07,.2-.14,.24-.08,.04-.14,0-.14-.07,0-.09,.07-.19,.14-.24Zm0,1.34c.08-.05,.14-.01,.14,.07,0,.09-.07,.19-.14,.24-.08,.04-.14,0-.14-.08,0-.09,.07-.19,.14-.23Zm0,.97c-.08,.04-.14,.01-.14-.07,0-.09,.07-.19,.14-.23,.08-.04,.14-.01,.14,.07,0,.09-.07,.19-.14,.23Zm0-20.02c-.08,.05-.15,0-.15-.08s.06-.2,.15-.25c.08-.05,.14,0,.14,.08s-.07,.2-.14,.25Zm0,.36c.08-.04,.14,0,.14,.07,0,.09-.07,.19-.14,.23-.08,.05-.14,.01-.14-.07,0-.09,.07-.19,.14-.24Zm0,.67c.07-.04,.13,0,.14,.07,0,.09-.07,.19-.14,.23-.08,.05-.14,.01-.14-.07,0-.09,.07-.19,.14-.24Zm0,.67c.08-.05,.14-.01,.14,.07,0,.09-.07,.19-.14,.23-.08,.04-.14,.01-.14-.07,0-.09,.07-.19,.14-.23Zm0,.67c.07-.04,.13-.01,.14,.07,0,.09-.07,.19-.14,.23-.08,.04-.14,.01-.14-.07,0-.09,.07-.19,.14-.24Zm0,.67c.08-.04,.14,0,.14,.07,0,.09-.07,.19-.14,.24-.08,.04-.14,0-.14-.07,0-.09,.07-.19,.14-.23Zm0,.67c.08-.04,.14,0,.14,.07,0,.09-.07,.19-.14,.24-.08,.04-.14,0-.14-.07,0-.09,.07-.19,.14-.24Zm0,.67c.08-.04,.14-.01,.14,.07,0,.09-.07,.19-.14,.24-.08,.04-.14,0-.14-.07,0-.09,.07-.19,.14-.23Zm0,.67c.08-.05,.14-.01,.14,.07,0,.09-.07,.19-.14,.24-.08,.04-.14,.01-.14-.07,0-.09,.07-.19,.14-.24Zm0,2c.08-.04,.14-.01,.14,.07,0,.09-.07,.19-.14,.24-.08,.04-.14,0-.14-.07,0-.09,.07-.19,.14-.23Zm0,.67c.08-.04,.14,0,.14,.07,0,.09-.07,.19-.14,.23-.08,.05-.14,.01-.14-.07,0-.09,.07-.19,.14-.24Zm0,14.01c.08-.04,.14,0,.14,.08s-.07,.21-.14,.25c-.08,.05-.15,0-.15-.08s.06-.2,.15-.25Zm0-.36c-.08,.04-.14,.01-.14-.07,0-.09,.07-.19,.14-.24,.08-.04,.14-.01,.14,.07,0,.09-.07,.19-.14,.23Zm0-.67c-.08,.04-.14,0-.14-.07,0-.09,.07-.19,.14-.24,.08-.04,.14-.01,.14,.07,0,.09-.07,.19-.14,.24Zm0-2.01c-.08,.04-.14,.01-.14-.07,0-.09,.07-.19,.14-.23,.08-.04,.14-.01,.14,.07,0,.09-.07,.19-.14,.23Zm0-1.34c-.08,.04-.14,.01-.14-.07,0-.09,.07-.19,.14-.24,.08-.04,.14,0,.14,.07,0,.09-.07,.19-.14,.23Zm0-26.03c-.08,.04-.15,0-.15-.08s.06-.2,.15-.25c.08-.05,.14,0,.14,.09,0,.09-.07,.2-.14,.25Zm0-4.34c.08-.05,.14,0,.14,.08s-.07,.21-.14,.25c-.08,.04-.15,0-.15-.09s.06-.2,.15-.25Zm-.15-.42c0-.1,.06-.21,.15-.25,.08-.04,.14,0,.14,.09s-.07,.2-.14,.25c-.08,.05-.15,0-.15-.08Zm.15,1.08c.08-.04,.14,0,.14,.09s-.07,.2-.14,.25c-.08,.05-.15,0-.15-.09,0-.09,.06-.21,.15-.25Zm0,.67c.08-.05,.14,0,.14,.08s-.07,.2-.14,.25c-.08,.04-.15,0-.15-.08s.06-.21,.15-.25Zm0,.67c.08-.05,.14-.01,.14,.08s-.07,.2-.14,.25c-.08,.05-.15,0-.15-.08s.06-.21,.15-.25Zm0,.67c.08-.05,.14,0,.14,.08,0,.09-.07,.2-.14,.25-.08,.05-.15,0-.15-.08s.06-.2,.15-.25Zm0,.67c.08-.05,.14-.01,.14,.08s-.07,.21-.14,.25c-.08,.05-.15,0-.15-.08s.06-.21,.15-.25Zm0-6.01c.08-.05,.14-.01,.14,.08s-.07,.2-.14,.25c-.08,.04-.15,0-.15-.08s.06-.21,.15-.25Zm-.15-.42c0-.1,.06-.2,.15-.25,.08-.05,.14-.01,.14,.08,0,.09-.07,.2-.14,.25-.08,.05-.15,0-.15-.08Zm.15-5.59c.08-.04,.14,0,.14,.08s-.06,.21-.14,.25c-.08,.05-.15,0-.15-.08s.06-.21,.15-.25Zm0,.67c.08-.05,.14,0,.14,.08s-.07,.21-.14,.25c-.08,.05-.15,0-.15-.08s.06-.21,.15-.25Zm0,.67c.08-.04,.14,0,.14,.08,0,.09-.07,.2-.14,.25-.08,.05-.15,0-.15-.08s.06-.21,.15-.25Zm0,.67c.08-.05,.14-.01,.14,.08s-.07,.21-.14,.25c-.08,.05-.15,0-.15-.08s.06-.2,.15-.25Zm0,.67c.08-.05,.14,0,.14,.09s-.07,.2-.14,.25c-.08,.05-.15,0-.15-.08s.06-.21,.15-.25Zm0,.67c.08-.04,.14,0,.14,.08s-.07,.2-.14,.25c-.08,.05-.15,0-.15-.08s.06-.2,.15-.25Zm0,.67c.08-.05,.14,0,.14,.08s-.07,.2-.14,.25c-.08,.05-.15,0-.15-.08s.06-.2,.15-.25Zm0,.67c.08-.04,.14,0,.14,.08s-.07,.21-.14,.25c-.08,.05-.15,0-.15-.08s.06-.21,.15-.25Zm0,2c.08-.05,.14,0,.14,.08s-.07,.2-.14,.25c-.08,.04-.15,0-.15-.08s.06-.21,.15-.25Zm0,.67c.08-.04,.14,0,.14,.08s-.07,.21-.14,.25c-.08,.04-.15,0-.15-.08s.06-.21,.15-.25Zm0,36.73c.08-.05,.14,0,.14,.08s-.07,.21-.14,.25c-.08,.05-.15,0-.15-.08s.06-.2,.15-.25Zm-.15,15.6c0-.09,.07-.2,.15-.25,.08-.04,.14,0,.14,.09s-.07,.2-.14,.25c-.08,.05-.15,0-.15-.08Zm.29,.5c0,.09-.07,.2-.14,.25-.08,.04-.15,0-.15-.08s.07-.21,.15-.25c.08-.04,.14,0,.14,.09Zm-.14,2.92c-.08,.05-.15,0-.15-.08s.07-.21,.15-.25c.08-.05,.14,0,.14,.08s-.07,.21-.14,.25Zm.14,.42c0,.1-.07,.21-.14,.25-.08,.04-.15,0-.15-.09s.07-.21,.15-.25c.08-.04,.14,0,.14,.08Zm-.14,1.59c-.08,.05-.15,0-.15-.09s.07-.2,.15-.25c.08-.05,.14-.01,.14,.08s-.07,.21-.14,.25Zm0-.67c-.08,.04-.15,0-.15-.08s.07-.21,.15-.25c.08-.04,.14,0,.14,.09s-.07,.2-.14,.25Zm0-2c-.08,.05-.15,.01-.15-.08s.07-.21,.15-.25c.08-.04,.14,0,.14,.08,0,.1-.07,.21-.14,.25Zm-.15-.75c0-.09,.07-.2,.15-.25,.08-.05,.14,0,.14,.08s-.07,.2-.14,.25c-.08,.05-.15,0-.15-.08Zm.15-.59c-.08,.05-.15,.01-.15-.08s.07-.21,.15-.25c.08-.05,.14,0,.14,.08s-.07,.21-.14,.25Z" style="fill: #41cff6;"/>
          <path d="M55.78,1.68l-.51-.29s-.02,.08-.04,.09c-.03,.02-.06,.01-.1,0-.04-.02-.08-.06-.1-.11-.03-.04-.04-.1-.04-.14l-.51-.29V44.97s0,0,0,0v22.05s.51,.29,.51,.29h0s.01-.08,.04-.09c.05-.03,.15,.03,.2,.12,.03,.04,.04,.1,.04,.14h0l.51,.29V23.72h0V1.68Zm-.65,42.51c-.08-.05-.14-.15-.14-.24,0-.09,.07-.12,.14-.07,.08,.04,.14,.15,.14,.24,0,.08-.07,.12-.14,.07Zm0-.67c-.08-.04-.14-.15-.14-.23,0-.08,.07-.12,.14-.07,.07,.04,.13,.14,.14,.23,0,.08-.07,.12-.14,.07Zm0-.66c-.08-.05-.14-.15-.14-.24,0-.08,.07-.12,.14-.07,.08,.04,.14,.14,.14,.23,0,.08-.07,.12-.14,.08Zm0-.67c-.08-.04-.14-.14-.14-.23,0-.08,.07-.12,.14-.07,.08,.04,.13,.14,.14,.23,0,.08-.07,.12-.14,.07Zm0-.66c-.08-.04-.14-.15-.14-.24,0-.08,.07-.12,.14-.07,.08,.04,.13,.15,.14,.24,0,.08-.07,.12-.14,.07Zm0-.67c-.08-.04-.14-.14-.14-.23,0-.08,.07-.12,.14-.07,.08,.04,.14,.15,.14,.24,0,.08-.07,.12-.14,.07Zm0-.66c-.08-.04-.14-.15-.14-.24,0-.08,.07-.12,.14-.07,.08,.05,.14,.15,.14,.24,0,.08-.07,.12-.14,.07Zm0-.67c-.08-.04-.14-.15-.14-.24,0-.08,.07-.12,.14-.07,.08,.05,.14,.15,.14,.23,0,.08-.07,.12-.14,.07Zm0-.67c-.08-.04-.14-.15-.14-.24,0-.08,.07-.12,.14-.07,.08,.04,.14,.14,.14,.23,0,.08-.07,.12-.14,.07Zm0-.67c-.08-.04-.14-.15-.14-.23,0-.08,.07-.12,.14-.07,.08,.04,.14,.15,.14,.23,0,.08-.07,.12-.14,.07Zm0-.67c-.08-.04-.14-.15-.14-.24,0-.08,.07-.12,.14-.07,.08,.04,.14,.14,.14,.23,0,.08-.07,.12-.14,.07Zm0-.67c-.08-.04-.14-.15-.14-.23,0-.09,.07-.12,.14-.07,.08,.04,.14,.15,.14,.23,0,.08-.07,.12-.14,.07Zm0-.67c-.08-.04-.14-.14-.14-.23,0-.08,.07-.12,.14-.07,.08,.04,.13,.14,.14,.24,0,.08-.07,.12-.14,.07Zm0-.66c-.08-.05-.14-.15-.14-.24,0-.08,.07-.12,.14-.07,.08,.04,.14,.15,.14,.24,0,.08-.07,.12-.14,.07Zm0-.67c-.08-.04-.14-.15-.14-.23,0-.08,.07-.12,.14-.07,.08,.04,.13,.14,.14,.24,0,.08-.07,.11-.14,.07Zm0-.67c-.08-.04-.14-.15-.14-.24,0-.08,.07-.12,.14-.07,.08,.04,.14,.15,.14,.24,0,.08-.07,.12-.14,.07Zm0-.67c-.08-.04-.14-.14-.14-.23,0-.08,.07-.12,.14-.07,.08,.04,.13,.14,.14,.24,0,.08-.07,.12-.14,.07Zm0-.66c-.08-.04-.14-.15-.14-.24,0-.08,.07-.12,.14-.07,.08,.04,.14,.15,.14,.24,0,.08-.07,.12-.14,.07Zm0-.67c-.08-.04-.14-.15-.14-.24,0-.08,.07-.11,.14-.07,.08,.04,.13,.14,.14,.24,0,.08-.07,.12-.14,.07Zm0-.67c-.08-.04-.14-.15-.14-.23,0-.08,.07-.12,.14-.07,.08,.04,.14,.15,.14,.24,0,.08-.07,.12-.14,.07Zm0-.67c-.08-.04-.14-.15-.14-.24,0-.08,.07-.12,.14-.07,.08,.04,.14,.14,.14,.23,0,.08-.07,.12-.14,.07Zm0-.97c.08,.04,.14,.15,.14,.23,0,.08-.07,.12-.14,.07-.08-.04-.14-.15-.14-.24,0-.08,.07-.12,.14-.07Zm0-.36c-.08-.04-.14-.15-.14-.23,0-.08,.07-.12,.14-.07,.08,.04,.14,.15,.14,.23,0,.08-.07,.12-.14,.07Zm0-.67c-.08-.04-.14-.15-.14-.24,0-.08,.07-.12,.14-.07,.08,.04,.14,.14,.14,.24,0,.08-.07,.12-.14,.07Zm0-.67c-.08-.04-.14-.15-.14-.24,0-.08,.07-.12,.14-.07,.08,.04,.14,.14,.14,.23,0,.08-.07,.12-.14,.07Zm0-.67c-.08-.04-.14-.15-.14-.24,0-.08,.07-.12,.14-.07,.08,.04,.14,.14,.14,.24,0,.08-.07,.12-.14,.07Zm0-.67c-.08-.04-.14-.15-.14-.24,0-.08,.07-.12,.14-.07,.08,.04,.14,.15,.14,.23,0,.08-.07,.12-.14,.07Zm0-.67c-.08-.04-.14-.14-.14-.23,0-.08,.07-.12,.14-.07,.08,.04,.13,.14,.14,.24,0,.08-.07,.11-.14,.07Zm0-.67c-.08-.04-.14-.15-.14-.23,0-.08,.07-.12,.14-.07,.08,.04,.14,.15,.14,.23,0,.08-.07,.12-.14,.07Zm0-.67c-.08-.04-.14-.14-.14-.23,0-.08,.07-.12,.14-.07,.08,.04,.13,.14,.14,.24,0,.08-.07,.12-.14,.07Zm0,19.71c.08,.04,.14,.15,.14,.24,0,.08-.07,.12-.14,.07-.08-.04-.14-.15-.14-.23,0-.09,.07-.12,.14-.07Zm0-20.38c-.08-.04-.14-.15-.14-.23,0-.08,.07-.12,.14-.07,.08,.04,.14,.15,.14,.24,0,.08-.07,.12-.14,.07Zm0,21.05c.08,.05,.14,.16,.14,.25s-.07,.13-.14,.08c-.08-.05-.14-.16-.14-.25s.06-.13,.14-.08Zm0-43.4c.08,.04,.14,.16,.14,.25s-.07,.13-.14,.08c-.08-.05-.14-.16-.14-.25s.06-.13,.14-.08Zm0,.67c.08,.04,.14,.16,.14,.25s-.07,.13-.14,.08c-.08-.05-.14-.16-.14-.25s.06-.13,.14-.08Zm0,.67c.08,.04,.14,.16,.14,.25s-.07,.13-.14,.08c-.08-.05-.14-.16-.14-.25,0-.09,.06-.13,.14-.08Zm0,.67c.08,.05,.14,.16,.14,.25s-.07,.13-.14,.08c-.08-.05-.14-.16-.14-.25s.06-.13,.14-.08Zm0,.67c.08,.05,.14,.16,.14,.25s-.07,.13-.14,.08c-.08-.05-.14-.16-.14-.25s.06-.13,.14-.09Zm0,.67c.08,.05,.14,.16,.14,.25s-.07,.13-.14,.08c-.08-.05-.14-.16-.14-.25s.06-.13,.14-.08Zm0,.67c.08,.05,.14,.16,.14,.25s-.07,.13-.14,.08c-.08-.05-.14-.16-.14-.25s.06-.13,.14-.08Zm0,.67c.08,.05,.14,.16,.14,.25s-.07,.13-.14,.08c-.08-.05-.14-.16-.14-.25s.06-.13,.14-.08Zm0,.67c.08,.05,.14,.15,.14,.25,0,.09-.07,.13-.14,.08-.08-.05-.14-.16-.14-.25,0-.1,.06-.13,.14-.08Zm0,.67c.08,.04,.14,.16,.14,.25s-.07,.13-.14,.08c-.08-.05-.14-.16-.14-.25s.06-.13,.14-.08Zm0,.67c.08,.04,.14,.16,.14,.25s-.07,.13-.14,.08c-.08-.05-.14-.16-.14-.25s.06-.13,.14-.08Zm0,.67c.08,.05,.14,.16,.14,.25s-.07,.13-.14,.08c-.08-.05-.14-.16-.14-.25s.06-.13,.14-.08Zm0,.67c.08,.04,.14,.16,.14,.25s-.07,.13-.14,.08c-.08-.04-.14-.16-.14-.25s.06-.13,.14-.09Zm0,.67c.08,.05,.14,.16,.14,.25s-.07,.13-.14,.09c-.08-.05-.14-.16-.14-.25s.06-.13,.14-.08Zm0,.67c.08,.04,.14,.16,.14,.25,0,.1-.07,.13-.14,.09-.08-.05-.14-.16-.14-.25s.06-.13,.14-.09Zm0,.67c.08,.05,.14,.16,.14,.25s-.07,.13-.14,.08c-.08-.05-.14-.16-.14-.25s.06-.13,.14-.08Zm0,.67c.08,.05,.14,.16,.14,.25s-.07,.13-.14,.08c-.08-.05-.14-.16-.14-.25s.06-.13,.14-.08Zm0,.67c.08,.05,.14,.16,.14,.25s-.07,.13-.14,.08c-.08-.05-.14-.16-.14-.25,0-.09,.06-.13,.14-.08Zm0,.67c.08,.04,.14,.16,.14,.25s-.07,.13-.14,.08c-.08-.04-.14-.16-.14-.25s.06-.13,.14-.08Zm0,.67c.08,.05,.14,.16,.14,.25s-.07,.13-.14,.08c-.08-.05-.14-.16-.14-.25,0-.1,.06-.13,.14-.09Zm0,.67c.08,.04,.14,.16,.14,.25s-.07,.13-.14,.08c-.08-.04-.14-.16-.14-.25s.06-.13,.14-.08Zm0,.67c.08,.05,.14,.16,.14,.25s-.07,.13-.14,.08c-.08-.05-.14-.16-.14-.25s.06-.13,.14-.08Zm0,.67c.08,.04,.14,.16,.14,.25,0,.09-.07,.12-.14,.08-.08-.04-.14-.16-.14-.25s.06-.13,.14-.08Zm0,.66c.08,.04,.14,.16,.14,.25s-.07,.13-.14,.08c-.08-.05-.14-.16-.14-.25s.06-.13,.14-.09Zm0,.67c.08,.04,.14,.16,.14,.25s-.07,.13-.14,.08c-.08-.05-.14-.16-.14-.25s.06-.13,.14-.08Zm0,.67c.08,.04,.14,.16,.14,.25s-.07,.13-.14,.08c-.08-.04-.14-.15-.14-.25,0-.09,.06-.13,.14-.08Zm0,.67c.08,.05,.14,.16,.14,.25s-.07,.13-.14,.08c-.08-.05-.14-.16-.14-.25s.06-.13,.14-.08Zm0,.67c.08,.05,.14,.16,.14,.25s-.07,.13-.14,.08c-.08-.05-.14-.16-.14-.25s.06-.13,.14-.08Zm.14,.92c0,.09-.07,.13-.14,.08-.08-.05-.14-.16-.14-.25s.06-.13,.14-.08c.08,.04,.14,.16,.14,.25Zm-.14,.42c.08,.04,.14,.16,.14,.25s-.07,.13-.14,.08c-.08-.04-.14-.16-.14-.25s.06-.13,.14-.08Zm0,.67c.08,.05,.14,.16,.14,.25s-.07,.13-.14,.08c-.08-.05-.14-.16-.14-.25s.06-.13,.14-.08Zm0,.67c.08,.05,.14,.16,.14,.25s-.07,.13-.14,.08c-.08-.04-.14-.16-.14-.25s.06-.13,.14-.08Zm0,.67c.08,.05,.14,.16,.14,.25s-.07,.13-.14,.08c-.08-.04-.14-.15-.14-.25s.06-.13,.14-.08Zm0,43.74c-.08-.05-.14-.16-.14-.25s.06-.13,.14-.08c.08,.04,.15,.16,.15,.25s-.07,.13-.15,.09Zm0-.67c-.08-.05-.14-.16-.14-.25s.06-.13,.14-.09c.08,.05,.15,.16,.15,.25s-.07,.13-.15,.08Zm0-.67c-.08-.04-.14-.16-.14-.25s.06-.13,.14-.08,.15,.16,.15,.25-.07,.13-.15,.09Zm0-.67c-.08-.04-.14-.16-.14-.25s.06-.13,.14-.08c.08,.04,.15,.16,.15,.25s-.07,.13-.15,.08Zm0-.67c-.08-.05-.14-.16-.14-.25,0-.09,.06-.13,.14-.08,.08,.05,.15,.16,.15,.25s-.07,.13-.14,.08Zm0-.67c-.08-.04-.14-.16-.14-.25s.06-.13,.14-.08c.08,.05,.14,.16,.14,.25s-.07,.13-.14,.08Zm0-.67c-.08-.04-.14-.16-.14-.25s.06-.13,.14-.08c.08,.04,.15,.16,.15,.25s-.07,.13-.15,.08Zm0-.66c-.08-.05-.14-.16-.14-.25s.06-.13,.14-.09c.08,.05,.14,.16,.14,.25s-.07,.13-.14,.08Zm0-.67c-.08-.05-.14-.16-.14-.25s.06-.13,.14-.09c.08,.05,.14,.16,.14,.25s-.07,.13-.14,.08Zm0-.67c-.08-.04-.14-.16-.14-.25s.06-.13,.14-.08c.08,.05,.14,.16,.14,.25s-.07,.13-.14,.08Zm0-.67c-.08-.05-.14-.16-.14-.25s.06-.13,.14-.08c.08,.05,.14,.16,.14,.25s-.07,.13-.14,.08Zm0-.67c-.08-.05-.14-.16-.14-.25s.06-.13,.14-.08c.08,.05,.14,.16,.14,.25s-.07,.13-.14,.09Zm-.14-.92c0-.09,.06-.13,.14-.08,.08,.04,.14,.16,.14,.25s-.07,.13-.14,.08c-.08-.05-.14-.16-.14-.25Zm.14-.42c-.08-.05-.14-.16-.14-.25s.06-.13,.14-.08c.08,.05,.14,.16,.14,.25s-.07,.13-.14,.08Zm0-.67c-.08-.04-.14-.16-.14-.25s.06-.13,.14-.09c.08,.05,.14,.16,.14,.25s-.07,.13-.14,.08Zm0-.67c-.08-.04-.14-.16-.14-.25s.06-.13,.14-.08c.08,.05,.14,.16,.14,.25s-.07,.13-.14,.08Zm0-.67c-.08-.05-.14-.16-.14-.25s.06-.13,.14-.08c.08,.04,.14,.16,.14,.25s-.07,.13-.14,.08Zm0-.67c-.08-.05-.14-.16-.14-.25,0-.09,.06-.13,.14-.08,.08,.05,.14,.16,.14,.25s-.07,.13-.14,.08Zm0-.67c-.08-.04-.14-.16-.14-.25s.06-.13,.14-.08c.08,.05,.14,.16,.14,.25s-.07,.13-.14,.08Zm0-.67c-.08-.05-.14-.16-.14-.25s.06-.13,.14-.08c.08,.05,.14,.16,.14,.25s-.07,.13-.14,.08Zm0-.67c-.08-.04-.14-.16-.14-.25s.06-.13,.14-.09c.08,.05,.14,.16,.14,.25s-.07,.13-.14,.08Zm0-.67c-.08-.05-.14-.16-.14-.25s.06-.13,.14-.08c.08,.05,.14,.16,.14,.25s-.07,.13-.14,.08Zm0-.67c-.08-.05-.14-.16-.14-.25s.06-.13,.14-.08c.08,.05,.14,.16,.14,.25s-.07,.13-.14,.08Zm0-.67c-.08-.05-.14-.16-.14-.25s.06-.13,.14-.08c.08,.04,.14,.16,.14,.25s-.07,.13-.14,.08Zm0-.67c-.08-.05-.14-.16-.14-.25s.06-.13,.14-.08c.08,.05,.14,.16,.14,.25s-.07,.13-.14,.09Zm0-.67c-.08-.05-.14-.16-.14-.25s.06-.13,.14-.08c.08,.04,.14,.16,.14,.25s-.07,.13-.14,.08Zm0-.67c-.08-.04-.14-.16-.14-.25s.06-.13,.14-.08c.08,.05,.14,.16,.14,.25s-.07,.13-.14,.08Zm0-.67c-.08-.05-.14-.16-.14-.25s.06-.13,.14-.08c.08,.04,.14,.16,.14,.25s-.07,.13-.14,.08Zm0-.67c-.08-.04-.14-.16-.14-.25,0-.09,.06-.13,.14-.08,.08,.05,.14,.16,.14,.25s-.07,.13-.14,.08Zm0-.67c-.08-.04-.14-.16-.14-.25,0-.09,.06-.13,.14-.08,.08,.04,.14,.16,.14,.25s-.07,.13-.14,.08Zm0-.67c-.08-.05-.14-.16-.14-.25,0-.09,.06-.13,.14-.08,.08,.05,.14,.16,.14,.25s-.07,.13-.14,.08Zm0-.67c-.08-.04-.14-.16-.14-.25s.06-.13,.14-.08c.08,.05,.14,.16,.14,.25s-.07,.13-.14,.08Z" style="fill: #01b2e8;"/>
          <g>
            <g>
              <polygon points="69.45 70.1 15.25 101.39 .32 92.77 54.52 61.47 69.45 68.93 69.45 70.1" style="fill: #ff8d00;"/>
              <polygon points="69.45 68.93 15.25 100.22 .32 91.6 54.52 60.3 69.45 68.93" style="fill: #efe5da;"/>
              <polygon points="15.25 100.22 15.25 101.39 .32 92.77 .32 91.6 15.25 100.22 15.25 100.22" style="fill: #f47f00;"/>
            </g>
            <g>
              <polygon points="69.45 49.99 15.25 81.29 .32 72.66 54.52 41.37 69.45 48.83 69.45 49.99" style="fill: #ff8d00;"/>
              <polygon points="69.45 48.83 15.25 80.12 .32 71.5 54.52 40.2 69.45 48.83" style="fill: #efe5da;"/>
              <polygon points="15.25 80.12 15.25 81.29 .32 72.66 .32 71.5 15.25 80.12 15.25 80.12" style="fill: #f47f00;"/>
            </g>
            <g>
              <polygon points="69.45 29.89 15.25 61.19 .32 52.56 54.52 21.27 69.45 28.72 69.45 29.89" style="fill: #ff8d00;"/>
              <polygon points="69.45 28.72 15.25 60.02 .32 51.39 54.52 20.1 69.45 28.72" style="fill: #efe5da;"/>
              <polygon points="15.25 60.02 15.25 61.19 .32 52.56 .32 51.39 15.25 60.02 15.25 60.02" style="fill: #f47f00;"/>
            </g>
            <g>
              <polygon points="69.45 9.79 15.25 41.09 .32 32.46 54.52 1.17 69.45 8.62 69.45 9.79" style="fill: #ff8d00;"/>
              <polygon points="69.45 8.62 15.25 39.92 .32 31.29 54.52 0 69.45 8.62" style="fill: #efe5da;"/>
              <polygon points="15.25 39.92 15.25 41.09 .32 32.46 .32 31.29 15.25 39.92 15.25 39.92" style="fill: #f47f00;"/>
            </g>
          </g>
          <path d="M1.3,32.35l-.51-.29s-.02,.08-.04,.09c-.03,.02-.06,.01-.1-.01-.04-.03-.08-.06-.1-.11-.03-.05-.04-.1-.04-.14L0,31.6v44.05S0,75.65,0,75.65v22.05s.51,.29,.51,.29H.51s.01-.08,.04-.09c.05-.03,.15,.03,.21,.12,.03,.05,.04,.1,.04,.14H.8l.51,.29V54.4h0v-22.05Zm-.65,42.51c-.08-.04-.14-.15-.14-.24,0-.08,.07-.12,.14-.07,.07,.04,.14,.14,.14,.24,0,.08-.07,.12-.14,.07Zm0-.67c-.08-.04-.13-.14-.14-.24,0-.08,.07-.11,.14-.07,.07,.04,.13,.14,.14,.24,0,.08-.07,.12-.14,.07Zm0-.67c-.08-.04-.14-.15-.14-.24,0-.08,.07-.12,.14-.07,.07,.05,.14,.15,.14,.24,0,.08-.07,.12-.14,.07Zm0-.67c-.08-.04-.14-.14-.14-.24,0-.08,.07-.12,.14-.07,.07,.04,.13,.14,.14,.23,0,.08-.07,.12-.14,.07Zm0-.67c-.08-.04-.14-.14-.14-.23,0-.08,.07-.12,.14-.07,.07,.04,.14,.15,.14,.24,0,.08-.07,.12-.14,.07Zm0-.67c-.08-.04-.13-.14-.14-.24,0-.08,.07-.12,.14-.07,.07,.04,.14,.15,.14,.23,0,.09-.07,.12-.14,.07Zm0-.67c-.08-.04-.14-.15-.14-.23,0-.08,.07-.12,.14-.07,.07,.04,.14,.15,.14,.23,0,.08-.07,.12-.14,.07Zm0-.67c-.08-.04-.14-.15-.14-.23,0-.08,.07-.12,.14-.07,.07,.04,.14,.15,.14,.24,0,.08-.07,.12-.14,.07Zm0-.66c-.08-.04-.14-.15-.14-.24,0-.08,.07-.12,.14-.07,.07,.04,.14,.15,.14,.23,0,.08-.07,.12-.14,.07Zm0-.67c-.08-.04-.14-.14-.14-.23,0-.08,.07-.12,.14-.07,.07,.04,.14,.15,.14,.24,0,.08-.07,.11-.14,.07Zm0-.66c-.08-.04-.14-.15-.14-.24,0-.08,.07-.12,.14-.07,.07,.04,.14,.15,.14,.24,0,.08-.07,.12-.14,.07Zm0-.67c-.08-.04-.14-.14-.14-.23,0-.08,.07-.12,.14-.07,.07,.04,.14,.15,.14,.24,0,.08-.07,.12-.14,.07Zm0-.67c-.08-.04-.14-.15-.14-.23,0-.08,.07-.12,.14-.07,.07,.04,.14,.14,.14,.23,0,.08-.07,.12-.14,.07Zm0-.67c-.08-.04-.14-.15-.14-.23,0-.08,.07-.12,.14-.07,.07,.05,.14,.15,.14,.24,0,.08-.07,.12-.14,.07Zm0-.67c-.08-.04-.14-.14-.14-.23,0-.08,.07-.12,.14-.07,.07,.05,.14,.14,.14,.23,0,.09-.07,.12-.14,.07Zm0-.67c-.08-.04-.14-.14-.14-.23,0-.08,.07-.12,.14-.07,.07,.04,.14,.15,.14,.24,0,.08-.07,.12-.14,.07Zm0-.67c-.08-.04-.14-.14-.14-.23,0-.08,.07-.12,.14-.07,.07,.04,.14,.15,.14,.24,0,.08-.07,.12-.14,.07Zm0-.67c-.08-.04-.14-.15-.14-.23,0-.08,.07-.12,.14-.07,.07,.04,.14,.15,.14,.24,0,.08-.07,.12-.14,.07Zm0-.67c-.08-.04-.14-.15-.14-.23,0-.08,.07-.12,.14-.07,.07,.04,.14,.14,.14,.23,0,.08-.07,.12-.14,.07Zm0-.67c-.08-.04-.14-.14-.14-.23,0-.09,.07-.12,.14-.07,.07,.04,.14,.14,.14,.24,0,.08-.07,.12-.14,.07Zm0-.67c-.08-.04-.14-.15-.14-.23,0-.08,.07-.12,.14-.07,.07,.04,.14,.15,.14,.24,0,.08-.07,.12-.14,.07Zm0-.97c.08,.04,.14,.15,.14,.24,0,.08-.07,.12-.14,.07-.08-.04-.14-.15-.14-.23,0-.08,.07-.12,.14-.07Zm0-.36c-.08-.04-.14-.15-.14-.23,0-.08,.07-.12,.14-.07,.07,.04,.14,.15,.14,.24,0,.08-.07,.12-.14,.07Zm0-.67c-.08-.04-.14-.15-.14-.24,0-.08,.07-.12,.14-.07,.07,.04,.14,.15,.14,.24,0,.08-.07,.12-.14,.07Zm0-.67c-.08-.04-.14-.15-.14-.24,0-.08,.07-.12,.14-.07,.07,.04,.14,.15,.14,.24,0,.08-.07,.12-.14,.07Zm0-.67c-.08-.04-.14-.15-.14-.23,0-.08,.07-.12,.14-.07,.07,.05,.14,.15,.14,.24,0,.08-.07,.12-.14,.07Zm0-.67c-.08-.04-.14-.15-.14-.23,0-.08,.07-.12,.14-.07,.07,.04,.14,.15,.14,.24,0,.08-.07,.12-.14,.07Zm0-.67c-.08-.04-.14-.14-.14-.23,0-.08,.07-.12,.14-.07,.07,.04,.14,.14,.14,.23,0,.08-.07,.12-.14,.07Zm0-.67c-.08-.04-.14-.15-.14-.23,0-.08,.07-.12,.14-.07,.07,.04,.14,.15,.14,.23,0,.08-.07,.12-.14,.07Zm0-.67c-.08-.04-.14-.15-.14-.23,0-.08,.07-.12,.14-.07,.07,.04,.14,.14,.14,.23,0,.08-.07,.12-.14,.07Zm0,19.71c.07,.04,.14,.14,.14,.23,0,.08-.07,.12-.14,.07-.08-.04-.14-.15-.14-.24,0-.08,.07-.12,.14-.07Zm0-20.38c-.08-.04-.14-.14-.14-.23,0-.08,.07-.12,.14-.07,.08,.04,.14,.15,.14,.23,0,.09-.07,.12-.14,.07Zm0,21.05c.08,.05,.14,.16,.14,.25s-.07,.13-.14,.08c-.08-.04-.14-.16-.14-.25,0-.09,.06-.13,.14-.08ZM.65,32.47c.08,.05,.14,.16,.14,.25s-.06,.13-.14,.08c-.08-.04-.14-.16-.14-.25s.06-.13,.14-.08Zm0,.67c.08,.05,.14,.16,.14,.25s-.06,.13-.14,.08c-.08-.05-.14-.16-.14-.25s.06-.13,.14-.08Zm0,.67c.08,.04,.14,.16,.14,.25s-.06,.13-.14,.08c-.08-.04-.14-.16-.14-.25,0-.09,.06-.13,.14-.08Zm0,.67c.08,.04,.14,.16,.14,.25,0,.09-.06,.13-.14,.08-.08-.04-.14-.16-.14-.25s.06-.13,.14-.08Zm0,.67c.08,.05,.14,.16,.14,.25s-.06,.13-.14,.08c-.08-.05-.14-.16-.14-.25s.06-.13,.14-.08Zm0,.67c.08,.04,.14,.16,.14,.25,0,.09-.06,.13-.14,.08-.08-.04-.14-.16-.14-.25s.06-.13,.14-.08Zm0,.67c.08,.05,.14,.16,.14,.25s-.06,.13-.14,.08c-.08-.05-.14-.16-.14-.25s.06-.13,.14-.08Zm0,.67c.08,.05,.14,.15,.14,.25s-.06,.13-.14,.09c-.08-.05-.14-.16-.14-.25s.06-.13,.14-.08Zm0,.66c.08,.04,.14,.16,.14,.25,0,.09-.06,.13-.14,.09-.08-.05-.14-.16-.14-.25s.06-.13,.14-.08Zm0,.67c.08,.05,.14,.16,.14,.25s-.06,.13-.14,.08c-.08-.04-.14-.16-.14-.25s.06-.13,.14-.08Zm0,.67c.08,.05,.14,.16,.14,.25s-.06,.13-.14,.08c-.08-.04-.14-.16-.14-.25,0-.09,.06-.13,.14-.08Zm0,.67c.08,.04,.14,.16,.14,.25,0,.09-.06,.13-.14,.08-.08-.04-.14-.16-.14-.25s.06-.13,.14-.08Zm0,.67c.08,.05,.14,.16,.14,.25s-.06,.13-.14,.08c-.08-.05-.14-.16-.14-.25s.06-.13,.14-.09Zm0,.67c.08,.04,.14,.16,.14,.25,0,.09-.06,.13-.14,.08-.08-.05-.14-.16-.14-.25s.06-.13,.14-.08Zm0,.66c.08,.05,.14,.16,.14,.25s-.06,.13-.14,.08c-.08-.04-.14-.16-.14-.25s.06-.13,.14-.09Zm0,.67c.08,.05,.14,.16,.14,.25,0,.09-.06,.13-.14,.08-.08-.05-.14-.16-.14-.25s.06-.13,.14-.08Zm0,.67c.08,.04,.14,.15,.14,.25s-.06,.13-.14,.09c-.08-.05-.14-.16-.14-.25s.06-.13,.14-.08Zm0,.67c.08,.04,.14,.16,.14,.25s-.06,.13-.14,.08c-.08-.04-.14-.16-.14-.25s.06-.13,.14-.08Zm0,.67c.08,.04,.14,.15,.14,.25,0,.09-.06,.13-.14,.08-.08-.05-.14-.16-.14-.25,0-.1,.06-.13,.14-.08Zm0,.66c.08,.05,.14,.16,.14,.25s-.06,.13-.14,.08c-.08-.05-.14-.16-.14-.25s.06-.13,.14-.08Zm0,.67c.08,.04,.14,.15,.14,.25s-.06,.13-.14,.08c-.08-.05-.14-.16-.14-.25s.06-.13,.14-.08Zm0,.66c.08,.05,.14,.16,.14,.25,0,.1-.06,.13-.14,.09-.08-.05-.14-.16-.14-.25s.06-.13,.14-.08Zm0,.67c.08,.04,.14,.16,.14,.25s-.06,.13-.14,.08c-.08-.05-.14-.16-.14-.25s.06-.13,.14-.08Zm0,.67c.08,.05,.14,.16,.14,.25s-.06,.13-.14,.08c-.08-.05-.14-.16-.14-.25s.06-.13,.14-.08Zm0,.67c.08,.05,.14,.16,.14,.25s-.07,.13-.14,.08c-.08-.05-.14-.16-.14-.25s.06-.13,.14-.08Zm0,.66c.08,.05,.14,.16,.14,.25s-.07,.13-.14,.08c-.08-.04-.14-.16-.14-.25s.06-.13,.14-.09Zm0,.67c.08,.05,.14,.16,.14,.25s-.06,.13-.14,.08c-.08-.05-.14-.16-.14-.25s.06-.13,.14-.08Zm0,.67c.08,.04,.14,.16,.14,.25s-.06,.13-.14,.08c-.08-.05-.14-.16-.14-.25s.06-.13,.14-.08Zm.14,.92c0,.09-.06,.13-.14,.08-.08-.05-.14-.16-.14-.25s.06-.13,.14-.08c.08,.04,.14,.16,.14,.25Zm-.14,.42c.08,.04,.14,.16,.14,.25s-.07,.13-.14,.09c-.08-.05-.14-.16-.14-.25s.06-.13,.14-.08Zm0,.67c.08,.04,.14,.16,.14,.25s-.07,.13-.14,.08c-.08-.05-.14-.16-.14-.25s.06-.13,.14-.08Zm0,.67c.08,.04,.14,.15,.14,.25s-.06,.13-.14,.09c-.08-.05-.14-.16-.14-.25s.06-.13,.14-.08Zm0,.67c.08,.05,.14,.16,.14,.25s-.07,.13-.14,.09c-.08-.05-.14-.16-.14-.25s.06-.13,.14-.08Zm0,43.74c-.08-.04-.14-.16-.14-.25s.06-.13,.14-.08c.08,.04,.14,.16,.14,.25s-.07,.13-.14,.08Zm0-.67c-.08-.05-.14-.16-.14-.25s.06-.13,.14-.08c.08,.05,.14,.16,.14,.25s-.07,.13-.14,.08Zm0-.67c-.08-.04-.14-.15-.14-.25s.06-.13,.14-.08c.08,.05,.14,.16,.14,.25s-.07,.13-.14,.08Zm0-.66c-.08-.05-.14-.16-.14-.25s.06-.13,.14-.08c.08,.05,.14,.16,.14,.25s-.07,.13-.14,.08Zm0-.67c-.08-.04-.14-.15-.14-.25s.06-.13,.14-.08c.08,.04,.14,.16,.14,.25,0,.1-.07,.13-.14,.08Zm0-.67c-.08-.05-.14-.16-.14-.25s.06-.13,.14-.08c.08,.05,.14,.16,.14,.25s-.07,.13-.14,.08Zm0-.67c-.08-.05-.14-.16-.14-.25s.06-.13,.14-.08c.08,.04,.14,.16,.14,.25s-.07,.13-.14,.09Zm0-.67c-.08-.05-.14-.16-.14-.25s.06-.13,.14-.08c.08,.04,.14,.16,.14,.25s-.07,.13-.14,.08Zm0-.67c-.08-.04-.14-.16-.14-.25s.06-.13,.14-.08c.08,.04,.14,.16,.14,.25s-.07,.13-.14,.08Zm0-.67c-.08-.05-.14-.16-.14-.25s.06-.13,.14-.08c.08,.05,.14,.16,.14,.25s-.07,.13-.14,.08Zm0-.67c-.08-.05-.14-.16-.14-.25s.06-.13,.14-.08c.08,.05,.14,.16,.14,.25s-.07,.13-.14,.08Zm0-.67c-.08-.04-.14-.16-.14-.25s.06-.13,.14-.08c.08,.05,.14,.16,.14,.25s-.07,.13-.14,.08Zm-.14-.92c0-.09,.06-.13,.14-.08,.08,.05,.14,.16,.14,.25s-.07,.13-.14,.08c-.08-.05-.14-.16-.14-.25Zm.14-.42c-.08-.05-.14-.16-.14-.25s.06-.13,.14-.08c.08,.04,.14,.16,.14,.25s-.07,.13-.14,.08Zm0-.66c-.08-.05-.14-.16-.14-.25s.06-.13,.14-.09c.08,.05,.14,.16,.14,.25s-.07,.13-.14,.09Zm0-.67c-.08-.05-.14-.16-.14-.25s.06-.13,.14-.08c.08,.04,.14,.15,.14,.25s-.07,.13-.14,.08Zm0-.67c-.08-.05-.14-.16-.14-.25s.06-.13,.14-.08c.08,.04,.14,.16,.14,.25s-.07,.13-.14,.08Zm0-.67c-.08-.05-.14-.16-.14-.25s.06-.13,.14-.08c.08,.04,.14,.16,.14,.25,0,.1-.07,.13-.14,.09Zm0-.67c-.08-.05-.14-.16-.14-.25s.06-.13,.14-.08c.08,.05,.14,.16,.14,.25s-.07,.13-.14,.09Zm0-.67c-.08-.05-.14-.16-.14-.25s.06-.13,.14-.08c.08,.04,.14,.16,.14,.25s-.07,.13-.14,.09Zm0-.67c-.08-.05-.14-.16-.14-.25s.06-.13,.14-.08c.08,.05,.14,.16,.14,.25s-.07,.13-.14,.08Zm0-.67c-.08-.04-.14-.16-.14-.25s.06-.13,.14-.08c.08,.05,.14,.16,.14,.25s-.07,.13-.14,.08Zm0-.67c-.08-.05-.14-.16-.14-.25s.06-.13,.14-.09c.08,.05,.14,.16,.14,.25s-.07,.13-.14,.08Zm0-.67c-.08-.05-.14-.16-.14-.25s.06-.13,.14-.08c.08,.05,.14,.16,.14,.25,0,.09-.07,.13-.14,.08Zm0-.67c-.08-.04-.14-.16-.14-.25s.06-.13,.14-.08c.08,.04,.14,.15,.14,.25s-.07,.13-.14,.08Zm0-.67c-.08-.05-.14-.16-.14-.25s.06-.13,.14-.08c.08,.05,.14,.16,.14,.25s-.07,.13-.14,.08Zm0-.67c-.08-.05-.14-.16-.14-.25s.06-.13,.14-.08c.08,.04,.14,.15,.14,.25s-.07,.13-.14,.08Zm0-.67c-.08-.05-.14-.16-.14-.25s.06-.13,.14-.09c.08,.05,.14,.16,.14,.25s-.07,.13-.14,.08Zm0-.67c-.08-.05-.14-.16-.14-.25s.06-.13,.14-.08c.08,.04,.14,.16,.14,.25s-.07,.13-.14,.08Zm0-.67c-.08-.04-.14-.16-.14-.25s.06-.13,.14-.08c.08,.04,.14,.16,.14,.25s-.07,.13-.14,.08Zm0-.67c-.08-.05-.14-.16-.14-.25s.06-.13,.14-.08c.08,.04,.14,.16,.14,.25s-.07,.13-.14,.09Zm0-.67c-.08-.05-.14-.16-.14-.25s.06-.13,.14-.08c.08,.04,.14,.16,.14,.25s-.07,.13-.14,.08Z" style="fill: #01b2e8;"/>
          <path d="M16.63,83.73V39.68s-.51,.29-.51,.29c0,.04-.01,.1-.04,.14-.03,.05-.06,.08-.1,.11-.04,.02-.07,.03-.1,.01-.03-.01-.04-.05-.04-.09l-.51,.29v22.05h0v44.05s.51-.29,.51-.29h0s.02-.1,.04-.14c.05-.09,.15-.15,.21-.12,.03,.02,.04,.05,.04,.1h0l.51-.29v-22.05h0Zm-.65,15.25c-.08,.04-.14,0-.14-.08s.07-.21,.14-.25c.08-.05,.15,0,.15,.08s-.07,.2-.15,.25Zm.15,.42c0,.09-.07,.21-.15,.25-.08,.04-.14,0-.14-.08,0-.1,.07-.21,.14-.25,.08-.05,.15-.01,.15,.08Zm-.15-1.08c-.08,.05-.14,0-.14-.08,0-.1,.07-.21,.14-.25,.08-.05,.15,0,.15,.08s-.07,.21-.15,.25Zm0-.67c-.08,.05-.14,0-.14-.08s.07-.21,.14-.25c.08-.05,.15,0,.15,.08s-.07,.21-.15,.25Zm0-.67c-.08,.04-.14,0-.14-.08s.07-.21,.14-.25c.08-.05,.15,0,.15,.08s-.07,.21-.15,.25Zm0-.67c-.08,.04-.14,0-.14-.08s.07-.21,.14-.25c.08-.04,.15,0,.15,.08s-.07,.21-.15,.25Zm0-.67c-.08,.05-.14,.01-.14-.08s.07-.21,.14-.25c.08-.05,.15,0,.15,.08s-.07,.21-.15,.25Zm0-.66c-.08,.04-.14,0-.14-.08s.07-.21,.14-.25c.08-.04,.15,0,.15,.08s-.07,.2-.15,.25Zm0-.67c-.08,.05-.14,.01-.14-.08s.07-.21,.14-.25c.08-.05,.15-.01,.15,.08s-.07,.2-.15,.25Zm0-.67c-.08,.05-.14,0-.14-.08s.07-.21,.14-.25c.08-.04,.15,0,.15,.08s-.07,.21-.15,.25Zm0-.67c-.08,.04-.14,0-.14-.08s.07-.21,.14-.25c.08-.05,.15-.01,.15,.08s-.07,.2-.15,.25Zm-.14-.75c0-.09,.07-.21,.14-.25,.08-.05,.14,0,.14,.08,0,.09-.06,.21-.14,.25-.08,.04-.14,0-.14-.08Zm.14-.58c-.08,.04-.14,0-.14-.08s.07-.21,.14-.25c.08-.05,.15,0,.15,.08,0,.09-.07,.2-.15,.25Zm-.14-.75c0-.1,.07-.21,.14-.25,.08-.04,.14,0,.14,.08s-.06,.2-.14,.25c-.08,.04-.14,0-.14-.08Zm.14-.59c-.08,.05-.14,0-.14-.08,0-.09,.07-.21,.14-.25,.08-.05,.14,0,.15,.08,0,.09-.07,.21-.15,.25Zm0-4.34c.08-.05,.14,0,.14,.08s-.06,.21-.14,.25c-.08,.04-.14,0-.14-.08s.07-.21,.14-.25Zm-.14-.42c0-.09,.07-.21,.14-.25,.08-.05,.14-.01,.14,.08s-.06,.2-.14,.25c-.08,.04-.14,.01-.14-.08Zm.14,1.09c.08-.05,.14,0,.14,.08,0,.09-.06,.21-.14,.25-.08,.05-.14,.01-.14-.08,0-.09,.07-.2,.14-.25Zm0,.67c.08-.04,.14,0,.14,.08s-.06,.21-.14,.25c-.08,.04-.14,0-.14-.08s.07-.21,.14-.25Zm0,.67c.08-.05,.15,0,.14,.08,0,.09-.06,.2-.14,.25-.08,.04-.14,0-.14-.08s.07-.21,.14-.25Zm0,.67c.08-.04,.14,0,.14,.08s-.06,.2-.14,.25c-.08,.04-.14,0-.14-.08s.07-.2,.14-.25Zm0,.67c.08-.05,.14,0,.14,.08s-.06,.21-.14,.25c-.08,.05-.14,0-.14-.08,0-.1,.07-.21,.14-.25Zm0-34.73c.08-.04,.14,0,.14,.08s-.06,.21-.14,.25c-.08,.05-.14,.01-.14-.08s.07-.21,.14-.25Zm-.14-.42c0-.09,.07-.2,.14-.25,.08-.04,.14,0,.14,.08s-.06,.2-.14,.25c-.08,.05-.14,.01-.14-.08Zm.14,1.08c.08-.04,.14,0,.14,.08s-.06,.21-.14,.25c-.08,.05-.14,0-.14-.08s.07-.2,.14-.25Zm0,.67c.08-.04,.14,0,.14,.09s-.06,.21-.14,.25c-.08,.05-.14,0-.14-.08s.07-.21,.14-.25Zm0,.67c.08-.04,.14,0,.14,.09s-.06,.2-.14,.25c-.08,.04-.14,0-.14-.08s.07-.2,.14-.25Zm0,.67c.08-.05,.14,0,.14,.08s-.06,.21-.14,.25c-.08,.05-.14,0-.14-.08s.07-.2,.14-.25Zm0,.67c.08-.04,.14,0,.14,.08,0,.1-.06,.21-.14,.25-.08,.05-.14,0-.14-.08s.07-.21,.14-.25Zm0,.67c.08-.05,.14-.01,.14,.08s-.06,.21-.14,.25c-.08,.04-.14,0-.14-.08s.07-.2,.14-.25Zm0,.66c.08-.04,.14,0,.14,.08s-.06,.21-.14,.25c-.08,.05-.14,0-.14-.08,0-.09,.07-.21,.14-.25Zm0,.67c.08-.05,.14-.01,.14,.08s-.06,.2-.14,.25c-.08,.04-.14,0-.14-.08s.07-.21,.14-.25Zm0,.66c.08-.05,.14,0,.14,.08s-.06,.21-.14,.25c-.08,.05-.14,0-.14-.08s.07-.2,.14-.25Zm0,.67c.08-.05,.14-.01,.14,.08s-.06,.2-.14,.25c-.08,.05-.14,0-.14-.08s.07-.2,.14-.25Zm0,7.67c-.08,.04-.14,0-.14-.07,0-.09,.07-.19,.14-.23,.08-.04,.14,0,.14,.07,0,.09-.07,.19-.14,.23Zm0-.67c-.08,.04-.14,0-.14-.07,0-.09,.07-.19,.14-.24,.08-.04,.14,0,.14,.07,0,.09-.07,.19-.14,.24Zm0,10.68c-.08,.04-.14,.01-.14-.07,0-.09,.07-.19,.14-.24,.08-.04,.14,0,.14,.07,0,.09-.07,.19-.14,.24Zm0-.67c-.08,.04-.14,0-.14-.07,0-.09,.07-.19,.14-.24,.08-.04,.14,0,.14,.07,0,.09-.07,.19-.14,.24Zm0-.67c-.08,.04-.14,0-.14-.07,0-.09,.07-.19,.14-.23,.08-.04,.14,0,.14,.07,0,.09-.07,.19-.14,.24Zm0-.67c-.08,.04-.14,0-.14-.07,0-.09,.07-.19,.14-.23,.08-.04,.14-.01,.14,.07,0,.09-.07,.19-.14,.24Zm0-.67c-.08,.04-.14,0-.14-.07,0-.09,.07-.19,.14-.24,.08-.04,.14-.01,.14,.07,0,.09-.07,.19-.14,.24Zm0-.67c-.08,.04-.14,0-.14-.07,0-.09,.07-.19,.14-.24,.08-.04,.14,0,.14,.07,0,.09-.07,.19-.14,.24Zm0-.67c-.07,.04-.14,0-.14-.07,0-.09,.07-.19,.14-.23,.08-.04,.14,0,.14,.07,0,.09-.07,.19-.14,.23Zm0-.67c-.08,.04-.14,0-.14-.07,0-.09,.07-.19,.14-.23,.08-.04,.14-.01,.14,.07,0,.09-.07,.19-.14,.24Zm0-.67c-.07,.04-.14,0-.14-.07,0-.09,.07-.19,.14-.23,.08-.05,.14-.01,.14,.07,0,.09-.07,.19-.14,.24Zm0-.67c-.08,.04-.14,0-.14-.07,0-.09,.07-.19,.14-.24,.08-.04,.14,0,.14,.07,0,.09-.07,.19-.14,.24Zm0-.67c-.07,.04-.14,0-.14-.07,0-.09,.07-.19,.14-.24,.08-.04,.14,0,.14,.07,0,.09-.07,.19-.14,.24Zm0-.67c-.08,.04-.14,0-.14-.07,0-.09,.07-.19,.14-.24,.08-.04,.14,0,.14,.07,0,.09-.07,.19-.14,.24Zm0-.67c-.07,.04-.14,.01-.14-.07,0-.09,.07-.19,.14-.23,.08-.04,.14,0,.14,.07,0,.09-.07,.19-.14,.23Zm0,9.04c.08-.04,.14,0,.14,.07,0,.09-.07,.19-.14,.23-.08,.05-.14,.01-.14-.07,0-.09,.07-.19,.14-.24Zm0,1.34c.08-.04,.14,0,.14,.07,0,.09-.07,.19-.14,.23-.08,.04-.14,0-.14-.07,0-.09,.07-.19,.14-.24Zm0,.97c-.07,.04-.14,.01-.14-.07,0-.09,.07-.2,.14-.23,.08-.05,.14-.01,.14,.07,0,.09-.07,.19-.14,.23Zm0-20.02c-.08,.05-.14,.01-.14-.08s.07-.2,.14-.25c.08-.05,.14-.01,.14,.08s-.06,.21-.14,.25Zm0,.36c.08-.04,.14-.01,.14,.07,0,.09-.07,.19-.14,.24-.08,.04-.14,0-.14-.07,0-.09,.07-.19,.14-.23Zm0,.67c.08-.04,.14-.01,.14,.07,0,.09-.07,.19-.14,.24-.08,.04-.14,0-.14-.07,0-.09,.07-.19,.14-.23Zm0,.67c.08-.04,.14,0,.14,.07,0,.09-.07,.19-.14,.24-.08,.04-.14,0-.14-.07,0-.09,.07-.19,.14-.24Zm0,.67c.08-.04,.14-.01,.14,.07,0,.09-.07,.19-.14,.24-.08,.05-.14,0-.14-.07,0-.09,.07-.19,.14-.23Zm0,.66c.08-.04,.14,0,.14,.07,0,.09-.07,.19-.14,.23-.08,.05-.14,.01-.14-.07,0-.09,.07-.19,.14-.24Zm0,.67c.08-.04,.14,0,.14,.07,0,.09-.07,.19-.14,.24-.08,.04-.14,0-.14-.07,0-.09,.07-.19,.14-.24Zm0,.67c.08-.04,.14,0,.14,.07,0,.09-.07,.19-.14,.23-.08,.04-.14,0-.14-.07,0-.09,.07-.19,.14-.24Zm0,.67c.08-.04,.14-.01,.14,.07,0,.09-.07,.19-.14,.23-.08,.04-.14,0-.14-.07,0-.09,.07-.19,.14-.23Zm0,2c.08-.04,.14-.01,.14,.07,0,.09-.07,.19-.14,.23-.08,.04-.14,0-.14-.07,0-.09,.07-.19,.14-.23Zm0,.67c.08-.04,.14,0,.14,.07,0,.09-.07,.19-.14,.23-.08,.04-.14,.01-.14-.07,0-.09,.07-.19,.14-.24Zm0,14.02c.08-.05,.14,0,.14,.08s-.06,.21-.14,.25c-.08,.05-.14,.01-.14-.08s.07-.2,.14-.25Zm0-.36c-.08,.04-.14,0-.14-.07,0-.09,.07-.2,.14-.24,.08-.04,.14,0,.14,.07,0,.09-.07,.19-.14,.24Zm0-.67c-.08,.04-.14,0-.14-.07,0-.09,.07-.19,.14-.23,.08-.04,.14-.01,.14,.07,0,.09-.07,.19-.14,.24Zm0-2c-.07,.04-.14,0-.14-.07,0-.09,.07-.19,.14-.23,.08-.05,.14,0,.14,.07,0,.09-.07,.19-.14,.23Zm0-1.34c-.08,.04-.14,.01-.14-.07,0-.09,.07-.19,.14-.23,.08-.04,.14,0,.14,.07,0,.09-.07,.19-.14,.24Zm0-26.03c-.08,.04-.14,0-.14-.08s.07-.2,.14-.25c.08-.05,.14,0,.14,.08s-.06,.21-.14,.25Zm0-4.34c.08-.05,.14,0,.14,.08,0,.09-.06,.21-.14,.25-.08,.04-.14,0-.14-.08s.07-.21,.14-.25Zm-.14-.42c0-.09,.07-.21,.14-.25,.08-.05,.14,0,.14,.08s-.06,.21-.14,.25c-.08,.04-.14,0-.14-.08Zm.14,1.08c.08-.05,.14,0,.14,.09s-.06,.21-.14,.25c-.08,.04-.14,0-.14-.08s.07-.21,.14-.25Zm0,.67c.08-.04,.14,0,.14,.08s-.06,.21-.14,.25c-.08,.05-.14,0-.14-.08s.07-.21,.14-.25Zm0,.67c.08-.05,.14,0,.14,.08s-.06,.21-.14,.25c-.08,.04-.14,0-.14-.08s.07-.2,.14-.25Zm0,.67c.08-.05,.14,0,.14,.08s-.06,.21-.14,.25c-.08,.05-.14,0-.14-.08s.07-.21,.14-.25Zm0,.67c.08-.05,.14,0,.14,.08s-.06,.2-.14,.25c-.08,.04-.14,0-.14-.08s.07-.21,.14-.25Zm0-6.01c.08-.05,.14,0,.14,.08s-.06,.2-.14,.25c-.08,.05-.14,0-.14-.08s.07-.21,.14-.25Zm-.14-.42c0-.09,.07-.21,.14-.25,.08-.04,.14,0,.14,.08s-.06,.21-.14,.25c-.08,.04-.14,0-.14-.08Zm.14-5.59c.08-.04,.14,0,.14,.08s-.06,.21-.14,.25c-.08,.05-.14,0-.14-.08s.07-.21,.14-.25Zm0,.67c.08-.04,.14,0,.14,.08s-.06,.21-.14,.25c-.08,.05-.14,0-.14-.08s.07-.21,.14-.25Zm0,.66c.08-.04,.14,0,.14,.09s-.06,.2-.14,.25c-.08,.04-.14,0-.14-.08s.07-.21,.14-.25Zm0,.67c.08-.05,.14,0,.14,.08s-.06,.21-.14,.25c-.08,.05-.14,0-.14-.08s.07-.21,.14-.25Zm0,.66c.08-.04,.14,0,.14,.08s-.06,.21-.14,.25c-.08,.04-.14,0-.14-.09s.07-.2,.14-.25Zm0,.67c.08-.04,.14-.01,.14,.08s-.06,.2-.14,.25c-.08,.05-.14,0-.14-.08s.07-.2,.14-.25Zm0,.67c.08-.05,.14,0,.14,.08s-.06,.21-.14,.25c-.08,.05-.14,0-.14-.08s.07-.2,.14-.25Zm0,.67c.08-.05,.14,0,.14,.08s-.06,.2-.14,.25c-.08,.04-.14,0-.14-.08s.07-.2,.14-.25Zm0,2c.08-.04,.14,0,.14,.09s-.06,.2-.14,.25c-.08,.05-.14,.01-.14-.08s.07-.21,.14-.25Zm0,.67c.08-.04,.14,0,.14,.08s-.06,.21-.14,.25c-.08,.05-.14,0-.14-.08s.07-.21,.14-.25Zm0,36.73c.08-.05,.14,0,.14,.08s-.06,.2-.14,.25c-.08,.04-.14,0-.14-.08s.07-.21,.14-.25Zm-.14,15.6c0-.09,.07-.21,.14-.25,.08-.05,.15,0,.15,.08s-.07,.2-.15,.25c-.08,.04-.14,0-.14-.08Zm.29,.5c0,.09-.07,.21-.15,.25-.08,.05-.14,0-.14-.09s.07-.2,.14-.25c.08-.05,.15,0,.15,.08Zm-.15,2.92c-.08,.05-.14,0-.14-.08s.07-.21,.14-.25c.08-.04,.15,0,.15,.08s-.07,.2-.15,.25Zm.15,.42c0,.09-.07,.2-.15,.25-.08,.04-.14,0-.14-.08s.07-.21,.14-.25c.08-.05,.15,0,.15,.08Zm-.15,1.59c-.08,.05-.14,0-.14-.08,0-.1,.07-.21,.14-.25,.08-.04,.15,0,.15,.09s-.07,.2-.15,.25Zm0-.67c-.08,.05-.14,0-.14-.08s.07-.21,.14-.25c.08-.05,.15,0,.15,.08s-.07,.21-.15,.25Zm0-2c-.08,.05-.14,.01-.14-.08s.07-.21,.14-.25c.08-.05,.15,0,.15,.09s-.07,.2-.15,.25Zm-.14-.75c0-.09,.07-.21,.14-.25,.08-.05,.15,0,.15,.08s-.07,.2-.15,.25c-.08,.05-.14,0-.14-.08Zm.14-.59c-.08,.05-.14,.01-.14-.08s.07-.2,.14-.25c.08-.05,.15,0,.15,.08s-.07,.2-.15,.25Z" style="fill: #41cff6;"/>
          <path d="M15.33,40.43l-.5-.29s-.02,.08-.04,.09c-.03,.02-.07,.01-.1-.01-.04-.02-.07-.06-.1-.11-.03-.05-.04-.1-.04-.14l-.51-.29v44.05s0,0,0,0v22.05s.51,.29,.51,.29h0s.01-.08,.04-.1c.05-.03,.15,.03,.21,.12,.03,.04,.04,.1,.04,.14h0l.5,.29V62.48h0v-22.05Zm-.65,42.51c-.08-.04-.14-.15-.14-.24,0-.08,.07-.12,.14-.07,.08,.04,.14,.15,.14,.23,0,.08-.07,.12-.14,.07Zm0-.67c-.08-.04-.13-.14-.14-.23,0-.08,.07-.12,.14-.07,.08,.04,.14,.14,.14,.23,0,.08-.07,.11-.14,.07Zm0-.67c-.08-.04-.14-.15-.14-.23,0-.08,.07-.12,.14-.07,.08,.04,.14,.15,.14,.24,0,.08-.07,.12-.14,.07Zm0-.67c-.08-.04-.13-.14-.14-.23,0-.08,.07-.12,.14-.07,.08,.04,.14,.14,.14,.23,0,.08-.07,.12-.14,.07Zm0-.67c-.08-.04-.14-.15-.14-.23,0-.08,.07-.12,.14-.07,.08,.05,.14,.15,.14,.24,0,.08-.07,.12-.14,.07Zm0-.67c-.08-.04-.13-.14-.14-.24,0-.08,.07-.12,.14-.07,.08,.04,.14,.14,.14,.23,0,.08-.07,.12-.14,.07Zm0-.67c-.08-.04-.14-.15-.14-.24,0-.08,.07-.12,.14-.07,.08,.04,.14,.15,.14,.24,0,.08-.07,.12-.14,.07Zm0-.67c-.08-.04-.14-.15-.14-.24,0-.08,.07-.12,.14-.07,.08,.04,.14,.15,.14,.24,0,.08-.07,.12-.14,.07Zm0-.67c-.08-.05-.14-.15-.14-.24,0-.08,.07-.12,.14-.07,.08,.04,.14,.15,.14,.23,0,.08-.07,.12-.14,.07Zm0-.67c-.08-.05-.14-.15-.14-.24,0-.08,.07-.11,.14-.07,.08,.04,.14,.14,.14,.23,0,.08-.07,.12-.14,.07Zm0-.67c-.08-.04-.14-.15-.14-.24,0-.08,.07-.12,.14-.07,.08,.04,.14,.14,.14,.24,0,.08-.07,.11-.14,.07Zm0-.67c-.08-.04-.14-.15-.14-.24,0-.08,.07-.12,.14-.07,.08,.04,.14,.15,.14,.24,0,.08-.07,.12-.14,.07Zm0-.67c-.08-.04-.13-.14-.14-.23,0-.08,.07-.12,.14-.07,.08,.04,.14,.14,.14,.23,0,.08-.07,.12-.14,.07Zm0-.67c-.08-.04-.13-.15-.14-.24,0-.08,.07-.12,.14-.07,.08,.04,.14,.14,.14,.23,0,.08-.07,.12-.14,.07Zm0-.67c-.07-.05-.13-.15-.14-.24,0-.08,.07-.12,.14-.07,.08,.04,.14,.14,.14,.23,0,.08-.07,.12-.14,.07Zm0-.67c-.08-.04-.13-.15-.14-.24,0-.08,.07-.12,.14-.07,.08,.04,.14,.15,.14,.24,0,.08-.07,.12-.14,.07Zm0-.67c-.08-.04-.13-.14-.14-.24,0-.08,.07-.12,.14-.07,.08,.04,.14,.15,.14,.24,0,.08-.07,.12-.14,.07Zm0-.67c-.08-.04-.13-.15-.14-.24,0-.08,.07-.12,.14-.07,.08,.05,.14,.15,.14,.24,0,.08-.07,.12-.14,.07Zm0-.67c-.07-.04-.13-.15-.14-.23,0-.08,.07-.12,.14-.07,.08,.05,.14,.14,.14,.23,0,.08-.07,.12-.14,.07Zm0-.67c-.08-.04-.14-.15-.14-.23,0-.08,.07-.12,.14-.07,.08,.04,.14,.15,.14,.24,0,.08-.07,.12-.14,.07Zm0-.67c-.08-.04-.13-.15-.14-.23,0-.09,.07-.12,.14-.07,.08,.05,.14,.15,.14,.23,0,.08-.07,.12-.14,.07Zm0-.97c.08,.04,.14,.15,.14,.23,0,.08-.07,.12-.14,.07-.08-.04-.14-.15-.14-.23,0-.08,.07-.12,.14-.07Zm0-.36c-.08-.04-.13-.15-.14-.24,0-.08,.07-.12,.14-.07,.08,.04,.14,.15,.14,.24,0,.08-.07,.12-.14,.07Zm0-.67c-.08-.04-.14-.14-.14-.23,0-.08,.07-.12,.14-.07,.08,.04,.14,.14,.14,.23,0,.08-.07,.12-.14,.07Zm0-.67c-.08-.04-.14-.15-.14-.23,0-.08,.07-.12,.14-.07,.08,.04,.14,.15,.14,.24,0,.08-.07,.11-.14,.07Zm0-.66c-.08-.04-.14-.15-.14-.24,0-.08,.07-.12,.14-.07,.08,.04,.14,.15,.14,.24,0,.08-.07,.12-.14,.07Zm0-.67c-.08-.04-.14-.14-.14-.23,0-.08,.07-.12,.14-.07,.08,.04,.14,.15,.14,.24,0,.08-.07,.12-.14,.07Zm0-.67c-.08-.04-.13-.14-.14-.24,0-.08,.07-.11,.14-.07,.08,.04,.14,.14,.14,.23,0,.08-.07,.12-.14,.07Zm0-.67c-.08-.04-.13-.15-.14-.24,0-.08,.07-.12,.14-.07,.08,.05,.14,.15,.14,.24,0,.08-.07,.12-.14,.07Zm0-.67c-.08-.04-.13-.15-.14-.24,0-.08,.07-.12,.14-.07,.08,.04,.14,.15,.14,.23,0,.08-.07,.12-.14,.07Zm0,19.71c.08,.04,.14,.15,.14,.24,0,.08-.07,.12-.14,.07-.08-.05-.14-.15-.14-.24,0-.08,.07-.12,.14-.07Zm0-20.38c-.08-.04-.13-.15-.14-.24,0-.08,.07-.12,.14-.07,.08,.05,.14,.14,.14,.23,0,.08-.07,.12-.14,.07Zm0,21.05c.08,.04,.15,.16,.15,.25s-.07,.13-.15,.08c-.08-.04-.14-.16-.14-.25s.07-.13,.14-.08Zm0-43.41c.08,.05,.15,.16,.15,.25s-.07,.13-.15,.08c-.08-.05-.14-.16-.14-.25s.07-.13,.14-.08Zm0,.67c.08,.04,.15,.16,.15,.25s-.07,.13-.15,.08c-.08-.04-.14-.16-.14-.25s.07-.13,.14-.08Zm0,.66c.08,.05,.15,.16,.15,.25s-.07,.13-.15,.08c-.08-.05-.14-.16-.14-.25s.07-.13,.14-.09Zm0,.67c.08,.04,.15,.15,.15,.25s-.07,.13-.15,.08c-.08-.04-.14-.16-.14-.25s.07-.13,.14-.08Zm0,.66c.08,.05,.15,.16,.15,.25s-.07,.13-.15,.09c-.08-.05-.14-.16-.14-.25s.07-.13,.14-.08Zm0,.67c.08,.05,.15,.15,.15,.25s-.07,.13-.15,.08c-.08-.05-.14-.16-.14-.25s.07-.13,.14-.08Zm0,.67c.08,.05,.15,.16,.15,.25s-.07,.13-.15,.08c-.08-.05-.14-.16-.14-.25s.07-.13,.14-.08Zm0,.67c.08,.04,.15,.16,.15,.25s-.07,.13-.15,.08c-.08-.05-.14-.16-.14-.25s.07-.13,.14-.08Zm0,.66c.08,.05,.15,.16,.15,.25,0,.09-.06,.13-.15,.08-.08-.05-.14-.16-.14-.25s.07-.13,.14-.08Zm0,.67c.08,.04,.15,.16,.15,.25s-.06,.13-.15,.08c-.08-.04-.14-.16-.14-.25s.07-.13,.14-.08Zm0,.66c.08,.05,.15,.16,.15,.25s-.07,.13-.15,.08c-.08-.04-.14-.15-.14-.25s.07-.13,.14-.09Zm0,.67c.08,.05,.15,.16,.15,.25,0,.09-.07,.13-.15,.08-.08-.05-.14-.16-.14-.25s.07-.13,.14-.08Zm0,.67c.08,.04,.15,.16,.15,.25s-.06,.13-.15,.08c-.08-.04-.14-.16-.14-.25s.07-.13,.14-.08Zm0,.67c.08,.05,.15,.16,.15,.25,0,.09-.06,.13-.15,.08-.08-.04-.14-.16-.14-.25,0-.09,.07-.13,.14-.08Zm0,.67c.08,.04,.15,.16,.15,.25s-.06,.13-.15,.08c-.08-.04-.14-.16-.14-.25s.07-.13,.14-.09Zm0,.67c.08,.04,.15,.16,.15,.25,0,.09-.06,.13-.15,.08-.08-.04-.14-.16-.14-.25s.07-.13,.14-.08Zm0,.67c.08,.05,.15,.15,.15,.25s-.06,.13-.15,.08c-.08-.05-.14-.16-.14-.25s.07-.13,.14-.08Zm0,.67c.08,.04,.15,.16,.15,.25s-.06,.13-.15,.08c-.08-.05-.14-.16-.14-.25s.07-.13,.14-.08Zm0,.67c.08,.04,.15,.16,.15,.25s-.06,.13-.15,.08c-.08-.05-.14-.16-.14-.25s.07-.13,.14-.08Zm0,.67c.08,.05,.15,.16,.15,.25s-.06,.13-.15,.08c-.08-.05-.14-.16-.14-.25s.07-.13,.14-.08Zm0,.67c.08,.05,.15,.16,.15,.25s-.06,.13-.15,.08c-.08-.04-.14-.16-.14-.25s.07-.13,.14-.08Zm0,.67c.08,.05,.15,.16,.15,.25s-.06,.13-.15,.08c-.08-.04-.14-.16-.14-.25s.07-.13,.14-.08Zm0,.67c.08,.05,.15,.16,.15,.25s-.06,.13-.15,.08c-.08-.04-.14-.16-.14-.25s.07-.13,.14-.08Zm0,.67c.08,.05,.15,.16,.15,.25s-.06,.13-.15,.08c-.08-.04-.14-.16-.14-.25s.07-.13,.14-.09Zm0,.67c.08,.05,.15,.16,.15,.25s-.07,.13-.15,.08c-.08-.05-.14-.16-.14-.25s.07-.13,.14-.09Zm0,.67c.08,.05,.15,.16,.15,.25s-.07,.13-.15,.08c-.08-.04-.14-.16-.14-.25s.07-.13,.14-.08Zm0,.67c.08,.04,.15,.16,.15,.25s-.06,.13-.15,.08c-.08-.04-.14-.16-.14-.25,0-.09,.07-.13,.14-.08Zm0,.67c.08,.05,.15,.15,.15,.25s-.06,.13-.15,.08c-.08-.04-.14-.16-.14-.25s.07-.13,.14-.08Zm.15,.92c0,.09-.06,.13-.15,.08-.08-.05-.14-.16-.14-.25s.07-.13,.14-.08c.08,.05,.15,.16,.15,.25Zm-.15,.42c.08,.04,.15,.15,.15,.25s-.07,.13-.15,.08c-.08-.05-.14-.16-.14-.25s.07-.13,.14-.08Zm0,.66c.08,.05,.15,.16,.15,.25s-.07,.13-.15,.08c-.08-.04-.14-.16-.14-.25s.07-.13,.14-.08Zm0,.67c.08,.04,.15,.16,.15,.25s-.06,.13-.15,.08c-.08-.05-.14-.16-.14-.25s.07-.13,.14-.08Zm0,.67c.08,.04,.15,.16,.15,.25s-.07,.13-.15,.08c-.08-.04-.14-.16-.14-.25s.07-.13,.14-.08Zm0,43.74c-.08-.05-.14-.16-.14-.25s.06-.13,.14-.09c.08,.05,.15,.16,.15,.25,0,.09-.07,.13-.15,.08Zm0-.67c-.08-.04-.14-.16-.14-.25s.07-.13,.14-.08c.08,.04,.15,.16,.15,.25s-.07,.13-.15,.08Zm0-.67c-.08-.05-.14-.16-.14-.25s.07-.13,.14-.08c.08,.04,.15,.16,.15,.25s-.07,.13-.15,.08Zm0-.67c-.08-.05-.14-.16-.14-.25s.07-.13,.14-.08c.08,.05,.15,.16,.15,.25s-.07,.13-.15,.08Zm0-.67c-.08-.04-.14-.16-.14-.25s.07-.13,.14-.09c.08,.05,.15,.16,.15,.25s-.07,.13-.15,.08Zm0-.67c-.08-.05-.14-.16-.14-.25s.07-.13,.14-.08c.08,.05,.15,.16,.15,.25s-.07,.13-.15,.08Zm0-.67c-.08-.04-.14-.15-.14-.25s.07-.13,.14-.08c.08,.05,.15,.16,.15,.25s-.07,.13-.15,.08Zm0-.66c-.08-.05-.14-.16-.14-.25s.07-.13,.14-.08c.08,.05,.15,.16,.15,.25s-.07,.13-.15,.09Zm0-.67c-.08-.05-.14-.16-.14-.25s.07-.13,.14-.08c.08,.04,.15,.16,.15,.25s-.07,.13-.15,.08Zm0-.67c-.08-.05-.14-.16-.14-.25s.07-.13,.14-.08c.08,.04,.15,.16,.15,.25,0,.09-.07,.13-.15,.08Zm0-.67c-.08-.05-.14-.16-.14-.25s.07-.13,.14-.08c.08,.04,.15,.16,.15,.25s-.07,.13-.15,.08Zm0-.67c-.08-.04-.14-.16-.14-.25s.07-.13,.14-.08c.08,.05,.15,.16,.15,.25,0,.09-.07,.13-.15,.08Zm-.14-.92c0-.09,.07-.13,.14-.08,.08,.04,.15,.16,.15,.25s-.07,.13-.15,.08c-.08-.04-.14-.16-.14-.25Zm.14-.42c-.08-.04-.14-.16-.14-.25s.07-.13,.14-.08c.08,.04,.15,.16,.15,.25s-.07,.12-.15,.08Zm0-.67c-.08-.05-.14-.16-.14-.25s.07-.13,.14-.08c.08,.05,.15,.16,.15,.25s-.07,.13-.15,.08Zm0-.67c-.08-.04-.14-.15-.14-.25s.07-.13,.14-.08c.08,.04,.15,.16,.15,.25s-.07,.13-.15,.08Zm0-.66c-.08-.05-.14-.16-.14-.25s.07-.13,.14-.08c.08,.05,.15,.16,.15,.25s-.07,.13-.15,.08Zm0-.67c-.08-.05-.14-.15-.14-.25s.07-.13,.14-.08c.08,.04,.15,.16,.15,.25s-.07,.13-.15,.08Zm0-.67c-.08-.05-.14-.16-.14-.25s.07-.13,.14-.08c.08,.05,.15,.16,.15,.25s-.07,.13-.15,.08Zm0-.67c-.08-.05-.14-.16-.14-.25s.07-.13,.14-.08c.08,.04,.15,.16,.15,.25s-.07,.13-.15,.08Zm0-.67c-.08-.05-.14-.16-.14-.25s.07-.13,.14-.08c.08,.04,.15,.16,.15,.25s-.07,.13-.15,.08Zm0-.67c-.08-.05-.14-.16-.14-.25s.07-.13,.14-.08c.08,.04,.15,.16,.15,.25s-.07,.13-.15,.08Zm0-.67c-.08-.05-.14-.16-.14-.25s.07-.13,.14-.08c.08,.05,.15,.16,.15,.25,0,.09-.07,.13-.15,.08Zm0-.67c-.08-.04-.14-.16-.14-.25s.07-.13,.14-.08c.08,.04,.15,.16,.15,.25,0,.09-.07,.13-.15,.08Zm0-.67c-.08-.04-.14-.16-.14-.25s.07-.13,.14-.08c.08,.05,.15,.16,.15,.25,0,.09-.07,.13-.15,.08Zm0-.67c-.08-.05-.14-.16-.14-.25s.07-.13,.14-.08c.08,.05,.15,.16,.15,.25s-.07,.13-.15,.08Zm0-.67c-.08-.05-.14-.16-.14-.25s.07-.13,.14-.08c.08,.04,.15,.15,.15,.25s-.07,.13-.15,.08Zm0-.67c-.08-.04-.14-.16-.14-.25s.07-.13,.14-.08c.08,.05,.15,.16,.15,.25s-.07,.13-.15,.08Zm0-.67c-.08-.04-.14-.16-.14-.25s.07-.13,.14-.08c.08,.04,.15,.16,.15,.25,0,.1-.07,.13-.15,.08Zm0-.66c-.08-.05-.14-.16-.14-.25s.07-.13,.14-.08c.08,.05,.15,.16,.15,.25s-.07,.13-.15,.08Zm0-.67c-.08-.05-.14-.16-.14-.25s.07-.13,.14-.08c.08,.04,.15,.16,.15,.25,0,.1-.07,.13-.15,.08Zm0-.67c-.08-.05-.14-.16-.14-.25s.07-.13,.14-.08c.08,.05,.15,.16,.15,.25s-.07,.13-.15,.08Z" style="fill: #01b2e8;"/>
          <path d="M69.55,53.17V9.12l-.51,.29s-.01,.1-.04,.14c-.03,.05-.06,.09-.1,.11-.04,.02-.08,.03-.1,0-.03-.01-.04-.05-.04-.09l-.51,.29V31.92h0v44.05l.51-.29h0s.01-.1,.04-.14c.05-.09,.15-.15,.21-.12,.03,.02,.04,.05,.04,.1h0l.51-.29v-22.05h0Zm-.65,15.25c-.08,.05-.14,0-.14-.08s.06-.2,.14-.25c.08-.04,.14,0,.14,.09s-.07,.21-.14,.25Zm.14,.42c0,.09-.07,.21-.14,.25s-.14,0-.14-.08c0-.1,.06-.21,.14-.25s.14,0,.14,.08Zm-.14-1.08c-.08,.05-.14,.01-.14-.08s.06-.2,.14-.25c.08-.05,.14-.01,.14,.08s-.07,.21-.14,.25Zm0-.67c-.08,.05-.14,0-.14-.08s.06-.2,.14-.25c.08-.04,.14,0,.14,.09s-.07,.2-.14,.25Zm0-.67c-.08,.04-.14,0-.14-.08s.06-.21,.14-.25c.08-.05,.14-.01,.14,.08s-.07,.21-.14,.25Zm0-.67c-.08,.04-.14,0-.14-.09s.06-.2,.14-.25c.08-.04,.14,0,.14,.08s-.07,.2-.14,.25Zm0-.67c-.08,.05-.14,.01-.14-.08s.06-.21,.14-.25c.08-.05,.14,0,.14,.08s-.07,.21-.14,.25Zm0-.66c-.08,.04-.14,0-.14-.09s.06-.2,.14-.25c.08-.04,.14,0,.14,.08s-.07,.21-.14,.25Zm0-.67c-.08,.04-.14,0-.14-.08s.06-.21,.14-.25c.08-.05,.14,0,.14,.08s-.07,.2-.14,.25Zm0-.67c-.08,.05-.14,0-.14-.08s.06-.21,.14-.25c.08-.05,.14,0,.14,.08s-.07,.21-.14,.25Zm0-.67c-.08,.04-.14,0-.14-.08s.06-.2,.14-.25c.08-.05,.14,0,.14,.08s-.07,.21-.14,.25Zm-.14-.75c0-.09,.06-.21,.14-.25,.08-.04,.14,0,.14,.08s-.07,.21-.14,.25c-.08,.05-.14,0-.14-.08Zm.14-.58c-.08,.05-.14,0-.14-.08s.06-.2,.14-.25c.08-.05,.14,0,.14,.08s-.07,.21-.14,.25Zm-.14-.75c0-.09,.06-.2,.14-.25,.08-.05,.14,0,.14,.08s-.07,.21-.14,.25c-.08,.04-.14,0-.14-.08Zm.14-.59c-.08,.05-.14,0-.14-.08s.06-.21,.14-.25c.08-.04,.14,0,.14,.09s-.07,.2-.14,.25Zm0-4.34c.08-.05,.14,0,.14,.08s-.07,.21-.14,.25c-.08,.04-.14,0-.14-.09s.06-.21,.14-.25Zm-.14-.42c0-.09,.06-.21,.14-.25,.08-.04,.14,0,.14,.08s-.07,.21-.14,.25c-.08,.05-.14,0-.14-.08Zm.14,1.08c.08-.04,.14,0,.14,.09s-.07,.2-.14,.25c-.08,.04-.14,0-.14-.08,0-.09,.06-.21,.14-.25Zm0,.67c.08-.04,.14,0,.14,.08s-.07,.21-.14,.25c-.08,.04-.14,0-.14-.09s.06-.2,.14-.25Zm0,.67c.08-.04,.14,0,.14,.08s-.07,.21-.14,.25c-.08,.04-.14,0-.14-.08s.06-.21,.14-.25Zm0,.67c.08-.04,.14,0,.14,.08s-.07,.21-.14,.25c-.08,.05-.14,0-.14-.08s.06-.2,.14-.25Zm0,.67c.08-.04,.14,0,.14,.08s-.07,.21-.14,.25c-.08,.04-.14,0-.14-.08s.06-.21,.14-.25Zm0-34.73c.08-.04,.14,0,.14,.08,0,.1-.07,.2-.14,.25-.08,.05-.14,0-.14-.08s.06-.2,.14-.25Zm-.14-.41c0-.09,.06-.21,.14-.25,.08-.05,.14,0,.14,.08s-.07,.21-.14,.25c-.08,.05-.14,.01-.14-.08Zm.14,1.08c.08-.05,.14,0,.14,.08s-.07,.2-.14,.25c-.08,.04-.14,0-.14-.08s.06-.21,.14-.25Zm0,.67c.08-.04,.14,0,.14,.08s-.07,.2-.14,.25c-.08,.04-.14,0-.14-.09s.06-.2,.14-.25Zm0,.67c.08-.05,.14,0,.14,.08s-.07,.2-.14,.25c-.08,.04-.14,0-.14-.08s.06-.21,.14-.25Zm0,.67c.08-.05,.14,0,.14,.08s-.07,.2-.14,.25c-.08,.05-.14,0-.14-.08s.06-.21,.14-.25Zm0,.67c.08-.05,.14,0,.14,.08s-.07,.2-.14,.25c-.08,.05-.14,.01-.14-.08,0-.09,.06-.21,.14-.25Zm0,.67c.08-.05,.14-.01,.14,.08s-.07,.2-.14,.25c-.08,.05-.14,0-.14-.08s.06-.21,.14-.25Zm0,.67c.08-.05,.14,0,.14,.08s-.07,.21-.14,.25c-.08,.04-.14,0-.14-.08s.06-.21,.14-.25Zm0,.67c.08-.04,.14,0,.14,.08s-.07,.2-.14,.25c-.08,.05-.14,0-.14-.08,0-.09,.06-.2,.14-.25Zm0,.66c.08-.04,.14,0,.14,.08,0,.09-.07,.21-.14,.25-.08,.05-.14,0-.14-.09,0-.09,.06-.21,.14-.25Zm0,.67c.08-.05,.14,0,.14,.08s-.07,.21-.14,.25c-.08,.04-.14,0-.14-.08s.06-.21,.14-.25Zm0,7.68c-.08,.04-.14,0-.14-.07,0-.09,.07-.19,.14-.23,.08-.04,.14,0,.14,.07,0,.09-.07,.19-.14,.24Zm0-.67c-.08,.05-.14,.01-.14-.07,0-.09,.07-.19,.14-.23,.08-.04,.14,0,.14,.07,0,.09-.07,.19-.14,.23Zm0,10.68c-.08,.04-.14,0-.14-.07,0-.09,.07-.19,.14-.24,.08-.04,.14,0,.14,.07,0,.09-.07,.19-.14,.24Zm0-.67c-.08,.04-.14,0-.14-.07,0-.09,.07-.19,.14-.24,.08-.04,.14,0,.14,.07,0,.09-.07,.19-.14,.24Zm0-.67c-.08,.04-.14,0-.14-.07,0-.09,.07-.19,.14-.23,.08-.04,.14,0,.14,.07,0,.09-.07,.19-.14,.24Zm0-.67c-.08,.04-.14,0-.14-.07,0-.09,.07-.19,.14-.24,.08-.04,.14,0,.14,.07,0,.09-.07,.19-.14,.24Zm0-.67c-.08,.04-.14,0-.14-.07,0-.09,.07-.19,.14-.24,.08-.04,.14-.01,.14,.07,0,.09-.07,.19-.14,.24Zm0-.67c-.08,.05-.14,.01-.14-.07,0-.09,.07-.19,.14-.24,.08-.04,.14,0,.14,.07,0,.09-.07,.19-.14,.23Zm0-.67c-.08,.05-.14,.01-.14-.07,0-.09,.07-.19,.14-.24,.08-.04,.14-.01,.14,.07,0,.09-.07,.19-.14,.23Zm0-.66c-.08,.04-.14,0-.14-.07,0-.09,.07-.19,.14-.24,.08-.04,.14,0,.14,.07,0,.09-.07,.19-.14,.24Zm0-.67c-.08,.04-.14,.01-.14-.07,0-.09,.07-.19,.14-.23,.08-.04,.14-.01,.14,.07,0,.09-.07,.19-.14,.23Zm0-.67c-.08,.04-.14,0-.14-.07,0-.09,.07-.19,.14-.23,.08-.04,.14-.01,.14,.07,0,.09-.07,.19-.14,.24Zm0-.67c-.08,.04-.14,0-.14-.07,0-.09,.07-.19,.14-.24,.08-.04,.14,0,.14,.07,0,.09-.07,.19-.14,.24Zm0-.67c-.08,.04-.14,0-.14-.07,0-.09,.07-.19,.14-.23,.08-.05,.14-.01,.14,.07,0,.09-.07,.19-.14,.24Zm0-.67c-.08,.04-.14,0-.14-.07,0-.09,.07-.19,.14-.23,.08-.04,.14,0,.14,.07,0,.09-.07,.19-.14,.23Zm0,9.04c.08-.04,.14-.01,.14,.07,0,.09-.07,.19-.14,.23-.08,.04-.14,0-.14-.07,0-.09,.07-.19,.14-.23Zm0,1.33c.08-.04,.14,0,.14,.07,0,.09-.07,.19-.14,.23-.08,.05-.14,.01-.14-.07,0-.09,.07-.19,.14-.23Zm0,.97c-.08,.05-.14,.01-.14-.07,0-.09,.07-.19,.14-.23,.08-.04,.14-.01,.14,.07,0,.09-.07,.19-.14,.23Zm0-20.02c-.08,.04-.14,0-.14-.08,0-.09,.06-.2,.14-.25,.08-.04,.14,0,.14,.08,0,.1-.07,.21-.14,.25Zm0,.36c.08-.04,.14,0,.14,.07,0,.09-.07,.19-.14,.23-.08,.04-.14,.01-.14-.07,0-.09,.07-.19,.14-.24Zm0,.67c.07-.04,.13,0,.14,.07,0,.09-.07,.19-.14,.24-.08,.04-.14,0-.14-.07,0-.09,.07-.19,.14-.23Zm0,.67c.08-.04,.14,0,.14,.07,0,.09-.07,.19-.14,.24-.08,.04-.14,0-.14-.07,0-.09,.07-.19,.14-.24Zm0,.67c.07-.04,.13-.01,.14,.07,0,.09-.07,.19-.14,.23-.08,.04-.14,0-.14-.07,0-.09,.07-.19,.14-.23Zm0,.67c.08-.04,.14-.01,.14,.07,0,.09-.07,.19-.14,.23-.08,.04-.14,.01-.14-.07,0-.09,.07-.19,.14-.23Zm0,.67c.08-.04,.14-.01,.14,.07,0,.09-.07,.19-.14,.23-.08,.04-.14,.01-.14-.07,0-.09,.07-.19,.14-.24Zm0,.67c.08-.04,.14,0,.14,.07,0,.09-.07,.19-.14,.23-.08,.05-.14,.01-.14-.07,0-.09,.07-.19,.14-.24Zm0,.67c.08-.04,.14-.01,.14,.07,0,.09-.07,.2-.14,.24-.08,.04-.14,0-.14-.07,0-.09,.07-.19,.14-.23Zm0,2c.08-.04,.14,0,.14,.07,0,.09-.07,.19-.14,.24-.08,.04-.14,0-.14-.07,0-.09,.07-.19,.14-.24Zm0,.67c.08-.04,.14,0,.14,.07,0,.09-.07,.19-.14,.24-.08,.04-.14,0-.14-.07,0-.09,.07-.19,.14-.24Zm0,14.02c.08-.05,.14,0,.14,.08s-.07,.21-.14,.25c-.08,.05-.14,0-.14-.08,0-.09,.06-.2,.14-.25Zm0-.36c-.08,.04-.14,0-.14-.07,0-.09,.07-.19,.14-.23,.08-.04,.14-.01,.14,.07,0,.09-.07,.19-.14,.24Zm0-.67c-.08,.04-.14,.01-.14-.07,0-.09,.07-.19,.14-.24,.08-.04,.14,0,.14,.08,0,.09-.07,.19-.14,.23Zm0-2c-.08,.04-.14,0-.14-.07,0-.09,.07-.19,.14-.23,.08-.04,.14-.01,.14,.07,0,.09-.07,.19-.14,.24Zm0-1.34c-.08,.04-.14,.01-.14-.07,0-.09,.07-.19,.14-.24,.08-.04,.14,0,.14,.07,0,.09-.07,.19-.14,.24Zm0-26.03c-.08,.05-.14,0-.14-.08s.06-.2,.14-.25c.08-.04,.14,0,.14,.08,0,.1-.07,.21-.14,.25Zm0-4.34c.08-.05,.14,0,.14,.08s-.07,.2-.14,.25c-.08,.05-.14,0-.14-.08s.06-.2,.14-.25Zm-.14-.42c0-.09,.06-.2,.14-.25,.08-.04,.14-.01,.14,.08s-.07,.2-.14,.25c-.08,.04-.14,0-.14-.09Zm.14,1.08c.08-.05,.14,0,.14,.09,0,.09-.07,.2-.14,.25-.08,.05-.14,0-.14-.08s.06-.21,.14-.25Zm0,.67c.08-.04,.14,0,.14,.09s-.07,.2-.14,.25c-.08,.04-.14,0-.14-.08s.06-.21,.14-.25Zm0,.67c.08-.04,.14-.01,.14,.08s-.07,.21-.14,.25c-.08,.05-.14,0-.14-.08s.06-.2,.14-.25Zm0,.66c.08-.04,.14,0,.14,.09s-.07,.21-.14,.25c-.08,.05-.14,0-.14-.09s.06-.21,.14-.25Zm0,.67c.08-.04,.14,0,.14,.08s-.07,.2-.14,.25c-.08,.04-.14,0-.14-.08s.06-.21,.14-.25Zm0-6.01c.08-.05,.14,0,.14,.08,0,.1-.07,.21-.14,.25-.08,.04-.14,0-.14-.08s.06-.21,.14-.25Zm-.14-.42c0-.09,.06-.2,.14-.25,.08-.04,.14,0,.14,.08,0,.1-.07,.21-.14,.25-.08,.05-.14,0-.14-.08Zm.14-5.59c.08-.05,.14,0,.14,.08s-.06,.21-.14,.25c-.08,.05-.14,0-.14-.08s.06-.2,.14-.25Zm0,.67c.08-.05,.14-.01,.14,.08s-.07,.2-.14,.25c-.08,.05-.14,0-.14-.08s.06-.2,.14-.25Zm0,.67c.08-.05,.14,0,.14,.08,0,.09-.07,.21-.14,.25-.08,.05-.14,0-.14-.08s.06-.2,.14-.25Zm0,.67c.08-.04,.14-.01,.14,.08,0,.09-.07,.2-.14,.25-.08,.05-.14,0-.14-.08s.06-.21,.14-.25Zm0,.67c.08-.05,.14,0,.14,.08s-.07,.21-.14,.25c-.08,.05-.14,0-.14-.08s.06-.2,.14-.25Zm0,.67c.08-.04,.14-.01,.14,.08s-.07,.21-.14,.25c-.08,.04-.14,0-.14-.08s.06-.2,.14-.25Zm0,.67c.08-.04,.14,0,.14,.08s-.07,.21-.14,.25c-.08,.05-.14,0-.14-.08s.06-.21,.14-.25Zm0,.67c.08-.05,.14,0,.14,.08s-.07,.21-.14,.25c-.08,.04-.14,.01-.14-.08,0-.09,.06-.2,.14-.25Zm0,2c.08-.04,.14,0,.14,.08,0,.1-.07,.21-.14,.25-.08,.05-.14,0-.14-.08s.06-.2,.14-.25Zm0,.67c.08-.05,.14,0,.14,.08s-.07,.2-.14,.25c-.08,.04-.14,0-.14-.08s.06-.21,.14-.25Zm0,36.73c.08-.04,.14,0,.14,.08s-.07,.21-.14,.25c-.08,.04-.14,0-.14-.08s.06-.21,.14-.25Zm-.14,15.6c0-.09,.06-.2,.14-.25,.08-.04,.14,0,.14,.08s-.07,.21-.14,.25-.14,0-.14-.08Zm.29,.5c0,.09-.07,.21-.14,.25-.08,.05-.14,0-.14-.08s.06-.21,.14-.25,.14,0,.14,.08Zm-.14,2.92c-.08,.04-.14,0-.14-.09s.06-.2,.14-.25c.08-.05,.14,0,.14,.08s-.07,.2-.14,.25Zm.14,.41c0,.09-.07,.21-.14,.25-.08,.04-.14,0-.14-.09,0-.09,.06-.2,.14-.25,.08-.05,.14,0,.14,.08Zm-.14,1.59c-.08,.05-.14,0-.14-.08s.06-.2,.14-.25c.08-.05,.14-.01,.14,.09,0,.09-.07,.2-.14,.25Zm0-.67c-.08,.05-.14,0-.14-.08s.06-.2,.14-.25c.08-.05,.14,0,.14,.08s-.07,.2-.14,.25Zm0-2c-.08,.05-.14,0-.14-.08s.06-.21,.14-.25c.08-.05,.14,0,.14,.08s-.07,.21-.14,.25Zm-.14-.75c0-.09,.06-.2,.14-.25,.08-.05,.14,0,.14,.08s-.07,.21-.14,.25c-.08,.04-.14,0-.14-.09Zm.14-.58c-.08,.05-.14,0-.14-.08s.06-.21,.14-.25c.08-.05,.14,0,.14,.08s-.07,.2-.14,.25Z" style="fill: #41cff6;"/>
        </g>
      </g>
    </g>
  </g>
</svg>