<svg width="11" height="10" viewBox="0 0 11 10" fill="none" xmlns="http://www.w3.org/2000/svg">
<path d="M10.2364 3.75044C10.1692 3.54073 9.9849 3.39179 9.76682 3.37196L6.80459 3.10054L5.63325 0.333996C5.54688 0.131244 5.35018 0 5.13163 0C4.91309 0 4.71639 0.131244 4.63002 0.33447L3.45867 3.10054L0.495975 3.37196C0.27829 3.39226 0.094433 3.54073 0.0268569 3.75044C-0.0407192 3.96014 0.0216888 4.19016 0.186362 4.33515L2.42546 6.31668L1.7652 9.25153C1.71689 9.46732 1.79989 9.69038 1.97732 9.8198C2.0727 9.88934 2.18428 9.92474 2.2968 9.92474C2.39382 9.92474 2.49006 9.89834 2.57643 9.8462L5.13163 8.30517L7.6859 9.8462C7.87281 9.95966 8.10843 9.94931 8.28547 9.8198C8.46299 9.68998 8.54591 9.46685 8.4976 9.25153L7.83734 6.31668L10.0764 4.33554C10.2411 4.19016 10.304 3.96054 10.2364 3.75044Z" fill="#FFC107"/>
</svg>
