<svg width="43" height="40" viewBox="0 0 43 40" fill="none" xmlns="http://www.w3.org/2000/svg">
<path d="M25.1665 0H20.0833V3.74995C20.0833 4.44087 19.5242 4.99996 18.8332 4.99996C18.1423 4.99996 17.5832 4.44087 17.5832 3.74995V0H12.4999C11.809 0 11.2499 0.559088 11.2499 1.25001V12.4999H26.4166V1.24993C26.4166 0.559088 25.8575 0 25.1665 0ZM42.5347 8.1909C42.2259 7.57323 41.4739 7.32664 40.8574 7.63181L37.2393 9.44091C35.9612 10.0806 35.1665 11.3659 35.1665 12.7954V30H2.50002C1.11926 30 0 31.1193 0 32.5C0 33.8806 1.11926 35 2.50002 35H2.73027C2.59019 35.393 2.50002 35.8097 2.50002 36.2501C2.50002 38.3179 4.1822 40 6.25005 40C8.3179 40 10 38.3178 10 36.2501C10 35.8097 9.90983 35.393 9.76975 35H27.8968C27.7567 35.393 27.6666 35.8097 27.6666 36.2501C27.6666 38.3179 29.3487 40 31.4166 40C33.4844 40 35.1665 38.3178 35.1665 36.2501C35.1665 35.8097 35.0764 35.393 34.9363 35H35.1665C36.5473 35 37.6666 33.8806 37.6666 32.5V12.7955C37.6666 12.3182 37.9315 11.8898 38.3575 11.6773L41.9756 9.86825C42.5933 9.55925 42.8435 8.80849 42.5347 8.1909ZM6.24997 37.4998C5.5603 37.4998 4.99996 36.9395 4.99996 36.2498C4.99996 35.5601 5.5603 34.9998 6.24997 34.9998C6.93964 34.9998 7.49998 35.56 7.49998 36.2498C7.49998 36.9395 6.93964 37.4998 6.24997 37.4998ZM31.4166 37.4998C30.7269 37.4998 30.1666 36.9395 30.1666 36.2498C30.1666 35.5601 30.7269 34.9998 31.4166 34.9998C32.1063 34.9998 32.6666 35.56 32.6666 36.2498C32.6665 36.9395 32.1062 37.4998 31.4166 37.4998Z" fill="#46B3DF"/>
<path d="M12.5 15.0001V18.7501C12.5 19.441 11.9409 20.0001 11.25 20.0001C10.559 20.0001 9.99996 19.441 9.99996 18.7501V15.0001H6.25001C5.55909 15.0001 5 15.5592 5 16.2501V27.5H17.5833V15.0001H12.5ZM31.4166 15.0001H27.6666V18.75C27.6666 19.441 27.1075 20 26.4166 20C25.7257 20 25.1666 19.441 25.1666 18.75V15H20.0833V27.4999H32.6666V16.25C32.6666 15.5592 32.1075 15.0001 31.4166 15.0001Z" fill="#46B3DF"/>
</svg>
