<svg width="28" height="27" viewBox="0 0 28 27" fill="none" xmlns="http://www.w3.org/2000/svg">
<path d="M27.2679 1.20461C27.2674 1.18285 27.2663 1.1611 27.2647 1.1394C27.2634 1.12008 27.2617 1.1008 27.2596 1.08155C27.2572 1.062 27.254 1.04261 27.2507 1.02322C27.2471 1.0026 27.2438 0.981982 27.2393 0.961691C27.2353 0.943691 27.2302 0.926018 27.2255 0.908182C27.2199 0.887482 27.2144 0.8667 27.2078 0.846491C27.2019 0.828654 27.195 0.811145 27.1884 0.793555C27.1809 0.774245 27.1739 0.754855 27.1656 0.736036C27.1575 0.717627 27.1483 0.699709 27.1392 0.681627C27.1306 0.664364 27.1222 0.646936 27.1127 0.630164C27.1025 0.611918 27.0911 0.594327 27.08 0.576491C27.0698 0.560454 27.0599 0.544336 27.0491 0.528791C27.0374 0.5121 27.0248 0.496064 27.0122 0.479864C26.9999 0.463827 26.9875 0.447873 26.9744 0.432573C26.962 0.418173 26.9489 0.404345 26.9358 0.390436C26.9206 0.374182 26.9051 0.358304 26.8891 0.342818C26.8836 0.337664 26.879 0.331936 26.8734 0.326864C26.8654 0.319418 26.8567 0.3132 26.8484 0.306082C26.8316 0.291313 26.8143 0.276963 26.7967 0.263045C26.5884 0.0995866 26.3324 0.00784251 26.0671 0.00163636C26.056 0.00139091 26.0454 0 26.0345 0H21.096C20.4141 0 19.8614 0.549491 19.8614 1.22727C19.8614 1.90505 20.4141 2.45455 21.096 2.45455H23.2088L15.7118 10.5031L12.5036 7.31397C12.2664 7.07809 11.9436 6.95005 11.6072 6.95471C11.4411 6.95786 11.2774 6.99428 11.1259 7.06177C10.9743 7.12927 10.838 7.22645 10.7251 7.34752L0.436572 18.3822C-0.026905 18.8793 0.00272597 19.6558 0.50283 20.1166C0.730777 20.3272 1.03057 20.4441 1.3418 20.4437C1.6735 20.4437 2.00429 20.3116 2.2476 20.0508L11.6644 9.95105L14.873 13.1406C15.1104 13.3765 15.4366 13.5074 15.7697 13.4998C15.9358 13.4967 16.0996 13.4602 16.2512 13.3926C16.4028 13.3251 16.5391 13.2278 16.6519 13.1066L24.7999 4.35911V6.13636C24.7999 6.81415 25.3526 7.36364 26.0345 7.36364C26.7163 7.36364 27.2691 6.81415 27.2691 6.13636V1.22727C27.2691 1.21958 27.2681 1.21222 27.2679 1.20461ZM26.0345 24.5455H1.34204C0.660203 24.5455 0.107422 25.0949 0.107422 25.7727C0.107422 26.4505 0.660203 27 1.34204 27H26.0345C26.7163 27 27.2691 26.4505 27.2691 25.7727C27.2691 25.0949 26.7163 24.5455 26.0345 24.5455Z" fill="#F9F9F9"/>
</svg>
