<svg width="14" height="17" viewBox="0 0 14 17" fill="none" xmlns="http://www.w3.org/2000/svg">
<path d="M13.1432 13.6777L12.4025 4.34422C12.3563 3.74291 11.8478 3.27185 11.2447 3.27185H9.78164V3.20609C9.78164 1.43824 8.3434 0 6.57555 0C4.80769 0 3.36946 1.43824 3.36946 3.20609V3.27185H1.90644C1.30334 3.27185 0.794774 3.74288 0.748774 4.34296L0.00783706 13.679C-0.0495019 14.4265 0.209819 15.1707 0.719262 15.7207C1.2287 16.2707 1.95088 16.5862 2.7006 16.5862H10.4505C11.2001 16.5862 11.9224 16.2707 12.4318 15.7207C12.9413 15.1707 13.2006 14.4265 13.1432 13.6777ZM4.34098 3.20609C4.34098 1.97395 5.34344 0.971524 6.57555 0.971524C7.80766 0.971524 8.81012 1.97398 8.81012 3.20609V3.27185H4.34098V3.20609ZM11.7191 15.0606C11.388 15.4179 10.9376 15.6147 10.4505 15.6147H2.70063C2.21354 15.6147 1.76306 15.4179 1.43205 15.0606C1.10107 14.7032 0.939288 14.2389 0.976477 13.7546L1.71735 4.4185C1.72486 4.32028 1.80793 4.24338 1.90644 4.24338H3.36946V5.43988C3.36946 5.70815 3.58696 5.92565 3.85522 5.92565C4.12348 5.92565 4.34098 5.70815 4.34098 5.43988V4.24338H8.81012V5.43988C8.81012 5.70815 9.02762 5.92565 9.29588 5.92565C9.56414 5.92565 9.78164 5.70815 9.78164 5.43988V4.24338H11.2447C11.3432 4.24338 11.4262 4.32032 11.4339 4.4198L12.1746 13.7533C12.2118 14.2389 12.05 14.7032 11.7191 15.0606Z" fill="black"/>
<path d="M8.76397 8.23701C8.57433 8.0473 8.26674 8.0473 8.07707 8.23701L5.90804 10.406L5.074 9.572C4.88432 9.38229 4.57673 9.38229 4.38703 9.572C4.19732 9.7617 4.19732 10.0693 4.38703 10.259L5.56455 11.4365C5.6594 11.5313 5.78374 11.5788 5.908 11.5788C6.03227 11.5788 6.15663 11.5314 6.25145 11.4365L8.76394 8.924C8.95368 8.73427 8.95368 8.42671 8.76397 8.23701Z" fill="black"/>
</svg>
